<svg version="1.1" xmlns="http://www.w3.org/2000/svg" xmlns:xlink="http://www.w3.org/1999/xlink" width="71.0484" height="50.06995" viewBox="0,0,71.0484,50.06995"><g transform="translate(-507.65136,-227.25)"><g data-paper-data="{&quot;isPaintingLayer&quot;:true}" fill-rule="nonzero" stroke-linecap="butt" stroke-linejoin="miter" stroke-miterlimit="10" stroke-dasharray="" stroke-dashoffset="0" style="mix-blend-mode: normal"><path d="M571.48352,243.5c0,8.28427 -12.98374,15 -29,15c-16.01626,0 -29,-6.71573 -29,-15c0,-8.28427 12.98374,-15 29,-15c16.01626,0 29,6.71573 29,15z" fill="#252525" stroke="#848484" stroke-width="2.5"/><path d="M569.64987,245.94769c0.55231,-0.83364 1.38595,-0.28132 1.38595,-0.28132l0.59958,0.39724c0.61844,0.42202 1.23689,0.84404 1.85533,1.26607c1.60149,2.92255 4.26221,5.87938 4.97131,9.23589c0.5229,2.47515 0.02477,5.68533 -0.00742,8.21824c-0.04154,3.26762 0.10274,6.00416 -3.12655,7.84489c-2.06982,1.17982 -4.08364,0.8713 -6.35089,0.8713c-3.33333,0 -6.66667,0 -10,0c-13.77284,0 -28.50104,1.44666 -42.1071,-0.72306c-2.47077,-0.3956 -6.54155,0.27193 -8.27761,-1.94761c-2.36791,-3.02735 0.38442,-3.55974 1.16922,-6.17429c1.53394,-5.11033 2.41857,-10.02444 2.85731,-15.35164c0.17143,-2.08143 0.87916,-3.71812 0.86452,-5.8034c0,0 0,-1 1,-1c1,0 1,1 1,1c-0.01292,2.1613 -0.70466,3.83469 -0.87095,5.96356c-0.25712,3.29179 -0.33431,6.83025 -1.14333,10.04435c-0.32472,1.29006 -1.16692,2.41287 -1.48344,3.70497c-0.33833,1.38117 -0.52341,2.86881 -1.29063,4.06609c-0.29006,0.45265 -0.95676,0.66908 -1.08823,1.19037c-0.09716,0.38526 0.24107,0.78822 0.51719,1.07392c1.43817,1.48813 5.14749,0.95468 7.0609,1.25864c13.49712,2.15235 28.1287,0.6981 41.79215,0.6981c3.33333,0 6.66667,0 10,0c1.86438,0 3.66985,0.34292 5.36431,-0.61103c2.49964,-1.40725 2.08169,-3.63527 2.11329,-6.13053c0.03021,-2.38544 0.53657,-5.45253 0.05004,-7.78143c-0.62846,-3.00824 -3.1321,-5.64569 -4.49483,-8.30293c-0.49307,-0.3144 -0.98614,-0.62879 -1.47922,-0.94319l-0.59958,-0.39724c0,0 -0.83364,-0.55231 -0.28132,-1.38595z" fill="#848484" stroke="none" stroke-width="0.5"/><text transform="translate(521.48352,270.5) scale(0.41333,0.41333)" font-size="40" xml:space="preserve" fill="#ffffff" fill-rule="nonzero" stroke="none" stroke-width="1" stroke-linecap="butt" stroke-linejoin="miter" stroke-miterlimit="10" stroke-dasharray="" stroke-dashoffset="0" font-family="Handwriting" font-weight="normal" text-anchor="start" style="mix-blend-mode: normal"><tspan x="0" dy="0">Coffee</tspan></text></g></g></svg>