<svg version="1.1" xmlns="http://www.w3.org/2000/svg" xmlns:xlink="http://www.w3.org/1999/xlink" width="850.2593" height="439.71381" viewBox="0,0,850.2593,439.71381"><g transform="translate(18.51642,71.71381)"><g data-paper-data="{&quot;isPaintingLayer&quot;:true}" fill-rule="nonzero" stroke="none" stroke-linecap="butt" stroke-linejoin="miter" stroke-miterlimit="10" stroke-dasharray="" stroke-dashoffset="0" style="mix-blend-mode: normal"><path d="M0,368v-372h799.03296v372z" fill="#000000" stroke-width="NaN"/><path d="M-15.86376,170.80719c1.5662,-4.39845 3.68385,-7.70853 6.16004,-10.1745c1.34515,-1.48235 2.80131,-2.60978 4.33712,-3.31941c11.7211,-6.75137 27.85185,-1.12995 34.38692,-0.86874c6.03859,0.24137 14.21967,6.1027 19.73248,6.80896c5.86067,0.75083 11.74657,-0.25073 17.61785,0c5.22523,0.22314 10.45792,4.17078 15.77075,4.53931c20.00873,1.3879 40.01248,2.00254 60.06176,2.26965c3.93555,0.05243 8.39384,2.23668 12.16504,2.26965c76.59026,0.66969 153.18254,0.5883 229.77297,0c2.62513,-0.02016 5.53501,-2.14749 8.19607,-2.26965c4.55107,-0.20892 9.10891,0.40028 13.65679,0c9.82332,-0.8646 19.54427,-6.66564 29.35269,-6.80896c15.28483,-0.22333 30.57244,0.49299 45.8557,0c11.54352,-0.37236 23.03496,-8.42633 34.50412,-9.07861c5.27974,-0.30027 10.56711,-0.37886 15.8456,0c5.15838,0.37024 10.03349,5.48173 15.04398,7.62897c7.60059,3.25722 25.4501,8.17201 33.451,8.25861c37.76004,0.4087 75.52238,0.60645 113.28176,0c2.93483,-0.04714 6.15959,-2.15916 9.12935,-2.26965c19.37144,-0.72071 37.10102,-3.68074 56.45411,-8.73644c10.74573,-2.80716 22.02423,-1.56641 32.88562,-2.61182c5.7919,-0.55747 18.28689,-7.56676 23.66035,-7.02108c10.1284,1.02856 16.80453,19.09907 16.25277,39.01482c-0.84956,30.66532 -17.82645,29.64647 -27.93607,33.11906c-3.3918,1.16506 -7.25511,2.82441 -10.7705,2.97679c-4.17401,0.18093 -8.35493,-0.4076 -12.52496,0c-4.02276,0.3932 -13.92721,1.41247 -17.95968,2.26965c-11.36069,2.41493 -22.69951,5.4733 -34.10442,6.80896c-50.93758,5.96542 -96.00898,5.00596 -150.45832,4.53931c-2.13174,-0.01827 -4.49962,-1.83236 -6.61733,-2.26965c-10.75452,-2.22072 -21.07811,-2.98215 -31.7989,-7.47009c-2.96172,-1.23984 -7.68277,-5.5847 -10.74379,-6.14783c-15.41213,-2.83535 -30.64524,8.81576 -45.91356,9.07861c-15.37667,0.26472 -30.75681,-0.53891 -46.1317,0c-9.17342,0.32154 -18.42454,4.72388 -27.59501,6.54606c-4.82578,0.95889 -11.63437,-0.102 -15.41446,0.2629c-2.5278,0.24401 -5.57614,2.26191 -8.19607,2.26965c-77.34152,0.22869 -154.68325,0.13926 -232.02482,0c-3.84689,-0.00693 -9.00928,-2.10922 -12.16504,-2.26965c-20.14123,-1.02397 -40.16324,-1.75424 -60.27197,-2.26965c-5.45864,-0.13991 -10.96868,-4.15485 -16.39487,-4.53931c-6.22672,-0.44118 -12.4642,0.38736 -18.69181,0c-6.60187,-0.41064 -13.05389,-6.68687 -19.73248,-6.80896c-0.85412,-0.01561 -16.17745,3.85204 -28.23458,-0.01072c-2.7692,-0.13814 -5.3738,-1.60594 -7.66101,-4.09703c-5.29293,-5.76474 -8.88615,-17.00943 -8.88615,-29.93704c0,-4.27133 0.39226,-8.35894 1.10848,-12.12587c0.30197,-2.72069 0.74388,-5.30857 1.54424,-7.55627z" fill="#404040" stroke-width="0.5"/><path d="M193.75659,131.58114c-1.58114,-4.74341 3.16228,-6.32456 3.16228,-6.32456l2.38439,-0.74816c2.33738,-1.58585 3.82002,-3.64973 6.02681,-5.37513c1.25047,-0.9777 2.5571,-1.90774 3.97319,-2.62486c0.65864,-0.33354 1.56671,-0.04498 2.16179,-0.48196c0.50599,-0.37156 0.49962,-1.15451 0.80991,-1.70021c0.96075,-1.68959 1.96317,-3.356 3,-5c4.92363,-7.80692 11.70435,-14.70453 14.73348,-23.52301c2.65268,-3.90645 2.78323,-7.20786 3.55614,-11.60416c0.36504,-2.07634 1.67657,-3.91677 2,-6c0.70402,-4.53468 1.37724,-9.23736 1.97289,-13.81001c0.46802,-3.59278 -0.43492,-7.39019 0,-11c0.1644,-1.3645 0.7994,-2.64035 1,-4c0.33334,-2.25939 -0.69154,-4.51525 -1,-6.77817c-0.04783,-0.35093 -0.03746,-5.94623 -0.03746,-6.61091c0,0 0,-5 5,-5c5,0 5,5 5,5c0,3.52058 0.58575,5.91438 0.96254,9.38909c0.33334,3.07395 -0.6006,6.15577 -1,9.22183c-0.46802,3.59278 0.43492,7.39019 0,11c-0.55967,4.64526 -1.22411,9.59896 -2.02711,14.18999c-0.36321,2.07666 -1.67751,3.91662 -2,6c-0.81157,5.24298 -1.41873,9.78183 -4.44386,14.39584c-1.03633,3.22795 -1.24627,4.38443 -3.43537,7.7268c-1.07981,1.64869 -2.77037,2.86559 -3.73166,4.58608c-2.45976,4.40243 -5.49548,7.95439 -8.0995,12.16411c-1.04461,1.68874 -4.48041,7.88457 -6.19008,9.29979c-1.67926,1.39004 -4.18877,1.49953 -5.86503,2.89318c-2.82108,2.34545 -4.80821,4.53394 -7.97319,6.62487l-3.61561,1.25184c0,0 -4.74342,1.58114 -6.32456,-3.16227z" fill="#3e1c0b" stroke-width="0.5"/><path d="M298.5,127c0,5 -5,5 -5,5h-2c-1.39362,0 -6.59048,0.04817 -7.44892,-0.21454c-1.40058,-0.42862 -2.43571,-1.64297 -3.74784,-2.29388c-2.84213,-1.40991 -4.37432,-0.14764 -7.33878,-2.95604c-1.15169,-1.09106 -1.21801,-2.93447 -1.95604,-4.33878c-0.68141,-1.29655 -1.83433,-2.35709 -2.29388,-3.74784c-0.38184,-1.15557 0.05138,-2.44775 -0.14998,-3.64801c-0.37839,-2.25548 -1.35871,-4.37 -1.91528,-6.58823c-0.76477,-3.07134 -1.50995,-6.37234 -2.76869,-9.29927c-0.87658,-2.03831 -3.7526,-6.95883 -4.24685,-8.76465c-1.27856,-4.67148 -0.13375,-11.30761 -0.13375,-16.14876c0,-7.0575 -0.51562,-14.38792 0.01703,-21.41241c0.15331,-2.02179 0.84214,-3.97856 1,-6c0.01751,-0.22417 -0.06524,-11.40492 0.02043,-12.19851c0.26657,-2.46949 0.99,-4.9054 0.96254,-7.38909c0,0 0,-5 5,-5c5,0 5,5 5,5c-0.02349,2.89097 -0.70791,5.7387 -1.03746,8.61091c-0.44841,3.90819 0.31787,7.87891 0.02043,11.80149c-0.15331,2.02179 -0.84214,3.97857 -1,6c-0.5265,6.74224 0.01703,13.81209 0.01703,20.58759c0,2.66666 0,5.33334 0,8c0,1.95092 -0.70975,3.98728 -0.13375,5.85124c0.80216,2.59583 2.68549,4.73697 3.75315,7.23535c1.44826,3.38899 2.33906,7.1446 3.23131,10.70073c0.62013,2.49041 1.66555,4.87978 2.08472,7.41177c0.12831,0.77504 -0.40152,1.60776 -0.14998,2.35199c0.30156,0.89223 1.32163,1.39241 1.70612,2.25217c0.22614,0.50567 -0.28832,1.218 0.04396,1.66122c0.21316,0.28432 0.69884,-0.28554 1.04561,-0.20788c1.24456,0.27874 2.47674,0.67773 3.61562,1.25184c0.841,0.42395 1.37537,1.36225 2.25216,1.70612c1.41386,0.5545 3.03237,-0.21454 4.55108,-0.21454h2c0,0 5,0 5,5z" fill="#3e1c0b" stroke-width="0.5"/><path d="M206.5,4c-0.90358,0 -1.64387,-0.16329 -2.25037,-0.43085c-0.75476,1.16215 -1.53259,2.64748 -2.78142,3.27912c0.56682,0.47661 1.03628,1.09628 1.56732,1.6162c1.40399,1.37457 2.97656,2.58212 4.61323,3.66929c0.51337,0.34101 0.63421,-1.20356 1.22258,-1.38701c2.53262,-0.78965 5.42304,-2.25614 7.86472,-1.21888c5.58069,2.37076 2.07938,8.92658 5.43254,12.07489c3.4448,3.23435 9.3999,3.81395 13.68583,4.40983c2.21518,-0.00764 4.43468,-0.15083 6.64555,-0.01258c1.03463,0.0647 2.06422,0.55214 3.08658,0.3806c0.44863,-0.07527 0.77101,-1.32416 0.91342,-1.9158v-3.4648c0,-2.76142 2.23858,-5 5,-5c2.14621,0 3.97659,1.35223 4.68564,3.25118l1.95674,4.89186l-0.03354,0.01342c0.02885,0.04113 0.05754,0.08238 0.08608,0.12375c1.07337,1.55597 0.93094,3.68802 1.73397,5.39925c2.89425,6.16759 12.23591,8.64774 18.11669,9.35039c2.1363,0.25525 4.30381,-0.09179 6.45442,-0.02986c0.48043,0.01383 0.98827,0.4701 1.41886,0.25658c2.98895,-1.48211 4.99365,-4.44844 7.72673,-6.36174c2.46859,-1.72814 5.07138,-3.26083 7.68447,-4.76155c2.41079,-1.38455 4.62371,-4.68207 7.31871,-3.99953c2.75764,0.6984 3.52501,4.51571 4.78667,7.06533c0.49412,0.99854 -0.75313,2.96706 0.30063,3.32878c0.43109,0.14797 0.82851,-0.39527 1.27124,-0.50353c1.27662,-0.31218 2.6037,-0.402 3.87001,-0.7537c0.77581,-0.21547 1.67527,-0.35135 2.22543,-0.93924c0.88626,-0.94703 1.23646,-2.28045 1.85468,-3.42067c1.67445,-5.05384 2.55266,-9.57691 2.54256,-14.91072c-0.00189,-1 -0.09273,-2.00431 0,-3c0.03559,-0.38212 0.56928,-0.7524 0.3806,-1.08658c-0.86578,-1.53343 -3.13997,-2.36037 -3.31604,-4.11251c-0.23033,-2.29206 1.56468,-4.33511 2.24601,-6.53564c1.46289,-4.72477 2.16416,-9.14159 0.84528,-14.02663c-3.1775,-11.76926 -14.17543,-21.58969 -23.9015,-28.05995c-1.06745,-0.71012 -7.84801,-4.57216 -10.16776,-5.55929c-2.68897,-1.14424 -5.64847,-1.84203 -8.01013,-3.56319c-1.57507,-1.14789 -2.76901,-2.74346 -4.15351,-4.11518c-1.51241,-0.89361 -6.53709,-5.03131 -8.92294,-4.94103c-3.41032,0.12905 -6.27724,2.70199 -9.51694,3.77499c-3.19961,1.05973 -6.50593,2.01686 -9.87215,2.18755c-1.99606,0.10121 -4.17525,0.32484 -5.97021,-0.55416c-1.54083,-0.75456 -2.06168,-2.75729 -3.27298,-3.9723c-0.78956,-0.79197 -1.82038,-1.30192 -2.68826,-2.00718c-0.14182,-0.11524 -0.15096,-0.49711 -0.32502,-0.44148c-2.91436,0.93143 -4.53053,4.20723 -6.18903,6.77831c-2.29063,3.55106 -3.636,7.67747 -6.08372,11.12213c-2.34123,3.29479 -4.66817,6.52874 -6.92145,9.88564c-2.3163,3.45078 -3.6702,4.00241 -4.47083,7.96123c-2.30058,4.67044 -4.55057,9.06733 -4.99144,13.82631c0.02197,-0.01106 0.04395,-0.02212 0.06595,-0.03318c0,0 4.47214,-2.23607 6.7082,2.23607c2.23607,4.47214 -2.23607,6.7082 -2.23607,6.7082c-1.04817,0.52105 -2.17123,1.07017 -3.29796,1.66399l0.0619,0.86388c0,0 0,5 -5,5zM200.63794,-6.39339c-0.54608,-3.76928 -0.50332,-7.69749 -0.07337,-11.40753c0.48261,-4.16451 3.38539,-8.28225 5.24601,-11.93382c0.44614,-1.57625 0.58938,-3.27186 1.33843,-4.72876c0.55993,-1.08908 1.72563,-1.74517 2.48429,-2.70645c2.14226,-2.71441 3.77446,-5.90141 5.78501,-8.71792c0.82385,-1.1541 3.8442,-4.9432 4.75715,-6.62177c4.02251,-7.39592 4.19967,-10.7049 11.24749,-16.43139c6.63346,-5.38981 14.87095,-2.40928 18.43635,4.53265c0.08452,0.16455 -0.14108,-0.48329 0.02979,-0.55416c1.11808,-0.46374 2.33256,-0.6522 3.51398,-0.91565c3.94681,-0.88011 7.6704,-2.56377 11.5007,-3.86017c8.5494,-2.89362 13.72774,1.57596 20.6733,5.79733c1.28216,1.29494 2.4085,2.76544 3.84649,3.88482c2.72353,2.12008 7.42561,3.00932 10.43574,4.64784c6.48153,3.52813 10.11636,5.61934 15.91672,10.6311c10.54811,9.11403 20.67427,21.08753 20.72365,35.8354c0.00335,1.00027 -1.46355,9.90848 -2.31024,11.6766c-0.32895,0.68694 -1.95761,0.73044 -1.75399,1.46436c0.29241,1.05392 2.23462,0.89032 2.68396,1.88749c0.45318,1.0057 0.38344,6.25646 0.3806,7.91342c-0.01174,6.8651 -1.28349,12.596 -3.45744,19.08928c-1.38177,2.19311 -2.28639,4.77283 -4.14532,6.57933c-2.56061,2.48839 -8.47925,4.1092 -11.90456,4.30706c-2.24545,0.12971 -4.80377,0.65978 -6.72876,-0.50353c-2.05696,-1.24306 -3.50521,-3.32495 -4.72205,-5.46026c-0.12655,0.06798 -0.24976,0.13861 -0.36814,0.21318c-1.58345,0.99751 -3.28614,1.80696 -4.81933,2.88011c-2.35616,1.64918 -7.62745,6.57401 -10.27327,7.63826c-1.41895,0.57075 -3.05197,0.22799 -4.58114,0.25658c-10.43005,0.19501 -21.83216,-1.64513 -29.53553,-9.46447c-0.941,-0.95517 -2.45899,-2.87955 -3.75754,-4.99202c-0.55756,0.42794 -1.1533,0.79524 -1.7935,1.07588c-2.80768,1.23078 -10.84782,0.3779 -14.26786,0.36802c-6.9592,-1.01451 -15.04134,-2.16314 -20.31417,-7.59017c-0.69315,-0.71342 -2.45727,-4.01085 -3.4459,-6.76919c-2.19414,0.67552 -5.01821,0.4582 -6.03425,0.23819c-4.49939,-0.9743 -6.4309,-3.33538 -9.38677,-6.33071c-1.2627,-1.27956 -2.91515,-2.29829 -3.71772,-3.90688c-1.03676,-2.07796 -2.08586,-4.50383 -1.61299,-6.77742c0.44513,-2.14022 2.74347,-3.40436 4.08898,-5.12724c1.86786,-2.39174 3.81128,-4.37869 5.91521,-6.11737z" fill="#273d0b" stroke-width="0.5"/></g></g></svg>