<svg version="1.1" xmlns="http://www.w3.org/2000/svg" xmlns:xlink="http://www.w3.org/1999/xlink" width="700" height="409" viewBox="0,0,700,409"><g transform="translate(24.5,19)"><g data-paper-data="{&quot;isPaintingLayer&quot;:true}" fill-rule="nonzero" stroke-linejoin="miter" stroke-miterlimit="10" stroke-dasharray="" stroke-dashoffset="0" style="mix-blend-mode: normal"><path d="M-24.5,390v-409h700v409z" fill="none" stroke="none" stroke-width="0" stroke-linecap="butt"/><text transform="translate(14,322.98094) scale(0.275,0.275)" font-size="40" xml:space="preserve" fill="#ffffff" fill-rule="nonzero" stroke="none" stroke-width="1" stroke-linecap="butt" stroke-linejoin="miter" stroke-miterlimit="10" stroke-dasharray="" stroke-dashoffset="0" font-family="Pixel" font-weight="normal" text-anchor="start" style="mix-blend-mode: normal"><tspan x="0" dy="0">Power left:</tspan></text><text transform="translate(14,344.98094) scale(0.275,0.275)" font-size="40" xml:space="preserve" fill="#ffffff" fill-rule="nonzero" stroke="none" stroke-width="1" stroke-linecap="butt" stroke-linejoin="miter" stroke-miterlimit="10" stroke-dasharray="" stroke-dashoffset="0" font-family="Pixel" font-weight="normal" text-anchor="start" style="mix-blend-mode: normal"><tspan x="0" dy="0">Usage:</tspan></text><text transform="translate(118.9435,324.75) rotate(-180) scale(0.22082,-0.22082)" font-size="40" xml:space="preserve" data-paper-data="{&quot;index&quot;:null}" fill="#ffffff" fill-rule="nonzero" stroke="none" stroke-width="1" stroke-linecap="butt" stroke-linejoin="miter" stroke-miterlimit="10" stroke-dasharray="" stroke-dashoffset="0" font-family="Pixel" font-weight="normal" text-anchor="start" style="mix-blend-mode: normal"><tspan x="0" dy="0">%</tspan></text><path d="M163,345.35141c0,-4.20423 0,-9.8203 0,-12.17764c0,-2.10776 1.20048,-4.83092 3.0187,-4.83092c12.42268,0 200.12176,0 272.24521,0c18.86694,0 33.41732,0 40.32414,0c2.86236,0 4.41196,3.35415 4.41196,5.76766c0,2.5215 0,8.2132 0,12.17764c0,2.43293 -1.54964,4.21534 -4.41196,4.21534c-33.19296,0 -295.4106,0 -312.10493,0c-2.08285,0 -3.48312,-2.23656 -3.48312,-5.15207z" fill-opacity="0.04706" fill="#ffffff" stroke-opacity="0.50196" stroke="#ffffff" stroke-width="1.5" stroke-linecap="butt"/><g fill="none" stroke-opacity="0.50196" stroke="#ffffff" stroke-width="1.5" stroke-linecap="round"><path d="M350.6853,334.07408l-29.61647,4.29838l-36.30405,-4.29838"/><path d="M350.6853,340.09182l-29.61647,4.29838l-36.30405,-4.29838"/></g></g></g></svg>