<svg version="1.1" xmlns="http://www.w3.org/2000/svg" xmlns:xlink="http://www.w3.org/1999/xlink" width="967" height="400" viewBox="0,0,967,400"><g transform="translate(145.5,20)"><g data-paper-data="{&quot;isPaintingLayer&quot;:true}" fill-rule="nonzero" stroke-linecap="butt" stroke-linejoin="miter" stroke-miterlimit="10" stroke-dasharray="" stroke-dashoffset="0" style="mix-blend-mode: normal"><path d="M-145.5,380v-400h967v400z" fill="#000000" stroke="#000000" stroke-width="0"/><path d="M337.15925,209.92433c-0.00044,-0.12791 0.00351,-0.25145 0.01159,-0.37073c-3.59092,0.15498 -7.24745,0.95172 -10.97152,1.07557c-12.43901,0.41364 -24.92756,0.16592 -37.37336,0.20998c-4.44772,0.01576 -8.94053,0.19936 -13.38532,0.04739c-1.01676,-0.03476 -2.06209,-0.55312 -3.0399,-0.27227c-1.41786,0.40727 -2.28527,5.01871 -2.33896,5.1853c-0.86403,2.68125 -1.32489,5.53112 -1.31492,8.34811c-1.33861,4.19115 -3.72937,9.05219 -4.41437,13.40112c-0.50011,3.17504 -0.60545,6.45189 -1.59641,9.50952c-0.48334,1.49135 -0.75095,3.07471 -1.47146,4.46706c-0.35887,0.6935 -1.71624,0.84903 -1.68324,1.62918c0.02547,0.60219 1.12864,-0.48422 1.7299,-0.5262c2.27476,-0.15884 4.56029,-0.05559 6.84054,-0.07223c4.95722,-0.03615 9.91524,-0.03512 14.87259,-0.05267c13.88109,-0.04917 27.76217,-0.09831 41.64326,-0.14747c8.72757,-0.03092 18.76393,-1.44698 27.36641,-0.04891c1.52478,0.24781 3.0772,0.61326 4.46259,1.29754c-0.17486,-1.38174 -0.03814,-2.81504 0.18507,-4.18851c0.50297,-3.09483 2.45506,-5.83683 2.94292,-8.9341c0.69623,-4.42021 0.69951,-8.9805 1.43985,-13.39058c0.5191,-3.09218 2.37459,-5.8506 2.94293,-8.93409c0.19761,-1.07215 -0.00955,-2.18039 -0.01159,-3.27062c-0.00128,-0.68036 0.5894,-1.69846 0.00161,-2.04107c-0.68913,-0.40171 -1.49218,0.62462 -2.28527,0.70992c-1.47874,0.15905 -2.97451,0.01053 -4.46177,0.01581c-4.46177,0.01579 -8.92355,0.0316 -13.38532,0.0474l-2.97452,0.01053c0,0 -3.71815,0.01317 -3.73131,-3.70497zM349.04854,206.16403c2.72518,-0.00965 5.45036,-0.0193 8.17555,-0.02895c1.98792,-0.00704 10.00852,-0.19187 11.10008,0.66253c3.04037,2.37981 3.54365,9.05764 3.02775,12.52488c-0.46145,3.1013 -2.45505,5.83685 -2.94292,8.93409c-0.98248,6.23754 -1.03894,12.327 -3.05204,18.43835c-0.4284,1.30055 -1.10952,2.53504 -1.33072,3.88633c-0.49597,3.02988 1.49941,9.28018 -1.45593,11.3496c-2.97432,2.0827 -8.56762,-1.76631 -11.70139,-2.27929c-8.1728,-1.33784 -17.86932,0.1113 -26.17492,0.1407c-16.8556,0.05968 -33.71121,0.11939 -50.5668,0.17908c-5.19431,0.01839 -17.92095,2.44874 -21.18526,-3.46762c-1.19368,-2.16345 0.70125,-4.89795 1.25967,-7.30492c0.66375,-2.86096 2.34521,-5.45219 2.80218,-8.35338c0.23141,-1.46915 -0.26202,-2.99503 -0.01579,-4.46177c0.74296,-4.42574 2.95677,-9.14422 4.41436,-13.40114c-0.02188,-6.17998 1.58436,-16.27534 8.12832,-19.2284c1.79,-0.80777 3.92075,-0.24321 5.88364,-0.30386c4.45208,-0.13756 8.93096,-0.03162 13.38535,-0.0474c12.37417,-0.04382 24.7881,0.19361 37.15594,-0.20605c7.38789,-0.23873 13.40749,-2.01513 20.53637,0.19253c0,0 2.20587,0.72663 2.5566,2.77471z" fill="#ffffff" stroke="none" stroke-width="0.5"/><path d="M295.77508,224.67614c0,-0.98926 0.80196,-1.79122 1.79122,-1.79122c0.98926,0 1.79122,0.80196 1.79122,1.79122c0,0.98926 -0.80196,1.79122 -1.79122,1.79122c-0.98926,0 -1.79122,-0.80196 -1.79122,-1.79122z" fill="#ffffff" stroke="none" stroke-width="0.5"/><path d="M330.39067,226.3245c0,-0.98926 0.80196,-1.79122 1.79122,-1.79122c0.98926,0 1.79122,0.80196 1.79122,1.79122c0,0.98926 -0.80196,1.79122 -1.79122,1.79122c-0.98926,0 -1.79122,-0.80196 -1.79122,-1.79122z" fill="#ffffff" stroke="none" stroke-width="0.5"/><path d="M330.7012,235.49754c1.26659,1.26659 0,2.53316 0,2.53316l-1.3816,1.02061c-2.84744,0.67143 -5.29988,2.32371 -8.09493,3.25325c-0.85145,0.28316 -1.80275,0.19554 -2.64312,0.51006c-0.67212,0.25156 -1.12237,0.96967 -1.81476,1.1584c-0.35796,0.09757 -4.31054,0.07686 -4.9147,0.07686c-5.57322,0 -12.1452,-0.48798 -16.92775,-3.59756c0,0 -1.49039,-0.99359 -0.4968,-2.48398c0.99359,-1.49039 2.48398,-0.4968 2.48398,-0.4968c4.03061,2.77936 10.19448,2.99589 14.94057,2.99589c1.29244,0 2.64019,0.45339 3.87656,0.07686c0.5772,-0.17578 0.91714,-0.82719 1.48196,-1.03942c0.90851,-0.34137 1.93091,-0.28132 2.85142,-0.58885c2.92078,-0.97578 5.40248,-2.56113 8.38869,-3.34019l-0.2827,-0.0783c0,0 1.26659,-1.26659 2.53316,0z" fill="#ffffff" stroke="none" stroke-width="0.5"/><path d="M375.29088,232.41474c1.60212,0.80105 0.80105,2.40317 0.80105,2.40317l-0.39514,0.64914c-0.54624,2.68484 -0.51467,5.16172 -0.51467,7.89052c0,6.96529 1.7599,17.31189 10.08604,19.12034c2.76877,0.60138 5.40566,-0.36274 7.99278,-1.07122c0.86009,-0.23554 1.76244,-0.28892 2.6257,-0.51251c0.47707,-0.12356 0.92121,-0.35047 1.3819,-0.52546c0.13684,-0.05197 0.55521,-0.17888 0.41072,-0.15543c-1.82465,0.29618 -2.84419,0.02662 -3.74978,-0.68531l-0.10348,0.15521l-1.62524,-1.08349c-0.49384,-0.31894 -0.82074,-0.87419 -0.82074,-1.50579c0,-0.85244 0.59547,-1.56581 1.39314,-1.74683l2.16146,-0.54037l0.00292,0.01166l0.03855,-0.0215c1.66522,-0.33305 3.30635,-0.78079 4.97331,-1.10502c1.24442,-0.24204 3.13424,0.37886 3.73056,-0.73987c0.42373,-0.79494 -1.7991,-3.05163 -2.31547,-3.47896c-1.93592,0.58296 -3.83628,1.31531 -5.81893,1.71104l-0.1765,-0.05454v0.06326h-2.19781c-0.98926,0 -1.79122,-0.80196 -1.79122,-1.79122c0,-0.63161 0.3269,-1.18686 0.82074,-1.50579l1.62524,-1.08349l0.05489,0.08234c0.13266,-0.11043 0.27205,-0.2131 0.41963,-0.30631c0.71621,-0.45235 1.699,0.03014 2.54038,-0.06814c1.30397,-0.1523 3.26322,-0.86096 4.83007,-0.68608c0.50831,-0.13693 1.02269,-0.26488 1.54691,-0.3779c0.90015,-0.19408 2.26707,0.08687 2.65987,-0.74598c0.80652,-1.71001 -2.6826,-3.39849 -3.94566,-2.93498c-0.61993,0.22751 -1.01202,0.92243 -1.64836,1.09891c-0.77018,0.2136 -1.62961,0.31868 -2.40361,0.11869c-0.41705,0.12508 -0.83772,0.24707 -1.26213,0.36794l-0.20307,-0.07153l0.00524,0.09367l-2.03491,0.11389c-0.03807,0.00241 -0.07645,0.00364 -0.11513,0.00364c-0.98926,0 -1.79122,-0.80196 -1.79122,-1.79122c0,-0.89908 0.6624,-1.64344 1.52579,-1.77169l3.26768,-0.54461l0.0057,0.03419c0.04688,-0.01779 0.09389,-0.03528 0.14103,-0.05245c0.0644,-0.02346 0.13002,-0.03856 0.19662,-0.04713c1.96602,-0.67367 3.68662,-1.4768 5.64551,-2.46427c0.35473,-0.17881 0.87271,-0.19557 1.05912,-0.54637c0.38569,-0.72579 0.82785,-4.05054 -0.41167,-4.54408c-1.32136,-0.52612 -4.64878,0.91988 -5.90741,1.23453c-3.67352,0.91838 -4.97678,1.08256 -8.98918,0.46351c0.10774,-1.3416 0.00151,-2.71789 0.32321,-4.0248c0.1409,-0.57239 0.85171,-0.87863 1.02264,-1.44278c0.16243,-0.5361 -0.06575,-1.11869 -0.07686,-1.67875c-0.04763,-2.40264 0.02415,-4.37694 -0.50582,-6.74993c-0.13108,-0.58692 -0.85865,-3.64808 -1.2189,-4.12521c-1.77602,-2.35214 -4.50181,0.71844 -5.47057,2.03231c-1.51927,2.0605 -1.31299,4.79467 -1.31026,7.19446c0.00335,2.93041 0,5.86086 0,8.79126c0,0 0,1.79122 -1.79122,1.79122c-1.79122,0 -1.79122,-1.79122 -1.79122,-1.79122c0,-5.54363 -1.36072,-13.28808 1.98647,-18.08041c2.40954,-3.44985 7.37679,-6.35521 11.01305,-2.36332c0.83468,0.91632 1.06484,2.24296 1.48511,3.40902c1.15723,3.21076 1.23831,6.53344 1.18579,9.89182c-0.03033,1.93948 0.11444,3.5684 -1.47592,4.63036c2.55804,-1.35099 6.65871,-2.38138 9.35601,-2.56198c1.25428,-0.08398 2.66104,-0.42159 3.76719,0.17568c3.23926,1.74906 3.45048,6.92275 1.78615,9.74172c-0.2312,0.3916 -0.5843,0.67908 -0.97714,0.92792c2.42368,1.44409 3.9781,4.14368 2.71647,7.16238c-0.40329,0.96494 -1.57014,1.41898 -2.50299,1.8918c-0.23413,0.11867 -0.56886,0.22711 -0.95936,0.32759c1.37346,1.80437 2.19408,4.13809 1.26454,6.02242c-0.4729,0.95864 -1.58168,1.5096 -2.56893,1.91941c-1.30476,0.54161 -3.17092,0.87577 -4.98249,1.15802c0.82784,0.34658 1.45847,0.6382 1.46412,0.65032c1.63207,3.50384 -1.44547,5.04614 -3.70191,5.91256c-0.91119,0.34988 -1.92694,0.33048 -2.86884,0.5864c-3.08162,0.8373 -6.31014,1.8671 -9.58974,1.12659c-10.17087,-2.29652 -12.99102,-13.74411 -12.99102,-22.63815c0,-2.96928 0.0082,-5.6684 0.58424,-8.5931l0.70377,-1.54868c0,0 0.80105,-1.60212 2.40317,-0.80105z" fill="#ffffff" stroke="none" stroke-width="0.5"/><path d="M197.5,167.18184v-81.31502h281v81.31502z" fill="#ffffff" stroke="#000000" stroke-width="0"/><text transform="translate(265.09596,135.70956) scale(0.5997,0.5997)" font-size="40" xml:space="preserve" fill="#000000" fill-rule="nonzero" stroke="none" stroke-width="1" stroke-linecap="butt" stroke-linejoin="miter" stroke-miterlimit="10" stroke-dasharray="" stroke-dashoffset="0" font-family="&quot;Consolas&quot;, Sans Serif" font-weight="normal" text-anchor="start" style="mix-blend-mode: normal"><tspan x="0" dy="0">Thank you!</tspan></text></g></g></svg>