<svg version="1.1" xmlns="http://www.w3.org/2000/svg" xmlns:xlink="http://www.w3.org/1999/xlink" width="37.74205" height="37.20586" viewBox="0,0,37.74205,37.20586"><g transform="translate(-164.41562,-207.35437)"><g data-paper-data="{&quot;isPaintingLayer&quot;:true}" fill-rule="nonzero" stroke-linejoin="miter" stroke-miterlimit="10" stroke-dasharray="" stroke-dashoffset="0" style="mix-blend-mode: normal"><path d="M180.14783,235.2061c0,-4.33773 1.59565,-7.85415 3.56397,-7.85415c1.96832,0 3.56397,3.51642 3.56397,7.85415c0,4.33773 2.62175,7.24015 -3.56397,7.85414c-4.54068,0.4507 -3.56397,-3.51641 -3.56397,-7.85414z" fill="#000000" stroke="#ffffff" stroke-width="3" stroke-linecap="butt"/><path d="M172.92373,231.39095c0,-4.33773 4.73873,-7.85414 10.58425,-7.85414c5.84552,0 10.58425,3.51641 10.58425,7.85414c0,4.33773 -4.73873,7.85415 -10.58425,7.85415c-5.84552,0 -10.58425,-3.51642 -10.58425,-7.85415z" fill="#000000" stroke="#ffffff" stroke-width="3" stroke-linecap="butt"/><text transform="translate(180.05857,234.78377) scale(0.25211,0.25211)" font-size="40" xml:space="preserve" fill="#ffffff" fill-rule="nonzero" stroke="none" stroke-width="1" stroke-linecap="butt" stroke-linejoin="miter" stroke-miterlimit="10" stroke-dasharray="" stroke-dashoffset="0" font-family="Pixel" font-weight="normal" text-anchor="start" style="mix-blend-mode: normal"><tspan x="0" dy="0">R</tspan></text><path d="M173.41123,221.89521l-7.74561,-5.70729" fill="none" stroke="#ffffff" stroke-width="2.5" stroke-linecap="round"/><path d="M183.50747,208.60437l-0.2378,8.35711" fill="none" stroke="#ffffff" stroke-width="2.5" stroke-linecap="round"/><path d="M200.90767,216.22321l-8.15328,4.48431" fill="none" stroke="#ffffff" stroke-width="2.5" stroke-linecap="round"/></g></g></svg>