<svg version="1.1" xmlns="http://www.w3.org/2000/svg" xmlns:xlink="http://www.w3.org/1999/xlink" width="866.5" height="432.56913" viewBox="0,0,866.5,432.56913"><defs><linearGradient x1="118.48352" y1="108.5" x2="118.48352" y2="255.5" gradientUnits="userSpaceOnUse" id="color-1"><stop offset="0" stop-color="#000000"/><stop offset="1" stop-color="#000000" stop-opacity="0"/></linearGradient></defs><g transform="translate(8.76648,47.75)"><g data-paper-data="{&quot;isPaintingLayer&quot;:true}" fill-rule="nonzero" stroke-linejoin="miter" stroke-miterlimit="10" stroke-dasharray="" stroke-dashoffset="0" style="mix-blend-mode: normal"><path d="M0,368v-372h799.03296v372z" fill="#000000" stroke="none" stroke-width="NaN" stroke-linecap="butt"/><path d="M-7.51648,106.5v-153h526v153z" fill="#252525" stroke="#848484" stroke-width="2.5" stroke-linecap="butt"/><path d="M238.48352,184.5v-143h20v143z" fill="#252525" stroke="#848484" stroke-width="2.5" stroke-linecap="butt"/><path d="M246.48352,238.5v-53" fill="none" stroke="#848484" stroke-width="4" stroke-linecap="round"/><path d="M252.48352,217.5v-30" fill="none" stroke="#848484" stroke-width="4" stroke-linecap="round"/><path d="M2.48352,239.5v-30h229v30z" fill="#252525" stroke="#848484" stroke-width="4" stroke-linecap="butt"/><path d="M12.48352,205.5v-30h212v30z" fill="#252525" stroke="#848484" stroke-width="4" stroke-linecap="butt"/><path d="M34.48352,172.5v-25h163v25z" fill="#252525" stroke="#848484" stroke-width="4" stroke-linecap="butt"/><path d="M68.48352,146.5v-25h109v25z" fill="#252525" stroke="#848484" stroke-width="4" stroke-linecap="butt"/><path d="M4.48352,255.5v-147h228v147z" fill="url(#color-1)" stroke="none" stroke-width="0" stroke-linecap="butt"/><path d="M716.48352,372.5c0,-19.78315 -30,-190 -30,-190l170,-52v253c0,0 -140,-7.53937 -140,-11z" fill="#252525" stroke="#848484" stroke-width="2.5" stroke-linecap="butt"/></g></g></svg>