<svg version="1.1" xmlns="http://www.w3.org/2000/svg" xmlns:xlink="http://www.w3.org/1999/xlink" width="71.0484" height="60.81995" viewBox="0,0,71.0484,60.81995"><g transform="translate(-507.65135,-216.5)"><g data-paper-data="{&quot;isPaintingLayer&quot;:true}" fill-rule="nonzero" stroke-linecap="butt" stroke-linejoin="miter" stroke-miterlimit="10" stroke-dasharray="" stroke-dashoffset="0" style="mix-blend-mode: normal"><path d="M571.48353,243.5c0,8.28427 -12.98374,15 -29,15c-16.01626,0 -29,-6.71573 -29,-15c0,-8.28427 12.98374,-15 29,-15c16.01626,0 29,6.71573 29,15z" fill="#252525" stroke="#848484" stroke-width="2.5"/><path d="M569.64987,245.94769c0.55231,-0.83364 1.38595,-0.28132 1.38595,-0.28132l0.59958,0.39724c0.61844,0.42202 1.23689,0.84404 1.85533,1.26607c1.60149,2.92255 4.26221,5.87938 4.97131,9.23589c0.5229,2.47515 0.02477,5.68533 -0.00742,8.21824c-0.04154,3.26762 0.10274,6.00416 -3.12655,7.84489c-2.06982,1.17982 -4.08364,0.8713 -6.35089,0.8713c-3.33333,0 -6.66667,0 -10,0c-13.77284,0 -28.50104,1.44666 -42.1071,-0.72306c-2.47077,-0.3956 -6.54155,0.27193 -8.27761,-1.94761c-2.36791,-3.02735 0.38442,-3.55974 1.16922,-6.17429c1.53394,-5.11033 2.41857,-10.02444 2.85731,-15.35164c0.17143,-2.08143 0.87916,-3.71812 0.86452,-5.8034c0,0 0,-1 1,-1c1,0 1,1 1,1c-0.01292,2.1613 -0.70466,3.83469 -0.87095,5.96356c-0.25712,3.29179 -0.33431,6.83025 -1.14333,10.04435c-0.32472,1.29006 -1.16692,2.41287 -1.48344,3.70497c-0.33833,1.38117 -0.52341,2.86881 -1.29063,4.06609c-0.29006,0.45265 -0.95676,0.66908 -1.08823,1.19037c-0.09716,0.38526 0.24107,0.78822 0.51719,1.07392c1.43817,1.48813 5.14749,0.95468 7.0609,1.25864c13.49712,2.15235 28.1287,0.6981 41.79215,0.6981c3.33333,0 6.66667,0 10,0c1.86438,0 3.66985,0.34292 5.36431,-0.61103c2.49964,-1.40725 2.08169,-3.63527 2.11329,-6.13053c0.03021,-2.38544 0.53657,-5.45253 0.05004,-7.78143c-0.62846,-3.00824 -3.1321,-5.64569 -4.49483,-8.30293c-0.49307,-0.3144 -0.98614,-0.62879 -1.47922,-0.94319l-0.59958,-0.39724c0,0 -0.83364,-0.55231 -0.28132,-1.38595z" fill="#848484" stroke="none" stroke-width="0.5"/><text transform="translate(521.48353,270.5) scale(0.41333,0.41333)" font-size="40" xml:space="preserve" fill="#ffffff" fill-rule="nonzero" stroke="none" stroke-width="1" stroke-linecap="butt" stroke-linejoin="miter" stroke-miterlimit="10" stroke-dasharray="" stroke-dashoffset="0" font-family="Handwriting" font-weight="normal" text-anchor="start" style="mix-blend-mode: normal"><tspan x="0" dy="0">Coffee</tspan></text><path d="M514.5,245c0,-1.38071 1.11929,-2.5 2.5,-2.5c1.25603,0 2.29571,0.92626 2.47325,2.13297c0.84464,0.28773 1.48596,1.01485 1.65154,1.90891c1.16193,0.21518 2.04189,1.23389 2.04189,2.45812c0,1.38071 -1.11929,2.5 -2.5,2.5c-1.1708,0 -2.15363,-0.80483 -2.42541,-1.89142c-0.42984,0.34896 -0.9778,0.55809 -1.57461,0.55809c-1.38071,0 -2.5,-1.11929 -2.5,-2.5c0,-0.606 0.21562,-1.16164 0.57432,-1.59439c-0.15452,-0.32495 -0.24099,-0.68851 -0.24099,-1.07228z" fill="#5a2d24" stroke="none" stroke-width="0.5"/><path d="M556.34868,254.28453c-1,0.44444 -2,0.88889 -3,1.33333l-1.34868,0.21547c0,0 -2.39614,0 -2.49674,-2.34584c-0.1661,-0.00345 -0.33053,-0.00707 -0.49325,-0.01017c-0.21195,0.10412 -0.42408,0.20715 -0.63631,0.30938c-0.1154,0.34837 -0.30535,0.66277 -0.55094,0.9243c0.32832,2.16151 -1.88309,2.71436 -1.88309,2.71436l-1.25287,0.31179c-1.55556,0.44444 -3.11111,0.88889 -4.66667,1.33333c0,0 -1.81728,0.51922 -2.74311,-0.92533c-0.01493,-0.01443 -0.02986,-0.02911 -0.0448,-0.04404c-1.1634,-1.1634 -0.79549,-2.3268 -0.40795,-2.9863c-1.09984,-0.22752 -1.93537,-1.17753 -1.98828,-2.33171l-0.10289,-0.02289c-0.07721,-0.0214 -0.15386,-0.0429 -0.22997,-0.0645c-0.04727,0.23583 -0.13308,0.48771 -0.26705,0.75565l-0.00001,0.00001c-1.11803,2.23607 -3.3541,1.11803 -3.3541,1.11803l0.20261,-0.08181c-1.91035,-0.19289 -3.83118,-0.32327 -5.75124,-0.32093c0,0 -2.5,0 -2.5,-2.5c0,-1.61024 1.03715,-2.18333 1.7754,-2.3873c-0.95895,-0.87822 -1.77501,-1.93635 -2.70985,-2.84493c0,0 -0.38741,-0.38741 -0.61815,-0.98088c-0.2886,-0.23241 -0.55437,-0.4885 -0.78346,-0.7828c-0.06462,-0.08301 -0.12807,-0.16678 -0.19043,-0.25127l-0.02649,0.02208l-3.19042,-3.8285c-0.36806,-0.43538 -0.58995,-0.99831 -0.58995,-1.61307c0,-1.38071 1.11929,-2.5 2.5,-2.5c0.08042,0 0.15995,0.0038 0.23842,0.01122l2.49393,0.20936c-0.14909,-0.32026 -0.23234,-0.67736 -0.23234,-1.0539c0,-1.22423 0.87996,-2.24294 2.04188,-2.45812c0.21518,-1.16192 1.23389,-2.04189 2.45812,-2.04189c0.0249,0 0.04972,0.00036 0.07444,0.00109l0.16687,-0.77409c0,0 0.07596,-0.30384 0.28165,-0.66955c-0.42731,-0.44855 -0.68963,-1.0557 -0.68963,-1.72411c0,-1.38071 1.11929,-2.5 2.5,-2.5c0.28995,0 0.56838,0.04936 0.82733,0.14014c0.28791,-0.3126 0.65449,-0.55162 1.06833,-0.68565c0.31518,-0.22193 0.68396,-0.37286 1.08308,-0.42953c0.2026,-0.3039 0.4052,-0.6078 0.6078,-0.9117l3.08013,-1.11325c0,0 0.3385,0 0.76639,0.12456c-0.3739,-0.43695 -0.59973,-1.00438 -0.59973,-1.62456c0,-1.38071 1.11929,-2.5 2.5,-2.5c0.18502,0 0.36534,0.0201 0.53891,0.05823c0.20861,-1.17001 1.23112,-2.05823 2.46109,-2.05823c1.38071,0 2.5,1.11929 2.5,2.5c0,0.67303 -0.26595,1.28395 -0.6985,1.73338c-0.15918,0.98974 -0.89936,1.78518 -1.85958,2.02535c0.34896,0.42984 0.55808,0.9778 0.55808,1.5746c0,0.30043 -0.05299,0.58849 -0.15015,0.85533c0.30395,0.414 0.48348,0.92503 0.48348,1.478c0,0.57389 -0.19337,1.10261 -0.51851,1.52456c0.11495,-0.01619 0.23242,-0.02456 0.35184,-0.02456c0.1939,0 0.38264,0.02207 0.56384,0.06384c-0.04177,-0.18121 -0.06384,-0.36995 -0.06384,-0.56384c0,-1.09166 0.69969,-2.01989 1.67508,-2.3607c-0.20947,-0.32699 -0.41894,-0.65398 -0.6284,-0.98097c0,0 -1.325,-2.12 0.795,-3.44499c2.12,-1.325 3.44499,0.795 3.44499,0.795c0.61586,1.00467 1.23172,2.00933 1.84758,3.014l0.79112,3.03799c0,0 0.04946,0.19786 0.06363,0.49468l0.07612,0.06525c0.24204,-0.07808 0.50021,-0.12025 0.76823,-0.12025c1.38071,0 2.5,1.11929 2.5,2.5c0,0.30017 -0.0529,0.58798 -0.14989,0.85462c0.02127,0.02987 0.04239,0.06052 0.06335,0.09197l0.00002,0.00003c0.173,0.25951 0.29204,0.50822 0.3679,0.7448c0.45831,-0.5258 1.13299,-0.85809 1.88529,-0.85809c0.96049,0 1.79447,0.54166 2.21315,1.33617c0.03982,-0.00188 0.07989,-0.00284 0.12018,-0.00284c1.38071,0 2.5,1.11929 2.5,2.5c0,0.16417 -0.01582,0.32464 -0.04603,0.47997c0.35916,-0.19961 0.77265,-0.3133 1.21269,-0.3133c1.38071,0 2.5,1.11929 2.5,2.5c0,0.31261 -0.05738,0.61183 -0.16218,0.88768c0.69856,0.44335 1.16219,1.22369 1.16219,2.11231c0,0.15201 -0.01357,0.30086 -0.03956,0.44539c1.1655,0.0631 1.90722,1.10152 1.90722,1.10152l-0.00001,0l1.66667,2.33333c0,0 1.4531,2.03433 -0.58124,3.48743c-0.76673,0.54767 -1.4509,0.59994 -2.00582,0.45245c0.03456,0.16565 0.05273,0.33731 0.05273,0.51322c0,0.49221 -0.14225,0.9512 -0.38787,1.3381c0.42477,0.6373 0.82714,1.7409 -0.21398,2.95554c-1.62698,1.89814 -3.52512,0.27116 -3.52512,0.27116c-0.77778,-0.66667 -1.55556,-1.33333 -2.33333,-2l-0.02008,-0.05133c-0.30556,0.84892 -1.05747,1.48478 -1.9726,1.62446c-0.44641,0.55315 -1.03167,0.81326 -1.03167,0.81326zM536.28453,247.31799c0,0 0.1288,0.28981 0.19144,0.70886l2.39971,0.53267c0,0 0.11567,0.02571 0.29106,0.09111c0.00157,-0.24967 0.03973,-0.49065 0.1094,-0.71786c-0.38331,-0.17913 -0.71366,-0.45265 -0.96117,-0.79066c-0.73365,-0.09225 -1.46805,-0.16133 -2.20309,-0.21259zM558.16667,239.33333c0,-0.67303 0.26595,-1.28395 0.6985,-1.73338c0.00431,-0.02678 0.00904,-0.05342 0.01419,-0.07992c-0.35916,0.19961 -0.77265,0.3133 -1.21269,0.3133c-0.83408,0 -1.57276,-0.40846 -2.02692,-1.03627c0.31987,0.93185 0.42447,1.93974 0.50524,2.95712c1.12042,0.55254 2.1957,1.20788 3.20392,1.94708c0.08742,-0.03748 0.1774,-0.07013 0.26962,-0.0976c-0.85716,-0.39638 -1.45186,-1.26391 -1.45186,-2.27033zM536.52578,227.027c-0.14784,0.09964 -0.3011,0.17828 -0.45093,0.24036c0.35813,0.24458 0.6494,0.57984 0.84075,0.97274c0.02929,-0.02232 0.05935,-0.0442 0.09018,-0.06553c-0.24886,-0.32861 -0.41837,-0.72065 -0.48,-1.14757zM532.75869,232.06033c0.04287,0.17149 0.07059,0.33388 0.08508,0.48761c0.15832,-0.03143 0.32203,-0.04792 0.48958,-0.04792c0.43095,0 0.83644,0.10904 1.19037,0.30104c0.00806,-0.01705 0.01611,-0.03411 0.02416,-0.05117c-0.27815,-0.28376 -0.48918,-0.63355 -0.60743,-1.02368c-0.63885,-0.19363 -1.16953,-0.6361 -1.47925,-1.2146c-0.22001,0.04675 -0.45918,0.0607 -0.71547,0.02538c0.43202,0.27348 0.81725,0.74047 1.01296,1.52333zM530.83333,237.33333c0,0.3842 -0.08667,0.74817 -0.24152,1.0734c0.30913,0.07538 0.61794,0.15208 0.92643,0.23006c-0.01203,-0.09946 -0.01823,-0.20073 -0.01823,-0.30344c0,-0.47916 0.1348,-0.92684 0.36855,-1.30717c-0.59748,-0.43269 -0.99604,-1.12317 -1.03249,-1.90826c-0.3226,0.08065 -0.64521,0.1613 -0.96781,0.24195c0.58731,0.45746 0.96506,1.17134 0.96506,1.97346zM563.43568,246.5778c-0.01188,0.00584 -0.02381,0.0116 -0.03579,0.01726c0.03325,0.02251 0.06593,0.0458 0.09801,0.06985zM544.05956,247.94044c0.21622,0.06553 0.42004,0.15957 0.60711,0.27774c0.04442,-0.02806 0.08978,-0.05476 0.13603,-0.08003c0.03232,-0.25161 0.10872,-0.52274 0.2421,-0.81341c-0.41298,0.16658 -0.83597,0.18932 -1.17163,0.16554c0.07607,0.14239 0.13877,0.293 0.18639,0.45016z" fill="#5a2d24" stroke="none" stroke-width="0.5"/></g></g></svg>