<svg version="1.1" xmlns="http://www.w3.org/2000/svg" xmlns:xlink="http://www.w3.org/1999/xlink" width="658" height="375" viewBox="0,0,658,375"><g transform="translate(7.5,7.5)"><g data-paper-data="{&quot;isPaintingLayer&quot;:true}" fill-rule="nonzero" stroke="none" stroke-linecap="butt" stroke-linejoin="miter" stroke-miterlimit="10" stroke-dasharray="" stroke-dashoffset="0" style="mix-blend-mode: normal"><path d="M-7.5,367.5v-375h658v375z" fill="#ffffff" stroke-width="0"/><text transform="translate(137.5,65.5) scale(0.5,0.5)" font-size="40" xml:space="preserve" fill="#1e1e1e" fill-rule="nonzero" stroke="none" stroke-width="1" stroke-linecap="butt" stroke-linejoin="miter" stroke-miterlimit="10" stroke-dasharray="" stroke-dashoffset="0" font-family="Pixel" font-weight="normal" text-anchor="start" style="mix-blend-mode: normal"><tspan x="0" dy="0">You win!! Here is your 50 dollars</tspan></text><path d="M310,144.5c0,-2.5 2.5,-2.5 2.5,-2.5l3.01368,0.00004c2.80269,0.03985 5.55893,0.72614 8.34339,1.04787c3.36722,0.38907 6.79028,0.36238 10.11977,0.99799c2.95126,0.5634 5.80935,1.64119 8.79596,1.96903c11.57796,1.27094 23.53904,-0.54958 35.18898,0.45697c3.1015,6.9263 3.86543,14.05999 5.44106,21.43502c2.44117,11.42638 5.29121,22.73184 7.56804,34.19989c0.92947,4.68162 1.33924,4.93548 0.95764,9.43158c-0.19259,2.2691 0.79103,5.22341 -0.87542,6.77545c-1.68449,1.56885 -4.58869,0.46929 -6.89057,0.45737c-8.17924,-0.04232 -16.68925,-1.81298 -24.80882,-2.7755c-19.29136,0.01703 -38.58267,0.00715 -57.87398,-0.03621c-14.80464,-0.03327 -30.15103,0.34013 -44.83928,-1.57496c-11.57726,-1.51716 -23.14653,-3.06735 -34.70787,-4.70165c-8.165,-1.1542 -16.32107,-2.63215 -24.56156,-3.00436c-6.30008,-0.28457 -16.85892,1.80657 -20.18044,-5.22117c-0.24516,-0.5187 -0.19897,-9.53554 -0.20273,-10.16562c-0.02963,-4.96286 -0.09061,-9.82254 -0.54547,-14.76555c-0.75385,-8.24005 -2.6789,-16.53494 -2.93244,-24.80225c-0.07053,-2.29985 -1.11217,-4.96878 0.13644,-6.90146c0.89047,-1.37832 3.21838,-0.68599 4.85363,-0.82249c4.90507,-0.40943 10.07596,-0.00002 15.00001,0c17.67433,0.00006 35.34861,-0.00116 53.02291,0.03028c10.02097,0.01866 20.02201,0.69856 30.03756,0.97045c6.11416,0.16598 12.32688,-0.26757 18.42429,0.18826c13.25744,0.9911 26.4741,3.61514 39.74157,4.82128c0,0 2.48973,0.22634 2.26339,2.71607c-0.22634,2.48973 -2.71607,2.26339 -2.71607,2.26339c-13.24006,-1.20364 -26.43247,-3.82566 -39.66164,-4.81466c-6.01236,-0.44947 -12.14298,-0.01243 -18.1725,-0.17581c-9.978,-0.27037 -19.94216,-0.95208 -29.92549,-0.969c-14.99853,-0.02668 -29.997,-0.03005 -44.99555,-0.0302c-6.00616,-0.00006 -12.01232,-0.00008 -18.01848,-0.00008c-1.66667,0 -3.34806,0.22106 -5,0c-0.46615,-0.06238 -1.14322,-1.29278 -1.14637,-0.82249c-0.00725,1.08401 0.91531,1.98665 1.13148,3.04891c1.62933,8.00665 2.18986,16.70236 2.93642,24.8437c0.46371,5.08538 0.53575,10.08667 0.56622,15.19177c0.01648,2.76084 -0.98617,5.64069 -0.17832,8.28074c0.80851,2.64222 4.11521,1.6418 5.79893,1.68698c4.99125,0.13393 10.13228,0.22608 15.10299,0.68932c18.21838,1.69785 36.42835,5.12944 54.57877,7.50799c14.46747,1.90606 29.61622,1.49981 44.20083,1.53259c19.38515,0.04356 38.77017,0.02862 58.15535,0.04476c6.65857,0.77774 13.31242,1.58611 19.98092,2.27412c1.63315,0.1685 3.28195,0.22423 4.89939,0.50608c1.05897,0.18453 2.32929,1.63705 3.10015,0.88788c0.78826,-0.76607 -0.60028,-2.12808 -0.69746,-3.22296c-0.40461,-4.55864 -0.93017,-8.70619 -1.84192,-13.26492c-2.28997,-11.44987 -5.33858,-22.73403 -7.51923,-34.20035c-0.81916,-4.30731 -2.36916,-9.08631 -2.52994,-13.45602c-5.68526,1.05698 -11.76376,0.47189 -17.53822,0.47189c-4.96194,0 -10.34454,0.52606 -15.27279,-0.01493c-0.53969,-0.05924 -8.13092,-1.82378 -9.20404,-2.03097c-3.20254,-0.61831 -6.49972,-0.56503 -9.73987,-0.93923c-2.60361,-0.30068 -5.17612,-0.9963 -7.79698,-1.01492l-2.98632,0.00004c0,0 -2.5,0 -2.5,-2.5z" fill="#59ff55" stroke-width="0.5"/><path d="M256,181.5c0,-2.5 2.5,-2.5 2.5,-2.5h4c2.49814,0 4.94435,0.01271 7.38004,-0.10924c-0.11029,-3.29177 -0.24077,-6.62161 -0.12698,-9.87762c-0.98305,-0.35677 -1.93469,-0.76019 -2.68298,-1.46245c-0.10728,-0.10068 -0.20938,-0.20547 -0.30688,-0.31389l-0.03097,0.03097l-2,-2c-0.45241,-0.45241 -0.73223,-1.07741 -0.73223,-1.76777c0,-1.38071 1.11929,-2.5 2.5,-2.5h3v0.18327l0.51014,-0.13067c0.18628,0.07818 0.37292,0.15535 0.5599,0.23158c0.23519,-1.58976 0.43635,-3.18126 0.42996,-4.78418c0,0 0,-2.5 2.5,-2.5c2.5,0 2.5,2.5 2.5,2.5c-0.00775,2.19386 -0.3352,4.36999 -0.6506,6.54648c4.0221,1.36478 8.11421,2.54725 12.07907,4.13232c0,0 2.32119,0.92848 1.39272,3.24967c-0.2987,0.74676 -0.74155,1.15718 -1.20488,1.37038c1.70119,0.89115 3.98046,1.51452 4.35141,3.30069c0.92077,4.43366 -6.65639,5.65386 -8.53848,6.23176c-2.8822,0.88499 -5.66155,1.49124 -8.43855,1.89923c0.00598,0.42503 0.00931,0.84829 0.00931,1.26947v2c0,0 0,2.5 -2.5,2.5c-2.5,0 -2.5,-2.5 -2.5,-2.5v-2c0,-0.24395 -0.00099,-0.48849 -0.00286,-0.73357c-2.43402,0.17314 -4.9113,0.23357 -7.49714,0.23357h-4c0,0 -2.5,0 -2.5,-2.5zM277.37361,177.93431c1.56892,-0.35256 3.07522,-0.94173 4.61889,-1.39213c0.7712,-0.22502 1.53183,-0.50551 2.30124,-0.74331c-1.56208,-0.55573 -3.09175,-1.66722 -3.87671,-2.04561c-1.89587,-0.91389 -3.81453,-1.77937 -5.73041,-2.65083c-0.02341,2.4186 0.0707,4.87214 0.16177,7.30623c0.83909,-0.12835 1.68028,-0.28447 2.52523,-0.47435z" fill="#59ff55" stroke-width="0.5"/></g></g></svg>