<svg version="1.1" xmlns="http://www.w3.org/2000/svg" xmlns:xlink="http://www.w3.org/1999/xlink" width="967" height="400" viewBox="0,0,967,400"><g transform="translate(145.5,20)"><g data-paper-data="{&quot;isPaintingLayer&quot;:true}" fill-rule="nonzero" stroke-linecap="butt" stroke-linejoin="miter" stroke-miterlimit="10" stroke-dasharray="" stroke-dashoffset="0" style="mix-blend-mode: normal"><path d="M-145.5,380v-400h967v400z" fill="#000000" stroke="#000000" stroke-width="0"/><path d="M57.4538,173.48816v-162.00784h559.84988v162.00785z" fill="#ffffff" stroke="#000000" stroke-width="0"/><text transform="translate(74.48216,80.99088) scale(0.99618,0.99618)" font-size="40" xml:space="preserve" fill="#000000" fill-rule="nonzero" stroke="none" stroke-width="1" stroke-linecap="butt" stroke-linejoin="miter" stroke-miterlimit="10" stroke-dasharray="" stroke-dashoffset="0" font-family="&quot;Consolas&quot;, Sans Serif" font-weight="normal" text-anchor="start" style="mix-blend-mode: normal"><tspan x="0" dy="0">This game is best played</tspan><tspan x="0" dy="46.15px">in widescreen</tspan></text><path d="M413.88081,281.10655c0.07932,-0.15994 0.16138,-0.31168 0.24594,-0.45553c-4.57912,-2.04865 -9.64084,-3.3372 -14.36672,-5.50784c-15.78522,-7.25036 -31.21933,-15.35721 -46.78225,-23.07313c-5.56169,-2.7574 -11.28446,-5.33346 -16.73777,-8.2984c-1.24746,-0.67824 -2.22863,-1.97796 -3.62455,-2.23791c-2.02413,-0.37692 -5.98617,4.8377 -6.15721,5.01213c-2.75264,2.80737 -5.10732,6.07696 -6.85375,9.59949c-4.28779,4.39579 -10.30719,8.9708 -13.87764,13.97165c-2.6067,3.65098 -4.78419,7.67551 -7.93028,10.87345c-1.53449,1.55978 -2.85716,3.36911 -4.62589,4.65724c-0.88096,0.64158 -2.67241,-0.01179 -3.11833,0.98263c-0.3442,0.76758 1.71116,0.10028 2.4879,0.42329c2.93863,1.22205 5.72708,2.77797 8.58377,4.18095c6.21041,3.05007 12.39858,6.14706 18.59755,9.22043c17.35771,8.60573 34.7154,17.21147 52.07311,25.8172c10.91346,5.41074 24.32547,9.90967 34.19055,17.02604c1.74857,1.26137 3.4582,2.68684 4.76025,4.406c0.64447,-1.83393 1.71005,-3.53768 2.84624,-5.11274c2.56018,-3.54906 6.70893,-5.75291 9.25178,-9.31445c3.62896,-5.08279 6.48043,-10.77311 10.15812,-15.81573c2.57866,-3.53569 6.61708,-5.82033 9.25178,-9.31443c0.9161,-1.21491 1.34948,-2.72763 2.02764,-4.08977c0.42321,-0.85005 1.79621,-1.75208 1.27642,-2.54675c-0.60938,-0.93171 -2.25261,-0.15201 -3.29584,-0.54072c-1.94515,-0.72476 -3.7195,-1.84408 -5.57925,-2.76612c-5.57925,-2.76614 -11.15852,-5.53225 -16.73777,-8.29839l-3.7195,-1.8441c0,0 -4.64939,-2.30511 -2.34428,-6.95448zM431.06943,283.83622c3.40772,1.68951 6.81543,3.37902 10.22317,5.06853c2.48582,1.23243 12.61289,6.00964 13.44196,7.75769c2.30922,4.86894 -1.23208,13.51876 -4.04093,17.5246c-2.5124,3.58306 -6.70893,5.75293 -9.25178,9.31444c-5.12098,7.17255 -8.99361,14.73843 -15.32226,21.10996c-1.34679,1.35592 -2.96778,2.47159 -4.08762,4.02022c-2.5109,3.47236 -3.92274,12.52015 -8.90384,13.25803c-5.01308,0.74261 -9.59164,-7.55426 -13.18307,-10.15125c-9.36634,-6.7729 -22.3748,-11.01835 -32.76059,-16.1675c-21.0772,-10.44983 -42.15443,-20.89964 -63.23163,-31.34945c-6.49527,-3.22028 -23.89871,-8.13288 -24.2793,-17.55613c-0.13918,-3.44583 3.93352,-5.67599 6.13344,-8.33182c2.61485,-3.15676 6.33164,-5.34136 8.7135,-8.67745c1.20617,-1.68937 1.54297,-3.90213 2.76614,-5.57925c3.69075,-5.06052 9.40026,-9.56808 13.87764,-13.97168c3.83135,-7.7278 12.1397,-19.32639 22.152,-18.92661c2.73872,0.10935 5.04592,2.14446 7.53396,3.29434c5.64319,2.60809 11.16778,5.53686 16.7378,8.29839c15.47337,7.67151 30.82076,15.7189 46.50842,22.94229c9.37097,4.31487 17.99406,5.85602 25.51422,13.06286c0,0 2.29977,2.28431 1.45879,5.05981z" fill="#ffffff" stroke="none" stroke-width="0.5"/><path d="M295.79427,224.87761c-1.97571,3.98499 -5.67358,2.86106 -6.69009,2.45847c-2.59657,1.3723 -4.74895,3.67981 -7.2654,5.25219c-3.28423,2.05211 -16.04627,6.68547 -19.78433,6.3987c-2.15976,-0.16571 -4.04276,-1.44117 -5.97709,-2.51084c-2.41704,1.02101 -4.82832,1.9552 -7.12048,1.09192c-3.01368,-1.13503 -3.15978,-5.62161 -4.48789,-8.55533c-3.52058,-7.77669 -6.48755,-15.73951 -10.8006,-23.16622l-1.35831,-3.71402c0,0 -1.65765,-4.91757 3.2599,-6.57523c4.91757,-1.65766 6.57523,3.25993 6.57523,3.25993l0.51712,1.84957c3.50283,6.12684 6.62177,12.60159 9.57908,18.9906c0.8136,1.75769 1.5871,3.57825 1.96344,5.477c0.47015,-1.33686 0.9447,-2.67034 1.97348,-3.57924c1.66616,-1.47197 4.35537,-1.18249 6.23381,-2.3717c1.51343,-0.95813 2.43972,-2.62368 3.68716,-3.90913c4.36998,-4.50317 9.55696,-11.3639 14.81636,-14.71974c4.94684,-3.15643 11.96768,-3.52486 17.29977,-5.95139c2.62767,-1.19582 4.81182,-3.47039 7.62952,-4.09896c2.29606,-0.51222 4.66277,1.01742 7.00809,0.83359c5.91841,-0.4639 13.43571,-5.13855 19.38441,-4.71496c2.45141,0.17455 4.38142,2.3022 6.74364,2.98028c8.31928,2.38806 15.90207,0.98601 24.01377,4.87726c0,0 4.64939,2.30511 2.34428,6.9545c-2.30511,4.64938 -6.9545,2.34428 -6.9545,2.34428c-4.2914,-2.22391 -9.361,-2.58581 -14.16886,-3.08218c-2.76736,-0.28569 -5.59463,-0.38394 -8.26423,-1.16698c-1.63108,-0.47842 -2.72256,-2.39256 -4.41488,-2.55198c-1.46423,-0.13791 -2.61681,1.41688 -4.04818,1.7548c-4.53559,1.07077 -9.02388,2.5569 -13.66849,2.9387c-2.01786,0.16587 -4.01349,-1.3972 -5.99453,-0.97916c-2.06019,0.43475 -3.44161,2.46422 -5.34174,3.3714c-4.76019,2.27266 -11.6882,2.46427 -16.08181,5.30113c-4.66022,3.00903 -8.97636,9.31075 -12.93892,13.22357c-1.60264,1.58253 -3.05328,2.69029 -4.38759,3.61075c2.52967,-0.60233 5.13958,-1.00777 7.27705,-2.42122c1.82511,-1.2069 2.77026,-3.49777 4.62587,-4.65723c1.99713,-1.24787 4.43272,-1.59189 6.64909,-2.38783l5.82251,1.19023c0,0 4.64938,2.30511 2.34427,6.95449zM290.83763,226.60071l0.10516,-0.03269c-0.03514,0.01071 -0.0702,0.02161 -0.10516,0.03269z" fill="#ffffff" stroke="none" stroke-width="0.5"/></g></g></svg>