<svg version="1.1" xmlns="http://www.w3.org/2000/svg" xmlns:xlink="http://www.w3.org/1999/xlink" width="71.0484" height="67.91474" viewBox="0,0,71.0484,67.91474"><g transform="translate(-507.65136,-209.40521)"><g data-paper-data="{&quot;isPaintingLayer&quot;:true}" fill-rule="nonzero" stroke-linecap="butt" stroke-linejoin="miter" stroke-miterlimit="10" stroke-dasharray="" stroke-dashoffset="0" style="mix-blend-mode: normal"><path d="M571.48353,243.5c0,8.28427 -12.98374,15 -29,15c-16.01626,0 -29,-6.71573 -29,-15c0,-8.28427 12.98374,-15 29,-15c16.01626,0 29,6.71573 29,15z" fill="#252525" stroke="#848484" stroke-width="2.5"/><path d="M569.64987,245.94769c0.55231,-0.83364 1.38595,-0.28132 1.38595,-0.28132l0.59958,0.39724c0.61844,0.42202 1.23689,0.84404 1.85533,1.26607c1.60149,2.92255 4.26221,5.87938 4.97131,9.23589c0.5229,2.47515 0.02477,5.68533 -0.00742,8.21824c-0.04154,3.26762 0.10274,6.00416 -3.12655,7.84489c-2.06982,1.17982 -4.08364,0.8713 -6.35089,0.8713c-3.33333,0 -6.66667,0 -10,0c-13.77284,0 -28.50104,1.44666 -42.1071,-0.72306c-2.47077,-0.3956 -6.54155,0.27193 -8.27761,-1.94761c-2.36791,-3.02735 0.38442,-3.55974 1.16922,-6.17429c1.53394,-5.11033 2.41857,-10.02444 2.85731,-15.35164c0.17143,-2.08143 0.87916,-3.71812 0.86452,-5.8034c0,0 0,-1 1,-1c1,0 1,1 1,1c-0.01292,2.1613 -0.70466,3.83469 -0.87095,5.96356c-0.25712,3.29179 -0.33431,6.83025 -1.14333,10.04435c-0.32472,1.29006 -1.16692,2.41287 -1.48344,3.70497c-0.33833,1.38117 -0.52341,2.86881 -1.29063,4.06609c-0.29006,0.45265 -0.95676,0.66908 -1.08823,1.19037c-0.09716,0.38526 0.24107,0.78822 0.51719,1.07392c1.43817,1.48813 5.14749,0.95468 7.0609,1.25864c13.49712,2.15235 28.1287,0.6981 41.79215,0.6981c3.33333,0 6.66667,0 10,0c1.86438,0 3.66985,0.34292 5.36431,-0.61103c2.49964,-1.40725 2.08169,-3.63527 2.11329,-6.13053c0.03021,-2.38544 0.53657,-5.45253 0.05004,-7.78143c-0.62846,-3.00824 -3.1321,-5.64569 -4.49483,-8.30293c-0.49307,-0.3144 -0.98614,-0.62879 -1.47922,-0.94319l-0.59958,-0.39724c0,0 -0.83364,-0.55231 -0.28132,-1.38595z" fill="#848484" stroke="none" stroke-width="0.5"/><text transform="translate(521.48353,270.5) scale(0.41333,0.41333)" font-size="40" xml:space="preserve" fill="#ffffff" fill-rule="nonzero" stroke="none" stroke-width="1" stroke-linecap="butt" stroke-linejoin="miter" stroke-miterlimit="10" stroke-dasharray="" stroke-dashoffset="0" font-family="Handwriting" font-weight="normal" text-anchor="start" style="mix-blend-mode: normal"><tspan x="0" dy="0">Coffee</tspan></text><path d="M557.59977,221.75083c1.38071,0 2.5,1.11929 2.5,2.5c0,0.62172 -0.22695,1.19044 -0.60252,1.62782c0.6265,0.54611 0.9203,1.45735 0.46459,2.63961c-0.03468,0.08998 -0.07844,0.17731 -0.13028,0.26171c-0.33996,0.67142 -0.974,1.16868 -1.7327,1.32239c-0.04423,0.09386 -0.09413,0.18453 -0.14926,0.27155c0.17145,-0.03716 0.34946,-0.05673 0.53203,-0.05673c0.68827,0 1.31158,0.27813 1.76366,0.72814c0.45208,-0.45 1.07539,-0.72814 1.76366,-0.72814c1.38071,0 2.5,1.11929 2.5,2.5c0,0.35677 -0.07473,0.69609 -0.2094,1.00315c0.72913,0.43673 1.21721,1.23449 1.21721,2.14624c0,1.10317 -0.71453,2.03945 -1.70603,2.37129c-0.0258,0.19096 -0.07316,0.37509 -0.13954,0.54983c0.09757,0.06192 0.19055,0.13042 0.27833,0.20487c0.41752,-0.79814 1.25347,-1.34281 2.21663,-1.34281c0.7224,0 1.37324,0.3064 1.82964,0.79634c0.36184,0.33708 0.62358,0.78022 0.7357,1.27991c1.11625,0.25047 1.95027,1.24752 1.95027,2.43937c0,0.77534 -0.35295,1.46824 -0.90695,1.9268c0.96898,0.34428 1.66281,1.2693 1.66281,2.35638l-0.00002,-0.00002c0,1.38071 -1.11929,2.5 -2.5,2.5c-0.54959,0 -1.05777,-0.17735 -1.47041,-0.47793c-0.63783,0.3555 -1.20989,0.37621 -1.68657,0.24952c0.03456,0.16565 0.05273,0.33731 0.05273,0.51322c0,0.49221 -0.14225,0.9512 -0.38787,1.3381c0.41207,0.61825 0.80306,1.67532 -0.12443,2.8469c0.04557,0.18879 0.06972,0.38595 0.06972,0.58874c0,1.38071 -1.11929,2.5 -2.5,2.5c-1.38071,0 -2.5,-1.11929 -2.5,-2.5c0,-0.39989 0.09389,-0.77785 0.26083,-1.11304c-0.42618,-0.3653 -0.85237,-0.7306 -1.27854,-1.0959l-0.02008,-0.05133c-0.30556,0.84892 -1.05747,1.48478 -1.9726,1.62446c-0.35413,0.4388 -0.79563,0.6932 -0.96304,0.77962c0.25741,0.39304 0.40708,0.86299 0.40708,1.36789c0,1.38071 -1.11929,2.5 -2.5,2.5c-1.31179,0 -2.38761,-1.01034 -2.49174,-2.2953c-0.54594,-0.05119 -2.24503,-0.36854 -2.3294,-2.33599c-0.1661,-0.00345 -0.33053,-0.00707 -0.49325,-0.01017c-0.21195,0.10412 -0.42408,0.20715 -0.63631,0.30938c-0.1154,0.34837 -0.30535,0.66277 -0.55094,0.9243c0.32832,2.16151 -1.88309,2.71436 -1.88309,2.71436l-1.25287,0.31179c-0.31893,0.09112 -0.63786,0.18224 -0.95679,0.27337c-0.72981,0.55519 -1.60177,0.8962 -2.22711,0.63632c-0.49426,0.14122 -0.98851,0.28243 -1.48277,0.42365c0,0 -1.81728,0.51922 -2.74311,-0.92533c-0.01493,-0.01443 -0.02986,-0.02911 -0.0448,-0.04404c-1.1634,-1.1634 -0.79549,-2.3268 -0.40795,-2.9863c-0.18928,-0.03916 -0.37074,-0.09971 -0.54173,-0.17903c0.08673,0.25374 0.13379,0.52586 0.13379,0.80898c0,1.38071 -1.11929,2.5 -2.5,2.5c-0.18134,0 -0.35818,-0.01931 -0.52856,-0.05598c-1.35738,0.56326 -2.72989,0.51394 -3.1931,-1.0909c-1.31113,-0.07924 -2.47971,-0.65461 -2.53397,-1.63136c-0.23719,-0.36538 -0.38155,-0.7966 -0.39964,-1.26023c-0.64238,-0.02632 -1.2851,-0.0404 -1.92773,-0.03962c0,0 -2.31364,0 -2.48945,-2.22573c-1.16724,0.57273 -3.17583,1.00694 -3.80177,-0.08846c-0.68594,-0.40483 -1.1617,-1.1279 -1.22417,-1.96609c-0.34458,0.17908 -0.73611,0.28029 -1.15129,0.28029c-1.38071,0 -2.5,-1.11929 -2.5,-2.5c0,-0.606 0.21562,-1.16164 0.57432,-1.59439c-0.15452,-0.32495 -0.24099,-0.68851 -0.24099,-1.07228h0.00001c0,-0.65535 0.25217,-1.25181 0.66477,-1.69764c-0.88883,-0.38324 -1.51101,-1.26734 -1.51101,-2.29676c0,-1.38071 1.11929,-2.5 2.5,-2.5c0.13241,0 0.26242,0.01029 0.38926,0.03013c0.06424,-0.3421 0.19817,-0.65962 0.38648,-0.93727c-0.31654,-0.41884 -0.50427,-0.94045 -0.50427,-1.50591c0,-0.50596 0.1503,-0.97681 0.40869,-1.37034c-0.02025,-0.12813 -0.03076,-0.2595 -0.03076,-0.39332c0,-0.32186 0.06082,-0.62951 0.1716,-0.91209c0.44074,-1.68557 1.39008,-2.17565 2.35026,-2.00172c-0.00157,-0.03635 -0.00236,-0.0729 -0.00236,-0.10963c0,-1.38071 1.11929,-2.5 2.5,-2.5c0.41554,0 0.80741,0.10138 1.1522,0.28076c0.22294,-0.14592 0.4706,-0.25718 0.73534,-0.32615c-0.59937,-0.4567 -0.9862,-1.17805 -0.9862,-1.98975c0,-1.38071 1.11929,-2.5 2.5,-2.5c0.26847,0 0.52706,0.04232 0.76945,0.12065c0.23635,-0.31546 0.54552,-0.57322 0.90257,-0.74834c-0.00978,-0.08987 -0.0148,-0.18116 -0.0148,-0.27363c0,-0.39716 0.09261,-0.77269 0.25742,-1.10617c-0.39515,-0.44214 -0.63537,-1.02567 -0.63537,-1.66532c0,-1.38071 1.11929,-2.5 2.5,-2.5c1.02321,0 1.90285,0.6147 2.28977,1.49497c0.27986,-0.36914 0.65991,-0.65815 1.09965,-0.82654c-0.15907,0.03174 -0.32358,0.04839 -0.49198,0.04839c-1.38071,0 -2.5,-1.11929 -2.5,-2.5c0,-1.38071 1.11929,-2.5 2.5,-2.5c0.16995,0 0.33595,0.01696 0.49638,0.04928c-0.06441,-0.22173 -0.09894,-0.45617 -0.09894,-0.69867c0,-1.38071 1.11929,-2.5 2.5,-2.5c0.75807,0 1.43733,0.3374 1.8958,0.87023c0.23667,-0.0743 0.48851,-0.11436 0.74971,-0.11436c1.01433,0 1.88757,0.60408 2.27959,1.4721c0.10978,-0.10781 0.22946,-0.20557 0.35757,-0.29178c-0.0639,-0.22092 -0.09815,-0.45444 -0.09815,-0.69595c0,-1.38071 1.11929,-2.5 2.5,-2.5c1.38071,0 2.5,1.11929 2.5,2.5c0,0.86454 -0.43884,1.62659 -1.10593,2.07554c0.03707,0.12815 0.06416,0.26054 0.08037,0.39627c0.17427,-0.03846 0.35536,-0.05873 0.54119,-0.05873c1.07948,0 1.99917,0.68418 2.34908,1.64255c0.25126,-0.08485 0.52042,-0.13084 0.80031,-0.13084c0.16836,0 0.33283,0.01664 0.49186,0.04837c-0.93925,-0.3597 -1.60614,-1.2697 -1.60614,-2.33546c0,-1.38071 1.11929,-2.5 2.5,-2.5c1.38071,0 2.5,1.11929 2.5,2.5c0,0.36421 -0.07788,0.71022 -0.2179,1.0223c1.00374,0.32479 1.72963,1.26715 1.72963,2.37905c0,0.4675 -0.12832,0.90502 -0.35166,1.27928c1.37761,0.00364 2.49325,1.12153 2.49325,2.49999c0,0.89992 -0.47549,1.68878 -1.18894,2.12905c0.42327,0.11959 0.80093,0.34787 1.10094,0.65278c0.04822,-0.03596 0.09777,-0.07023 0.14858,-0.10271c0.34736,-0.96323 1.26948,-1.65181 2.35244,-1.65181zM534.34154,215.77115c0.05238,-0.04324 0.10656,-0.08439 0.1624,-0.12331c-0.06826,-0.008 -0.13568,-0.01876 -0.20215,-0.03215c0.01486,0.05116 0.02813,0.103 0.03976,0.15546zM533.28647,218.60146c0.10873,0 0.21583,0.00694 0.3209,0.0204c-0.04833,-0.12177 -0.08736,-0.24824 -0.11623,-0.37854c-0.2069,0.17078 -0.44175,0.30892 -0.69665,0.40653c0.15907,-0.03174 0.32358,-0.04839 0.49198,-0.04839zM526.45756,229.84653c0.02017,-0.03975 0.04195,-0.08067 0.06542,-0.1224c-0.1713,-0.17982 -0.31609,-0.38513 -0.42809,-0.60965c-0.07787,0.02894 -0.15758,0.05412 -0.23889,0.0753c0.23751,0.18098 0.44165,0.40351 0.60157,0.65676zM522.00741,234.15665c0.11813,-0.15564 0.25408,-0.29702 0.40481,-0.4211c-0.16147,0.03904 -0.32907,0.0624 -0.50108,0.06838c0.04001,0.11704 0.07237,0.2349 0.09626,0.35272zM524.60874,249.27936c-0.95895,-0.87822 -1.77501,-1.93635 -2.70985,-2.84493c0,0 -0.38741,-0.38741 -0.61815,-0.98088c-0.2886,-0.23241 -0.55437,-0.4885 -0.78346,-0.7828c-0.06462,-0.08301 -0.12807,-0.16678 -0.19043,-0.25127l-0.02649,0.02208l-1.90574,-2.28689c-0.10379,0.20019 -0.23386,0.38457 -0.38563,0.54857c0.78117,0.33682 1.35638,1.06052 1.48426,1.92973c0.84464,0.28773 1.48596,1.01485 1.65154,1.90891c0.94291,0.17462 1.70013,0.87839 1.9521,1.79174c0.36386,0.36007 0.63417,0.80439 0.76574,1.28287c0.25646,-0.16625 0.52697,-0.27105 0.76611,-0.33712zM534.83599,252.7831l-0.10289,-0.02289c-0.07721,-0.0214 -0.15386,-0.0429 -0.22997,-0.0645c-0.0178,0.08883 -0.04108,0.17993 -0.07033,0.27331c0.17197,0.05835 0.32888,0.14567 0.46535,0.26573c-0.03394,-0.14606 -0.05507,-0.29702 -0.06216,-0.45165zM549.61929,219.86729c0.04759,0.13056 0.08461,0.2662 0.11002,0.40588c0.18497,-0.19718 0.40156,-0.36434 0.64167,-0.49341c0.04752,-0.11649 0.10358,-0.2286 0.1674,-0.33554c-0.21224,-0.00056 -0.41826,-0.02757 -0.61494,-0.0779c-0.08181,0.17936 -0.1842,0.34735 -0.30414,0.50096zM543.8489,220.47156c0,0.10753 -0.00679,0.21348 -0.01996,0.31743c0.34057,-0.18985 0.65949,-0.29107 0.95444,-0.32804c0.04978,-0.47698 0.23368,-0.91407 0.51332,-1.27289c-0.25072,0.08444 -0.51922,0.1302 -0.79841,0.1302c-0.38476,0 -0.74922,-0.08692 -1.07481,-0.24219c0.26862,0.39855 0.42542,0.87871 0.42542,1.39549zM541.3489,222.97156c-0.22189,0 -0.43703,-0.02891 -0.64186,-0.08316c0.28946,0.40801 0.45962,0.90661 0.45962,1.44494c0,0.30043 -0.05299,0.58849 -0.15015,0.85533c0.30395,0.414 0.48348,0.92503 0.48348,1.478c0,0.57389 -0.19337,1.10261 -0.51851,1.52456c0.11495,-0.01619 0.23242,-0.02456 0.35184,-0.02456c0.1939,0 0.38264,0.02207 0.56384,0.06384c-0.04177,-0.18121 -0.06384,-0.36995 -0.06384,-0.56384c0,-0.79156 0.36788,-1.4972 0.94199,-1.95527c-0.01396,-0.10695 -0.02116,-0.21603 -0.02116,-0.32679c0,-0.33967 0.06774,-0.66352 0.19045,-0.95877c-0.02153,-0.03361 -0.04306,-0.06723 -0.0646,-0.10084c0,0 -0.46344,-0.7415 -0.40362,-1.62152c-0.33876,0.17147 -0.72184,0.26808 -1.12748,0.26808zM555.83611,231.53791c-0.02429,0 -0.04851,-0.00035 -0.07264,-0.00103c0.17097,0.02965 0.33599,0.07667 0.49317,0.13917c0.03431,-0.06675 0.07153,-0.13176 0.1115,-0.19486c-0.17145,0.03716 -0.34946,0.05673 -0.53203,0.05673zM560.24526,234.58904c-0.04879,0.04857 -0.09958,0.09513 -0.15222,0.13956c0.04811,0.19364 0.07364,0.39621 0.07364,0.60473c0,0.16417 -0.01582,0.32464 -0.04603,0.47997c0.13263,-0.07371 0.27267,-0.13571 0.41872,-0.18459c0.03155,-0.23354 0.09535,-0.45686 0.18677,-0.6653c-0.17538,-0.10505 -0.33682,-0.23099 -0.48087,-0.37438zM553.44805,232.3581c0.11075,-0.12706 0.23413,-0.24282 0.36819,-0.34532c-0.20779,-0.03188 -0.40716,-0.08934 -0.59478,-0.16906c0.09917,0.1771 0.17346,0.34872 0.22658,0.51438zM549.03342,223.89242c0.73037,0 1.38759,0.3132 1.84468,0.81262c0.02252,-0.09964 0.051,-0.19702 0.08503,-0.29175c-0.95297,-0.23048 -1.69279,-1.00696 -1.86974,-1.97969c-0.29445,0.31387 -0.66899,0.55169 -1.09102,0.68085c0.17007,0.27743 0.34013,0.55487 0.5102,0.8323c0.168,-0.0356 0.34224,-0.05433 0.52085,-0.05433zM538.03648,216.35011c0.25028,0.38937 0.39546,0.85272 0.39546,1.34998c0,0.06481 -0.00247,0.12905 -0.00731,0.19262c0.29745,-0.60113 0.82955,-1.06547 1.47659,-1.27335c-0.30115,-0.24425 -0.5444,-0.55711 -0.70593,-0.91479c-0.31602,0.31037 -0.71415,0.53741 -1.15881,0.64554zM531.88121,223.369c0,0.11387 -0.00761,0.22596 -0.02236,0.33579c0.02034,-0.03051 0.04068,-0.06102 0.06102,-0.09153l0.48013,-0.17353c-0.18753,-0.07113 -0.36427,-0.16417 -0.5271,-0.276c0.0055,0.0677 0.00831,0.13616 0.00831,0.20527zM535.76639,222.62457c-0.09791,-0.11442 -0.18566,-0.23778 -0.26187,-0.36869c-0.04975,0.09539 -0.10547,0.18717 -0.16667,0.27484c0.12179,0.01827 0.26895,0.0474 0.42853,0.09385zM521.42522,236.09255c0,0.20548 -0.02479,0.40516 -0.07154,0.59623l0.37866,0.03179c-0.11264,-0.24196 -0.1877,-0.50495 -0.21767,-0.78146c-0.02886,0.02876 -0.05897,0.05705 -0.09038,0.08486c0.00061,0.02278 0.00092,0.04564 0.00092,0.06857zM536.28453,247.31799c0,0 0.1288,0.28981 0.19144,0.70886l2.39971,0.53267c0,0 0.11567,0.02571 0.29106,0.09111c0.00157,-0.24967 0.03973,-0.49065 0.1094,-0.71786c-0.38331,-0.17913 -0.71366,-0.45265 -0.96117,-0.79066c-0.73365,-0.09225 -1.46805,-0.16133 -2.20309,-0.21259zM555.63975,236.79706c0.01913,0.05574 0.0375,0.11175 0.05513,0.16802c0.01724,-0.01024 0.03462,-0.02029 0.05213,-0.03012c-0.03731,-0.04467 -0.07309,-0.09066 -0.10726,-0.1379zM559.34891,241.70126c0.08742,-0.03748 0.1774,-0.07013 0.26962,-0.0976c-0.35137,-0.16248 -0.65863,-0.40414 -0.89891,-0.70207c-0.07276,0.0713 -0.14985,0.1382 -0.23085,0.20024c0.29163,0.19299 0.5785,0.39294 0.86014,0.59943zM536.52578,227.027c-0.14784,0.09964 -0.3011,0.17828 -0.45093,0.24036c0.35813,0.24458 0.6494,0.57984 0.84075,0.97274c0.02929,-0.02232 0.05935,-0.0442 0.09018,-0.06553c-0.24886,-0.32861 -0.41837,-0.72065 -0.48,-1.14757zM531.74573,230.53699c0.16048,0.10159 0.3145,0.22987 0.45475,0.39113c0.02013,-0.13296 0.05073,-0.26248 0.09094,-0.3877c-0.17174,0.02184 -0.35392,0.023 -0.54569,-0.00343zM530.83333,237.33333c0,0.3842 -0.08667,0.74817 -0.24152,1.0734c0.30913,0.07538 0.61794,0.15208 0.92643,0.23006c-0.01203,-0.09946 -0.01823,-0.20073 -0.01823,-0.30344c0,-0.47916 0.1348,-0.92684 0.36855,-1.30717c-0.59748,-0.43269 -0.99604,-1.12317 -1.03249,-1.90826c-0.3226,0.08065 -0.64521,0.1613 -0.96781,0.24195c0.58731,0.45746 0.96506,1.17134 0.96506,1.97346zM563.43568,246.5778c-0.01188,0.00584 -0.02381,0.0116 -0.03579,0.01726c0.03325,0.02251 0.06593,0.0458 0.09801,0.06985zM544.05956,247.94044c0.21622,0.06553 0.42004,0.15957 0.60711,0.27774c0.04442,-0.02806 0.08978,-0.05476 0.13603,-0.08003c0.03232,-0.25161 0.10872,-0.52274 0.2421,-0.81341c-0.41298,0.16658 -0.83597,0.18932 -1.17163,0.16554c0.07607,0.14239 0.13877,0.293 0.18639,0.45016z" fill="#5a2d24" stroke="none" stroke-width="0.5"/></g></g></svg>