<svg version="1.1" xmlns="http://www.w3.org/2000/svg" xmlns:xlink="http://www.w3.org/1999/xlink" width="731" height="444" viewBox="0,0,731,444"><g transform="translate(26.5,32)"><g data-paper-data="{&quot;isPaintingLayer&quot;:true}" fill-rule="nonzero" stroke-linejoin="miter" stroke-miterlimit="10" stroke-dasharray="" stroke-dashoffset="0" style="mix-blend-mode: normal"><path d="M-26.5,412v-444h731v444z" fill="none" stroke="none" stroke-width="0" stroke-linecap="butt"/><text transform="translate(433.79957,26.65304) scale(0.22291,0.22291)" font-size="40" xml:space="preserve" fill="#ffffff" fill-rule="nonzero" stroke="none" stroke-width="1" stroke-linecap="butt" stroke-linejoin="miter" stroke-miterlimit="10" stroke-dasharray="" stroke-dashoffset="0" font-family="Pixel" font-weight="normal" text-anchor="start" style="mix-blend-mode: normal"><tspan x="0" dy="0">Floor Level</tspan></text><g stroke-linecap="butt"><path d="M394.28788,49v-22.5h34.09091v22.5z" fill-opacity="0.8549" fill="#585858" stroke="#ffffff" stroke-width="2"/><text transform="translate(397.18561,36.38822) scale(0.23263,0.20308)" font-size="40" xml:space="preserve" fill="#fafafa" fill-rule="nonzero" stroke="none" stroke-width="1" stroke-linecap="butt" stroke-linejoin="miter" stroke-miterlimit="10" stroke-dasharray="" stroke-dashoffset="0" font-family="Pixel" font-weight="normal" text-anchor="start" style="mix-blend-mode: normal"><tspan x="0" dy="0">CAM</tspan><tspan x="0" dy="46.150000000000006px">1</tspan></text></g><g stroke-linecap="butt"><path d="M466.5,108.19v-22.69h34.37879v22.69z" fill-opacity="0.8549" fill="#585858" stroke="#ffffff" stroke-width="2"/><text transform="translate(469.4222,95.47172) scale(0.23459,0.20479)" font-size="40" xml:space="preserve" fill="#fafafa" fill-rule="nonzero" stroke="none" stroke-width="1" stroke-linecap="butt" stroke-linejoin="miter" stroke-miterlimit="10" stroke-dasharray="" stroke-dashoffset="0" font-family="Pixel" font-weight="normal" text-anchor="start" style="mix-blend-mode: normal"><tspan x="0" dy="0">CAM</tspan><tspan x="0" dy="46.150000000000006px">2</tspan></text></g><g stroke-linecap="butt"><path d="M393.83333,171.16667v-22h33.33333v22z" fill-opacity="0.8549" fill="#585858" stroke="#ffffff" stroke-width="2"/><text transform="translate(396.66667,158.83515) scale(0.22746,0.19857)" font-size="40" xml:space="preserve" fill="#fafafa" fill-rule="nonzero" stroke="none" stroke-width="1" stroke-linecap="butt" stroke-linejoin="miter" stroke-miterlimit="10" stroke-dasharray="" stroke-dashoffset="0" font-family="Pixel" font-weight="normal" text-anchor="start" style="mix-blend-mode: normal"><tspan x="0" dy="0">CAM</tspan><tspan x="0" dy="46.150000000000006px">3</tspan></text></g><text transform="translate(379.33333,133.12898) scale(0.20454,0.20454)" font-size="40" xml:space="preserve" fill="#ffffff" fill-rule="nonzero" stroke="none" stroke-width="1" stroke-linecap="butt" stroke-linejoin="miter" stroke-miterlimit="10" stroke-dasharray="" stroke-dashoffset="0" font-family="Pixel" font-weight="normal" text-anchor="start" style="mix-blend-mode: normal"><tspan x="0" dy="0">Stairs</tspan></text><g stroke-width="1" stroke-linecap="butt"><path d="M449.37007,107.59654v-14.26509l-38.73736,-0.07643l-0.20061,-57.4495l79.73388,-0.30549l-0.91648,97.45251l-32.77907,0.63024l-0.1539,30.82506l-46.12975,-0.05511l0.9747,-56.75234z" fill="none" stroke="#ffffff"/><path d="M456.69615,154.69765v-6.72086h2.04777v6.72086z" fill="none" stroke="#ffffff"/><path d="M459.10328,163.1964v-28.01627h30.22684v28.01627z" fill="none" stroke="#ffffff"/><path d="M469.23965,135.4307v-2.11776h7.33186v2.11776z" fill="none" stroke="#ffffff"/><text transform="translate(421.37898,146.97475) rotate(-90.25254) scale(0.1089,0.27495) skewX(-0.54026)" font-size="40" xml:space="preserve" fill="#ffffff" fill-rule="nonzero" stroke="none" stroke-width="1" stroke-linecap="butt" stroke-linejoin="miter" stroke-miterlimit="10" stroke-dasharray="" stroke-dashoffset="0" font-family="Sans Serif" font-weight="normal" text-anchor="start" style="mix-blend-mode: normal"><tspan x="0" dy="0">||||||||||||||||</tspan></text></g><text transform="translate(539.29957,335.11734) scale(0.23303,0.23303)" font-size="40" xml:space="preserve" fill="#ffffff" fill-rule="nonzero" stroke="none" stroke-width="1" stroke-linecap="butt" stroke-linejoin="miter" stroke-miterlimit="10" stroke-dasharray="" stroke-dashoffset="0" font-family="Pixel" font-weight="normal" text-anchor="start" style="mix-blend-mode: normal"><tspan x="0" dy="0">Basement</tspan></text><path d="M518.16667,167.5v49" fill="none" stroke="#ffffff" stroke-width="1" stroke-linecap="round"/><path d="M518.13336,234.34844l-0.10838,-17.66567l-9.63457,-0.00161l0.09048,-48.81688l10.82229,0.42079l0.10773,-9.65771l42.13765,-0.66539l-0.13282,10.17606l43.38263,0.13562l0.69769,48.86166l-44.81211,-0.27229l-0.03397,22.05813l0.01891,62.78238l-34.69706,0.0319l-0.30264,-45.05231l-6.23818,-0.18195l0.32167,63.32967l-25.06591,-0.07924l0.85859,-85.40853z" fill="none" stroke="#ffffff" stroke-width="1" stroke-linecap="butt"/><path d="M560.78944,276.00383v-9.66433h3.95359v9.66433z" fill="none" stroke="#ffffff" stroke-width="1" stroke-linecap="butt"/><path d="M536.70668,306.63415v-4.06036h10.54292v4.06036z" fill="none" stroke="#ffffff" stroke-width="1" stroke-linecap="butt"/><text transform="translate(511.86669,318.11112) rotate(-90.25062) scale(0.1566,0.39537) skewX(-0.53395)" font-size="40" xml:space="preserve" fill="#ffffff" fill-rule="nonzero" stroke="none" stroke-width="1" stroke-linecap="butt" stroke-linejoin="miter" stroke-miterlimit="10" stroke-dasharray="" stroke-dashoffset="0" font-family="Sans Serif" font-weight="normal" text-anchor="start" style="mix-blend-mode: normal"><tspan x="0" dy="0">||||||||||||||||||</tspan></text><path d="M525.38889,319.71781v-13.13705h35.32024v13.13705z" fill="none" stroke="#ffffff" stroke-width="1" stroke-linecap="butt"/><path d="M580.05495,288.42874l-9.66311,-0.15392l0.06296,-3.95309l9.66311,0.15391z" fill="none" stroke="#ffffff" stroke-width="1" stroke-linecap="butt"/><path d="M565.02678,284.00923v-24.12516h41.29307v24.53973z" fill="none" stroke="#ffffff" stroke-width="1" stroke-linecap="butt"/><path d="M565.02678,312.25361v-23.59135h41.29307v23.99674z" fill="none" stroke="#ffffff" stroke-width="1" stroke-linecap="butt"/><path d="M560.78944,247.04464v-9.66433h3.95359v9.66433z" fill="none" stroke="#ffffff" stroke-width="1" stroke-linecap="butt"/><path d="M565.02678,256.1519v-33.73378h41.29307v34.31345z" fill="none" stroke="#ffffff" stroke-width="1" stroke-linecap="butt"/><path d="M581.90449,244.96389v-4.70587h4.70587v4.70587z" fill="#ffffff" stroke="none" stroke-width="0" stroke-linecap="butt"/><text transform="translate(575.38868,237.69724) scale(0.19708,0.19708)" font-size="40" xml:space="preserve" fill="#ffffff" fill-rule="nonzero" stroke="none" stroke-width="1" stroke-linecap="butt" stroke-linejoin="miter" stroke-miterlimit="10" stroke-dasharray="" stroke-dashoffset="0" font-family="Pixel" font-weight="normal" text-anchor="start" style="mix-blend-mode: normal"><tspan x="0" dy="0">YOU</tspan></text><g fill="none" stroke="#ffffff" stroke-width="1" stroke-linecap="round"><path d="M608.10351,226.81914h-4.07239"/><path d="M604.03112,234.96392h4.34388"/></g><path d="M532.00081,158.2183v-4.06035h10.54292v4.06035z" fill="none" stroke="#ffffff" stroke-width="1" stroke-linecap="butt"/><path d="M509.14454,153.83294v-28.95919h75.29389v28.95919z" fill="none" stroke="#ffffff" stroke-width="1" stroke-linecap="butt"/><g stroke-linecap="butt"><path d="M584.5,288.53v-22.03h33.37879v22.03z" fill-opacity="0.8549" fill="#585858" stroke="#ffffff" stroke-width="2"/><text transform="translate(587.3372,276.18167) scale(0.22777,0.19884)" font-size="40" xml:space="preserve" fill="#fafafa" fill-rule="nonzero" stroke="none" stroke-width="1" stroke-linecap="butt" stroke-linejoin="miter" stroke-miterlimit="10" stroke-dasharray="" stroke-dashoffset="0" font-family="Pixel" font-weight="normal" text-anchor="start" style="mix-blend-mode: normal"><tspan x="0" dy="0">CAM</tspan><tspan x="0" dy="46.150000000000006px">5</tspan></text></g><g stroke-linecap="butt"><path d="M519.5,301.03v-22.03h33.37879v22.03z" fill-opacity="0.8549" fill="#585858" stroke="#ffffff" stroke-width="2"/><text transform="translate(522.3372,288.68167) scale(0.22777,0.19884)" font-size="40" xml:space="preserve" fill="#fafafa" fill-rule="nonzero" stroke="none" stroke-width="1" stroke-linecap="butt" stroke-linejoin="miter" stroke-miterlimit="10" stroke-dasharray="" stroke-dashoffset="0" font-family="Pixel" font-weight="normal" text-anchor="start" style="mix-blend-mode: normal"><tspan x="0" dy="0">CAM</tspan><tspan x="0" dy="46.150000000000006px">4</tspan></text></g><g stroke-linecap="butt"><path d="M498.5,185.19667v-22.03h33.37879v22.03z" fill-opacity="0.8549" fill="#585858" stroke="#ffffff" stroke-width="2"/><text transform="translate(501.3372,172.84833) scale(0.22777,0.19884)" font-size="40" xml:space="preserve" fill="#fafafa" fill-rule="nonzero" stroke="none" stroke-width="1" stroke-linecap="butt" stroke-linejoin="miter" stroke-miterlimit="10" stroke-dasharray="" stroke-dashoffset="0" font-family="Pixel" font-weight="normal" text-anchor="start" style="mix-blend-mode: normal"><tspan x="0" dy="0">CAM</tspan><tspan x="0" dy="46.150000000000006px">6</tspan></text></g><g stroke-linecap="butt"><path d="M564.16667,140.19667v-22.03h33.37879v22.03z" fill-opacity="0.8549" fill="#585858" stroke="#ffffff" stroke-width="2"/><text transform="translate(567.00387,127.84833) scale(0.22777,0.19884)" font-size="40" xml:space="preserve" fill="#fafafa" fill-rule="nonzero" stroke="none" stroke-width="1" stroke-linecap="butt" stroke-linejoin="miter" stroke-miterlimit="10" stroke-dasharray="" stroke-dashoffset="0" font-family="Pixel" font-weight="normal" text-anchor="start" style="mix-blend-mode: normal"><tspan x="0" dy="0">CAM</tspan><tspan x="0" dy="46.150000000000006px">7</tspan></text></g><g fill="none" stroke="#ffffff" stroke-width="1" stroke-linecap="round"><path d="M603.03112,176.81914h4.07239"/><path d="M607.375,184.96392h-4.34388"/></g><g stroke-linecap="butt"><path d="M606,204.26667v-15.1h22.87879v15.1z" fill-opacity="0.8549" fill="#585858" stroke="#ffffff" stroke-width="2"/><text transform="translate(607.9447,196.63292) scale(0.1836,0.16028)" font-size="40" xml:space="preserve" fill="#fafafa" fill-rule="nonzero" stroke="none" stroke-width="1" stroke-linecap="butt" stroke-linejoin="miter" stroke-miterlimit="10" stroke-dasharray="" stroke-dashoffset="0" font-family="Pixel" font-weight="normal" text-anchor="start" style="mix-blend-mode: normal"><tspan x="0" dy="0">EXT</tspan></text></g></g></g></svg>