<svg version="1.1" xmlns="http://www.w3.org/2000/svg" xmlns:xlink="http://www.w3.org/1999/xlink" width="940.85139" height="402.98754" viewBox="0,0,940.85139,402.98754"><defs><linearGradient x1="101.85146" y1="187.83557" x2="298.68477" y2="187.83557" gradientUnits="userSpaceOnUse" id="color-1"><stop offset="0" stop-color="#d9d9d9" stop-opacity="0.24706"/><stop offset="1" stop-color="#d9d9d9" stop-opacity="0"/></linearGradient></defs><g transform="translate(153.0169,22.11873)"><g data-paper-data="{&quot;isPaintingLayer&quot;:true}" fill-rule="nonzero" stroke-linejoin="miter" stroke-miterlimit="10" stroke-dasharray="" stroke-dashoffset="0" style="mix-blend-mode: normal"><path d="M-2.18784,278.46349c0,2.31025 -2.35889,4.48186 -4.90016,4.48186c-2.54127,0 -6.6929,-3.06798 -6.6929,-5.37823c0,-2.31025 2.06011,-4.18306 4.60138,-4.18306c1.19657,0 6.9917,3.85699 6.9917,5.07943z" fill="#656565" stroke="#000000" stroke-width="2.5" stroke-linecap="butt"/><path d="M117.7991,297.03256v-235.50985c0,0 118.62481,-6.41613 181.83551,-6.41613c68.87408,0 215.87851,6.41613 215.87851,6.41613v235.50985z" fill="#2c343a" stroke="#000000" stroke-width="0" stroke-linecap="butt"/><path d="M128.09743,282.1905v-114.23234h360.81316v114.23234z" fill="#281309" stroke="#000000" stroke-width="1.5" stroke-linecap="butt"/><g fill="#120b07" stroke="#000000" stroke-width="2" stroke-linecap="round"><path d="M628.11736,256.45886l-0.28053,65.96093l-6.452,-3.60907l0.84157,-66.15961z"/><path d="M627.83684,256.93483l8.13513,0.95194l-1.40261,61.39991l-4.92098,3.14321z"/></g><path d="M125.70711,215.26143v-37.23874h364.33575v37.23874z" fill="#070402" stroke="none" stroke-width="0" stroke-linecap="butt"/><path d="M-105.86989,351.38412v-357.03896l230.04733,74.72909c0,0 6.34708,64.69297 6.72562,97.37973c0.42356,36.57266 -4.30406,111.71076 -4.30406,111.71076l-67.92906,20.41766l-5.40607,-183.03036l-84.82334,-17.46763l5.63029,227.64252z" fill="#2c343a" stroke="#15181b" stroke-width="1.5" stroke-linecap="butt"/><path d="M-37.96722,290.2421l-24.65808,-33.46455l29.18711,-5.53549l26.92259,32.96131z" fill="#000000" stroke="#000000" stroke-width="2.5" stroke-linecap="butt"/><path d="M127.36614,278.33133c0,0 124.55014,10.87797 183.69304,9.7669c62.86113,-1.18093 194.59433,-6.74754 194.59433,-6.74754l274.92394,81.14484l-926.89466,-0.87121l273.68332,-83.29299z" data-paper-data="{&quot;index&quot;:null}" fill="#413a34" stroke="#000000" stroke-width="2" stroke-linecap="butt"/><path d="M122.71547,68.58871c0,0 -162.37226,-51.08138 -208.99745,-65.7494c-23.44937,-7.37703 -52.86425,-16.63078 -52.86425,-16.63078c0,0 121.35993,2.17794 231.14828,3.32629c0.57726,0.10204 1.1615,0.19467 1.75014,0.28125c3.74293,0.55043 7.80548,0.38169 11.95129,-0.14283c32.60009,0.31721 63.65626,0.52955 89.57153,0.55022c10.55197,0.00842 22.19113,0.01769 34.72371,0.02769c173.97485,0.13869 540.49745,0.41462 540.49745,0.41462l-272.3595,80.34547c0,0 -131.11291,-8.31889 -193.22577,-9.5822c-58.43891,-1.18858 -182.19543,7.15971 -182.19543,7.15971z" data-paper-data="{&quot;index&quot;:null}" fill="#3e3e3e" stroke="#181d20" stroke-width="1.5" stroke-linecap="butt"/><path d="M68.54372,182.12739l-0.72279,-29.895l29.40371,1.993l1.05013,23.91598z" fill="#70cc57" stroke="#000000" stroke-width="2" stroke-linecap="butt"/><path d="M82.34588,169.82591c-0.04775,-0.00183 -0.09734,-0.00574 -0.14884,-0.01191c-1.21654,-0.14615 -1.0581,-1.2683 -1.0581,-1.2683l0.72628,-1.93645c0.94207,0.22201 2.15739,0.01508 2.82624,0.66607c0.83999,0.81754 0.61165,2.17395 0.08358,3.34314c1.5609,-0.82718 4.81329,-1.28969 2.3525,-3.33435c-1.46664,-0.74598 -5.58637,-1.84498 -7.12878,-0.95229c-0.73719,0.42667 -2.36079,3.64257 -1.65834,4.37543c0.52113,0.5437 2.07724,-0.08136 3.24551,0.47108c0.10036,-0.1684 0.20932,-0.27141 0.20932,-0.27141c0.32985,-0.26841 0.455,-0.67706 0.55061,-1.08099zM83.78464,174.34128c-0.29033,-0.03487 -0.83007,-0.09973 -1.26209,-0.15163c-0.05772,0.38352 -0.13323,0.77922 -0.21315,1.16304c0.19748,-0.02375 0.34354,-0.00619 0.34354,-0.00619c0.48661,0.05845 0.97324,0.11692 1.45986,0.17538l0.18753,-0.06375c-0.1433,-0.35791 -0.27802,-0.73251 -0.38735,-1.11064c-0.07945,-0.00036 -0.12834,-0.00622 -0.12834,-0.00622zM84.95043,177.61808l-1.15447,0.1481c-0.48661,-0.05845 -0.97324,-0.11692 -1.45986,-0.17538c0,0 -0.2274,-0.02731 -0.47277,-0.14902c-0.00516,0.03155 -0.00977,0.06178 -0.01383,0.09057c0,0 -0.15844,1.12214 -1.375,0.97599c-1.21654,-0.14615 -1.0581,-1.2683 -1.0581,-1.2683c0.12085,-0.85578 1.04705,-3.58719 0.81752,-4.28318c-0.35233,-1.06835 -2.76214,0.22924 -3.57321,-0.59978c-0.55274,-0.56497 -0.57187,-1.44032 -0.68283,-2.19442c-1.0352,-7.03592 8.04615,-7.06613 12.64849,-4.67036c0.48994,0.49934 1.17393,0.88232 1.46982,1.49802c1.77602,3.69542 -2.02706,4.05199 -4.00643,5.48907c-0.42929,0.31167 1.04568,3.40455 1.21082,3.75134l0.21421,0.55897c0,0 0.40231,1.06903 -0.75665,1.44016c-1.09043,0.34916 -1.51107,-0.5765 -1.55701,-0.68724c-0.14386,0.0563 -0.25073,0.07548 -0.25073,0.07548z" fill="#529440" stroke="none" stroke-width="0.5" stroke-linecap="butt"/><g fill="#529440" stroke="none" stroke-width="0.5" stroke-linecap="butt"><path d="M80.94102,156.43607c0.65469,-0.51924 1.1226,0.20726 1.1226,0.20726l0.4125,0.65593c0.53811,1.15649 0.87664,1.66237 1.78365,2.51025c0,0 0.61272,0.57887 0.09106,1.25882c-0.52165,0.67994 -1.13437,0.10106 -1.13437,0.10106c-1.03132,-0.98321 -1.54556,-1.72028 -2.16889,-3.04757l-0.29333,-0.44c0,0 -0.46791,-0.7265 0.18678,-1.24574z"/><path d="M88.00953,157.98582c0.73807,0.35583 0.41743,1.17486 0.41743,1.17486l-0.3189,0.79777c-0.08432,0.59128 -0.17114,1.18214 -0.25966,1.77268c0,0 -0.13207,0.88087 -0.92586,0.73432c-0.79379,-0.14656 -0.66172,-1.02743 -0.66172,-1.02743c0.09929,-0.66228 0.20077,-1.32417 0.30384,-1.98574l0.38621,-1.00326c0,0 0.32064,-0.81903 1.05871,-0.4632z"/><path d="M95.05519,159.51862c0.23685,0.85342 -0.53218,1.11627 -0.53218,1.11627l-0.8878,0.30275c-1.30087,0.56109 -2.29741,1.45195 -3.43132,2.35128c0,0 -0.65467,0.51924 -1.12258,-0.20726c-0.46791,-0.7265 0.18678,-1.24576 0.18678,-1.24576c1.27085,-1.00794 2.37785,-1.93891 3.83472,-2.58366l0.94649,-0.32419c0,0 0.76906,-0.26285 1.00593,0.59057z"/></g><path d="M661.44716,327.99138l-164.64869,-47.56218c0,0 -5.1033,-75.1381 -4.64608,-111.71074c0.40862,-32.68674 7.26007,-97.37971 7.26007,-97.37971l248.32782,-74.72909v357.03896zM526.7532,186.82919l91.80207,12.67472l4.90161,-104.70647l-91.294,11.01235z" data-paper-data="{&quot;index&quot;:null}" fill="#2c343a" stroke="#1d2226" stroke-width="1.5" stroke-linecap="butt"/><path d="M70.3147,219.86933l-0.8571,-27.63048l28.36367,-3.29087l-0.77404,24.67082z" fill="#cc5858" stroke="#000000" stroke-width="2" stroke-linecap="butt"/><path d="M84.40025,208.62038c-0.01182,0.91269 -0.08044,1.99625 -0.36521,2.22075c-2.07508,1.63596 -5.86783,-1.73944 -7.51213,-2.78223l-1.08224,-0.33275c-0.50159,-0.14229 -0.86619,-0.57307 -0.86619,-1.08241c0,-0.50934 0.3646,-0.94012 0.86619,-1.08241l1.20065,-0.36916l0.1018,0.28169c1.72004,-0.68704 3.42117,-0.85472 5.16929,-1.02613c-0.09137,-2.55617 -0.38204,-5.01653 -0.38204,-7.6169c0,0 0,-1.13226 1.22752,-1.13226c1.22752,0 1.22752,1.13226 1.22752,1.13226c0,2.48172 0.19842,4.88947 0.3189,7.33601c0.76732,-0.11929 1.54852,-0.28183 2.34865,-0.52784l0.19664,0.05568v-0.07031h1.63669v0c0.67794,0 1.22752,0.50693 1.22752,1.13226c0,0.452 -0.28714,0.84214 -0.70233,1.0237l-1.6129,0.74386l-0.08342,-0.15388c-1.00215,0.73616 -2.01548,1.4595 -2.9149,2.25007z" fill="#893b3b" stroke="none" stroke-width="0.5" stroke-linecap="butt"/><path d="M175.6523,308.35827v-22.64518h341.94218v22.64518z" fill="#351a0c" stroke="#000000" stroke-width="2.5" stroke-linecap="butt"/><path d="M166.79494,255.77118c0,0 5.41679,-12.01854 7.67545,-17.536c1.58738,-3.87771 9.65005,-9.63249 17.87921,-9.46661c12.4917,0.25183 31.74748,0.25914 52.20366,-1.30063c19.44454,-1.48263 38.41768,-8.05303 55.02624,-7.85523c12.16556,0.14488 33.80605,3.87723 51.21941,4.75437c6.93297,0.34922 45.52263,-5.5394 52.74145,-5.17524c19.30628,0.97394 38.48454,4.89642 52.86914,6.62553c33.13865,3.98347 50.02202,6.41841 50.02202,6.41841c0,0 17.67991,17.8313 13.44376,18.62345c-0.39481,0.07382 -88.62235,-4.56507 -88.62235,-4.56507z" fill="#150a1e" stroke="#000000" stroke-width="2.5" stroke-linecap="butt"/><path d="M165.46197,285.71306c0,0 0,-17.74398 0,-24.15486c0,-4.2404 5.34785,-10.61222 12.20614,-10.66926c31.73162,-0.26388 269.99347,-2.24515 334.71037,-2.7833c10.27905,-0.08548 15.98999,4.70854 15.84124,8.49931c-0.28694,7.31246 -1.26073,32.12745 -1.26073,32.12745z" fill="#150a1e" stroke="#000000" stroke-width="2.5" stroke-linecap="butt"/><path d="M451.50699,210.49031c4.1104,-2.33431 18.68662,-1.5503 24.22392,0.67469c5.21653,2.09608 23.29832,14.63128 17.8409,17.4141c-6.72341,3.42833 -20.49456,13.63853 -25.92868,11.53065c-4.09466,-1.58832 -22.11434,-26.22438 -16.13615,-29.61942z" fill="#2a2b51" stroke="#000000" stroke-width="2.5" stroke-linecap="butt"/><path d="M477.41295,226.31032c4.42869,-3.11761 20.13362,-2.07051 26.09971,0.90108c5.62047,2.79944 25.56503,23.56332 19.68498,27.27991c-7.24404,4.57873 -27.6577,7.37386 -33.5126,4.55867c-4.41173,-2.12128 -18.71322,-28.2054 -12.27212,-32.73966z" fill="#2a2b51" stroke="#000000" stroke-width="2.5" stroke-linecap="butt"/><path d="M-75.70917,363.71314c0,0 0.34534,-22.7615 0.61128,-40.28893c0.49949,-32.92071 2.15645,-142.13055 2.15645,-142.13055l37.23874,-3.52258l-0.50322,184.684z" fill="#21130a" stroke="#000000" stroke-width="2" stroke-linecap="butt"/><path d="M-35.4511,307.60345v-17.61292l28.93549,-5.03226l2.76774,15.60001z" fill="#21130a" stroke="#000000" stroke-width="2" stroke-linecap="butt"/><path d="M-133.45437,159.90658l16.35485,-11.82581l78.00006,29.18711l-33.71615,3.52258z" fill="#21130a" stroke="#000000" stroke-width="2" stroke-linecap="butt"/><path d="M-139.36728,343.33247l5.7871,-183.97949l61.3936,20.88388l-1.00646,183.47625z" fill="#21130a" stroke="#000000" stroke-width="2" stroke-linecap="butt"/><path d="M505.51705,200.79367l23.77744,-15.4742l94.35491,11.07099l-27.17421,19.12258z" fill="#574539" stroke="#000000" stroke-width="2" stroke-linecap="butt"/><path d="M117.6555,301.72355c0,0 1.74806,-17.02123 1.74806,-20.68524c0,-5.26203 1.74804,-19.22855 1.74804,-19.22855l6.76328,2.33075l0.81159,38.16573z" fill="#434343" stroke="#000000" stroke-width="2" stroke-linecap="butt"/><path d="M149.61035,284.2034l-3.01936,-32.00061l8.35355,-5.23813l1.71096,37.23874z" fill="#434343" stroke="#000000" stroke-width="2" stroke-linecap="butt"/><path d="M510.62956,200.49173l77.24045,12.15291l-2.52248,5.28387l-77.47593,-13.59352z" fill="#574539" stroke="#000000" stroke-width="2" stroke-linecap="butt"/><path d="M647.04939,87.69355l-132.34849,14.59356" fill="none" stroke="#232323" stroke-width="3.5" stroke-linecap="round"/><path d="M82.17805,257.02916l52.55118,-23.14841l28.71984,4.78065l-35.02454,27.42582z" fill="#434343" stroke="#000000" stroke-width="2" stroke-linecap="butt"/><path d="M91.42986,292.38581v-32.84055l9.65565,1.74116l-2.40416,32.47821z" fill="#434343" stroke="#000000" stroke-width="2" stroke-linecap="butt"/><path d="M123.82001,248.22274l4.23302,-14.38635l7.6964,-4.73625l3.49299,7.63721z" fill="#000000" stroke="#000000" stroke-width="2.5" stroke-linecap="butt"/><path d="M134.76518,168.46144l11.07099,-10.06453l333.13573,-1.00644l12.58065,9.56131z" fill="#281309" stroke="#000000" stroke-width="1.5" stroke-linecap="butt"/><path d="M106.71031,248.72598l-8.30323,-77.74844l57.36778,-3.01936l5.28387,50.57423z" fill="#405dd9" stroke="#000000" stroke-width="3.5" stroke-linecap="butt"/><g fill="#161616" stroke="#000000" stroke-width="1.5" stroke-linecap="butt"><path d="M174.52004,214.12918v-34.21938h9.56131v34.21938z"/><path d="M186.59747,213.62596v-34.21938h9.56131v34.21938z"/><path d="M198.47361,214.02853v-34.21938h9.56131v34.21938z"/><path d="M211.75878,213.62596v-34.21938h9.56131v34.21938z"/><path d="M252.52007,213.52531v-34.21938h7.34418v34.21938z"/><path d="M261.4104,213.62596v-34.21938h7.34419v34.21938z"/><path d="M317.6728,212.71084l8.7086,-33.0927l9.24649,2.43328l-8.70861,33.0927z"/><path d="M271.37428,213.24854v-34.21938h7.34419v34.21938z"/><path d="M287.07494,213.85241v-34.21938h5.53258v34.21938z"/><path d="M293.4156,213.85241v-34.21938h5.53258v34.21938z"/><path d="M389.43116,214.15434v-34.21938h7.34419v34.21938z"/><path d="M399.99891,214.45627v-34.21938h5.53258v34.21938z"/><path d="M407.24535,214.45627v-34.21938h5.53258v34.21938z"/><path d="M380.67502,215.06014v-34.21938h7.34419v34.21938z"/><path d="M327.93861,212.71084l8.7086,-33.0927l9.24649,2.43328l-8.70861,33.0927z"/><path d="M337.29864,213.01277l8.7086,-33.0927l9.24649,2.43328l-8.70861,33.0927z"/></g><path d="M155.8501,64.3688l-58.02507,-74.22269" fill="none" stroke="#373737" stroke-width="2.5" stroke-linecap="round"/><path d="M203.00304,-14.20001l17.42989,75.61826" fill="none" stroke="#373737" stroke-width="2.5" stroke-linecap="round"/><path d="M307.12773,-19.73182l-5.41732,79.26299" fill="none" stroke="#373737" stroke-width="2.5" stroke-linecap="round"/><path d="M442.12143,-20.86873l-60.46687,84.46332" fill="none" stroke="#373737" stroke-width="2.5" stroke-linecap="round"/><path d="M465.51053,66.80967l77.81235,-78.73319" fill="none" stroke="#373737" stroke-width="2.5" stroke-linecap="round"/><path d="M69.97476,49.44837c0,0 153.36742,-16.47823 229.46265,-16.00265c84.1294,0.52581 253.63449,19.02201 253.63449,19.02201" fill="none" stroke="#373737" stroke-width="2.5" stroke-linecap="round"/><path d="M-16.10701,23.02899c0,0 124.52366,-27.47029 210.19985,-43.58496" fill="none" stroke="#373737" stroke-width="2.5" stroke-linecap="round"/><path d="M401.56265,-20.75911c109.64452,16.38727 247.37382,44.54293 247.37382,44.54293" fill="none" stroke="#373737" stroke-width="2.5" stroke-linecap="round"/><path d="M214.88686,35.08708l-7.90875,-49.04519l237.01952,-3.7742l-42.52588,55.10327c0,0 -64.18399,-3.16386 -96.31484,-3.55716c-29.90404,-0.36604 -90.27005,1.27327 -90.27005,1.27327z" fill="#262626" stroke="#000000" stroke-width="2" stroke-linecap="butt"/><path d="M345.9349,227.76474c0.46355,-4.23294 9.98868,-14.7661 15.28325,-17.81528c4.98783,-2.87254 67.33439,-1.41714 66.44368,4.04662c-1.09734,6.73117 -6.32874,13.83614 -11.45884,16.86589c-3.86559,2.28292 -70.94225,3.0592 -70.26808,-3.0972z" fill="#3d3d3d" stroke="#000000" stroke-width="2.5" stroke-linecap="butt"/><g fill="#120b07" stroke="#000000" stroke-width="2" stroke-linecap="round"><path d="M592.31866,275.9405l-0.34578,63.46355l-7.95259,-3.47244l1.03728,-63.65469z"/><path d="M591.97288,276.39842l10.02718,0.91589l-1.72882,59.0752l-6.0655,3.0242z"/></g><g fill="#120b07" stroke="#000000" stroke-width="2" stroke-linecap="round"><path d="M629.24962,259.47821l-0.28053,65.96093l-6.452,-3.60907l0.84157,-66.15961z"/><path d="M628.96909,259.95418l8.13513,0.95194l-1.40261,61.39991l-4.92098,3.14321z"/></g><g fill="#120b07" stroke="#000000" stroke-width="2" stroke-linecap="round"><path d="M720.64132,307.64375l-0.34576,63.46355l-7.95259,-3.47244l1.03728,-63.65469z"/><path d="M720.29556,308.10168l10.02718,0.91589l-1.72882,59.07521l-6.0655,3.0242z"/></g><path d="M107.89017,242.18401l-6.03871,-67.93553l207.65268,-79.0065l-0.50322,159.01946z" fill="url(#color-1)" stroke="none" stroke-width="0" stroke-linecap="butt"/><g fill="#120b07" stroke="#000000" stroke-width="2" stroke-linecap="butt"><path d="M558.94288,255.89691l62.22877,-21.1355l165.14556,36.98712l-27.16244,49.44197z"/><path d="M556.23052,256.72722l189.81589,60.0852l0.92454,4.90646c0,0 -116.79356,-35.49162 -117.53264,-35.68918c-14.70911,-3.93181 -74.38924,-23.57212 -74.38924,-23.57212z"/></g><g stroke="none" stroke-linecap="butt"><path d="M225.23747,369.70603l1.5523,-149.26021l32.52101,3.88073v145.37947z" fill="#000000" stroke-width="NaN"/><path d="M259.58797,380.86881l-1.28988,-156.07595l15.47861,-2.57975l6.44942,147.04676z" fill="#141414" stroke-width="0"/><path d="M226.01362,219.93953l17.77761,-4.40397l31.07436,6.75927l-17.64938,3.90702z" fill="#1a1a1a" stroke-width="0"/></g><path d="M-67.24123,164.30677c9.30234,2.1579 15.11386,8.79989 15.11386,10.94026c0,2.14038 -2.57409,1.20281 -14.79612,1.20281c-9.54934,0 -15.50884,-6.54594 -15.50884,-8.6863c0,-2.14038 1.36546,-6.66398 15.19109,-3.45677z" fill="#434343" stroke="none" stroke-width="0" stroke-linecap="butt"/><path d="M-65.69269,171.08083c0,-8.91453 4.98455,-17.6033 4.98455,-17.6033" fill="none" stroke="#434343" stroke-width="3.5" stroke-linecap="round"/><path d="M-82.6204,130.61334c0,-12.53836 10.16438,-22.70274 22.70274,-22.70274c12.53836,0 26.85653,10.16435 26.85653,22.70274c0,12.53836 -14.31814,22.70274 -26.85653,22.70274c-12.53836,0 -22.70274,-10.16438 -22.70274,-22.70274z" fill="none" stroke="#434343" stroke-width="4" stroke-linecap="butt"/><path d="M-42.82014,116.86898c0.58745,-0.58745 1.17486,0 1.17486,0l0.70946,0.76974c0.4132,0.84684 1.2877,1.41502 1.68598,2.26896c0.56648,1.21455 -0.1681,3.35087 -0.53313,4.4572c-0.49703,1.5064 -1.14998,2.99984 -1.90615,4.4616c2.208,0.24091 3.87033,1.67887 6.10247,1.64514l1.14127,0.79716c0,0 0.58745,0.58743 0,1.17486c-0.58745,0.58745 -1.17486,0 -1.17486,0l0.03359,-0.31051c-2.55964,-0.03071 -4.32935,-1.64168 -6.87415,-1.70231c-0.02935,-0.00965 -0.05874,-0.01937 -0.0882,-0.02915c-1.24065,2.16254 -2.67206,4.23788 -4.11443,6.16218c-0.10465,0.13952 -0.20939,0.27931 -0.31427,0.41928c1.94009,0.67763 3.90783,1.21257 5.87245,1.24248l1.12149,0.79691c0,0 0.58745,0.58745 0,1.17488c-0.58745,0.58745 -1.17488,0 -1.17488,0l0.01381,-0.31077c-2.32173,-0.07154 -4.6079,-0.73846 -6.85787,-1.53747c-1.22948,1.63297 -2.48818,3.27312 -3.81746,4.8488c1.52023,0.55383 3.01916,1.10552 4.40163,1.75201l0.20126,-0.07855c0,0 0.83076,0 0.83076,0.83076c0,0.83076 -0.83076,0.83076 -0.83076,0.83076l-0.90643,-0.07853c-1.51816,-0.7134 -3.17769,-1.31254 -4.8535,-1.92402c-1.44645,1.61502 -2.98438,3.13581 -4.66214,4.47857c0.85739,0.26364 1.69733,0.5542 2.486,0.93473l0.73615,-0.08771c0,0 0.83076,0 0.83076,0.83076c0,0.83076 -0.83076,0.83076 -0.83076,0.83076l-1.47921,-0.0877c-1.04511,-0.54752 -2.1578,-0.92299 -3.28183,-1.26976c-0.53163,0.37014 -1.07726,0.72188 -1.6382,1.05294c-2.16509,1.27779 -4.49729,1.36588 -6.52139,2.43218c0,0 -0.74306,0.37153 -1.11458,-0.37153c-0.37152,-0.74306 0.37153,-1.11458 0.37153,-1.11458c2.14267,-1.03001 4.22618,-1.08226 6.41994,-2.37697c0.14289,-0.08433 0.28474,-0.17008 0.42558,-0.2572c-1.74235,-0.56951 -3.42886,-1.28196 -4.84608,-2.6814c-1.22174,-1.24016 -2.83794,-2.03533 -4.20649,-3.12324c-1.93799,1.18673 -3.91789,2.28212 -5.91133,3.27886c0,0 -0.74306,0.37153 -1.11458,-0.37153c-0.37152,-0.74306 0.37152,-1.11458 0.37152,-1.11458c1.81814,-0.90907 3.63239,-1.90334 5.41588,-2.97713c-0.05725,-0.06827 -0.11333,-0.13788 -0.16819,-0.20894c-1.78287,-2.30948 -3.15222,-4.82545 -4.30009,-7.44729c-1.52743,0.36371 -3.18882,0.56082 -5.00679,0.57653c0,0 -0.83076,0 -0.83076,-0.83076c0,-0.83076 0.83076,-0.83076 0.83076,-0.83076c1.5867,0.01745 3.03941,-0.12573 4.37752,-0.41441c-1.33119,-3.30446 -2.37628,-6.74311 -3.50413,-10.12274c0,0 -0.26271,-0.78811 0.52541,-1.05084c0.78813,-0.26271 1.05083,0.52541 1.05083,0.52541c1.14437,3.43692 2.20416,6.8904 3.56675,10.2046c1.37702,-0.45268 2.62387,-1.07562 3.76678,-1.84833c-2.40939,-4.96317 -3.35623,-11.03071 -3.41402,-15.84731c0,0 0,-0.83076 0.83076,-0.83076c0.83076,0 0.83076,0.83076 0.83076,0.83076c-0.06898,4.56463 0.85584,10.18209 3.12721,14.80635c1.48358,-1.2498 2.78542,-2.77576 3.97738,-4.5218c-1.52716,-3.73333 -2.11347,-7.94704 -2.12003,-11.94607c0,0 0,-0.83076 0.83076,-0.83076c0.83076,0 0.83076,0.83076 0.83076,0.83076c-0.00601,3.37858 0.42449,6.96039 1.56262,10.21868c0.62671,-1.04323 1.22663,-2.14876 1.81201,-3.307c0.54475,-2.19482 1.28173,-4.21209 1.85079,-6.27125c-0.15743,-0.75014 -0.24087,-1.51792 -0.24087,-2.30194c0,0 -0.00002,-0.83076 0.83076,-0.83076c0.03119,0 0.06119,0.00118 0.09008,0.00343c0.11726,-0.80719 0.18586,-1.63559 0.18684,-2.49668v-0.55287c0,0 0,-0.83076 0.83076,-0.83076c0.83076,0 0.83076,0.83076 0.83076,0.83076v0.55481c-0.00239,2.00627 -0.34652,3.8445 -0.82314,5.64547c0.83256,3.39465 3.40416,6.40084 6.54228,8.84196c0.67822,-2.42438 0.92694,-4.91542 0.92694,-7.84233v-1.10768c0,0 -0.00002,-0.83076 0.83076,-0.83076c0.83076,0 0.83076,0.83076 0.83076,0.83076v1.10768c0,3.3126 -0.32066,6.12694 -1.17067,8.88228c2.64847,1.83412 5.55396,3.28274 8.09888,4.25282c0.78212,-1.48118 1.45907,-2.99889 1.97575,-4.53607c0.19235,-0.57226 0.96844,-2.58422 0.57454,-3.29656c-0.4374,-0.79101 -1.22649,-1.35648 -1.63703,-2.16175l-0.39822,-0.33793c0,0 -0.58745,-0.58743 0,-1.17486zM-47.99265,135.56695c1.35293,-1.8028 2.68508,-3.73049 3.85161,-5.73836c-2.52678,-0.97764 -5.29257,-2.36467 -7.85306,-4.09463c-0.53554,1.38276 -1.21529,2.77227 -2.06586,4.22447c-0.92897,1.13033 -1.9167,2.2302 -2.95476,3.29744c1.48142,0.68198 3.10939,0.9867 4.57698,1.70971c1.25438,0.41789 2.53475,0.92851 3.83164,1.42052c0.205,-0.27392 0.40942,-0.54709 0.61346,-0.81915zM-53.07358,136.50062c-1.64955,-0.8384 -3.52524,-1.14503 -5.18134,-2.00801c-1.24677,1.20654 -2.55663,2.36811 -3.91639,3.4813c0.26416,0.11276 0.53384,0.21684 0.80908,0.31179c2.14645,2.0126 4.99335,3.2262 7.88775,4.30559c1.34446,-1.56403 2.61063,-3.20363 3.84355,-4.83927c-1.15736,-0.43331 -2.30493,-0.87196 -3.44264,-1.25142zM-62.213,139.7129c-0.49824,-0.15892 -0.97845,-0.34603 -1.44112,-0.55918c-1.67081,1.29218 -3.40653,2.5131 -5.18452,3.65689c1.28936,0.98046 2.81054,1.75052 3.93212,2.85802c1.4726,1.49481 3.36491,2.17918 5.29841,2.75871c1.80197,-1.31775 3.43573,-2.85749 4.96029,-4.51497c-2.78392,-1.05456 -5.49786,-2.25982 -7.56518,-4.19947zM-55.42463,129.01063c0.85929,-1.47615 1.52681,-2.8753 2.03739,-4.26856c-2.90349,-2.17996 -5.40996,-4.81699 -6.79739,-7.80312c-0.41608,1.34227 -0.84756,2.70033 -1.20712,4.12873c-0.8235,1.66249 -1.6826,3.21308 -2.60415,4.63421c1.22468,2.66097 3.00745,5.00806 5.51834,6.71085c1.07972,-1.09829 2.10123,-2.23315 3.05295,-3.40211zM-65.06977,127.25785c-1.20335,1.634 -2.51786,3.05965 -3.99434,4.24368c1.36098,2.32791 3.11176,4.31424 5.30503,5.65335c1.41946,-1.13282 2.78477,-2.31936 4.07817,-3.55581c-2.3588,-1.67331 -4.11473,-3.86478 -5.38886,-6.34121zM-70.4645,132.51827c-1.18892,0.77738 -2.47833,1.41221 -3.88991,1.89037c1.07939,2.41459 2.35548,4.74056 3.9843,6.91507c0.08572,0.11442 0.17555,0.2252 0.26904,0.33272c1.66706,-1.05395 3.30025,-2.17741 4.8769,-3.36554c-2.17093,-1.39861 -3.89406,-3.41986 -5.24031,-5.77262z" fill="#434343" stroke="none" stroke-width="0.5" stroke-linecap="butt"/><path d="M-65.90935,171.17887c0,-1.14704 0.92986,-2.07689 2.07689,-2.07689c0.88365,0 1.63841,0.55185 1.93843,1.32972c0.30002,-0.77786 1.0548,-1.32972 1.93844,-1.32972c1.14704,0 2.07689,0.92986 2.07689,2.07689c0,1.14704 -0.92986,2.07689 -2.07689,2.07689c-0.88365,0 -1.63842,-0.55185 -1.93844,-1.32971c-0.30002,0.77786 -1.05478,1.32971 -1.93843,1.32971c-1.14704,0 -2.07689,-0.92986 -2.07689,-2.07689z" fill="#363636" stroke="none" stroke-width="0.5" stroke-linecap="butt"/><path d="M-70.34007,170.62504c0,-1.14704 0.92987,-2.07691 2.07691,-2.07691c1.14704,0 2.07689,0.92987 2.07689,2.07691c0,1.14704 -0.92986,2.07689 -2.07689,2.07689c-1.14704,0 -2.07691,-0.92986 -2.07691,-2.07689z" fill="#363636" stroke="none" stroke-width="0.5" stroke-linecap="butt"/><path d="M509.54177,164.71093c5.37168,-7.8251 3.87898,-20.74212 4.9974,-23.18859c8.5609,-18.7265 10.60371,-41.87714 10.60371,-41.87714l32.83551,-3.39678c0,0 -13.10686,23.26327 -16.55485,44.13314c-2.6833,16.2415 -7.96364,27.22208 -14.23118,43.10472c-5.04714,2.15448 -8.97039,6.84443 -13.56054,12.25006c-5.14734,6.0618 -15.83503,28.93578 -20.72927,26.99132c-3.12309,-1.24079 -7.17198,-7.24837 -11.04531,-19.0968c-2.32794,-7.12109 19.18961,-26.97009 22.16601,-31.95639c0.89673,-1.50227 4.75576,-5.8524 5.51852,-6.96356z" fill="#1f2847" stroke="#111627" stroke-width="2" stroke-linecap="butt"/><path d="M598.76304,178.38506c4.89904,-32.85933 -1.08011,-85.45787 -1.08011,-85.45787l37.74196,-3.7742c0,0 -2.82348,33.45106 -3.90223,62.73037c-0.78034,21.18011 -1.68023,29.12102 -4.09133,43.22437c-0.686,4.01262 -16.13173,18.55016 -17.65955,22.42185c-2.13927,5.42116 -4.33195,17.4248 -8.45139,22.66507c-5.84344,7.43332 -23.17213,2.45881 -29.62727,-0.31765c-3.42152,-1.47165 3.39255,-12.10231 11.20749,-24.43901c4.08116,-6.44251 8.43525,-13.3503 11.74713,-19.6619c3.51689,-6.70232 3.56717,-13.71434 4.11534,-17.39104z" fill="#1f2847" stroke="#111626" stroke-width="2" stroke-linecap="butt"/><path d="M491.37588,217.22523c-0.71334,-1.0681 0.16741,-1.96753 0.16741,-1.96753l0.97531,-0.97279c0.67732,-1.32252 2.80131,-3.14972 3.27587,-4.36102c1.88529,-4.81225 1.81933,-9.22877 5.36469,-13.51103c1.77985,-2.14978 3.66893,-2.49183 5.67588,-4.08202c4.24383,-3.36257 8.69365,-7.98481 11.36648,-13.27045c2.73848,-4.11599 6.08423,-9.05238 7.14883,-14.36147c0.69661,-3.47404 0.98346,-7.04123 1.91625,-10.48669c1.73334,-6.4025 4.30082,-12.4333 6.16435,-18.77329c2.04424,-5.59902 3.02167,-12.60924 5.6221,-17.72261c2.27278,-4.46906 7.4196,-10.09445 7.76656,-15.40689c0,0 0.11839,-1.39126 1.24558,-1.27199c1.1272,0.11926 1.00883,1.51051 1.00883,1.51051c-0.60383,6.09321 -5.47151,11.51214 -8.09982,16.60513c-2.5348,4.91181 -3.46116,11.87435 -5.44496,17.29279c-1.8476,6.28577 -4.38633,12.26638 -6.11512,18.60947c-0.92235,3.3842 -1.17388,6.91169 -1.87642,10.32471c-1.16061,5.63829 -4.60952,10.89864 -7.50516,15.28322c-2.88146,5.56241 -7.48933,10.46852 -12.00155,14.01133c-1.83023,1.43702 -3.71013,1.74504 -5.2785,3.68677c-3.37549,4.17909 -2.95693,8.31403 -4.96583,12.84768c-0.72466,1.6354 -2.70335,3.18918 -3.57762,4.89629l-1.23905,1.28853c0,0 -0.88076,0.89945 -1.5941,-0.16866z" fill-opacity="0.4902" fill="#141b38" stroke="none" stroke-width="0.5" stroke-linecap="butt"/><path d="M487.77809,202.12604c0.09482,-1.11443 0.83694,-1.25965 1.12851,-1.27332c1.33726,-2.10744 2.46832,-4.36116 3.74119,-6.43629c3.02577,-4.93281 8.42096,-6.62329 11.17576,-12.00232c2.53843,-2.63981 5.47095,-5.06281 7.79879,-7.97868c1.88408,-2.36002 2.6006,-6.16797 3.78514,-9.07214c2.71869,-6.66543 5.35392,-12.72138 6.06303,-20.41591c2.3447,-6.41331 1.85985,-14.0613 3.28678,-20.84125c1.75953,-8.36025 4.87199,-15.01893 8.0543,-22.55238c0,0 0.52854,-1.24746 1.53116,-0.62004c1.00262,0.62744 0.47408,1.87488 0.47408,1.87488c-3.12208,7.34815 -6.14724,13.762 -7.86235,21.93237c-1.42733,6.79941 -0.94279,14.44928 -3.29662,20.88756c-0.59706,7.84631 -3.53718,14.13562 -6.22145,20.93202c-1.2918,3.27075 -2.14007,7.15082 -4.22077,9.8234c-2.24907,2.88886 -5.17726,5.3327 -7.70167,7.85062c-2.73214,5.33481 -8.1986,6.95853 -11.07295,11.84761c-1.37268,2.33482 -2.63706,4.78657 -4.16256,7.08708l-1.49156,0.46729c0,0 -1.1272,-0.11925 -1.00883,-1.51051z" fill-opacity="0.4902" fill="#141b38" stroke="none" stroke-width="0.5" stroke-linecap="butt"/><g fill-opacity="0.41961" fill="#141b38" stroke="none" stroke-width="0.5" stroke-linecap="butt"><path d="M591.04786,242.99809c-1.10259,-0.92395 -0.29523,-2.23678 -0.29523,-2.23678l0.89984,-1.42813c0.46334,-1.7074 2.49577,-4.49525 2.74931,-6.00642c1.00724,-6.00357 -0.17305,-10.86504 2.9117,-16.88162c1.54861,-3.02044 3.67669,-4.08071 5.63115,-6.56417c4.13285,-5.25142 8.19248,-11.97054 10.00426,-18.78203c2.18084,-5.5414 4.86831,-12.20948 4.78983,-18.46634c-0.05137,-4.09422 -0.60611,-8.14361 -0.37362,-12.29147c0.43204,-7.70775 1.93429,-15.30542 2.53451,-22.99103c0.99699,-6.93122 0.39155,-15.03835 2.16153,-21.63313c1.54697,-5.76385 6.17277,-13.84417 5.25258,-19.84572c0,0 -0.20876,-1.58164 1.1418,-1.85663c1.35054,-0.27499 1.5593,1.30669 1.5593,1.30669c0.8142,6.95791 -3.53607,14.70911 -5.34382,21.29145c-1.74344,6.34815 -1.09003,14.38408 -2.06128,21.09374c-0.59509,7.61988 -2.07619,15.15169 -2.51774,22.7921c-0.23557,4.07634 0.35065,8.06901 0.37982,12.09788c0.0482,6.65567 -2.67927,13.71935 -4.97717,19.61457c-1.98716,7.19295 -6.16106,14.28313 -10.56337,19.83079c-1.78563,2.25021 -3.91146,3.26953 -5.26423,5.98352c-2.91148,5.84116 -1.38838,10.26385 -2.61002,16.00388c-0.44068,2.07057 -2.37112,4.50354 -2.96921,6.70744l-1.13002,1.87258c0,0 -0.80738,1.31283 -1.90997,0.38888z"/><path d="M583.06137,227.59515c-0.1672,-1.26694 0.66609,-1.69546 1.00431,-1.81584c1.04059,-2.81384 1.80305,-5.71507 2.77627,-8.46992c2.31346,-6.54861 8.21297,-10.36609 10.09748,-17.31047c2.31509,-3.83633 5.14609,-7.57507 7.14546,-11.64072c1.61824,-3.29063 1.5068,-7.76139 2.16947,-11.40139c1.52096,-8.35429 3.09631,-16.00428 2.00556,-24.77145c1.14568,-7.9404 -1.33243,-16.22509 -1.35368,-24.23975c-0.02621,-9.88273 1.95783,-18.37172 3.80522,-27.85349c0,0 0.30778,-1.57067 1.63927,-1.23856c1.33149,0.33211 1.02371,1.90275 1.02371,1.90275c-1.82309,9.25507 -3.76597,17.44171 -3.73514,27.09837c0.02566,8.03631 2.50386,16.32322 1.35371,24.29455c1.25993,8.89463 -0.61438,16.91278 -2.06227,25.39953c-0.69679,4.08421 -0.72173,8.68233 -2.49231,12.38966c-1.91385,4.00735 -4.73455,7.76758 -7.06365,11.46402c-1.86901,6.88729 -7.8687,10.65664 -10.01566,17.10221c-1.0253,3.07816 -1.89453,6.24654 -3.10746,9.34189l-1.63103,1.05533c0,0 -1.35054,0.27499 -1.5593,-1.30667z"/></g><g stroke-linecap="butt"><path d="M703.20075,247.3833l1.05013,-26.41598l29.40371,0.507l-0.72279,30.395z" fill="#70cc57" stroke="#000000" stroke-width="2"/><path d="M719.12967,239.06783c0.09561,0.40393 0.22076,0.81258 0.55061,1.08099c0,0 0.10895,0.10301 0.20932,0.27141c1.16826,-0.55244 2.7244,0.07262 3.24551,-0.47108c0.70245,-0.73286 -0.92115,-3.94876 -1.65834,-4.37543c-1.54239,-0.89269 -5.66214,0.20631 -7.12878,0.95229c-2.46079,2.04466 0.7916,2.50717 2.3525,3.33435c-0.52807,-1.16919 -0.75641,-2.5256 0.08358,-3.34314c0.66885,-0.65099 1.88417,-0.44406 2.82624,-0.66607l0.72628,1.93645c0,0 0.15844,1.12214 -1.0581,1.2683c-0.0515,0.00617 -0.10109,0.01008 -0.14884,0.01191zM717.69083,243.58314c0,0 -0.04887,0.00586 -0.12834,0.00622c-0.10933,0.37813 -0.24407,0.75273 -0.38735,1.11064l0.18753,0.06375c0.48661,-0.05845 0.97324,-0.11692 1.45986,-0.17538c0,0 0.14606,-0.01756 0.34354,0.00619c-0.07992,-0.38382 -0.15544,-0.77952 -0.21315,-1.16304c-0.43204,0.0519 -0.97176,0.11676 -1.26209,0.15163zM716.52505,246.86002c0,0 -0.10686,-0.01919 -0.25073,-0.07548c-0.04594,0.11073 -0.46658,1.03639 -1.55701,0.68724c-1.15897,-0.37112 -0.75665,-1.44016 -0.75665,-1.44016l0.21421,-0.55897c0.16514,-0.34679 1.6401,-3.43967 1.21082,-3.75134c-1.97937,-1.43708 -5.78245,-1.79365 -4.00643,-5.48907c0.2959,-0.61571 0.97989,-0.99868 1.46982,-1.49802c4.60236,-2.39577 13.6837,-2.36556 12.64849,4.67036c-0.11095,0.7541 -0.13009,1.62946 -0.68283,2.19442c-0.81107,0.82902 -3.22088,-0.46857 -3.57321,0.59978c-0.22953,0.69599 0.69667,3.42741 0.81752,4.28318c0,0 0.15844,1.12214 -1.0581,1.2683c-1.21654,0.14615 -1.375,-0.97599 -1.375,-0.97599c-0.00406,-0.02879 -0.00868,-0.05901 -0.01383,-0.09057c-0.24537,0.12171 -0.47277,0.14902 -0.47277,0.14902c-0.48661,0.05845 -0.97324,0.11692 -1.45986,0.17538l-1.15447,-0.1481z" fill="#529440" stroke="none" stroke-width="0.5"/><g fill="#529440" stroke="none" stroke-width="0.5"><path d="M720.53446,225.67807c0.65469,0.51924 0.18678,1.24574 0.18678,1.24574l-0.29333,0.44c-0.62333,1.32729 -1.13757,2.06436 -2.16889,3.04757c0,0 -0.6127,0.57889 -1.13437,-0.10106c-0.52165,-0.67994 0.09106,-1.25882 0.09106,-1.25882c0.90701,-0.84788 1.24555,-1.35376 1.78365,-2.51025l0.4125,-0.65593c0,0 0.46791,-0.7265 1.1226,-0.20726z"/><path d="M713.46598,227.22776c0.73807,-0.35583 1.05871,0.4632 1.05871,0.4632l0.38621,1.00326c0.10307,0.66157 0.20453,1.32346 0.30384,1.98574c0,0 0.13207,0.88087 -0.66172,1.02743c-0.79379,0.14654 -0.92586,-0.73432 -0.92586,-0.73432c-0.08853,-0.59054 -0.17533,-1.1814 -0.25966,-1.77268l-0.3189,-0.79777c0,0 -0.32064,-0.81903 0.41743,-1.17486z"/><path d="M706.42031,228.76054c0.23685,-0.85342 1.00593,-0.59057 1.00593,-0.59057l0.94649,0.32419c1.45685,0.64475 2.56386,1.57573 3.83472,2.58366c0,0 0.65469,0.51925 0.18678,1.24576c-0.46791,0.7265 -1.12258,0.20726 -1.12258,0.20726c-1.1339,-0.89933 -2.13046,-1.79019 -3.43132,-2.35128l-0.8878,-0.30275c0,0 -0.76905,-0.26285 -0.53218,-1.11627z"/></g></g><g stroke-linecap="butt"><path d="M667.29606,239.84783l0.72596,-24.17082l25.36367,3.29087l0.6429,26.13048z" fill="#cc5858" stroke="#000000" stroke-width="2"/><path d="M678.44301,234.84936c-0.89942,-0.79057 -1.91275,-1.51391 -2.9149,-2.25007l-0.08342,0.15388l-1.6129,-0.74386c-0.41519,-0.18155 -0.70233,-0.5717 -0.70233,-1.0237c0,-0.62532 0.54958,-1.13226 1.22752,-1.13226v0h1.63669v0.07031l0.19664,-0.05568c0.80014,0.24602 1.58133,0.40855 2.34865,0.52784c0.12049,-2.44654 0.3189,-4.8543 0.3189,-7.33601c0,0 0,-1.13226 1.22752,-1.13226c1.22752,0 1.22752,1.13226 1.22752,1.13226c0,2.60038 -0.29067,5.06073 -0.38204,7.6169c1.7481,0.17141 3.44924,0.33909 5.16929,1.02613l0.1018,-0.28169l1.20065,0.36916c0.50159,0.14229 0.86619,0.57307 0.86619,1.08241c0,0.50934 -0.3646,0.94012 -0.86619,1.08241l-1.08224,0.33275c-1.6443,1.0428 -5.43705,4.41819 -7.51213,2.78223c-0.28477,-0.2245 -0.35339,-1.30806 -0.36521,-2.22075z" fill="#893b3b" stroke="none" stroke-width="0.5"/></g><text transform="translate(108.55942,208.05708) rotate(-16.27106) scale(0.24288,0.36926) skewX(-31.95877)" font-size="40" xml:space="preserve" data-paper-data="{&quot;index&quot;:null}" fill="#ffffff" fill-rule="nonzero" stroke="none" stroke-width="1" stroke-linecap="butt" stroke-linejoin="miter" stroke-miterlimit="10" stroke-dasharray="" stroke-dashoffset="0" font-family="Sans Serif" font-weight="normal" text-anchor="start" style="mix-blend-mode: normal"><tspan x="0" dy="0">FORTNITE</tspan></text><path d="M132.87911,208.77467c0.22538,0.44632 -0.22095,0.6717 -0.22095,0.6717l-0.22951,0.11589c-1.6873,0.85189 -2.45694,3.27824 -0.89941,4.92171c0.83963,1.2667 1.67995,1.02003 3.09805,1.01482c1.5431,-0.00567 3.04476,0.04766 3.86077,-1.44242c0.45207,-0.82551 0.11144,-5.55648 -0.81816,-6.131c-0.49302,-0.3047 -1.15755,0.07467 -1.73713,0.07467c0,0 -0.5,0 -0.5,-0.5c0,-0.5 0.5,-0.5 0.5,-0.5c0.28108,0 2.1102,-0.01968 2.26287,0.07467c1.43407,0.8863 1.86419,6.05335 1.18176,7.43891c-1.32655,2.69332 -6.97829,2.88789 -8.6343,0.58839c-1.82269,-2.16087 -1.0721,-5.26733 1.2348,-6.43241l0.22951,-0.11589c0,0 0.44632,-0.22538 0.6717,0.22095z" fill="#ffffff" stroke="none" stroke-width="0.5" stroke-linecap="butt"/></g></g></svg>