<svg version="1.1" xmlns="http://www.w3.org/2000/svg" xmlns:xlink="http://www.w3.org/1999/xlink" width="41.0724" height="38.89979" viewBox="0,0,41.0724,38.89979"><g transform="translate(-300.2138,-159.0501)"><g data-paper-data="{&quot;isPaintingLayer&quot;:true}" fill-opacity="0.89804" fill="#3d3d3d" fill-rule="nonzero" stroke="none" stroke-width="0.5" stroke-linecap="butt" stroke-linejoin="miter" stroke-miterlimit="10" stroke-dasharray="" stroke-dashoffset="0" style="mix-blend-mode: normal"><path d="M308.96713,175.90498c-0.05811,-1.0722 -0.13558,-2.14267 -0.26128,-3.20884c-0.38909,-3.30006 -1.80016,-6.11786 -0.33938,-9.63172c0.7077,-1.70236 2.09425,-3.66019 3.92226,-3.89942c7.07921,-0.9265 6.87851,3.92294 7.06833,8.33246c0.02729,0.63374 -0.65806,1.25728 -0.43744,1.852c0.19815,0.53412 1.06714,0.47843 1.45627,0.89446c0.31059,0.33202 0.10087,1.328 0.54855,1.24879c0.71729,-0.12695 0.81608,-1.30829 1.4801,-1.60778c1.49086,-0.67238 3.19772,-0.70879 4.75616,-1.20479c3.55959,-1.13292 11.29337,-5.20058 13.78283,0.97359c1.98258,4.91708 -5.17424,8.56021 -7.72798,11.06737c-1.04736,-0.08438 -3.88585,-1.14892 -3.12335,-0.42594c1.29048,1.22359 1.59013,3.18564 2.25513,4.83497c0.92974,2.30584 2.77483,4.48951 2.64863,6.97253c-0.09162,1.80304 0.19681,4.24274 -1.29543,5.25885c-1.72695,1.17593 -4.21678,0.29319 -6.26691,-0.1094c-4.33189,-0.85068 -6.06668,-3.45197 -7.16054,-6.72812c-0.96281,1.29733 -2.52547,2.29155 -4.41944,3.49758c-1.19455,0.76067 -2.25869,1.86014 -3.6327,2.203c-4.52396,1.12888 -10.08857,-1.88131 -11.50009,-6.3007c-0.55782,-1.74648 -0.62073,-3.67427 -0.35691,-5.48858c0.54659,-3.75916 3.05094,-5.81997 5.36063,-8.53031zM313.63082,168.81388c0.06227,-0.46033 0.13074,-0.92065 0.15073,-1.36911c0.04233,-0.95023 0.64382,-3.12849 -0.26298,-2.84138c-1.33855,0.42377 -0.03943,2.80112 0.11226,4.21048z"/></g></g></svg>