<svg version="1.1" xmlns="http://www.w3.org/2000/svg" xmlns:xlink="http://www.w3.org/1999/xlink" width="172.1498" height="78.09494" viewBox="0,0,172.1498,78.09494"><g transform="translate(-98.00787,-190.47344)"><g data-paper-data="{&quot;isPaintingLayer&quot;:true}" fill-rule="nonzero" stroke-linejoin="miter" stroke-miterlimit="10" stroke-dasharray="" stroke-dashoffset="0" style="mix-blend-mode: normal"><path d="M106.52815,222.22135c0,-4.33773 1.59564,-7.85415 3.56397,-7.85415c1.96833,0 3.56397,3.51642 3.56397,7.85415c0,4.33773 2.62175,7.24015 -3.56397,7.85414c-4.54068,0.4507 -3.56397,-3.51641 -3.56397,-7.85414z" fill="#000000" stroke="#ffffff" stroke-width="3" stroke-linecap="butt"/><path d="M103.34665,200.95658l6.17671,-10.48313l6.52687,10.27464l-3.39098,0.20574l-3.337,-5.20655l-2.70434,5.08907z" fill="#ffffff" stroke="none" stroke-width="0" stroke-linecap="butt"/><path d="M99.50787,214.94105c0,-4.33772 4.73873,-7.85414 10.58425,-7.85414c5.84552,0 10.58425,3.51642 10.58425,7.85414c0,4.33772 -4.73873,7.85414 -10.58425,7.85414c-5.84552,0 -10.58425,-3.51642 -10.58425,-7.85414z" fill="#000000" stroke="#ffffff" stroke-width="3" stroke-linecap="butt"/><text transform="translate(106.84655,218.53772) scale(0.2521,0.2521)" font-size="40" xml:space="preserve" fill="#ffffff" fill-rule="nonzero" stroke="none" stroke-width="1" stroke-linecap="butt" stroke-linejoin="miter" stroke-miterlimit="10" stroke-dasharray="" stroke-dashoffset="0" font-family="Pixel" font-weight="normal" text-anchor="start" style="mix-blend-mode: normal"><tspan x="0" dy="0">R</tspan></text><path d="M108.43797,237.65557l2.70434,5.08907l3.337,-5.20655l3.39098,0.20574l-6.52686,10.27463l-6.1767,-10.48312z" data-paper-data="{&quot;index&quot;:null}" fill="#ffffff" stroke="none" stroke-width="0" stroke-linecap="butt"/><path d="M252.96297,261.03597c0,-3.33161 1.22555,-6.03242 2.73732,-6.03242c1.51178,0 2.73732,2.7008 2.73732,6.03242c0,3.33161 2.01365,5.56083 -2.73732,6.03241c-3.48749,0.34616 -2.73732,-2.7008 -2.73732,-6.03241z" fill="#000000" stroke="#ffffff" stroke-width="3" stroke-linecap="butt"/><path d="M247.41447,258.10573c0,-3.33161 3.6396,-6.03241 8.12929,-6.03241c4.48968,0 8.12929,2.7008 8.12929,6.03241c0,3.33161 -3.6396,6.03242 -8.12929,6.03242c-4.48968,0 -8.12929,-2.7008 -8.12929,-6.03242z" fill="#000000" stroke="#ffffff" stroke-width="3" stroke-linecap="butt"/><text transform="translate(252.89442,260.7116) scale(0.19363,0.19363)" font-size="40" xml:space="preserve" fill="#ffffff" fill-rule="nonzero" stroke="none" stroke-width="1" stroke-linecap="butt" stroke-linejoin="miter" stroke-miterlimit="10" stroke-dasharray="" stroke-dashoffset="0" font-family="Pixel" font-weight="normal" text-anchor="start" style="mix-blend-mode: normal"><tspan x="0" dy="0">R</tspan></text><path d="M247.78889,250.81248l-5.94905,-4.38351" fill="none" stroke="#ffffff" stroke-width="2.5" stroke-linecap="round"/><path d="M255.54336,240.60437l-0.18264,6.41872" fill="none" stroke="#ffffff" stroke-width="2.5" stroke-linecap="round"/><path d="M268.90767,246.45607l-6.26217,3.4442" fill="none" stroke="#ffffff" stroke-width="2.5" stroke-linecap="round"/></g></g></svg>