<svg version="1.1" xmlns="http://www.w3.org/2000/svg" xmlns:xlink="http://www.w3.org/1999/xlink" width="49.51977" height="42.96569" viewBox="0,0,49.51977,42.96569"><g transform="translate(-175.21588,-218.73024)"><g data-paper-data="{&quot;isPaintingLayer&quot;:true}" fill-rule="nonzero" stroke="none" stroke-linecap="butt" stroke-linejoin="miter" stroke-miterlimit="10" stroke-dasharray="" stroke-dashoffset="0" style="mix-blend-mode: normal"><path d="M207.34113,239.97895c-0.05964,0.1152 -0.12501,0.25213 -0.21616,0.4148c-0.11157,0.1991 -0.50009,0.41271 -0.35081,0.59087c0.16849,0.20108 0.58468,-0.09336 0.8782,-0.08026c1.16313,0.05188 1.36989,-0.70244 1.83981,-1.52526c0.11332,-0.19842 0.54897,-0.45049 0.35081,-0.59087c-0.1762,-0.12481 -0.68471,-0.17646 -1.05003,-0.10242c0.00989,0.02746 0.01818,0.05697 0.02464,0.08866c0.11093,0.5435 -0.53669,0.64303 -0.53669,0.64303c-0.03918,0.00391 -0.07641,0.00815 -0.11184,0.01276c-0.00236,0.00515 -0.00472,0.01031 -0.00707,0.01546l-0.11452,0.21011c0,0 -0.22548,0.40923 -0.7063,0.32312zM207.0973,238.72202c0.05862,-0.1226 0.11724,-0.24521 0.17586,-0.36781c0.67185,-0.67284 2.77432,-1.30367 3.61413,-0.24681c0.85691,1.07837 -1.0866,3.63158 -2.36174,3.9469c-0.23837,0.05894 -0.7712,0.0657 -1.31211,0.01794c0.05979,0.22818 0.09143,0.46757 0.15428,0.70867c0.27764,1.06512 0.6747,2.10109 1.1157,3.12283c0.98262,1.58132 2.37828,1.51987 4.22457,1.55474c1.51199,0.02857 2.87057,0.16069 3.78142,-1.10944c0.80324,-1.12008 0.02014,-2.66524 -0.21193,-3.81296c-1.29045,-2.96494 -1.99797,-6.2217 -2.63356,-9.33592c-0.12693,-0.62191 -0.29576,-1.19543 -0.47252,-1.80441c-0.0463,-0.15954 0.03427,-0.39305 0.04246,-0.57345c-0.21738,-0.08116 -0.33055,-0.2579 -0.33055,-0.2579l-0.00994,-0.01607c-0.1747,0.00482 -0.35567,0.05737 -0.53142,0.07014c-0.71365,-0.06246 -1.42458,-0.1118 -2.13354,-0.14995c-0.4133,1.5579 -1.03251,3.39653 -2.91925,4.02785c-2.89805,0.12026 -5.81614,0.11066 -8.7251,0.20667c-0.67585,0.02231 -2.54786,0.29764 -3.09988,-0.14801c-0.79177,-0.6392 -0.16275,-2.50819 0.03482,-3.26748c0,0 0.14162,-0.54089 0.78323,-0.42801c0.64161,0.11288 0.49999,0.65376 0.49999,0.65376c-0.05754,0.21826 -0.57715,2.12486 -0.41495,2.23027c0.28104,0.18261 2.42872,-0.15362 2.89597,-0.16903c2.59838,-0.08576 5.18892,-0.105 7.77953,-0.16119c1.10326,-0.29787 1.59351,-2.05403 1.83949,-3.00369c-4.46313,-0.1574 -8.86604,0.08355 -13.39769,0.23861c-0.47505,0.01495 -1.12429,0.04884 -1.7979,0.11614c-0.14106,0.10677 -0.38626,0.2197 -0.70617,0.08307c-0.77574,0.10651 -1.51449,0.26419 -1.9862,0.49525c-1.15124,0.56392 -2.77642,2.80358 -3.02905,3.90343c-0.03492,0.15201 -0.06177,0.30427 -0.0824,0.45669c0.07588,-0.10895 0.16896,-0.21042 0.27927,-0.30026c0.59588,-0.48528 1.20086,-0.32788 1.88217,-0.28016c0,0 0.22648,0.01965 0.39734,0.14811c0.1256,0.00507 0.26444,0.04772 0.40554,0.15859c0.47731,0.37508 0.02577,0.7808 0.02577,0.7808l-0.40868,0.36722c-0.12381,0.11092 -1.18417,1.0619 -1.19046,1.06288c-0.72789,0.11368 -1.21426,-0.12907 -1.45818,-0.50698c0.00159,0.81508 0.01703,1.63249 -0.2302,2.44718c-0.11781,0.88212 -0.21417,1.78931 -0.41256,2.67033c0.16716,-0.30635 0.33513,-0.61079 0.50182,-0.91331c0,0 0.27743,-0.50352 0.87304,-0.276c0.59561,0.22752 0.31818,0.73105 0.31818,0.73105c-1.04482,1.89628 -1.94953,3.74078 -2.61062,5.75054c-0.26275,0.7988 -0.92424,2.83385 0.75978,2.98438c0.40364,0.03608 1.30594,-0.10361 1.67366,-0.15057c2.57985,-0.39182 3.19523,-2.2036 4.44783,-3.96434c0.42867,-0.60255 0.893,-1.20882 1.3766,-1.81085c-0.73658,-0.05463 -1.48073,-0.28763 -1.7297,-0.77128c-0.35335,-0.68646 0.20807,-1.1469 0.4863,-1.69254c0.26994,-0.52938 0.48759,-1.08075 0.82315,-1.58338c0.497,-0.74447 0.94921,-1.13368 1.88369,-1.44841c0,0 0.51199,-0.16185 0.77336,0.19966c0.24441,-0.02068 0.48882,-0.04137 0.73323,-0.06205c0.27961,0.26096 0.68278,0.45638 0.83886,0.78285c0.14544,0.30423 0.1279,0.74022 -0.00134,1.2226c1.84058,0.12676 3.76683,-0.07383 5.60987,-0.13465c0.30323,-0.01 0.93913,-0.08524 1.513,-0.10658c-0.07768,-0.84363 0.77849,-1.76649 1.65372,-2.28562zM197.04532,240.31802c-0.09226,0.10411 -0.24518,0.19143 -0.49859,0.19979c-0.29309,0.00967 -0.45901,-0.09491 -0.55291,-0.21371c-0.33554,0.17304 -0.51051,0.41059 -0.76039,0.78799c-0.1641,0.24784 -0.33177,0.49525 -0.46561,0.75541c-0.09709,0.18872 -0.82486,1.32236 -0.77646,1.53578c0.02212,0.09759 1.27459,0.10651 1.38288,0.07849c0.03804,-0.00984 0.07685,-0.02457 0.11622,-0.04376c0.32249,-0.38107 0.64845,-0.75822 0.9735,-1.12933c0.41398,-0.73209 0.7018,-1.59959 0.58136,-1.97066zM189.04391,236.22253c0.00818,-0.00877 0.01659,-0.01742 0.02523,-0.026c-0.0068,0.00364 -0.0131,0.00758 -0.01882,0.01181c-0.00003,0.00003 -0.00234,0.00515 -0.00641,0.01419zM209.53573,229.25594c0.08478,-0.0028 0.15892,0.00396 0.22376,0.01787c0.11225,-0.1113 0.24877,-0.16564 0.24877,-0.16564c0.67936,-0.26049 1.28014,-0.39471 1.84966,-0.36738c0.07651,-0.6226 0.21604,-1.43041 0.7462,-1.83868c0.55843,-0.43004 2.28844,-0.57164 2.9122,-0.21539c0.81026,0.46278 0.74456,1.58256 0.76913,2.28011l0.00874,0.26501c0,0 0.01783,0.54019 -0.61742,0.5729c-0.24295,0.40559 -0.55685,0.7167 -0.99248,1.10914l-0.11645,0.04962c0.20127,0.76249 0.29014,1.63988 0.37131,2.03757c0.62894,3.08164 1.33122,6.30465 2.60841,9.2391c0.31008,1.50579 1.09067,3.20575 0.06797,4.66747c-1.15188,1.64633 -2.97718,1.69539 -4.96432,1.65536c-2.40098,-0.04837 -4.10266,-0.25907 -5.36746,-2.19664c-0.47885,-1.09227 -0.91047,-2.20272 -1.20181,-3.3448c-0.00414,-0.01625 -0.13111,-0.87712 -0.25609,-0.947c-0.13052,-0.07298 -1.62845,0.13629 -1.85883,0.1439c-1.95132,0.0644 -3.97597,0.26487 -5.92058,0.12006c-0.15837,0.1778 -0.31783,0.35759 -0.47776,0.53904c-0.31807,0.49243 -0.69439,0.93642 -1.07437,1.24109c-0.79495,0.93843 -1.56562,1.90191 -2.23161,2.85228c-0.80982,1.15563 -1.68229,3.11248 -3.0252,3.89792c-0.62367,0.36477 -1.62329,0.48538 -2.34719,0.59779c-0.55162,0.0695 -1.55559,0.23007 -2.10368,0.15097c-1.68095,-0.24259 -2.45415,-1.86818 -2.19281,-3.14891c0.28384,-1.39106 0.82386,-2.74897 1.46383,-4.07335c-0.64864,-0.05844 -0.5741,-0.60591 -0.5741,-0.60591l0.09403,-0.67096c0.43017,-1.19528 0.54379,-2.48635 0.71551,-3.72613c0.4394,-1.44786 0.03097,-2.91787 0.38532,-4.35771c0.30492,-1.23896 1.68437,-3.24721 3.03092,-4.25062c-0.56574,-0.31905 -1.50919,-0.84811 -1.53601,-1.15828c-0.08366,-0.96754 0.72324,-1.12364 1.4488,-1.36443c1.68126,-0.55797 4.35401,-0.68025 4.72995,0.6125c0.4652,0.07029 0.92933,0.19431 1.38003,0.36548l0.23116,0.05082c0,0 0.23602,0.05781 0.37509,0.2246c4.34923,-0.14833 8.5868,-0.35607 12.88724,-0.19457c0.0815,-0.03598 0.18322,-0.05998 0.31013,-0.06417zM213.65202,229.43805l0.13651,0.20789c0.02174,0.00939 0.04313,0.0196 0.06411,0.03067c0.07903,0.04172 0.15176,0.10221 0.21879,0.17794c0.28463,-0.26815 0.47581,-0.50286 0.61599,-0.92132c0,0 0.0758,-0.21122 0.28967,-0.32846c-0.00059,-0.3887 -0.02869,-0.91958 -0.1993,-0.99691c-1.31133,-0.59435 -1.56627,0.82008 -1.64385,1.49651c0.17172,0.09244 0.34393,0.2033 0.51809,0.33366zM191.27217,229.10563c-0.40428,0.03705 -0.81484,0.07745 -1.20006,0.18951c-0.19628,0.0571 -0.81205,0.10142 -0.60631,0.11833c0.40574,0.03336 0.71084,0.22979 1.0213,0.44224c0.47348,-0.40495 1.00831,-0.68397 1.57679,-0.85189c-0.24703,0.03441 -0.51863,0.07677 -0.79171,0.1018z" fill="#0d0d0d" stroke-width="0.5"/><path d="M192.08836,228.99556c-0.56847,0.16792 -1.14043,0.47469 -1.6139,0.87965c-0.31047,-0.21245 -0.62918,-0.42906 -1.03492,-0.46242c-0.20574,-0.01692 0.41096,-0.06622 0.60724,-0.12331c0.38522,-0.11205 0.84195,-0.16047 1.24622,-0.19753c0.2731,-0.02503 0.54833,-0.06198 0.79537,-0.09641z" data-paper-data="{&quot;noHover&quot;:false,&quot;origItem&quot;:[&quot;Path&quot;,{&quot;applyMatrix&quot;:true,&quot;segments&quot;:[[[256.23176,164.13629],[0.2553,-0.01776],[-0.37793,0.02629]],[[255.10745,164.30249],[0.36248,-0.11014],[-0.18469,0.05612]],[[254.53871,164.41151],[-0.19123,-0.02628],[0.37713,0.05183]],[[255.47698,164.93921],[-0.28283,-0.24691],[0.45375,-0.43166]],[[256.97278,164.05239],[-0.53499,0.16537],[-0.2313,0.02912]]],&quot;closed&quot;:true}]}" fill="#323232" stroke-width="0.5"/><path d="M213.11103,229.11542c0.0776,-0.67642 0.3687,-2.12113 1.68003,-1.52678c0.17061,0.07733 0.21168,0.62579 0.21228,1.01449c-0.21387,0.11724 -0.29255,0.34002 -0.29255,0.34002c-0.14019,0.41845 -0.35434,0.66534 -0.63896,0.93348c-0.06703,-0.07573 -0.14441,-0.13646 -0.22344,-0.17818c-0.02099,-0.01107 -0.04387,-0.02152 -0.06561,-0.03091l-0.14123,-0.20913c-0.17415,-0.13037 -0.3588,-0.25055 -0.53052,-0.343z" data-paper-data="{&quot;noHover&quot;:false,&quot;origItem&quot;:[&quot;Path&quot;,{&quot;applyMatrix&quot;:true,&quot;segments&quot;:[[[277.07997,165.32381],[-0.1583,-0.15092],[0,0]],[[277.20081,165.5593],[0,0],[0.01997,0.01121]],[[277.25962,165.59566],[-0.01922,-0.01305],[0.07238,0.04915]],[[277.45806,165.80095],[-0.06014,-0.08642],[0.27353,-0.28689]],[[278.06052,164.80199],[-0.14353,0.45883],[0,0]],[[278.3406,164.44842],[-0.20294,0.12216],[0.0114,-0.43099]],[[278.18552,163.33581],[0.15663,0.09198],[-1.2039,-0.70697]],[[276.60738,164.9349],[0.09313,-0.74714],[0.1572,0.10878]]],&quot;closed&quot;:true}]}" fill="#323232" stroke-width="0.5"/><path d="M208.02736,239.64174l0.12649,-0.21697c0.00236,-0.00515 0.00532,-0.01048 0.00768,-0.01563c0.03543,-0.00461 0.07835,-0.00976 0.11752,-0.01367c0,0 0.63974,-0.05686 0.52883,-0.60037c-0.00646,-0.03169 0.00355,-0.10279 -0.00632,-0.13025c0.36533,-0.07404 0.88562,-0.01554 1.06182,0.10926c0.19817,0.14038 -0.23401,0.39712 -0.34732,0.59553c-0.46991,0.82283 -0.71286,1.60625 -1.87599,1.55435c-0.29349,-0.01309 -0.71725,0.27636 -0.88573,0.07529c-0.14929,-0.17815 0.23592,-0.39575 0.3475,-0.59486c0.09116,-0.16267 0.1537,-0.30668 0.21335,-0.42189c0.48082,0.08611 0.71221,-0.3408 0.71221,-0.3408z" data-paper-data="{&quot;noHover&quot;:false,&quot;origItem&quot;:[&quot;Path&quot;,{&quot;applyMatrix&quot;:true,&quot;segments&quot;:[[[270.87385,176.78001],[0.44548,0.11307],[-0.05913,0.12555]],[[270.65961,177.232],[0.08996,-0.17702],[-0.11011,0.21667]],[[270.31448,177.87428],[-0.13366,-0.20299],[0.15085,0.22911]],[[271.13544,177.81743],[-0.27314,-0.02526],[1.08246,0.10009]],[[272.89709,176.19363],[-0.46328,0.89511],[0.11172,-0.21585]],[[273.24222,175.55135],[0.18038,0.16289],[-0.16038,-0.14483]],[[272.26672,175.39937],[0.34277,-0.06873],[0.00837,0.03081]],[[272.28696,175.49857],[-0.00505,-0.03537],[0.08667,0.60666]],[[271.76697,176.19189],[0,0],[-0.03663,0.0029]],[[271.66234,176.20195],[0.03316,-0.00381],[-0.00236,0.00563]],[[271.65526,176.21884],[0.00236,-0.00563],[0,0]],[271.54207,176.4476]],&quot;closed&quot;:true}]}" fill="#323232" stroke-width="0.5"/><path d="M196.48729,242.2986c-0.32506,0.37112 -0.67492,0.76043 -0.99741,1.1415c-0.03938,0.01919 -0.07979,0.03387 -0.11783,0.04371c-0.10829,0.02802 -1.37588,0.01386 -1.39802,-0.08374c-0.0484,-0.21342 0.67049,-1.36536 0.76758,-1.55408c0.13385,-0.26018 0.31992,-0.5271 0.48402,-0.77495c0.24988,-0.37738 0.43893,-0.61545 0.77448,-0.78847c0.0939,0.1188 0.2675,0.22604 0.56059,0.21637c0.2534,-0.00836 0.409,-0.09409 0.50126,-0.1982c0.12043,0.37108 -0.16066,1.26577 -0.57465,1.99786z" data-paper-data="{&quot;noHover&quot;:false,&quot;origItem&quot;:[&quot;Path&quot;,{&quot;applyMatrix&quot;:true,&quot;segments&quot;:[[[261.26753,176.77919],[0.10083,0.41583],[-0.08919,0.11205]],[[260.79669,176.98246],[0.23643,0],[-0.27346,0]],[[260.28794,176.72528],[0.08386,0.13515],[-0.31805,0.17957]],[[259.555,177.57113],[0.2445,-0.40928],[-0.16057,0.26879]],[[259.0978,178.39165],[0.13275,-0.28357],[-0.09629,0.20569]],[[258.32689,180.06602],[-0.03854,-0.2384],[0.01762,0.10901]],[[259.61334,180.20365],[-0.10179,0.02711],[0.03576,-0.00952]],[[259.72301,180.15938],[-0.03729,0.01984],[0.31229,-0.41071]],[[260.66507,178.94286],[-0.31438,0.39958],[0.40836,-0.79655]]],&quot;closed&quot;:true}]}" fill="#323232" stroke-width="0.5"/><path d="M205.46925,241.01212c-0.57386,0.02133 -1.21086,0.09966 -1.51409,0.10966c-1.84303,0.06083 -3.81823,0.2624 -5.65881,0.13564c0.12924,-0.48237 0.14502,-0.92906 -0.00043,-1.23329c-0.15609,-0.32648 -0.55799,-0.52665 -0.83761,-0.78759c-0.24441,0.02068 -0.43856,0.05376 -0.68297,0.07444c-0.26138,-0.36152 -0.77342,-0.19951 -0.77342,-0.19951c-0.93448,0.31475 -1.38577,0.6972 -1.88277,1.44167c-0.33555,0.50264 -0.55412,1.04905 -0.82405,1.57844c-0.27822,0.54565 -0.84147,1.00208 -0.48811,1.68854c0.24896,0.48366 0.99043,0.71305 1.72701,0.76769c-0.48359,0.60203 -0.94928,1.20697 -1.37793,1.80951c-1.25262,1.76074 -1.90651,3.60295 -4.48635,3.99478c-0.36772,0.04695 -1.27101,0.18573 -1.67465,0.14965c-1.68402,-0.15052 -1.02537,-2.18894 -0.76262,-2.98774c0.66109,-2.00978 1.56259,-3.86219 2.60742,-5.75846c0,0 0.27724,-0.5051 -0.31837,-0.73262c-0.59561,-0.22752 -0.82063,0.27222 -0.82063,0.27222c-0.16669,0.30253 -0.38681,0.61277 -0.55397,0.91912c0.19838,-0.88102 0.2945,-1.79323 0.41231,-2.67534c0.24723,-0.81469 0.23277,-1.63671 0.23119,-2.45178c0.24392,0.37792 0.73018,0.621 1.45806,0.50731c0.00629,-0.00098 1.06779,-0.95472 1.19158,-1.06564l0.40921,-0.36821c0,0 0.45239,-0.4071 -0.02492,-0.78218c-0.1411,-0.11087 -0.23423,-0.13215 -0.35982,-0.13721c-0.17086,-0.12846 -0.3973,-0.14818 -0.3973,-0.14818c-0.68133,-0.04772 -1.2853,-0.20678 -1.88118,0.27851c-0.11031,0.08984 -0.25153,0.17404 -0.32741,0.28299c0.02064,-0.15243 0.04788,-0.30542 0.08279,-0.45744c0.25263,-1.09985 1.88357,-3.3463 3.03482,-3.91023c0.47171,-0.23106 1.21312,-0.39062 1.98886,-0.49714c0.31991,0.13662 0.5661,0.02311 0.70716,-0.08365c0.67361,-0.0673 1.32565,-0.10256 1.8007,-0.11751c4.53164,-0.15506 8.96073,-0.39484 13.42386,-0.23744c-0.24599,0.94966 -0.76628,2.74234 -1.86956,3.04022c-2.59062,0.05618 -5.1596,0.07889 -7.75799,0.16464c-0.46726,0.01543 -2.60724,0.3489 -2.88828,0.1663c-0.16221,-0.1054 0.33356,-2.05102 0.39109,-2.26929c0,0 0.16218,-0.50041 -0.47942,-0.61329c-0.64161,-0.11288 -0.78143,0.42726 -0.78143,0.42726c-0.19757,0.75929 -0.82205,2.6257 -0.03027,3.26489c0.55202,0.44565 2.39772,0.13296 3.07356,0.11066c2.90896,-0.09601 5.85423,-0.08246 8.75227,-0.20271c1.88675,-0.63132 2.50456,-2.47093 2.91784,-4.02883c0.70895,0.03816 1.42211,0.08913 2.13577,0.1516c0.17574,-0.01277 0.35708,-0.06502 0.53178,-0.06984l0.00997,0.01609c0,0 0.11368,0.17717 0.33105,0.25834c-0.0082,0.1804 -0.08825,0.41439 -0.04194,0.57394c0.17675,0.60898 0.34764,1.18476 0.47456,1.80667c0.6356,3.1142 1.34699,6.38725 2.63744,9.35218c0.23206,1.14772 1.01301,2.69839 0.20977,3.81848c-0.91086,1.27014 -2.27208,1.14169 -3.78407,1.11313c-1.84628,-0.03487 -3.28223,-0.00133 -4.26485,-1.58266c-0.441,-1.02174 -0.84234,-2.05244 -1.11999,-3.11755c-0.06285,-0.2411 -0.09559,-0.47831 -0.15538,-0.70649c0.54092,0.04776 1.07325,0.04226 1.31163,-0.01668c1.27515,-0.31532 3.21832,-2.85678 2.36141,-3.93515c-0.83981,-1.05686 -2.89206,-0.43935 -3.56389,0.2335c-0.05862,0.1226 -0.11678,0.24639 -0.17539,0.36899c-0.87523,0.51913 -1.73093,1.45297 -1.65324,2.29661z" data-paper-data="{&quot;noHover&quot;:false,&quot;origItem&quot;:[&quot;Path&quot;,{&quot;applyMatrix&quot;:true,&quot;segments&quot;:[[[270.68526,175.37748],[-0.8317,0.54356],[0.05841,-0.13379]],[[270.86047,174.97611],[-0.05841,0.13379],[0.64687,-0.72142]],[[274.2365,174.83472],[-0.75021,-1.20252],[0.76548,1.22699]],[[271.91391,179.12439],[1.19816,-0.30295],[-0.22398,0.05663]],[[270.69044,179.09625],[0.50268,0.07275],[0.0487,0.25518]],[[270.81243,179.88763],[-0.05116,-0.26961],[0.22601,1.1911]],[[271.75622,183.39087],[-0.37959,-1.14899],[0.86718,1.78924]],[[275.64577,185.26927],[-1.71969,-0.10623],[1.40833,0.087]],[[279.20425,184.17756],[-0.88801,1.37493],[0.78309,-1.21249]],[[279.12402,179.94221],[0.18098,1.28102],[-1.11152,-3.33457]],[[276.95668,169.49472],[0.49659,3.47611],[-0.09917,-0.69419]],[[276.57179,167.4768],[0.146,0.68167],[-0.03825,-0.17859]],[[276.62901,166.84254],[-0.01319,0.19972],[-0.2001,-0.09795]],[276.32886,166.54449],[[276.32009,166.52631],[0,0],[-0.16297,-0.00105]],[[275.82264,166.58463],[0.16419,-0.00773],[-0.66322,-0.09537]],[[273.83876,166.34029],[0.65958,0.06825],[-0.43312,1.71219]],[[270.99406,170.69931],[1.7779,-0.63093],[-2.70473,0.02728]],[[262.85575,170.60917],[2.71415,0],[-0.63059,0]],[[259.97116,170.33163],[0.50079,0.51431],[-0.71828,-0.73768]],[[260.10412,166.71011],[-0.20749,0.83463],[0,0]],[[260.84727,166.26422],[-0.59452,-0.14863],[0.59452,0.14863]],[[261.29316,167.00737],[0,0],[-0.06034,0.23989]],[[260.83781,169.46498],[-0.14794,-0.1228],[0.25632,0.21276]],[[263.54211,169.38354],[-0.43597,0],[2.42438,0]],[[270.79773,169.4895],[-2.41623,-0.03251],[1.03743,-0.28989]],[[272.60457,166.22651],[-0.25848,1.04393],[-4.15488,-0.33784]],[[260.11034,166.0008],[4.22835,-0.00609],[-0.44321,-0.00081]],[[258.43109,166.06378],[0.62989,-0.04997],[-0.13476,0.11321]],[[257.77037,166.13003],[0.29396,0.16319],[-0.72628,0.0897]],[[255.90396,166.60646],[0.44675,-0.23893],[-1.09033,0.58312]],[[252.96077,170.82351],[0.26928,-1.2102],[-0.03722,0.16727]],[[252.86991,171.32684],[0.02392,-0.16825],[0.07407,-0.11802]],[[253.13943,171.00416],[-0.10557,0.09557],[0.5703,-0.51625]],[[254.90227,170.76241],[-0.63354,-0.07784],[0,0]],[[255.26805,170.94117],[-0.15529,-0.14869],[0.1169,0.01021]],[[255.64114,171.13184],[-0.12809,-0.12809],[0.43333,0.43333]],[255.64114,171.99849],[[255.24893,172.39069],[0,0],[-0.1188,0.11846]],[[254.10671,173.5256],[0.00589,-0.00086],[-0.6819,0.09941]],[[252.76326,172.91012],[0.21571,0.42794],[-0.02359,0.90377]],[[252.47343,175.61499],[0.25549,-0.89423],[-0.13693,0.97373]],[[252.00678,178.56061],[0.212,-0.96956],[0.16522,-0.33354]],[[252.50258,177.56634],[-0.16466,0.32933],[0,0]],[[253.32476,177.29228],[-0.54812,-0.27406],[0.54812,0.27406]],[[253.59882,178.11446],[0,0],[-1.03212,2.06425]],[[250.98877,184.3948],[0.67797,-2.20413],[-0.26946,0.87604]],[[251.6051,187.73151],[-1.56491,-0.22852],[0.37509,0.05477]],[[253.16962,187.62582],[-0.34416,0.0386],[2.41652,-0.34003]],[[257.43703,183.39315],[-1.22162,1.90637],[0.41806,-0.65239]],[[258.77574,181.43576],[-0.46923,0.6498],[-0.68482,-0.08753]],[[257.18736,180.51731],[0.21716,0.54537],[-0.30822,-0.77404]],[[257.69266,178.65851],[-0.27609,0.5948],[0.26787,-0.57707]],[[258.50856,176.93307],[-0.3282,0.54502],[0.48611,-0.80724]],[[260.30875,175.39607],[-0.88064,0.31478],[0,0]],[[261.0234,175.64574],[-0.23249,-0.41039],[0.22843,-0.01399]],[[261.70869,175.60378],[-0.22843,0.01399],[0.25258,0.29956]],[[262.46644,176.50245],[-0.13543,-0.36769],[0.1262,0.34263]],[[262.42758,177.85795],[0.13529,-0.5301],[1.71155,0.2079]],[[267.66023,177.91394],[-1.71961,0],[0.28292,0]],[[269.07365,177.85114],[-0.53551,0.00265],[-0.04645,-0.93822]]],&quot;closed&quot;:true}]}" fill="#323232" stroke-width="0.5"/><path d="M208.74487,234.77829c-0.01087,-0.32922 0.29782,-0.60659 0.68947,-0.61951c0.39164,-0.01292 0.71795,0.24348 0.72881,0.5727c0.01087,0.32922 -0.29782,0.60659 -0.68947,0.61951c-0.39164,0.01292 -0.71795,-0.24348 -0.72881,-0.5727z" fill="#696969" stroke-width="0.5"/><path d="M210.53908,232.80668c-0.01087,-0.32922 0.29782,-0.60659 0.68947,-0.61951c0.39164,-0.01292 0.71795,0.24348 0.72881,0.5727c0.01087,0.32922 -0.29782,0.60659 -0.68947,0.61951c-0.39164,0.01292 -0.71795,-0.24348 -0.72881,-0.5727z" fill="#696969" stroke-width="0.5"/><path d="M212.07587,234.75323c-0.01087,-0.32922 0.29782,-0.60659 0.68947,-0.61951c0.39164,-0.01292 0.71795,0.24348 0.72881,0.5727c0.01087,0.32922 -0.29782,0.60659 -0.68947,0.61951c-0.39164,0.01292 -0.71795,-0.24348 -0.72881,-0.5727z" fill="#696969" stroke-width="0.5"/><path d="M210.50975,236.62965c-0.01087,-0.32922 0.29782,-0.60659 0.68947,-0.61951c0.39164,-0.01292 0.71795,0.24348 0.72881,0.5727c0.01087,0.32922 -0.29782,0.60659 -0.68947,0.61951c-0.39164,0.01292 -0.71795,-0.24348 -0.72881,-0.5727z" fill="#696969" stroke-width="0.5"/><path d="M190.4275,234.37737c-0.00996,-0.12427 0.02531,-0.22258 0.02531,-0.22258c0.13569,-0.37502 0.42534,-1.39627 0.96061,-1.45798c1.70136,-0.19612 1.65974,1.91819 0.81725,2.46464c-0.29909,0.194 -0.74415,0.09412 -1.11621,0.14117l-0.57777,-0.23125c0,0 -0.41122,-0.32313 -0.1092,-0.69399z" fill="#0d0d0d" stroke-width="0.5"/><path d="M191.88499,236.88472l0.32825,0.13877c0.25955,0.21369 0.728,0.33732 0.77863,0.64107c0.22272,1.33617 -2.01125,1.99603 -2.72191,0.71868c-0.09056,-0.16277 0.28993,-1.15059 0.38126,-1.40512c0,0 0.19041,-0.53064 0.81927,-0.37661c0.23506,0.05758 0.35565,0.16776 0.41452,0.2832z" fill="#0d0d0d" stroke-width="0.5"/><path d="M192.69771,235.39942c0.11358,-0.3739 0.61633,-0.39049 0.61633,-0.39049c0.53281,-0.01356 1.46295,-0.12907 1.91186,0.24893c1.12633,0.94844 0.19819,2.04641 -1.14224,2.15537c-1.14877,0.09339 -1.0917,-0.09173 -1.75208,-0.67798l-0.05563,-0.894c0,0 0.06979,-0.34323 0.42175,-0.44183zM193.42586,236.10959c0.27603,0.25764 0.67516,0.31606 1.06499,0.03215c0.10444,-0.07607 -0.26773,-0.05903 -0.4051,-0.05999c-0.22009,-0.00154 -0.43994,0.01655 -0.65988,0.02784z" fill="#0d0d0d" stroke-width="0.5"/><path d="M203.8979,236.6231c-0.00264,-0.00062 -0.00528,-0.00122 -0.00793,-0.00183c0,0 -0.62886,-0.15403 -0.43844,-0.68467c0.19041,-0.53064 0.81927,-0.37661 0.81927,-0.37661c0.08928,0.02294 0.17068,0.04259 0.2459,0.0604c0.09857,-0.02418 0.21741,-0.02839 0.36005,0.00093c0.23127,0.04754 0.35702,0.14867 0.42337,0.25818c0.12148,0.06945 0.25015,0.16295 0.40527,0.29728c1.57963,1.36782 -0.9547,3.21141 -1.89484,1.39478c-0.13911,-0.26882 0.0449,-0.58804 0.06736,-0.88205z" fill="#0d0d0d" stroke-width="0.5"/><path d="M200.43353,237.00736c-0.2137,0.05856 -0.42307,0.00727 -0.42307,0.00727c-0.20353,-0.05269 -1.12772,-0.31365 -1.32895,-0.08966c-0.19785,0.22021 -0.07039,0.55891 -0.21926,0.80461c-0.0441,0.07277 -0.3116,0.14714 -0.21719,0.16373c0.44594,0.07838 2.30038,-0.47368 2.18847,-0.88595zM199.80843,235.84744c0.34885,-0.3566 0.83794,-0.10334 0.83794,-0.10334l0.368,0.19302c1.90173,1.36896 -0.53121,3.10616 -2.45922,2.92152c-0.45346,-0.04342 -1.03452,0.02831 -1.33189,-0.26063c-0.27887,-0.27096 -0.08225,-0.72039 -0.04784,-1.07994c0.1349,-1.40924 1.2667,-1.84213 2.63301,-1.67063z" fill="#0d0d0d" stroke-width="0.5"/><path d="M201.44136,239.80354c-0.01006,-0.30492 0.27584,-0.56182 0.63858,-0.57379c0.36275,-0.01197 0.66496,0.22552 0.67502,0.53044c0.01006,0.30492 -0.27584,0.56182 -0.63858,0.57379c-0.36275,0.01197 -0.66496,-0.22552 -0.67502,-0.53044z" fill="#0d0d0d" stroke-width="0.5"/><path d="M175.21588,261.69593v-42.96569h49.51977v42.96569z" fill-opacity="0.00784" fill="#000000" stroke-width="0"/></g></g></svg>