<svg version="1.1" xmlns="http://www.w3.org/2000/svg" xmlns:xlink="http://www.w3.org/1999/xlink" width="67.66667" height="95.01508" viewBox="0,0,67.66667,95.01508"><g transform="translate(-286.5,-149.83333)"><g data-paper-data="{&quot;isPaintingLayer&quot;:true}" fill-rule="nonzero" stroke-linecap="butt" stroke-linejoin="miter" stroke-miterlimit="10" stroke-dasharray="" stroke-dashoffset="0" style="mix-blend-mode: normal"><path d="M295.5,205.92857v-49.42857h49.42857v49.42857z" fill-opacity="0.47451" fill="#919191" stroke="#ffffff" stroke-width="1.5"/><path d="M309.46429,168.42857c0,0.75 -0.75,0.75 -0.75,0.75l-0.15003,-0.05364c-1.21197,0.46498 -2.3599,1.55183 -3.39997,2.33221c0,0 -0.56063,0.42047 -1.00449,-0.09339c0.36782,1.80974 0.58819,3.64884 0.5902,5.49339v0.85714c0,0 0,0.75 -0.75,0.75c-0.75,0 -0.75,-0.75 -0.75,-0.75v-0.85714c0.00336,-2.87638 -0.57134,-5.75247 -1.39694,-8.49877c0,0 -0.19265,-0.64217 0.39349,-0.89434c0.04884,-0.24865 0.22312,-0.42293 0.22312,-0.42293c2.11834,-2.11672 4.60571,-4.07711 7.42383,-5.12294l0.93601,-0.21996c0,0 0.73037,-0.17048 0.90085,0.55988c0.17048,0.73037 -0.55988,0.90085 -0.55988,0.90085l-0.84645,0.19611c-2.57063,0.93834 -4.86963,2.8211 -6.79371,4.74671c0,0 -0.05789,0.05789 -0.15455,0.11629c0.2304,0.7887 0.43971,1.58604 0.62162,2.38989c0.08955,-0.2178 0.26688,-0.3508 0.26688,-0.3508c1.17901,-0.88389 2.38368,-1.96475 3.74289,-2.52493l0.70711,-0.05364c0,0 0.75,0 0.75,0.75z" fill="#ffffff" stroke="none" stroke-width="0.5"/><path d="M320.17103,175.82035c-0.10607,0.74246 -0.84853,0.6364 -0.84853,0.6364l-1.11756,-0.16943c-1.35812,-0.66863 -3.04064,-1.50375 -3.876,-2.81629c-0.6713,0.17484 -1.2321,0.30588 -1.56018,0.3954c0,0 -0.72357,0.19734 -0.92091,-0.52623c-0.19734,-0.72357 0.52623,-0.92091 0.52623,-0.92091c0.48242,-0.13151 0.96656,-0.25506 1.45007,-0.3796c-0.02206,-0.2196 -0.02249,-0.4494 0.00144,-0.69012c0.22228,-2.23586 3.19478,-4.72029 5.34535,-2.9445c2.69041,2.22156 -0.39644,3.71893 -3.21566,4.60373c0.75493,0.80475 1.93328,1.4574 2.69691,1.84676l0.88244,0.11628c0,0 0.74246,0.10607 0.6364,0.84853zM315.24063,171.66251c0.78123,-0.21985 1.55473,-0.46556 2.31039,-0.77576c0.04492,-0.01844 1.15629,-0.49773 1.12851,-0.84885c-0.09897,-1.25116 -2.15779,-0.44288 -2.61456,-0.0446c-0.65781,0.57358 -0.88049,1.13689 -0.82434,1.66921z" fill="#ffffff" stroke="none" stroke-width="0.5"/><path d="M328.17857,175.28571c0,0.75 -0.75,0.75 -0.75,0.75l-0.56426,-0.05364c-0.81668,-0.32668 -2.18968,-1.27766 -3.30881,-2.45393c-0.07912,0.01894 -0.15624,0.0377 -0.23075,0.0566c0,0 -0.72761,0.1819 -0.90951,-0.54571c-0.08434,-0.33734 0.02683,-0.55738 0.17035,-0.69638c-0.96283,-1.41022 -1.30237,-2.93896 0.06586,-4.05211c2.16639,-1.76252 5.07771,2.337 3.34371,4.20085c-0.23417,0.2517 -0.54327,0.43715 -0.88274,0.58177c0.84881,0.73294 1.78912,1.30825 2.30898,1.51619l0.00717,-0.05364c0,0 0.75,0 0.75,0.75zM324.00174,171.92123c0.49846,-0.13168 0.95126,-0.35911 0.9662,-0.85228c0.01327,-0.43802 -0.93478,-2.15599 -1.33368,-1.64522c-0.58143,0.74451 -0.28129,1.64979 0.36748,2.4975z" fill="#ffffff" stroke="none" stroke-width="0.5"/><path d="M334.98044,161.97449c0.7398,0.1233 0.6165,0.86309 0.6165,0.86309l-0.14642,0.87689c-0.68346,3.06634 -0.69845,6.15994 -0.70052,9.28552c-0.00084,1.27509 0.21857,2.8263 -1.45868,3.16373c-3.215,0.6468 -4.04133,-5.11125 -1.56986,-6.28866c0,0 0.69636,-0.27854 0.9749,0.41781c0.27854,0.69636 -0.41781,0.9749 -0.41781,0.9749c-1.95378,0.4539 0.74316,4.03384 0.95017,3.32285c0.98125,-3.37023 -0.03966,-7.60141 0.74934,-11.16226l0.13929,-0.83739c0,0 0.1233,-0.7398 0.86309,-0.6165z" fill="#ffffff" stroke="none" stroke-width="0.5"/><path d="M304.43706,192.96447c0.08267,0.00277 0.74151,0.04687 0.74151,0.74981c0,0.75 -0.75,0.75 -0.75,0.75l-0.4383,-0.06064c-1.82878,-0.78387 -4.05887,-1.48852 -4.71515,-3.63971c-1.42536,-4.6721 7.30647,-6.83582 10.2536,-5.12133c0,0 0.64312,0.38587 0.25725,1.02899c-0.38587,0.64312 -1.02899,0.25725 -1.02899,0.25725c-1.90192,-1.19084 -8.99914,0.35604 -8.03211,3.45009c0.47106,1.50719 2.39556,2.04367 3.71218,2.58554z" fill="#ffffff" stroke="none" stroke-width="0.5"/><path d="M310.83163,188.44813c0.1233,-0.7398 0.86309,-0.6165 0.86309,-0.6165l1.03963,0.19782c0.80539,0.62175 1.20832,0.82308 1.76699,1.72933c2.84129,4.60905 -8.60486,7.21377 -6.65069,0.89105c0.28586,-0.92489 0.6197,-1.41254 1.07766,-2.17856c0,0 0.38587,-0.64312 1.02899,-0.25725c0.64312,0.38587 0.25725,1.02899 0.25725,1.02899c-0.51247,0.85069 -1.42155,2.31017 -1.13333,3.38746c0.07758,0.28997 2.18216,0.20807 2.22721,0.20064c2.52876,-0.4174 2.49604,-1.99783 0.81435,-3.43199l-0.67466,-0.0879c0,0 -0.7398,-0.1233 -0.6165,-0.86309z" fill="#ffffff" stroke="none" stroke-width="0.5"/><path d="M326.38511,190.33541c-0.33541,0.67082 -1.00623,0.33541 -1.00623,0.33541l-0.15634,-0.09253c-0.7464,-0.21334 -1.46736,-0.43172 -2.19586,-0.6108c-0.33484,1.94751 -0.30584,4.16974 -0.42532,5.12555c0,0 -0.09303,0.74421 -0.83723,0.65118c-0.74421,-0.09303 -0.65118,-0.83723 -0.65118,-0.83723c0.17317,-1.38539 0.21956,-3.38214 0.5432,-5.21656c-0.23818,-0.03598 -0.47917,-0.06524 -0.72403,-0.08635c0,0 -0.38347,-0.03486 -0.5759,-0.32939c-0.44196,0.40788 -0.87668,0.10028 -0.99684,-0.00087c-0.28776,-0.04416 -0.57668,-0.08023 -0.86633,-0.1121c-0.57808,1.67933 -0.58457,3.51426 0.19633,5.25714c0,0 0.29544,0.68936 -0.39392,0.9848c-0.68936,0.29544 -0.9848,-0.39392 -0.9848,-0.39392c-0.64433,-1.5563 -0.80141,-3.8757 -0.37001,-6.00041c-0.34919,-0.03514 -0.69833,-0.07423 -1.0467,-0.124c0,0 -0.74246,-0.10607 -0.6364,-0.84853c0.10607,-0.74246 0.84853,-0.6364 0.84853,-0.6364c0.41383,0.05912 0.82772,0.10418 1.24124,0.14539c0.73175,-2.02322 2.10373,-3.60589 4.22413,-3.72436l0.66574,0.18134c0,0 0.71151,0.23717 0.47434,0.94868c-0.23717,0.71151 -0.94868,0.47434 -0.94868,0.47434l-0.1914,-0.10437c-0.99277,-0.10885 -0.93345,0.38534 -1.56192,1.15292c-0.32563,0.39772 -0.61611,0.81878 -0.86669,1.25775c0.23192,0.02908 0.46354,0.06164 0.69477,0.09953l0.54989,0.35232c0,0 0.04136,0.04136 0.08942,0.11252c0.24254,-0.21793 0.59101,-0.18625 0.59101,-0.18625c0.31473,0.0299 0.62278,0.07072 0.92635,0.12036c0.66809,-2.22445 2.01157,-3.7967 4.95721,-2.9421l0.57651,0.66182c0,0 0.33541,0.67082 -0.33541,1.00623c-0.67082,0.33541 -1.00623,-0.33541 -1.00623,-0.33541l0.29079,0.09039c-1.68655,-0.69824 -2.59586,0.27759 -3.10136,1.80422c0.74768,0.18218 1.48861,0.40028 2.25886,0.62027l0.41508,0.19318c0,0 0.67082,0.33541 0.33541,1.00623z" fill="#ffffff" stroke="none" stroke-width="0.5"/><path d="M334.32143,197c0,0.75 -0.75,0.75 -0.75,0.75l-0.38003,-0.03849c-2.72785,-0.94352 -8.17234,-5.4304 -5.01991,-8.65765c1.0612,-1.08638 3.32364,-1.69156 3.57753,0.47925c0.16952,1.44947 -1.1502,2.75728 -2.23348,3.66434c0.78566,1.43553 2.75427,2.64902 4.1502,3.09103l-0.09431,-0.03849c0,0 0.75,0 0.75,0.75zM329.04763,191.61079c0.38864,-0.37464 0.72235,-0.789 0.97548,-1.33054c0.1181,-0.25266 0.58232,-0.83781 0.3101,-0.77713c-1.23502,0.27531 -1.42276,1.13306 -1.28558,2.10767z" fill="#ffffff" stroke="none" stroke-width="0.5"/><path d="M342.13922,193.96159c0.17749,-0.12448 0.57001,-0.31301 0.96254,0.07951c0.53033,0.53033 0,1.06066 0,1.06066l-0.67319,0.36253c-2.09139,-0.00267 -4.07851,-0.44085 -6.10808,-0.90037c-0.88337,-0.43716 -2.71962,-0.9818 -3.3341,-1.80891c-1.39158,-1.87313 0.8148,-6.09048 3.008,-6.49017c2.7701,-0.50483 4.38388,2.50966 2.91745,4.71946c-0.547,0.82429 -1.60626,1.4481 -2.63439,1.93766c0.22066,0.08535 0.41177,0.16105 0.54491,0.22841c1.76918,0.38465 3.50494,0.77512 5.31686,0.81122zM334.49856,192.06939c1.14676,-0.52103 5.13598,-2.51779 3.16468,-3.92136c-1.81862,-1.29486 -3.64802,1.60863 -3.63169,3.20153c0.00278,0.27102 0.18889,0.50956 0.46702,0.71983z" fill="#ffffff" stroke="none" stroke-width="0.5"/><text transform="translate(310.28571,225.89263) scale(0.32045,0.32045)" font-size="40" xml:space="preserve" fill="#ffffff" fill-rule="nonzero" stroke="none" stroke-width="1" stroke-linecap="butt" stroke-linejoin="miter" stroke-miterlimit="10" stroke-dasharray="" stroke-dashoffset="0" font-family="Pixel" font-weight="normal" text-anchor="start" style="mix-blend-mode: normal"><tspan x="0" dy="0">1/6</tspan></text><path d="M286.5,235.83333v-86h67.66667v86z" fill="none" stroke="none" stroke-width="0"/><text transform="translate(303.125,241.875) scale(0.28332,0.28332)" font-size="40" xml:space="preserve" fill="#ffffff" fill-rule="nonzero" stroke="none" stroke-width="1" stroke-linecap="butt" stroke-linejoin="miter" stroke-miterlimit="10" stroke-dasharray="" stroke-dashoffset="0" font-family="Pixel" font-weight="normal" text-anchor="start" style="mix-blend-mode: normal"><tspan x="0" dy="0">(hold)</tspan></text></g></g></svg>