<svg version="1.1" xmlns="http://www.w3.org/2000/svg" xmlns:xlink="http://www.w3.org/1999/xlink" width="58.34884" height="76.7678" viewBox="0,0,58.34884,76.7678"><g transform="translate(-99.75848,-169.9583)"><g data-paper-data="{&quot;isPaintingLayer&quot;:true}" fill-rule="nonzero" stroke="none" stroke-linecap="butt" stroke-linejoin="miter" stroke-miterlimit="10" stroke-dasharray="" stroke-dashoffset="0" style="mix-blend-mode: normal"><path d="M107.70351,246.72611l-7.94503,-73.89797l54.89292,-2.86983l3.45592,50.86956z" fill="#232323" stroke-width="0"/><path d="M127.1,180.40001c-0.5,0 -0.5,-0.5 -0.5,-0.5l0.02566,-0.24189c-0.36578,-1.09733 -1.01447,-1.98 -1.02566,-3.15811c0,0 0,-0.04598 0.01394,-0.11006c-1.10961,-0.02186 -2.24599,-0.27358 -3.27206,-0.6156c0,0 -0.47434,-0.15811 -0.31623,-0.63246c0.15811,-0.47434 0.63246,-0.31623 0.63246,-0.31623c1.92344,0.64115 4.58458,1.08039 6.08833,-0.47921l0.52995,-0.29366c0,0 0.44721,-0.22361 0.67082,0.22361c0.22361,0.44721 -0.22361,0.67082 -0.22361,0.67082l-0.27005,0.10634c-0.80647,0.78438 -1.8099,1.17072 -2.87842,1.29333c0.02486,0.0855 0.02486,0.15312 0.02486,0.15312c-0.01257,1.01221 0.65378,1.88021 0.97434,2.84189l0.02566,0.55811c0,0 0,0.5 -0.5,0.5z" fill="#ffffff" stroke-width="0.5"/><path d="M130.65279,175.2764c0.09674,-0.19348 0.23533,-0.2614 0.36145,-0.27619c0.06435,-0.21345 0.13468,-0.43222 0.21142,-0.65832c0.16038,-0.47255 -0.05537,-1.20722 0.38199,-1.44751c1.84527,-1.01382 3.09246,3.67972 3.60942,5.51586c0.38294,0.07121 0.38294,0.48976 0.38294,0.48976v0.8c0,0.27614 -0.22386,0.5 -0.5,0.5c-0.22492,0 -0.41515,-0.14851 -0.47799,-0.35282l-0.19635,-0.58906c-0.22882,-0.68776 -0.42134,-1.37831 -0.63886,-2.06243c-0.13313,0.01592 -0.24492,-0.02134 -0.24492,-0.02134c-0.74528,-0.26333 -1.2686,-0.64983 -1.99803,-0.92784c-0.08122,0.17122 -0.14021,0.30213 -0.15723,0.36837c-0.20957,0.81564 0.01338,2.04475 0.01338,2.88512c0,0 0,0.5 -0.5,0.5c-0.5,0 -0.5,-0.5 -0.5,-0.5c0,-1.37899 0.09917,-2.4593 0.37613,-3.62107c-0.11682,-0.09716 -0.27561,-0.29801 -0.12334,-0.60253zM133.24264,175.70205c-0.18928,-0.44116 -0.31452,-0.91429 -0.56006,-1.32679c-0.05773,-0.09698 -0.19341,-0.2415 -0.31609,-0.37243c0.01432,0.32183 -0.17926,0.84329 -0.39849,1.33961c0.5037,0.2107 0.94315,0.49038 1.41549,0.70246c-0.04513,-0.11464 -0.09198,-0.22894 -0.14085,-0.34285z" fill="#ffffff" stroke-width="0.5"/><path d="M137.85811,173.62567c0.51656,0.17327 3.25447,1.39296 2.92851,2.38922c-0.27473,0.83968 -2.05364,0.60944 -2.78906,0.58681c0.04745,0.95289 0.00244,1.91757 0.00244,2.89832v0.2c0,0 0,0.5 -0.5,0.5c-0.5,0 -0.5,-0.5 -0.5,-0.5v-0.2c0,-1.71788 0.17026,-3.40809 -0.37434,-5.04189c0,0 -0.15811,-0.47434 0.31623,-0.63246c0.13816,-0.04605 0.2495,-0.03845 0.33791,-0.00454c0.19143,-0.32442 0.57832,-0.19546 0.57832,-0.19546zM137.90714,175.60001c2.39884,-0.00053 1.90692,-0.26831 -0.18795,-0.96677c0.08281,0.32117 0.14363,0.64337 0.18795,0.96677z" fill="#ffffff" stroke-width="0.5"/><path d="M113.58196,186.8643c0.45137,0.26138 0.31232,0.8176 0.31232,0.8176c-0.17882,0.70218 -0.31307,1.42684 -0.31094,2.15143c0.00283,0.95955 0.397,3.82731 2.29632,2.97376c1.44697,-0.65027 1.9389,-5.0817 1.02432,-6.18518c-0.32408,-0.39102 -1.41976,-0.68606 -1.79827,-0.81726c-0.94309,-1.03137 -1.19926,-0.57392 -1.56086,0.59918l0.03849,0.4295c0,0 0,0.01124 -0.00138,0.03097zM112.4028,187.46817c-0.31947,-0.21025 -0.31947,-0.63484 -0.31947,-0.63484l0.03849,-0.90384c0.67746,-1.92673 2.02073,-3.03404 3.77248,-1.40082c3.21141,1.02187 4.37274,8.2215 0.55938,9.66423c-3.00946,1.13858 -4.37616,-2.19437 -4.37035,-4.35958c0.00214,-0.79533 0.13569,-1.59019 0.31947,-2.36516z" fill="#ffffff" stroke-width="0.5"/><path d="M128.50415,189.83126c0.33541,0.67082 -0.33541,1.00623 -0.33541,1.00623l-0.76491,0.37403c-1.93382,0.64461 -3.27201,1.14716 -4.50964,0.22762l-0.25786,0.25786l-0.66667,-0.66667c0,0 0,0 0,0c-0.13572,-0.13572 -0.21967,-0.32322 -0.21967,-0.53033c0,-0.41421 0.33579,-0.75 0.75,-0.75h0.76652c0.70565,-0.80278 0.24291,-2.40537 0.0893,-3.78213c-0.04778,0.14543 -0.0959,0.29075 -0.14431,0.43596c0,0 -0.23717,0.71151 -0.94868,0.47434c-0.71151,-0.23717 -0.47434,-0.94868 -0.47434,-0.94868c0.2404,-0.72119 0.48803,-1.43997 0.74019,-2.15713l0.15169,-0.092l-0.04404,-0.04404l0.66667,-0.66667l0.20735,0.20735l0.60999,-0.36993c0.0536,0.22537 0.11101,0.45678 0.16996,0.69291h0.29303l0,1.19715c0.4429,1.90095 0.75456,3.95066 -0.09583,5.55104c0.86489,-0.18374 1.90833,-0.28182 2.44199,-0.45971l0.56843,-0.29264c0,0 0.67082,-0.33541 1.00623,0.33541z" fill="#ffffff" stroke-width="0.5"/><path d="M136.83749,190.49792c0.33541,0.67082 -0.33541,1.00623 -0.33541,1.00623l-0.76491,0.37403c-0.71911,0.23313 -1.48122,0.37182 -2.23717,0.37182c-4.68338,0 -1.42287,-3.53271 -0.35958,-5.70368c0.14442,-0.29487 -0.37434,-1.55366 -0.38074,-1.59285c-0.3307,-2.02442 -0.81784,-1.36574 -2.68918,-0.74196c0,0 -0.71151,0.23717 -0.94868,-0.47434c-0.23717,-0.71151 0.47434,-0.94868 0.47434,-0.94868c0.92361,-0.30787 2.61545,-1.20965 3.59106,-0.61641c1.0506,0.63883 1.74361,3.80072 1.33902,4.94827c-0.17054,0.48371 -1.10491,2.29258 -1.38825,2.77395c-0.22769,0.38683 -1.23623,0.57767 -0.96717,0.93696c0.24663,0.32934 2.74124,-0.25513 3.09201,-0.3761l0.56843,-0.29264c0,0 0.67082,-0.33541 1.00623,0.33541z" fill="#ffffff" stroke-width="0.5"/><path d="M140.63634,189.63634c0.53033,-0.53033 1.06066,0 1.06066,0l-0.197,0.11366c0.35883,0 2.3359,0.28236 2.56147,0.14157c0.16765,-0.10464 0.18646,-1.27328 -0.18181,-1.36533c-0.62374,-0.1559 -1.14083,-0.05918 -1.71299,0.00631l0,0.38412h-1c-0.41421,0 -0.75,-0.33579 -0.75,-0.75c0,-0.20711 0.08395,-0.39461 0.21967,-0.53033l0.66667,-0.66667c2.18814,-2.16983 0.43992,-2.38634 -1.803,-2.38634c0,0 -0.75,0 -0.75,-0.75c0,-0.75 0.75,-0.75 0.75,-0.75c3.07894,0 5.38642,1.3555 3.7847,3.83177c1.67917,0.06549 3.75411,2.54253 1.65383,4.19332c-0.53165,0.41787 -2.73275,0.14157 -3.43853,0.14157l-0.86366,-0.553c0,0 -0.53033,-0.53033 0,-1.06066z" fill="#ffffff" stroke-width="0.5"/><path d="M118.73717,209.21151c-0.71151,0.23717 -0.94868,-0.47434 -0.94868,-0.47434l-0.36214,-1.11703c-0.00323,-0.37383 -0.00573,-0.74767 -0.00765,-1.12152c-2.87389,-0.48114 -1.768,-2.92818 -2.63021,-5.42811c0,0 -0.23717,-0.71151 0.47434,-0.94868c0.71151,-0.23717 0.94868,0.47434 0.94868,0.47434c0.59043,1.82123 -0.28992,3.79098 1.20221,4.33889c-0.00253,-1.70058 0.00294,-3.40123 0.00294,-5.10172c0,0 0,-0.75 0.75,-0.75c0.75,0 0.75,0.75 0.75,0.75c0,1.74981 0.00871,3.5 0.00469,5.25h0.24531c0,0 0.75,0 0.75,0.75c0,0.75 -0.75,0.75 -0.75,0.75h-0.25237c-0.00198,0.26552 -0.00439,0.53103 -0.00731,0.79653l0.30453,0.88297c0,0 0.23717,0.71151 -0.47434,0.94868z" fill="#ffffff" stroke-width="0.5"/><path d="M124.12182,205.59616c0.23717,-0.71151 0.94868,-0.47434 0.94868,-0.47434l0.88297,0.30453c1.36406,0 3.10981,-1.30228 2.52029,-2.97267c-0.3666,-1.03873 -2.50077,-0.36109 -3.27841,-1.55938c-0.42985,-0.66237 -0.57045,-1.48029 -0.81501,-2.23935l-0.28669,-0.19112c-0.20678,-0.13354 -0.34365,-0.36603 -0.34365,-0.63049c0,-0.41421 0.33579,-0.75 0.75,-0.75c0.08907,0 0.17452,0.01553 0.25378,0.04402c1,0.33333 2.98339,0.99446 3.98339,1.3278c0,0 0.71151,0.23717 0.47434,0.94868c-0.23717,0.71151 -0.94868,0.47434 -0.94868,0.47434c-0.67342,-0.22447 -1.34684,-0.44895 -2.02025,-0.67342c-0.07521,0.51177 -0.19679,1.06211 0.54444,1.269c1.14493,0.31956 2.43463,-0.12157 3.07256,1.4059c1.17805,2.82075 -1.80272,5.02733 -4.14638,5.02733l-1.11703,-0.36214c0,0 -0.71151,-0.23717 -0.47434,-0.94868z" fill="#ffffff" stroke-width="0.5"/><path d="M137.21172,202.59781c0.23834,0.69663 0.58183,1.3804 1.2862,1.23137c0.87216,-0.18453 0.19082,-1.77315 0.25208,-2.66251c0.00303,-0.04401 -0.00029,-0.09898 -0.00768,-0.16027c-0.17647,0.2673 -0.51605,0.48748 -0.71199,0.6906l-0.19284,0.47175c0,0 -0.20859,0.41718 -0.62576,0.42907zM136.6623,201.19524l0.30737,-0.55891c0.55799,-0.52967 0.59678,-1.75478 1.35802,-1.86627c2.56699,-0.37595 2.11728,5.70596 0.84106,6.40076c-1.42381,0.77514 -3.02683,-1.12538 -3.38026,-2.10032c-0.87211,-2.40577 -2.04995,-3.78794 0.18118,-6.10083c0,0 0.53033,-0.53033 1.06066,0c0.53033,0.53033 0,1.06066 0,1.06066c-1.30957,1.2431 -1.05156,1.9799 -0.36803,3.16491z" fill="#ffffff" stroke-width="0.5"/><path d="M144.96967,201.36366c-0.53033,-0.53033 0,-1.06066 0,-1.06066l0.15215,-0.04017c0.26389,-0.79167 0.84261,-3.11133 1.63722,-3.99747c-0.62814,0.1194 -1.28437,-0.01536 -1.9257,-0.01536c0,0 -0.75,0 -0.75,-0.75c0,-0.75 0.75,-0.75 0.75,-0.75c0.67059,0 3.21724,-0.25258 3.60843,0.31147c0.72312,1.04265 -1.53276,4.58322 -1.89692,5.6757l-0.51452,0.62649c0,0 -0.53033,0.53033 -1.06066,0z" fill="#ffffff" stroke-width="0.5"/><path d="M120.23176,213.64302c0.01176,0.05736 0.01824,0.1206 0.01824,0.19031c0,0.75 -0.75,0.75 -0.75,0.75c-0.8697,-0.06964 -2.48612,1.0854 -1.21142,1.9873c0.2936,0.20774 0.65948,0.26831 1.0238,0.33354c0.10306,-0.04679 0.19841,-0.08567 0.28378,-0.11569c1.31898,-0.43966 2.69042,-1.70556 1.04017,-3.09149l0.197,0.21967c0,0 -0.38296,0 -0.60157,-0.27365zM117.68349,217.90939c-0.13743,-0.04716 -0.24445,-0.09482 -0.3054,-0.14669c-2.37537,-2.02159 -0.19363,-4.57665 2.12191,-4.67936c0,0 0.38296,0 0.60157,0.27365c-0.01176,-0.05736 -0.01824,-0.1206 -0.01824,-0.19031c0,-0.75 0.75,-0.75 0.75,-0.75l0.86366,0.21967c0.76026,0.83428 1.60227,3.47647 0.74477,4.63553c-0.10971,0.14829 -0.80734,0.41193 -1.43113,0.62703c1.06982,1.40262 0.2208,3.33846 -1.62663,3.98559c-1.47557,0.51687 -3.42147,0.12931 -3.28061,-1.89013c0.04755,-0.68165 0.76833,-1.4586 1.58009,-2.08496zM119.41079,218.46292c-0.25868,0.12686 -0.4944,0.29013 -0.66412,0.51257c-0.36504,0.47845 -0.80327,0.89694 -1.1834,1.36349c-0.1281,0.15721 0.40127,0.09413 0.6034,0.07769c0.66156,-0.05384 1.72757,-0.08353 1.9233,-1.01622c0.09109,-0.43407 -0.22824,-0.72446 -0.67918,-0.93753z" fill="#ffffff" stroke-width="0.5"/><path d="M133.697,221.697c-0.53033,0.53033 -1.06066,0 -1.06066,0l-0.33333,-0.33333c-1.15799,-1.27074 -0.89474,-2.43315 -0.87665,-4.07686c-0.07223,-0.21668 -0.10136,-0.46537 -0.1042,-0.70896c-0.81015,2.01911 -3.58407,4.94357 -5.15964,2.25757c-0.24948,-0.42532 0.21116,-0.96528 0.26384,-1.45555c0.233,-2.1685 0.89566,-7.3291 3.93731,-5.07686c0,0 0.53033,0.53033 0,1.06066c-0.53033,0.53033 -1.06066,0 -1.06066,0c-0.21866,-0.7169 -1.89372,3.83585 -1.79885,4.80093c0.05542,0.56372 1.9083,-0.86393 2.02452,-1.05889c0.38443,-0.64486 0.5736,-3.19347 1.46567,-3.33564c1.79837,-0.28659 1.61283,2.37707 1.91263,3.27647c0.0093,1.07604 -0.38482,2.54975 0.45668,3.25647l0.33333,0.33333c0,0 0.53033,0.53033 0,1.06066z" fill="#ffffff" stroke-width="0.5"/></g></g></svg>