<svg version="1.1" xmlns="http://www.w3.org/2000/svg" xmlns:xlink="http://www.w3.org/1999/xlink" width="826.75" height="417.75" viewBox="0,0,826.75,417.75"><g transform="translate(2.26648,49.75)"><g data-paper-data="{&quot;isPaintingLayer&quot;:true}" fill-rule="nonzero" stroke-linejoin="miter" stroke-miterlimit="10" stroke-dasharray="" stroke-dashoffset="0" style="mix-blend-mode: normal"><path d="M0,368v-372h799.03296v372z" fill="#000000" stroke="none" stroke-width="NaN" stroke-linecap="butt"/><path d="M192.48352,258.5v-307h415v307z" fill="#252525" stroke="#848484" stroke-width="2.5" stroke-linecap="butt"/><path d="M317.48352,304.5v-250h135v250z" fill="#ffffff" stroke="#848484" stroke-width="2.5" stroke-linecap="butt"/><text transform="translate(367.48352,192.5) scale(0.5,0.5)" font-size="40" xml:space="preserve" fill="#aaaaaa" fill-rule="nonzero" stroke="none" stroke-width="1" stroke-linecap="butt" stroke-linejoin="miter" stroke-miterlimit="10" stroke-dasharray="" stroke-dashoffset="0" font-family="Pixel" font-weight="normal" text-anchor="start" style="mix-blend-mode: normal"><tspan x="0" dy="0">Fridge</tspan></text><path d="M384.53196,146.19253c0.30747,-0.95156 1.25903,-0.64408 1.25903,-0.64408l1.74764,0.56471c5.11547,1.65362 10.06059,3.3279 14.96081,5.58495c3.94462,0.81676 9.23294,2.95964 13.25901,2.57585c1.45151,-0.13837 2.52391,-4.59796 3.12015,-5.93397c2.6821,-6.00977 2.79287,-12.54242 2.50578,-19.08193c-0.04966,-1.15123 0.43461,-2.48903 -0.19954,-3.45113c-0.59722,-0.90608 -4.13937,-1.40103 -5.13225,-1.89335c-4.97817,-2.46843 -11.63878,-3.40133 -17.10051,-4.54193c-2.61227,-0.54554 -4.8006,-1.89823 -7.46855,-1.87164c0,0 -1,0 -1,-1c0,-1 1,-1 1,-1c2.88253,0.02376 5.08699,1.33674 7.87556,1.9135c5.62383,1.16316 12.4557,2.16167 17.58264,4.70859c1.64065,0.81503 4.76432,0.96888 5.88684,2.54546c0.4807,0.67514 0.51534,3.63495 0.5539,4.503c0.33555,7.6798 -0.16351,14.85581 -3.54754,21.81557c-1.11489,2.29294 -0.64425,4.55283 -3.72457,5.25663c-0.14551,0.03325 -4.01758,-0.49948 -4.30975,-0.55049c-3.3234,-0.58013 -6.62688,-1.39012 -9.92631,-2.09437c-4.91244,-2.22636 -9.83527,-3.92937 -14.9506,-5.58163l-1.74764,-0.56471c0,0 -0.95156,-0.30747 -0.64408,-1.25903z" fill="#aaaaaa" stroke="none" stroke-width="0.5" stroke-linecap="butt"/><path d="M385.6257,265.98605c0.51395,-0.85782 1.37177,-0.34386 1.37177,-0.34386l1.16658,0.86148c7.92849,0.04291 17.09853,2.68265 22.27976,9.07641c0.37827,0.47743 0.76144,0.95101 1.1348,1.43229c0.22271,0.28708 0.3785,1.11035 0.65325,0.87259c0.33069,-0.28615 -0.22276,-0.87033 -0.15636,-1.30257c0.38534,-2.50838 1.81097,-5.28275 2.75018,-7.63245c2.18757,-5.47279 5.19348,-10.89216 7.00716,-16.46023c0.9872,-3.03074 0.6631,-6.47655 0.58599,-9.60416c-0.09823,-3.98873 -0.50579,-9.53061 -3.0294,-12.88125c-1.96792,-2.61284 -6.74306,-4.7838 -9.71304,-5.95697c-3.16351,-1.24961 -6.63275,-1.18577 -9.64009,-2.6529c0,0 -0.89443,-0.44721 -0.44721,-1.34164c0.44721,-0.89443 1.34164,-0.44721 1.34164,-0.44721c2.86062,1.47353 6.40907,1.36841 9.48043,2.58162c3.34145,1.3199 8.37443,3.69101 10.57584,6.61387c2.78352,3.69573 3.32263,9.62541 3.43123,14.03525c0.08285,3.36836 0.37875,7.01099 -0.68372,10.27282c-2.03905,6.25996 -5.44847,12.21113 -7.78676,18.42147c-0.69367,1.84234 -1.2774,3.72479 -1.94241,5.57688c-0.31418,0.87502 -0.10742,2.2846 -0.97749,2.61224c-1.69154,0.63698 -3.38289,-1.95668 -4.14138,-2.8848c-4.75577,-5.93965 -13.43644,-8.29204 -20.7332,-8.3313l-2.1837,-1.14581c0,0 -0.85782,-0.51395 -0.34386,-1.37177z" fill="#aaaaaa" stroke="none" stroke-width="0.5" stroke-linecap="butt"/><path d="M325.48352,200.5c0,-1 1,-1 1,-1h0.53344c9.99964,-0.00002 19.99926,0.00161 29.9989,-0.00939c14.09102,-0.0155 27.72895,-0.88864 41.65863,-3.03592c11.85604,-1.96631 23.77253,-3.24534 35.66762,-4.94464c0,0 0.98995,-0.14142 1.13137,0.84853c0.14142,0.98995 -0.84853,1.13137 -0.84853,1.13137c-11.88408,1.69773 -23.78948,2.97534 -35.63449,4.93962c-14.03325,2.16348 -27.77669,3.04542 -41.9724,3.06104c-10.00036,0.011 -20.00072,0.00937 -30.00109,0.00939h-0.53344c0,0 -1,0 -1,-1z" fill="#aaaaaa" stroke="none" stroke-width="0.5" stroke-linecap="butt"/><path d="M193.48352,258.5l-46,-269" fill="none" stroke="#848484" stroke-width="2.5" stroke-linecap="round"/><path d="M151.48352,81.75c6.75,0 6.75,6.75 6.75,6.75v2c0,4.37237 0.62033,8.06531 0.977,12.44326c0.20337,2.49626 0.30138,5.02282 0.33536,7.5641c0.08849,-0.55533 0.16379,-1.11255 0.22049,-1.67248c0.93777,-9.26077 -0.10581,-19.08144 0.05431,-28.4161l1.25923,-4.05331c0,0 2.13454,-6.40361 8.53815,-4.26907c6.40361,2.13454 4.26907,8.53815 4.26907,8.53815l-0.74077,1.94669c0.26885,9.00331 0.93974,18.64117 0.05431,27.5839c-0.37466,3.78397 -1.55721,7.45259 -2.02623,11.22602c-1.24497,10.01617 -2.94092,20.02758 -2.94092,30.10885c0,0 0,6.75 -6.75,6.75c-5.09374,0 -6.3436,-3.84388 -6.65028,-5.73024c-0.87316,0.44844 -1.97054,0.73024 -3.34972,0.73024c-6.75,0 -6.75,-6.75 -6.75,-6.75c0.02607,-2.90871 0.78555,-5.76684 1.03285,-8.66513c0.40623,-4.761 -0.03285,-9.55657 -0.03285,-14.33487c0,-6.37969 0.56577,-13.086 0.023,-19.44326c-0.39894,-4.67265 -1.023,-8.85178 -1.023,-13.55674v-2c0,0 0,-6.75 6.75,-6.75z" fill="#cecece" stroke="none" stroke-width="0.5" stroke-linecap="butt"/><path d="M132.48352,90.75c6.75,0 6.75,6.75 6.75,6.75c0,13.66667 0,30.33333 0,44c0,0 0,6.75 -6.75,6.75c-6.75,0 -6.75,-6.75 -6.75,-6.75c0,-13.66667 0,-27.33333 0,-41v-3c0,0 0,-6.75 6.75,-6.75z" fill="#cecece" stroke="none" stroke-width="0.5" stroke-linecap="butt"/><path d="M105.34898,72.09639c6.40361,-2.13454 8.53815,4.26907 8.53815,4.26907l1.25923,4.05331c0.02384,2.77367 0.76864,5.4957 1.03659,8.25649c1.07329,11.05875 0.05057,22.7048 0.05057,33.82474c0,0 0,6.75 -6.75,6.75c-6.75,0 -6.75,-6.75 -6.75,-6.75c0,-7 0,-14 0,-21c0,-3.72513 0.43399,-7.46992 0.05057,-11.17526c-0.26772,-2.58726 -0.98883,-5.14256 -0.96341,-7.74351l-0.74077,-1.94669c0,0 -2.13454,-6.40361 4.26907,-8.53815z" fill="#cecece" stroke="none" stroke-width="0.5" stroke-linecap="butt"/><path d="M84.48352,80.75c6.75,0 6.75,6.75 6.75,6.75c0,10 0,21 0,31c0,4.6692 -1.06525,11.34843 0.65361,15.86546c0,0 2.13454,6.40361 -4.26907,8.53815c-6.40361,2.13454 -8.53815,-4.26907 -8.53815,-4.26907c-2.02667,-6.52362 -1.34639,-13.33841 -1.34639,-20.13454c0,-10 0,-20 0,-30v-1c0,0 0,-6.75 6.75,-6.75z" fill="#cecece" stroke="none" stroke-width="0.5" stroke-linecap="butt"/><path d="M51.46482,78.46262c6.03738,-3.01869 9.05608,3.01869 9.05608,3.01869l1.71262,5.01869c-0.12586,18.84314 10.2482,35.72288 12.93216,54.04541c0,0 0.95459,6.68216 -5.72756,7.63675c-6.68216,0.95459 -7.63675,-5.72756 -7.63675,-5.72756c-1.45192,-10.47901 -5.83068,-19.94026 -8.79865,-30.06738c-2.43011,-8.29186 -4.22552,-17.23573 -4.26919,-25.88722l-0.28738,1.01869c0,0 -3.01869,-6.03738 3.01869,-9.05608z" fill="#cecece" stroke="none" stroke-width="0.5" stroke-linecap="butt"/><path d="M33.46482,74.46262c6.03738,-3.01869 9.05608,3.01869 9.05608,3.01869l1.71262,5.01869c-0.02922,6.91596 0.90457,14.17648 1.92568,21.00109c0.51956,3.47251 1.72204,6.83717 2.04147,10.33378c0.36956,4.04537 -0.19891,8.1301 0.01587,12.18663c0.29097,5.49559 1.00712,10.97523 1.01698,16.4785c0,0 0,6.75 -6.75,6.75c-6.75,0 -6.75,-6.75 -6.75,-6.75c0.01033,-5.18419 -0.7122,-10.34438 -0.98302,-15.5215c-0.20571,-3.93242 0.37056,-7.89158 0.01587,-11.81337c-0.29612,-3.27418 -1.46962,-6.41523 -1.95853,-9.66622c-1.13461,-7.54459 -2.04757,-15.37166 -2.07432,-22.99891l-0.28738,1.01869c0,0 -3.01869,-6.03738 3.01869,-9.05608z" fill="#cecece" stroke="none" stroke-width="0.5" stroke-linecap="butt"/><path d="M187.23352,71.5c0,6.75 -6.75,6.75 -6.75,6.75c-4.66667,0 -12.33333,0 -17,0c-1.97314,0 -3.96869,-0.38792 -5.91877,-0.08716c-3.32786,0.51325 -6.66794,1.55174 -10,2c-1.04977,0.14122 -8.36387,0.07059 -9.63797,0.06416c-6.48224,-1.08037 -12.51042,-0.45469 -19,-1c-3.7497,-0.31508 -7.36016,-1.67771 -11.10839,-2.00985c-2.0452,-0.18123 -4.11662,0.18693 -6.15961,-0.01772c-1.36752,-0.13699 -2.64159,-0.79115 -4,-1c-3.87709,-0.59609 -8.85901,0.28392 -12.59392,0.03758c-7.12572,-0.46999 -14.19443,-1.72994 -21.33083,-1.99162c-19.69254,-0.72207 -39.54039,0.00461 -59.25051,0.00461c0,0 -6.75,0 -6.75,-6.75c0,-6.75 6.75,-6.75 6.75,-6.75c19.87524,0 39.89231,-0.73586 59.74949,0.00461c7.24897,0.27031 14.43161,1.51999 21.66917,2.00838c7.81831,0.52758 15.48259,0.29744 23.24648,1.01985c3.67477,0.34193 7.21346,1.68677 10.89161,1.99015c6.43751,0.53097 12.55563,-0.07406 19,1c4.57614,-0.03057 8.88337,-0.29603 13.36203,-0.93584c1.0435,-0.14907 1.95532,-0.85946 3,-1c7.09589,-0.9546 14.9133,-0.08716 22.08123,-0.08716h3c0,0 6.75,0 6.75,6.75z" fill="#878787" stroke="none" stroke-width="0.5" stroke-linecap="butt"/><path d="M657.48352,-19.5l-51,280" fill="none" stroke="#848484" stroke-width="2.5" stroke-linecap="round"/><path d="M678.48352,219.5l24,-231h122v236z" fill="#483700" stroke="none" stroke-width="0" stroke-linecap="butt"/><path d="M701.48352,271.5v-58h18v58z" fill="#483700" stroke="none" stroke-width="0" stroke-linecap="butt"/></g></g></svg>