<svg version="1.1" xmlns="http://www.w3.org/2000/svg" xmlns:xlink="http://www.w3.org/1999/xlink" width="102.10551" height="20.91668" viewBox="0,0,102.10551,20.91668"><g transform="translate(-313.57225,-169.54173)"><g data-paper-data="{&quot;isPaintingLayer&quot;:true}" fill-rule="nonzero" stroke="none" stroke-width="0" stroke-linecap="butt" stroke-linejoin="miter" stroke-miterlimit="10" stroke-dasharray="" stroke-dashoffset="0" style="mix-blend-mode: normal"><path d="M313.57225,190.33341v-20.66667h8.93734v20.66667z" fill="#31c51a"/><path d="M322.14903,190.33341v-20.66667h4.27873v20.66667z" fill="#269914"/><path d="M327.94725,190.33341v-20.66667h8.93734v20.66667z" fill="#31c51a"/><path d="M336.52403,190.33341v-20.66667h4.27873v20.66667z" fill="#269914"/><path d="M342.57225,190.33341v-20.66667h8.93734v20.66667z" fill="#ffd900"/><path d="M351.14903,190.33341v-20.66667h4.27873v20.66667z" fill="#ff7600"/><path d="M357.44725,190.20841v-20.66667h8.93734v20.66667z" fill="#ff0000"/><path d="M366.02403,190.20841v-20.66667h4.27873v20.66667z" fill="#960000"/><path d="M372.69725,190.33342v-20.66667h8.93734v20.66667z" fill="#ff0000"/><path d="M381.27403,190.33342v-20.66667h4.27873v20.66667z" fill="#960000"/><path d="M387.57225,190.33342v-20.66667h8.93734v20.66667z" fill="#ff00ab"/><path d="M396.14903,190.33342v-20.66667h4.27873v20.66667z" fill="#96007d"/><g><path d="M402.82225,190.45842v-20.66667h8.93734v20.66667z" fill="#ff00ab"/><path d="M411.39903,190.45842v-20.66667h4.27873v20.66667z" fill="#96007d"/></g></g></g></svg>