<svg version="1.1" xmlns="http://www.w3.org/2000/svg" xmlns:xlink="http://www.w3.org/1999/xlink" width="967" height="400" viewBox="0,0,967,400"><g transform="translate(163.5,29.5)"><g data-paper-data="{&quot;isPaintingLayer&quot;:true}" fill-rule="nonzero" stroke-linecap="butt" stroke-linejoin="miter" stroke-miterlimit="10" stroke-dasharray="" stroke-dashoffset="0" style="mix-blend-mode: normal"><path d="M-163.5,370.5v-400h967v400z" fill="#000000" stroke="#000000" stroke-width="0"/><path d="M179.5,157.68184v-81.31502h281v81.31502z" fill="#ffffff" stroke="#000000" stroke-width="0"/><text transform="translate(188.04688,119.50558) scale(0.73835,0.73835)" font-size="40" xml:space="preserve" fill="#000000" fill-rule="nonzero" stroke="none" stroke-width="1" stroke-linecap="butt" stroke-linejoin="miter" stroke-miterlimit="10" stroke-dasharray="" stroke-dashoffset="0" font-family="&quot;Consolas&quot;, Sans Serif" font-weight="normal" text-anchor="start" style="mix-blend-mode: normal"><tspan x="0" dy="0">Fish eater games</tspan></text><path d="M304.50951,210.02369c-0.43278,-0.51869 -0.86807,-1.03529 -1.40959,-1.42485c-2.09559,-1.50755 -3.18332,0.17281 -5.64238,-0.81693c-1.04777,-0.42172 -1.5653,-1.65508 -2.50507,-2.28159c-1.08015,-0.7201 -2.29792,-1.21598 -3.49493,-1.71841c-2.82171,-1.18436 -6.96669,-1.54848 -9.7384,-3.38817c0.48872,1.90448 1.01421,4.09516 1.09541,4.3795c0.21463,0.75161 1.97347,5.75077 2.06742,6.29851c0.34276,1.99841 0.35882,4.07646 1,6c-0.05267,0.81458 -0.46508,1.68742 -0.15802,2.44375c0.3071,0.75644 1.39341,0.94442 1.81693,1.64238c0.40729,0.67122 0.66806,1.42978 0.84506,2.20303c0.79745,-2.30816 3.55397,-3.31056 5.44334,-4.82206c3.60012,-2.88009 6.66095,-6.42078 10.68023,-8.51516zM310.23044,213.26631c-0.74018,0.70591 -1.81618,0.70591 -1.81618,0.70591l-0.20943,-0.12829c-3.26607,0.99571 -3.59429,2.46285 -6.2056,4.56165c-2.60809,2.09621 -5.36723,3.93322 -8,6c-1.26015,0.98924 -4.9257,5.51711 -5.33863,5.55448c-4.8122,0.43546 -4.04566,-3.93943 -5.37297,-6.17351c-0.54706,-0.92079 -1.78885,-1.36177 -2.18307,-2.35762c-0.43675,-1.10329 -0.10535,-2.37084 -0.15802,-3.55625c-0.64118,-1.92354 -0.67743,-3.99824 -1,-6c-0.51656,-3.20559 -2.19809,-6.60985 -2.95764,-9.79412c-0.37302,-1.56383 -1.3643,-3.12123 -1.0728,-4.70228c0.3678,-1.9949 1.0199,-4.63709 2.92378,-5.33718c2.8661,-1.05392 4.11425,3.24959 5.88871,4.3065c0.74138,0.44158 1.65449,0.49158 2.47624,0.75492c3.63072,1.1635 7.45853,2.20182 10.67121,4.3436c0.63171,0.42114 0.78909,1.43877 1.49493,1.71841c0.7589,0.30065 1.64124,-0.30736 2.44375,-0.15802c1.35581,0.2523 2.74592,0.60776 3.91387,1.34109c0.82074,0.51532 1.37533,1.36104 2.02006,2.09733c0.58614,-0.95113 1.11716,-1.9477 1.89784,-2.73847c0.84436,-0.85528 2.15016,-1.15016 3,-2c0.84984,-0.84984 1.15005,-2.15028 2,-3c0.86603,-0.8658 2.18371,-1.18255 3.04973,-2.04837c1.17864,-1.17838 1.7837,-2.86053 3,-4c3.29189,-3.08393 4.81404,-2.76104 8.19427,-5.16582c0.94121,-0.6696 1.48945,-1.91181 2.56706,-2.32774c1.7588,-0.67886 8.64926,-0.64145 10.53109,-0.12342c8.88251,2.44515 15.32386,8.79 21.61462,15.09355c4.73156,3.66919 10.40694,8.00589 8.20372,15.06403c-0.43021,1.3782 -1.50348,2.46654 -2.3126,3.66229c-0.84254,1.24512 -1.38253,2.8328 -2.64,3.65679c-3.71278,2.43288 -7.26511,0.87054 -11.13466,1.43773c-6.1624,0.90327 -13.39794,2.03456 -19.70591,0.98645c-3.07326,-0.51064 -6.43303,-2.09238 -9.39011,-3.09601c-1.97499,-0.67031 -4.23625,-0.27116 -6.16614,-1.06201c-1.09289,-0.44786 -1.75218,-1.58423 -2.62826,-2.37634c-1.73281,-1.15521 -3.15032,-2.7406 -4.8768,-3.90525c-0.82784,-0.55844 -1.76388,-0.91652 -2.72204,-1.23401zM312.2334,208.88306c1.26797,0.42106 2.54093,0.83364 3.64263,1.56105c1.82439,1.20456 3.30419,2.88208 5.1232,4.09475c1.91546,2.26724 4.23167,1.58617 7.2056,2.56165c2.72838,0.89493 5.78183,2.43076 8.60989,2.90399c5.86749,0.98182 12.56233,-0.21427 18.29409,-1.01355c2.3749,-0.33117 6.70325,0.92446 8.86534,-0.56227c0.74414,-0.5117 0.86727,-1.58637 1.36,-2.34321c0.52433,-0.80539 1.353,-1.43674 1.6874,-2.33771c1.70436,-4.59206 -4.03293,-7.77424 -6.72521,-9.8649c-5.09255,-5.08285 -9.21982,-9.22619 -15.83877,-12.10094c-1.92875,-0.8377 -3.94064,-1.83562 -6.04329,-1.8097c-1.68217,0.02073 -3.49576,-0.85003 -5.04329,-0.1903c-0.67527,0.28787 -0.84222,1.23647 -1.43294,1.67226c-1.79343,1.32303 -6.14042,3.24178 -7.80573,4.83418c-1.20458,1.15185 -1.82162,2.82135 -3,4c-0.83367,0.83386 -2.11662,1.11775 -2.95027,1.95163c-0.84972,0.84995 -1.15016,2.15016 -2,3c-1.26099,1.26099 -2.78442,2.30569 -3.94862,3.64308z" fill="#ffffff" stroke="none" stroke-width="0.5"/><path d="M343.91426,198.47221c0,-1.38071 1.11929,-2.5 2.5,-2.5c1.38071,0 2.5,1.11929 2.5,2.5c0,1.38071 -1.11929,2.5 -2.5,2.5c-1.38071,0 -2.5,-1.11929 -2.5,-2.5z" fill="#ffffff" stroke="none" stroke-width="0.5"/></g></g></svg>