<svg version="1.1" xmlns="http://www.w3.org/2000/svg" xmlns:xlink="http://www.w3.org/1999/xlink" width="806.24999" height="383.75" viewBox="0,0,806.24999,383.75"><g transform="translate(0,15.75)"><g data-paper-data="{&quot;isPaintingLayer&quot;:true}" fill-rule="nonzero" stroke-linecap="butt" stroke-linejoin="miter" stroke-miterlimit="10" stroke-dasharray="" stroke-dashoffset="0" style="mix-blend-mode: normal"><path d="M0,368v-372h799.03296v372z" fill="#000000" stroke="none" stroke-width="NaN"/><path d="M131.48352,219.5v-228h168v228z" fill="#252525" stroke="#848484" stroke-width="2.5"/><path d="M2.48352,362.5v-372h127.86885l2.13115,234z" fill="#252525" stroke="#848484" stroke-width="2.5"/><path d="M448.48351,217.5v-228h356.51648v228z" fill="#252525" stroke="#848484" stroke-width="2.5"/><path d="M300.48352,22.5v-37h149v37z" fill="#252525" stroke="#848484" stroke-width="2.5"/><path d="M63.48352,297.5l-10,-225l46,-20l9,193z" fill="#000000" stroke="#848484" stroke-width="2.5"/><path d="M633.76775,213.16325c1.15664,-1.7895 2.27263,-3.67321 2.90272,-5.53286c1.27579,-3.76537 1.49783,-7.68412 2.15953,-11.53857c0.33479,-1.9502 1.35121,-3.82399 1.66644,-5.752c0.40044,-2.44918 -0.01291,-5.35253 -0.01291,-7.83982c0,0 0,-1 1,-1c1,0 1,1 1,1c0,2.60054 0.40038,5.59672 -0.01291,8.16018c-0.31259,1.93885 -1.33362,3.81383 -1.66945,5.77003c-0.6784,3.95176 -0.9129,7.99083 -2.23796,11.84635c-0.68757,2.00064 -1.87338,4.01381 -3.10055,5.92719c0.05725,0.18302 0.05768,0.40918 -0.05668,0.68238c-0.19008,0.4541 -0.51014,0.59108 -0.78614,0.61312c-0.37489,0.57109 -0.74384,1.13038 -1.09368,1.67462c-1.81758,2.80979 -4.27064,5.13545 -6.18535,7.85912c-0.41012,0.58339 -0.50396,1.37753 -0.99677,1.89298c-3.59648,3.76175 -10.32783,4.14039 -14.57324,7.03832c-2.11768,1.44554 -4.04856,3.39606 -6.09708,4.96174c-0.37266,0.28483 -1.06687,0.30213 -1.18712,0.75551c-0.27808,1.04842 1.34973,1.70189 2.0957,2.48931c1.17683,2.52282 2.10304,4.45782 4.27812,6.29322c1.50855,1.27296 3.79183,1.85702 5.16163,3.23295c2.76172,2.77409 4.32682,6.65867 6.93359,9.61233c0.346,0.39204 2.789,1.66021 3.14166,1.84576c1.1487,0.60436 2.0988,1.57392 3.2984,2.06962c2.24312,0.9269 5.21231,1.292 7.59681,2.06535c13.37504,3.50112 27.18495,6.45095 40.99802,7.09297c4.2013,0.19572 9.48622,0.89949 13.49232,-0.6741c1.22277,-0.4803 2.20076,-1.45313 3.39258,-2.00577c2.50646,-1.16222 5.82005,-2.99343 7.01911,-5.76695c1.73576,-4.01497 0.78186,-9.17311 0.6579,-13.34076c-0.67118,-3.11329 -0.49641,-6.6305 -1.62134,-9.57129c-0.1251,-0.32702 -1.09036,-2.69525 -1.53889,-3.01064c-0.98973,-0.69595 -2.2725,0.15752 -3.167,0.31019c-0.53708,0.09167 -3.76388,0.22867 -4.29199,0.15992c-7.71897,-1.00481 -9.71842,-10.32574 -10.21307,-16.73644c-0.5232,-7.21178 -1.32256,-14.59484 -2.20639,-21.74638c-0.39411,-3.18898 -3.03436,-6.84711 -1.96533,-10.1304c1.03433,-3.17672 5.45974,-4.40271 7.34063,-6.91345c1.4093,-3.25789 1.56695,-5.61165 1.59092,-9.16379c0.00792,-1.17283 0.69956,-2.49414 0.12453,-3.51636c-0.49907,-0.88719 -3.5011,-2.6021 -4.44391,-3.16019c-3.02183,-1.78874 -5.97306,-2.05092 -9.18488,-3.14618c-4.01448,-1.36898 -6.98937,-2.32509 -11.29606,-2.42092c-1.25273,-0.02815 -2.5359,-0.34663 -3.75845,-0.07187c-2.46676,0.55439 -4.32135,2.55668 -6.08001,4.19373c-2.92477,2.72252 -6.08111,5.18244 -8.96176,7.95166c-2.22761,2.14144 -4.97418,4.42617 -6.44822,7.15724c-1.16195,2.15283 -1.48737,5.00469 -2.64145,7.30148c-0.3816,3.02855 -2.00107,4.70737 -3.05696,7.34846c-1.112,2.78145 -2.01055,6.25526 -2.14193,9.28017c-0.04941,1.13759 -0.6363,4.18468 0.29412,5.15882c0.76482,0.80076 3.45177,0.92756 4.88277,1.29401zM632.633,214.88832c-1.72783,-0.43105 -4.06857,-0.44428 -5.1999,-1.64356c-1.4914,-1.58098 -0.92429,-4.7078 -0.84034,-6.62157c0.14184,-3.23347 1.08996,-6.94328 2.28256,-9.93446c1.05834,-2.65443 2.60255,-4.16789 2.9998,-7.18506c1.17589,-2.42179 1.58228,-5.37073 2.79098,-7.66379c1.54555,-2.93212 4.45453,-5.37852 6.8274,-7.65876c2.41534,-2.32105 5.04049,-4.39221 7.53575,-6.6242c2.54059,-2.27254 4.94099,-5.24568 8.45473,-6.03086c0.37586,-0.08399 3.76279,0.01329 4.24054,0.024c4.48582,0.10152 7.71892,1.08388 11.90035,2.52871c3.32123,1.1476 6.42147,1.45371 9.55631,3.3179c1.14791,0.68263 4.57864,2.7909 5.18124,3.9264c0.15425,0.29066 0.12103,3.95934 0.11749,4.48364c-0.02632,3.90115 -0.28334,6.57387 -1.86623,10.16301c-1.40425,1.82835 -2.90336,2.76606 -4.6886,4.18683c-0.63945,0.5089 -2.18206,1.35392 -2.4691,2.31487c-0.83965,2.81098 1.69904,6.50373 2.04266,9.28413c0.88845,7.1889 1.67395,14.59539 2.21608,21.84467c0.37248,5.33593 1.91579,14.06475 8.47413,14.89985c2.61566,0.33306 5.95216,-1.65982 8.30703,-0.15442c3.78834,2.42178 3.23574,10.1949 4.04199,14.00897c0.14759,4.5257 1.07757,10.01478 -0.80756,14.37526c-1.39792,3.23351 -5.06058,5.42247 -8.01457,6.78819c-0.70658,0.32667 -2.84485,1.7944 -3.5017,2.05241c-4.29784,1.68819 -9.80408,1.01966 -14.31639,0.81041c-13.97047,-0.64933 -27.94156,-3.62495 -41.46714,-7.17138c-4.79465,-1.55284 -11.39252,-2.62197 -14.96477,-6.56588c-2.61666,-2.8889 -4.20111,-6.76462 -6.87292,-9.54754c-1.24758,-1.29946 -3.59987,-1.90785 -5.0207,-3.1022c-2.30501,-1.93758 -3.43794,-4.01712 -4.64648,-6.70252c-0.88842,-0.93483 -2.68087,-2.46371 -2.3978,-4.01395c0.28854,-1.58023 3.94308,-3.38951 5.11202,-4.25997c2.86224,-2.13138 5.18525,-4.0235 8.54269,-5.47094c2.5306,-1.09098 6.77212,-1.88614 8.70362,-3.98971c2.42466,-2.64067 4.99628,-6.39943 6.95816,-9.46527c0.25287,-0.39243 0.51777,-0.79403 0.78867,-1.2032z" fill="#252525" stroke="none" stroke-width="0.5"/><path d="M628.83694,211.85536c-0.93041,-0.97414 -0.34037,-4.02939 -0.29096,-5.16698c0.13138,-3.02491 1.03839,-6.51095 2.1504,-9.2924c1.05589,-2.64109 2.68346,-4.32685 3.06505,-7.3554c1.15409,-2.29678 1.48634,-5.15258 2.64828,-7.30541c1.47404,-2.73107 4.23001,-5.01917 6.45762,-7.16061c2.88065,-2.76922 6.04727,-5.23059 8.97205,-7.95311c1.75867,-1.63705 3.61885,-3.63923 6.08561,-4.19362c1.22255,-0.27476 2.50905,0.04408 3.76178,0.07223c4.30669,0.09583 7.29153,1.05444 11.30601,2.42342c3.21182,1.09526 6.17074,1.361 9.19257,3.14974c0.94281,0.55809 3.94885,2.27554 4.44792,3.16273c0.57503,1.02222 -0.11519,2.34458 -0.1231,3.51741c-0.02398,3.55213 -0.17807,5.90886 -1.58737,9.16675c-1.88089,2.51074 -6.30707,3.73604 -7.34139,6.91276c-1.06903,3.2833 1.57996,6.95146 1.97408,10.14044c0.88383,7.15153 1.69076,14.57041 2.21396,21.78219c0.49465,6.4107 2.4884,15.7478 10.20737,16.75261c0.52811,0.06875 3.66659,-0.11509 4.20367,-0.20675c0.8945,-0.15267 2.26743,-0.96291 3.25716,-0.26696c0.44853,0.31539 1.41294,2.6854 1.53803,3.01242c1.12493,2.94078 0.9468,6.46366 1.61797,9.57696c0.12395,4.16765 1.07248,9.33235 -0.66328,13.34732c-1.19906,2.77352 -4.51769,4.60925 -7.02414,5.77147c-1.19183,0.55264 -2.17218,1.52721 -3.39495,2.00751c-4.0061,1.5736 -9.29935,0.87447 -13.50065,0.67875c-13.81308,-0.64201 -27.65943,-3.59038 -41.03448,-7.0915c-2.3845,-0.77335 -5.36061,-1.14145 -7.60373,-2.06834c-1.1996,-0.49569 -2.15294,-1.46712 -3.30163,-2.07148c-0.35266,-0.18554 -2.79856,-1.45567 -3.14455,-1.84771c-2.60677,-2.95367 -4.18025,-6.84594 -6.94197,-9.62002c-1.3698,-1.37593 -3.65651,-1.96442 -5.16506,-3.23739c-2.17508,-1.8354 -3.10496,-3.77667 -4.28179,-6.2995c-0.74597,-0.78743 -2.375,-1.44359 -2.09692,-2.49201c0.12025,-0.45337 0.81437,-0.47089 1.18704,-0.75572c2.04852,-1.56568 3.97849,-3.51857 6.09617,-4.9641c4.24541,-2.89793 10.97582,-3.27949 14.5723,-7.04124c0.4928,-0.51545 0.58594,-1.31235 0.99606,-1.89574c1.91471,-2.72367 4.36674,-5.06502 6.18432,-7.87482c0.34983,-0.54424 0.71941,-1.10805 1.0943,-1.67914c0.276,-0.02204 0.59645,-0.16097 0.78654,-0.61507c0.11436,-0.2732 0.11436,-0.50111 0.05711,-0.68413c1.22718,-1.91338 2.42057,-3.94271 3.10814,-5.94335c1.32505,-3.85552 1.57553,-7.90905 2.25393,-11.8608c0.33582,-1.9562 1.36324,-3.83424 1.67583,-5.77309c0.41329,-2.56346 0.01663,-5.56095 0.01663,-8.16149c0,0 0.03012,-0.90465 -0.96988,-0.90465c-1,0 -0.99847,0.99947 -0.99847,0.99947c0,2.48729 0.41724,5.38904 0.0168,7.83822c-0.31523,1.92801 -1.32535,3.79834 -1.66014,5.74854c-0.6617,3.85444 -0.86939,7.75907 -2.14517,11.52444c-0.63009,1.85965 -1.73965,3.72967 -2.89629,5.51917c-1.431,-0.36645 -4.21395,-0.52127 -4.97876,-1.32203z" data-paper-data="{&quot;noHover&quot;:false,&quot;origItem&quot;:[&quot;Path&quot;,{&quot;applyMatrix&quot;:true,&quot;segments&quot;:[[[633.76775,213.16325],[-1.431,-0.36645],[1.15664,-1.7895]],[[636.67046,207.63038],[-0.63009,1.85965],[1.27579,-3.76537]],[[638.82999,196.09182],[-0.6617,3.85444],[0.33479,-1.9502]],[[640.49643,190.33982],[-0.31523,1.92801],[0.40044,-2.44918]],[[640.48352,182.5],[0,2.48729],[0,0]],[[641.48352,181.5],[-1,0],[1,0]],[[642.48352,182.5],[0,0],[0,2.60054]],[[642.4706,190.66018],[0.41329,-2.56346],[-0.31259,1.93885]],[[640.80116,196.43021],[0.33582,-1.9562],[-0.6784,3.95176]],[[638.5632,208.27656],[1.32505,-3.85552],[-0.68757,2.00064]],[[635.46265,214.20375],[1.22718,-1.91338],[0.05725,0.18302]],[[635.40596,214.88613],[0.11436,-0.2732],[-0.19008,0.4541]],[[634.61983,215.49925],[0.276,-0.02204],[-0.37489,0.57109]],[[633.52615,217.17387],[0.34983,-0.54424],[-1.81758,2.80979]],[[627.3408,225.03299],[1.91471,-2.72367],[-0.41012,0.58339]],[[626.34403,226.92597],[0.4928,-0.51545],[-3.59648,3.76175]],[[611.77079,233.96429],[4.24541,-2.89793],[-2.11768,1.44554]],[[605.67371,238.92604],[2.04852,-1.56568],[-0.37266,0.28483]],[[604.48658,239.68154],[0.12025,-0.45337],[-0.27808,1.04842]],[[606.58228,242.17086],[-0.74597,-0.78743],[1.17683,2.52282]],[[610.8604,248.46408],[-2.17508,-1.8354],[1.50855,1.27296]],[[616.02203,251.69703],[-1.3698,-1.37593],[2.76172,2.77409]],[[622.95562,261.30936],[-2.60677,-2.95367],[0.346,0.39204]],[[626.09728,263.15512],[-0.35266,-0.18554],[1.1487,0.60436]],[[629.39568,265.22474],[-1.1996,-0.49569],[2.24312,0.9269]],[[636.99249,267.29008],[-2.3845,-0.77335],[13.37504,3.50112]],[[677.99051,274.38305],[-13.81308,-0.64201],[4.2013,0.19572]],[[691.48283,273.70895],[-4.0061,1.5736],[1.22277,-0.4803]],[[694.87542,271.70318],[-1.19183,0.55264],[2.50646,-1.16222]],[[701.89452,265.93623],[-1.19906,2.77352],[1.73576,-4.01497]],[[702.55243,252.59547],[0.12395,4.16765],[-0.67118,-3.11329]],[[700.93109,243.02418],[1.12493,2.94078],[-0.1251,-0.32702]],[[699.39219,240.01354],[0.44853,0.31539],[-0.98973,-0.69595]],[[696.22519,240.32373],[0.8945,-0.15267],[-0.53708,0.09167]],[[691.9332,240.48365],[0.52811,0.06875],[-7.71897,-1.00481]],[[681.72013,223.74721],[0.49465,6.4107],[-0.5232,-7.21178]],[[679.51375,202.00084],[0.88383,7.15153],[-0.39411,-3.18898]],[[677.54841,191.87043],[-1.06903,3.2833],[1.03433,-3.17672]],[[684.88904,184.95698],[-1.88089,2.51074],[1.4093,-3.25789]],[[686.47996,175.79319],[-0.02398,3.55213],[0.00792,-1.17283]],[[686.60449,172.27683],[0.57503,1.02222],[-0.49907,-0.88719]],[[682.16058,169.11665],[0.94281,0.55809],[-3.02183,-1.78874]],[[672.9757,165.97047],[3.21182,1.09526],[-4.01448,-1.36898]],[[661.67964,163.54954],[4.30669,0.09583],[-1.25273,-0.02815]],[[657.9212,163.47767],[1.22255,-0.27476],[-2.46676,0.55439]],[[651.84118,167.6714],[1.75867,-1.63705],[-2.92477,2.72252]],[[642.87942,175.62307],[2.88065,-2.76922],[-2.22761,2.14144]],[[636.43121,182.7803],[1.47404,-2.73107],[-1.16195,2.15283]],[[633.78975,190.08178],[1.15409,-2.29678],[-0.3816,3.02855]],[[630.73279,197.43024],[1.05589,-2.64109],[-1.112,2.78145]],[[628.59086,206.71042],[0.13138,-3.02491],[-0.04941,1.13759]],[[628.88498,211.86924],[-0.93041,-0.97414],[0.76482,0.80076]]],&quot;closed&quot;:true}]}" fill="#767676" stroke="none" stroke-width="0.5"/><text transform="translate(609.48352,244.5) scale(0.5,0.5)" font-size="40" xml:space="preserve" fill="#3a3a3a" fill-rule="nonzero" stroke="none" stroke-width="1" stroke-linecap="butt" stroke-linejoin="miter" stroke-miterlimit="10" stroke-dasharray="" stroke-dashoffset="0" font-family="Handwriting" font-weight="normal" text-anchor="start" style="mix-blend-mode: normal"><tspan x="0" dy="0">Dog food</tspan></text></g></g></svg>