<svg version="1.1" xmlns="http://www.w3.org/2000/svg" xmlns:xlink="http://www.w3.org/1999/xlink" width="700" height="409" viewBox="0,0,700,409"><g transform="translate(24.5,19)"><g data-paper-data="{&quot;isPaintingLayer&quot;:true}" fill-rule="nonzero" stroke-linejoin="miter" stroke-miterlimit="10" stroke-dasharray="" stroke-dashoffset="0" style="mix-blend-mode: normal"><path d="M-24.5,390v-409h700v409z" fill="none" stroke="none" stroke-width="0" stroke-linecap="butt"/><text transform="translate(14,322.98094) scale(0.275,0.275)" font-size="40" xml:space="preserve" fill="#ffffff" fill-rule="nonzero" stroke="none" stroke-width="1" stroke-linecap="butt" stroke-linejoin="miter" stroke-miterlimit="10" stroke-dasharray="" stroke-dashoffset="0" font-family="Pixel" font-weight="normal" text-anchor="start" style="mix-blend-mode: normal"><tspan x="0" dy="0">Power left:</tspan></text><text transform="translate(14,344.98094) scale(0.275,0.275)" font-size="40" xml:space="preserve" fill="#ffffff" fill-rule="nonzero" stroke="none" stroke-width="1" stroke-linecap="butt" stroke-linejoin="miter" stroke-miterlimit="10" stroke-dasharray="" stroke-dashoffset="0" font-family="Pixel" font-weight="normal" text-anchor="start" style="mix-blend-mode: normal"><tspan x="0" dy="0">Usage:</tspan></text><g stroke-opacity="0.50196" stroke="#ffffff" stroke-width="1.5"><path d="M144.5,344.96498c0,-4.10871 0,-9.59718 0,-11.90097c0,-2.05987 1.3149,-4.72116 3.30642,-4.72116c13.60672,0 161.69586,0 240.69358,0c20.66519,0 36.60241,0 44.16753,0c3.13518,0 4.83247,3.27794 4.83247,5.63662c0,2.46421 0,8.0266 0,11.90097c0,2.37765 -1.69734,4.11957 -4.83247,4.11957c-36.35666,0 -266.06692,0 -284.35243,0c-2.28137,0 -3.8151,-2.18575 -3.8151,-5.03502z" fill-opacity="0.04706" fill="#ffffff" stroke-linecap="butt"/><path d="M321.34644,333.05094l-32.43929,4.70807l-39.76428,-4.70807" fill="none" stroke-linecap="round"/><path d="M321.34644,339.64224l-32.43929,4.70807l-39.76428,-4.70807" fill="none" stroke-linecap="round"/></g><text transform="translate(118.9435,324.75) rotate(-180) scale(0.22082,-0.22082)" font-size="40" xml:space="preserve" data-paper-data="{&quot;index&quot;:null}" fill="#ffffff" fill-rule="nonzero" stroke="none" stroke-width="1" stroke-linecap="butt" stroke-linejoin="miter" stroke-miterlimit="10" stroke-dasharray="" stroke-dashoffset="0" font-family="Pixel" font-weight="normal" text-anchor="start" style="mix-blend-mode: normal"><tspan x="0" dy="0">%</tspan></text></g></g></svg>