<svg version="1.1" xmlns="http://www.w3.org/2000/svg" xmlns:xlink="http://www.w3.org/1999/xlink" width="799.03296" height="375.75" viewBox="0,0,799.03296,375.75"><g transform="translate(-0.00001,7.75)"><g data-paper-data="{&quot;isPaintingLayer&quot;:true}" fill-rule="nonzero" stroke-linejoin="miter" stroke-miterlimit="10" stroke-dasharray="" stroke-dashoffset="0" style="mix-blend-mode: normal"><path d="M0.00001,368v-372h799.03296v372z" fill="#000000" stroke="none" stroke-width="NaN" stroke-linecap="butt"/><path d="M2.48352,224.5c0,0 44.78351,-91.5263 66.39544,-131.32827c17.52517,-32.27552 53.60456,-89.67173 53.60456,-89.67173" fill="none" stroke="#848484" stroke-width="2.5" stroke-linecap="round"/><path d="M544.48352,-6.5l252.51648,37" fill="none" stroke="#848484" stroke-width="2.5" stroke-linecap="round"/><path d="M265.46495,123.99792c-1.506,1.21809 -3.83938,2.11984 -7.00013,0.53946c-1.82895,-0.91448 -2.82681,-2.10598 -3.32928,-3.32274c-1.94911,-0.09093 -3.90593,-0.30609 -5.82729,-0.01521c-3.09118,0.46798 -6.04916,1.70225 -9.15961,2.01772c-8.02206,0.81364 -16.94158,-0.77796 -24.58852,-3.24698c-2.33476,-0.75384 -4.76268,-1.45676 -6.79242,-2.83499c-8.07637,-5.484 -9.34456,-13.64961 -10.92359,-22.41828c-0.72299,-4.0149 -1.94681,-7.59372 -0.93003,-11.76773c1.04509,-4.29021 3.93359,-7.4778 6.47012,-10.87178c4.54212,-4.554 9.22753,-8.6546 15.02636,-11.58733c5.80852,-2.93764 12.11854,-5.05933 17.9305,-7.96395c1.21028,-0.60486 2.16948,-1.66289 3.41172,-2.19907c1.26185,-0.54464 2.73617,-0.45998 4,-1c1.02676,-0.43872 1.76574,-1.39269 2.76511,-1.89066c4.41275,-2.19877 9.37662,-4.10205 14.30049,-4.65352c10.01874,-1.1221 21.59045,0.88841 31.00702,4.38643c2.94031,1.09225 5.67508,2.68109 8.5815,3.86056c4.96898,0.96449 9.2059,2.55372 14,4c5.90635,1.78182 12.35205,2.64042 18.40039,3.85125c2.84847,0.57024 5.61714,1.56939 8.50095,1.91949c1.40854,0.171 2.86514,-0.24155 4.25649,0.03659c5.20151,1.0398 10.20485,2.92331 15.38305,4.07358c9.40416,2.089 20.23128,2.36972 29.11883,6.35308c7.36286,3.3 11.54795,8.99148 17.57092,13.9158c1.50474,1.23026 3.46492,1.80781 5,3c1.50917,1.17207 2.71068,2.69397 4.06603,4.04096c2.70087,4.0513 6.73561,7.1181 7.47022,12.38348c1.05678,7.57463 -3.59104,12.35354 -7.21439,17.84274c-2.76971,4.19599 -4.88995,9.31713 -8.1555,13.20724c-2.02475,2.41199 -4.12672,4.87866 -6.7717,6.58786c-7.44405,4.81038 -14.81692,2.91128 -22.72395,3.95753c-4.14099,0.54793 -8.32721,1.36468 -12.48987,1.01772c-5.42001,-0.45176 -10.1127,-2.84698 -15.1554,-4.58469c-5.22681,-3.24675 -7.88798,-5.21011 -11.39953,-9.85304c-1.09045,-1.44178 -2.19421,-2.9079 -2.95291,-4.54869c-0.62441,-1.35036 -2.12009,-3.48143 -0.92424,-4.36647c0.56398,-0.41739 -1.38247,0.24317 -2.07806,0.33516c-0.7617,0.10073 -1.54418,0.21441 -2.24162,0.53676c-1.21418,0.56119 -2.34694,1.29798 -3.42908,2.0842c-5.46199,3.96836 -1.12601,11.70004 -0.45461,16.85488c0.16117,1.23744 -0.21307,2.50816 -0.03659,3.74351c0.14908,1.0435 0.86297,1.95485 1,3c0.43431,3.31249 -0.03803,8.17337 -1.61407,11.07703c-1.41176,2.601 -3.65815,4.65308 -5.48723,6.97962c-7.72897,5.06231 -16.36054,6.94854 -25.56155,6.77458c-1.85093,-0.03499 -3.74969,0.24726 -5.55083,-0.18057c-1.79891,-0.4273 -3.33086,-1.60949 -5.03228,-2.33324c-3.05064,-1.29769 -6.24099,-2.98335 -8.15878,-5.6875c-0.73643,-1.03839 -0.74947,-2.44591 -1.32174,-3.58306c-0.57867,-1.14988 -1.61583,-2.04596 -2.10934,-3.23489c-3.08424,-7.43031 -3.57703,-15.85132 -3.57703,-23.73074c0,-3.31528 -0.19805,-6.69159 0,-10c0.0146,-0.24393 0.01638,-0.49297 0.01077,-0.7451c-0.16038,0.06885 -0.33318,0.10683 -0.52196,0.1051c-1.68037,-0.01543 -3.20128,-1.09303 -4.75737,-1.86207zM261.90457,110.2215l0.57895,-0.4715c9.11599,0.28841 15.82657,5.49856 23.53419,10.05682c-0.766,2.0921 -1.72415,4.12354 -2.298,6.27629c-0.05681,0.21311 0.48102,0.19878 0.51381,0.41689c0.34697,2.30739 0,4.66667 0,7c0,6.8838 -0.49022,14.78562 2.42297,21.26926c0.79016,1.75859 2.15804,3.29839 2.56892,5.18205c0.13267,0.60822 1.27023,0.06451 1.84122,0.3125c1.04067,0.45197 1.87357,1.36656 2.96772,1.66676c0.78943,0.21659 1.63088,-0.15766 2.44917,-0.18057c2.24066,-0.06274 4.54541,0.65125 6.72352,0.12179c1.531,-0.37215 2.84395,-1.38923 4.35308,-1.84196c1.77809,-0.53342 3.85792,-0.41697 5.36184,-1.50525c0.83759,-1.00679 1.8471,-1.89252 2.51277,-3.02038c1.20347,-2.03905 -0.34014,-4.00536 -0.61407,-5.92297c-0.20065,-1.40462 0.13104,-2.84755 -0.03659,-4.25649c-0.32473,-2.72949 -1.62126,-5.27748 -2,-8c-1.13819,-8.18178 0.71028,-15.9436 7.54539,-21.14512c6.15332,-4.68267 17.16735,-8.61182 24.25124,-3.04388c2.85365,2.24297 3.79976,6.23558 5.07576,9.63353c0.43234,1.15131 2.4687,2.71205 3.04709,3.45131c0.57366,0.73322 0.74652,1.77093 1.43801,2.39426c0.8952,0.80696 2.10831,1.16847 3.16246,1.7527c3.6266,1.15172 6.98765,3.094 10.8446,3.41531c5.00601,0.41703 9.35572,-1.00067 14.33487,-1.03285c3.96257,-0.02561 8.90644,0.1974 12.45131,-1.99189c2.91456,-1.80001 4.18887,-5.37854 5.94721,-8.02453c1.78097,-2.68004 3.33114,-5.50934 5.12559,-8.18037c1.73727,-2.58592 4.73393,-4.58124 4.78561,-8.15726c0.00593,-0.41066 -0.50014,-0.65389 -0.78561,-0.94915c-1.38637,-1.43391 -2.63781,-3.00782 -3.74417,-4.66737c-1.99633,-2.02221 -4.7353,-3.1589 -6.93397,-4.95904c-4.81071,-3.93871 -8.51729,-9.49247 -14.42908,-12.0842c-5.41185,-2.37256 -11.86814,-2.57781 -17.56893,-3.58522c-0.2564,-0.04531 -18.4166,-4.08326 -18.64976,-4.14589c-1.80006,-0.48353 -3.45179,-1.47649 -5.27943,-1.84224c-1.22363,-0.24487 -2.50575,0.19533 -3.74351,0.03659c-3.21507,-0.41235 -6.32047,-1.44542 -9.49905,-2.08051c-6.45936,-1.29059 -13.28525,-2.26386 -19.59961,-4.14875c-4.92714,-1.4708 -8.90548,-2.95593 -14,-4c-7.99665,-3.16558 -15.6315,-6.26115 -24.15784,-7.80733c-3.74025,-0.67826 -10.13822,-0.55511 -13.72815,0.7218c-3.3745,1.20029 -6.24409,3.40627 -9.45988,4.78833c-1.26269,0.54267 -2.73519,0.46228 -4,1c-0.96728,0.41123 -1.64827,1.3307 -2.58828,1.80093c-10.29388,5.14935 -20.6981,8.13635 -29.04314,16.44871c-3.75387,4.97784 -3.58563,5.2358 -2.45991,11.36049c0.60317,3.28164 0.70265,8.30317 2.83648,11.2701c2.52714,3.5138 6.09178,3.49823 10.00498,4.36124c2.4681,0.54431 4.83613,1.57144 7.34387,1.88613c5.77935,0.72524 10.771,-1.23392 16.35053,-2c2.91429,-0.40014 5.88311,-0.05057 8.82474,-0.05057c0,0 3.45468,0 5.42105,2.4715z" fill="#9966ff" stroke="none" stroke-width="0.5" stroke-linecap="butt"/><text transform="translate(269.48352,99.5) scale(0.5,0.5)" font-size="40" xml:space="preserve" fill="#9966ff" fill-rule="nonzero" stroke="none" stroke-width="1" stroke-linecap="butt" stroke-linejoin="miter" stroke-miterlimit="10" stroke-dasharray="" stroke-dashoffset="0" font-family="Handwriting" font-weight="normal" text-anchor="start" style="mix-blend-mode: normal"><tspan x="0" dy="0">Couch</tspan></text></g></g></svg>