<svg version="1.1" xmlns="http://www.w3.org/2000/svg" xmlns:xlink="http://www.w3.org/1999/xlink" width="967" height="400" viewBox="0,0,967,400"><g transform="translate(145.5,20)"><g data-paper-data="{&quot;isPaintingLayer&quot;:true}" fill-rule="nonzero" stroke-linecap="butt" stroke-linejoin="miter" stroke-miterlimit="10" stroke-dasharray="" stroke-dashoffset="0" style="mix-blend-mode: normal"><path d="M-145.5,380v-400h967v400z" fill="#000000" stroke="#000000" stroke-width="0"/><path d="M197.5,167.18184v-81.31502h281v81.31502z" fill="#ffffff" stroke="#000000" stroke-width="0"/><text transform="translate(265.09596,135.70956) scale(0.5997,0.5997)" font-size="40" xml:space="preserve" fill="#000000" fill-rule="nonzero" stroke="none" stroke-width="1" stroke-linecap="butt" stroke-linejoin="miter" stroke-miterlimit="10" stroke-dasharray="" stroke-dashoffset="0" font-family="&quot;Consolas&quot;, Sans Serif" font-weight="normal" text-anchor="start" style="mix-blend-mode: normal"><tspan x="0" dy="0">Thank you!</tspan></text><path d="M310.57669,211.29292c0,-1.38071 1.11929,-2.5 2.5,-2.5c1.38071,0 2.5,1.11929 2.5,2.5c0,1.38071 -1.11929,2.5 -2.5,2.5c-1.38071,0 -2.5,-1.11929 -2.5,-2.5z" fill="#ffffff" stroke="none" stroke-width="0.5"/><path d="M349.68712,214.3604c0,-1.38071 1.11929,-2.5 2.5,-2.5c1.38071,0 2.5,1.11929 2.5,2.5c0,1.38071 -1.11929,2.5 -2.5,2.5c-1.38071,0 -2.5,-1.11929 -2.5,-2.5z" fill="#ffffff" stroke="none" stroke-width="0.5"/><path d="M360.22919,219.35514c1.45426,1.45426 0,2.90851 0,2.90851l-1.58633,1.17183c-3.26936,0.77092 -6.08518,2.66803 -9.29438,3.7353c-0.9776,0.32512 -2.06988,0.22451 -3.03476,0.58564c-0.77171,0.28884 -1.28868,1.11335 -2.08366,1.33004c-0.411,0.11203 -4.94925,0.08825 -5.64293,0.08825c-6.39903,0 -13.94479,-0.56028 -19.43599,-4.13062c0,0 -1.71123,-1.14081 -0.57041,-2.85204c1.14081,-1.71123 2.85204,-0.57041 2.85204,-0.57041c4.62784,3.19119 11.70504,3.4398 17.15437,3.4398c1.48395,0 3.03139,0.52057 4.45097,0.08825c0.66273,-0.20183 1.05304,-0.94975 1.70155,-1.19343c1.04313,-0.39195 2.21702,-0.323 3.27393,-0.67611c3.35357,-1.12036 6.20298,-2.94062 9.63167,-3.83513l-0.32458,-0.0899c0,0 1.45426,-1.45426 2.90851,0z" fill="#ffffff" stroke="none" stroke-width="0.5"/><path d="M398.69862,208.72179c1.63464,0.81732 0.81732,2.45195 0.81732,2.45195l-0.40316,0.66231c-0.55733,2.73934 -0.52511,5.2665 -0.52511,8.05069c0,7.10667 1.79563,17.6633 10.29077,19.50846c2.82498,0.61359 5.51538,-0.3701 8.15502,-1.09297c0.87754,-0.24032 1.79821,-0.29479 2.679,-0.52291c0.48676,-0.12607 0.93991,-0.35758 1.40996,-0.53612c0.13962,-0.05303 0.56648,-0.18251 0.41906,-0.15858c-1.86169,0.30219 -2.90192,0.02716 -3.8259,-0.69922l-0.10558,0.15836l-1.65824,-1.10549c-0.50386,-0.32541 -0.8374,-0.89193 -0.8374,-1.53636c0,-0.86974 0.60755,-1.59759 1.42142,-1.78228l2.20534,-0.55134l0.00298,0.01189l0.03933,-0.02194c1.69902,-0.33981 3.37347,-0.79663 5.07427,-1.12745c1.26968,-0.24696 3.19786,0.38655 3.80628,-0.75489c0.43233,-0.81108 -1.83562,-3.11357 -2.36247,-3.54958c-1.97522,0.5948 -3.91415,1.34201 -5.93704,1.74577l-0.18008,-0.05565v0.06454h-2.24242c-1.00934,0 -1.82758,-0.81824 -1.82758,-1.82758c0,-0.64443 0.33354,-1.21095 0.8374,-1.53636l1.65824,-1.10549l0.056,0.08401c0.13536,-0.11267 0.27757,-0.21743 0.42815,-0.31253c0.73075,-0.46153 1.73349,0.03075 2.59195,-0.06952c1.33044,-0.1554 3.32946,-0.87844 4.92811,-0.70001c0.51862,-0.13971 1.04345,-0.27026 1.57831,-0.38558c0.91842,-0.19802 2.31309,0.08863 2.71387,-0.76112c0.82289,-1.74472 -2.73706,-3.46748 -4.02575,-2.99455c-0.63252,0.23212 -1.03256,0.94115 -1.68182,1.12121c-0.78582,0.21794 -1.66269,0.32515 -2.4524,0.1211c-0.42551,0.12762 -0.85472,0.25208 -1.28775,0.37541l-0.2072,-0.07298l0.00535,0.09558l-2.07622,0.1162c-0.03884,0.00246 -0.078,0.00371 -0.11746,0.00371c-1.00934,0 -1.82758,-0.81824 -1.82758,-1.82758c0,-0.91733 0.67585,-1.6768 1.55676,-1.80765l3.33401,-0.55566l0.00581,0.03488c0.04783,-0.01815 0.09579,-0.036 0.1439,-0.05352c0.06571,-0.02394 0.13266,-0.03934 0.20061,-0.04809c2.00593,-0.68735 3.76146,-1.50677 5.7601,-2.51429c0.36193,-0.18244 0.89043,-0.19954 1.08062,-0.55746c0.39351,-0.74053 0.84466,-4.13276 -0.42002,-4.63632c-1.34818,-0.5368 -4.74314,0.93855 -6.02732,1.25959c-3.74809,0.93702 -5.0778,1.10454 -9.17165,0.47292c0.10993,-1.36883 0.00154,-2.77306 0.32977,-4.1065c0.14376,-0.58401 0.869,-0.89646 1.0434,-1.47207c0.16573,-0.54699 -0.06709,-1.1414 -0.07842,-1.71282c-0.0486,-2.45141 0.02464,-4.46579 -0.51609,-6.88695c-0.13374,-0.59883 -0.87608,-3.72213 -1.24365,-4.20894c-1.81207,-2.39989 -4.5932,0.73302 -5.58162,2.07356c-1.55011,2.10233 -1.33964,4.892 -1.33685,7.3405c0.00341,2.98989 0,5.97982 0,8.96971c0,0 0,1.82758 -1.82758,1.82758c-1.82758,0 -1.82758,-1.82758 -1.82758,-1.82758c0,-5.65616 -1.38834,-13.55781 2.02679,-18.44742c2.45845,-3.51988 7.52652,-6.48421 11.2366,-2.41129c0.85162,0.93492 1.08646,2.28849 1.51526,3.47822c1.18072,3.27593 1.26345,6.66606 1.20986,10.09261c-0.03094,1.97885 0.11677,3.64084 -1.50588,4.72435c2.60997,-1.37841 6.79387,-2.42972 9.54593,-2.61399c1.27974,-0.08568 2.71506,-0.43015 3.84365,0.17925c3.30501,1.78456 3.52052,7.06327 1.82241,9.93946c-0.23589,0.39955 -0.59616,0.69286 -0.99697,0.94675c2.47288,1.4734 4.05886,4.22779 2.77161,7.30777c-0.41148,0.98453 -1.60201,1.44779 -2.5538,1.9302c-0.23889,0.12108 -0.5804,0.23172 -0.97884,0.33424c1.40134,1.841 2.23862,4.22209 1.2902,6.14466c-0.4825,0.9781 -1.61378,1.54025 -2.62108,1.95837c-1.33124,0.5526 -3.23529,0.89355 -5.08363,1.18153c0.84464,0.35361 1.48807,0.65115 1.49384,0.66352c1.66519,3.57496 -1.47481,5.14857 -3.77706,6.03258c-0.92968,0.35698 -1.96605,0.33719 -2.92707,0.59831c-3.14417,0.8543 -6.43823,1.905 -9.7844,1.14946c-10.37733,-2.34313 -13.25472,-14.02309 -13.25472,-23.09767c0,-3.02956 0.00836,-5.78346 0.5961,-8.76752l0.71806,-1.58012c0,0 0.81732,-1.63464 2.45195,-0.81732z" fill="#ffffff" stroke="none" stroke-width="0.5"/><path d="M298.37013,212.19356c0.07041,1.74809 -1.75452,2.3564 -1.75452,2.3564c-0.96013,0.32004 -6.13718,1.20901 -6.53305,2.60581c-0.18802,0.66343 0.24589,1.37231 0.19184,2.05974c-0.04238,0.53899 -0.64667,1.03771 -0.47569,1.55061c0.10336,0.31006 0.66011,0.02976 0.97972,-0.03853c1.21391,-0.25936 2.4308,-1.34854 3.60316,-0.94063c1.61939,0.56344 2.93494,2.00433 3.76539,3.5044c0.84777,1.53135 -0.77593,3.99303 0.46176,5.23071c1.48215,1.48215 4.18636,0.27698 6.28241,0.26993c7.05615,-0.02373 14.11289,0 21.16908,0c6.23313,0 13.40543,-0.95955 19.55666,0.03254c1.04902,0.1692 1.97709,0.82709 3.02416,1.00806c4.56839,0.78952 10.06665,-0.03254 14.71709,-0.03254c3.02416,0 6.0483,0 9.07246,0c1.00806,0 2.03086,-0.17185 3.02416,0c0.47459,0.08211 0.90158,1.0787 1.24215,0.73812c0.34057,-0.34057 -0.65602,-0.76757 -0.73812,-1.24215c-0.43231,-2.49873 -0.04322,-5.5842 0.19184,-8.10805c-3.13568,-3.13568 -2.48316,-7.44756 -3.18344,-11.6493c-0.17468,-1.04812 -0.83336,-1.97603 -1.00806,-3.02416c-0.1819,-1.0914 0.53829,-5.56185 -1.50098,-6.1398c-0.66343,-0.18802 -1.37068,0.16583 -2.05974,0.19184c-3.01224,0.11365 -6.05784,0 -9.07246,0c-9.40848,0 -18.81696,0 -28.22544,0c-4.67259,-0.04435 -8.05304,-2.31252 -12.5003,-3.0567c-2.67204,-0.44712 -5.9559,0.03254 -8.66878,0.03254c-1.88158,0 -3.76315,-0.01443 -5.64462,-0.03254c-0.46111,-0.00444 -1.14977,-0.40356 -1.3834,-0.00598c-0.27391,0.46613 0.41978,1.01286 0.47569,1.55061c0.17539,1.68674 -0.82165,3.50935 -0.19184,5.08389c0.45919,1.14798 2.30726,1.74811 2.20794,2.98051c-0.12562,1.55882 -1.83615,2.53206 -2.75423,3.79811l-1.00806,1.00806c0,0 -1.58662,1.58662 -3.26275,0.2685zM297.2838,210.0374c0.07775,-0.96903 0.78508,-1.67636 0.78508,-1.67636l1.00806,-1.00806c0.42599,-0.07803 1.44733,0.1645 1.27798,-0.2341c-0.27448,-0.64601 -1.56359,-0.4 -1.82427,-1.05169c-0.16622,-0.41554 -0.24791,-6.12602 -0.19184,-7.01272c0.09515,-1.50459 -0.45773,-3.31383 0.47569,-4.4977c1.91089,-2.42355 5.53392,-2.04173 8.09275,-2.05463c3.96594,-0.02 8.59442,-0.61644 12.5003,0.03254c4.15636,0.69061 7.3987,3.04494 11.69293,2.99162c9.40848,0 18.81696,0 28.22544,0c3.01914,0 6.05458,-0.08255 9.07246,0c1.33056,0.0364 2.77339,-0.35137 3.98857,0.19184c4.54246,2.03052 3.90912,6.15971 4.54733,9.98902c0.17468,1.04812 0.83336,1.97603 1.00806,3.02416c0.16572,0.99433 -0.16572,2.02983 0,3.02416c0.17468,1.04812 0.84563,1.97406 1.00806,3.02416c0.12577,0.81319 -0.47438,1.70328 -0.15929,2.46342c0.36393,0.87796 1.34406,1.34406 2.0161,2.0161c0.15619,3.24737 0.49871,6.7815 0.19184,10.03687c-0.15212,1.61368 0.40798,3.66005 -0.73812,4.80616c-1.14611,1.14611 -3.19247,0.58601 -4.80616,0.73812c-2.9513,0.2782 -6.10658,0 -9.07246,0c-13.60654,0 -26.70827,-1.00806 -40.32205,-1.00806c-7.05622,0 -14.1129,0.02191 -21.16908,0c-2.69634,-0.00837 -7.50367,0.59656 -9.84641,-1.74618c-1.11351,-1.11351 -1.36594,-2.8666 -1.71364,-4.40247c-0.2203,-0.9731 0.87045,-3.18872 -0.10752,-2.99122c-0.87278,0.17625 -1.56221,1.19053 -2.44515,1.07547c-5.85175,-0.76258 -5.3846,-1.77851 -5.54429,-6.55233c-0.04449,-1.33031 -0.35137,-2.77339 0.19184,-3.98857c1.69643,-3.79505 6.18442,-4.32149 9.59577,-5.45859c0,0 1.26556,-0.42185 2.26205,0.26906z" fill="#ffffff" stroke="none" stroke-width="0.5"/></g></g></svg>