<svg version="1.1" xmlns="http://www.w3.org/2000/svg" xmlns:xlink="http://www.w3.org/1999/xlink" width="81.579" height="21.50705" viewBox="0,0,81.579,21.50705"><g transform="translate(-502.01161,-184.46331)"><g data-paper-data="{&quot;isPaintingLayer&quot;:true}" fill="#000000" fill-rule="nonzero" stroke-opacity="0.46667" stroke="#ffffff" stroke-width="0.5" stroke-linecap="butt" stroke-linejoin="miter" stroke-miterlimit="10" stroke-dasharray="" stroke-dashoffset="0" style="mix-blend-mode: normal"><path d="M565.06377,195.81246c-0.02279,-0.14852 0.12574,-0.17131 0.12574,-0.17131l-0.02822,0.03276c0.13769,-0.13453 0.27117,-0.26654 0.40013,-0.40077c-0.07692,-0.08489 -0.14016,-0.18482 -0.18476,-0.29765c-0.19892,-0.5031 0.04767,-1.07219 0.55076,-1.2711c0.46078,-0.18218 0.97692,0.00934 1.21332,0.42937c0.1033,-0.21291 0.2836,-0.38922 0.52101,-0.4831c0.48315,-0.19103 1.02718,0.02882 1.24573,0.49215c0.10701,-0.17554 0.26996,-0.31898 0.47589,-0.40041c0.04754,-0.0188 0.09568,-0.03361 0.14404,-0.04462c-0.16244,-0.267 -0.31126,-0.5455 -0.47252,-0.80536l-0.09549,-0.11454c0,0 -0.09595,-0.11564 0.01968,-0.21159c0.11564,-0.09595 0.21159,0.01968 0.21159,0.01968l0.10795,0.13064c0.19395,0.31026 0.3679,0.65174 0.5707,0.96509c0.329,0.04289 0.62665,0.25202 0.76938,0.57385c0.42678,-0.19694 0.76502,-0.54741 1.12334,-0.84473l0.02055,-0.03557c0,0 0.08891,-0.12113 0.21004,-0.03222c0.12113,0.08891 0.03222,0.21004 0.03222,0.21004l-0.07091,0.08902c-0.38284,0.31766 -0.743,0.67967 -1.19889,0.89072c0,0 -0.01523,0.00699 -0.03784,0.01122c0.04841,0.42889 -0.1929,0.85394 -0.61351,1.02024c-0.14208,0.05617 -0.28943,0.07682 -0.43221,0.06619c0.12036,0.11486 0.23615,0.23466 0.35955,0.34774l0.07139,0.11886c0,0 0.06858,0.1337 -0.06511,0.20227c-0.1337,0.06858 -0.20227,-0.06511 -0.20227,-0.06511l-0.00748,-0.03487c-0.21052,-0.19443 -0.39844,-0.413 -0.63081,-0.5817c0,0 -0.10508,-0.07713 -0.04767,-0.18557c-0.12126,-0.09238 -0.22231,-0.2141 -0.2911,-0.35995c-0.06958,0.11413 -0.16279,0.21469 -0.2761,0.29347c-0.07859,0.26565 -0.21319,0.49119 -0.38349,0.72158l-0.13601,0.11431c0,0 -0.11564,0.09595 -0.21159,-0.01968c-0.09595,-0.11564 0.01968,-0.21159 0.01968,-0.21159l0.10918,-0.08914c0.08473,-0.11654 0.16043,-0.23298 0.22079,-0.35614c-0.40852,0.07616 -0.82598,-0.1163 -1.03167,-0.48177c-0.1033,0.21291 -0.2836,0.38922 -0.52101,0.4831c-0.28994,0.11464 -0.60181,0.08131 -0.8521,-0.06381c-0.13663,0.14313 -0.27816,0.28361 -0.42434,0.42644l-0.13623,0.04934c0,0 -0.14852,0.02279 -0.17131,-0.12574z"/><path d="M583.16067,196.52638l-0.13233,-0.059c-0.13553,-0.15298 -0.2666,-0.30327 -0.39257,-0.45585c-0.26008,0.12675 -0.57354,0.13756 -0.85448,0.00237c-0.23005,-0.11071 -0.39719,-0.29953 -0.48492,-0.51931c-0.23144,0.34973 -0.66166,0.51167 -1.06364,0.40632c0.05134,0.12719 0.11847,0.24876 0.19459,0.3711l0.10248,0.09675c0,0 0.10843,0.10402 0.00442,0.21245c-0.10402,0.10843 -0.21245,0.00442 -0.21245,0.00442l-0.12743,-0.1238c-0.15329,-0.24204 -0.27132,-0.47667 -0.33059,-0.74729c-0.10735,-0.08671 -0.1931,-0.19371 -0.25428,-0.31257c-0.07912,0.14053 -0.18865,0.25467 -0.31624,0.33809c0.04946,0.1123 -0.06089,0.18167 -0.06089,0.18167c-0.2439,0.15155 -0.44706,0.35604 -0.67102,0.53482l-0.00996,0.03425c0,0 -0.07803,0.12842 -0.20644,0.0504c-0.12842,-0.07801 -0.0504,-0.20644 -0.0504,-0.20644l0.07974,-0.11342c0.13122,-0.10392 0.25533,-0.21508 0.38364,-0.32098c-0.14318,0.00033 -0.28866,-0.03085 -0.42632,-0.09711c-0.40756,-0.19612 -0.61768,-0.63741 -0.53854,-1.06172c-0.02225,-0.00584 -0.03694,-0.01392 -0.03694,-0.01392c-0.43954,-0.24328 -0.77272,-0.63026 -1.13172,-0.97463l-0.06432,-0.09389c0,0 -0.07997,-0.12722 0.04725,-0.20719c0.12722,-0.07997 0.20719,0.04725 0.20719,0.04725l0.01793,0.03695c0.33602,0.32233 0.64818,0.69621 1.05968,0.92334c0.1655,-0.31073 0.47742,-0.4979 0.80866,-0.51703c0.2248,-0.29796 0.42287,-0.62604 0.63863,-0.92155l0.11707,-0.12254c0,0 0.10402,-0.10843 0.21245,-0.00442c0.10843,0.10402 0.00442,0.21245 0.00442,0.21245l-0.10349,0.10737c-0.17953,0.2476 -0.34799,0.51466 -0.52922,0.76929c0.04744,0.01445 0.09439,0.03269 0.14046,0.05486c0.19955,0.09601 0.35174,0.2508 0.44586,0.4336c0.25132,-0.44642 0.80974,-0.62657 1.2779,-0.40128c0.23005,0.11071 0.39719,0.29953 0.48492,0.51931c0.266,-0.40194 0.79456,-0.55585 1.24105,-0.341c0.48749,0.23459 0.6925,0.81993 0.45792,1.30742c-0.05261,0.10933 -0.12286,0.20445 -0.2057,0.2836c0.11897,0.14316 0.24261,0.28444 0.37027,0.42852l-0.02579,-0.0347c0,0 0.1465,0.03341 0.11309,0.17991c-0.03341,0.1465 -0.17991,0.11309 -0.17991,0.11309z" data-paper-data="{&quot;index&quot;:null}"/><path d="M547.62448,204.94688c-0.02279,-0.14852 0.12574,-0.17131 0.12574,-0.17131l-0.02822,0.03276c0.13769,-0.13453 0.27117,-0.26654 0.40013,-0.40077c-0.07692,-0.08489 -0.14016,-0.18482 -0.18476,-0.29765c-0.19892,-0.50309 0.04768,-1.07219 0.55076,-1.2711c0.46078,-0.18218 0.97692,0.00934 1.21332,0.42937c0.1033,-0.21291 0.2836,-0.38922 0.52101,-0.4831c0.48315,-0.19103 1.02716,0.02882 1.24573,0.49215c0.10701,-0.17554 0.26996,-0.31898 0.47589,-0.40041c0.04754,-0.0188 0.09568,-0.03361 0.14404,-0.04462c-0.16244,-0.267 -0.31126,-0.5455 -0.47252,-0.80537l-0.09549,-0.11454c0,0 -0.09595,-0.11564 0.01968,-0.21159c0.11564,-0.09595 0.21159,0.01968 0.21159,0.01968l0.10795,0.13064c0.19395,0.31026 0.3679,0.65174 0.5707,0.96509c0.329,0.04289 0.62665,0.25202 0.76939,0.57385c0.42678,-0.19694 0.76502,-0.54741 1.12334,-0.84473l0.02054,-0.03557c0,0 0.08891,-0.12113 0.21004,-0.03222c0.12113,0.08891 0.03222,0.21004 0.03222,0.21004l-0.07091,0.08902c-0.38283,0.31766 -0.743,0.67969 -1.1989,0.89072c0,0 -0.01523,0.00699 -0.03784,0.01122c0.04841,0.42889 -0.1929,0.85393 -0.61351,1.02024c-0.14208,0.05617 -0.28942,0.07682 -0.4322,0.06619c0.12036,0.11486 0.23615,0.23466 0.35955,0.34774l0.07139,0.11886c0,0 0.06858,0.1337 -0.06511,0.20229c-0.1337,0.06858 -0.20229,-0.06512 -0.20229,-0.06512l-0.00748,-0.03487c-0.21052,-0.19443 -0.39844,-0.413 -0.63081,-0.5817c0,0 -0.10507,-0.07713 -0.04767,-0.18558c-0.12126,-0.09238 -0.22231,-0.2141 -0.2911,-0.35995c-0.06958,0.11413 -0.16279,0.21469 -0.2761,0.29347c-0.07859,0.26565 -0.21319,0.49119 -0.38349,0.72158l-0.13601,0.11431c0,0 -0.11564,0.09595 -0.21159,-0.01968c-0.09595,-0.11564 0.01968,-0.21159 0.01968,-0.21159l0.10918,-0.08914c0.08472,-0.11654 0.16043,-0.23298 0.22079,-0.35614c-0.40852,0.07616 -0.82598,-0.1163 -1.03167,-0.48177c-0.1033,0.21291 -0.2836,0.38922 -0.52101,0.4831c-0.28994,0.11464 -0.60181,0.08131 -0.8521,-0.06381c-0.13663,0.14313 -0.27816,0.28361 -0.42434,0.42644l-0.13623,0.04933c0,0 -0.14852,0.02279 -0.17131,-0.12574z"/><path d="M565.72139,205.66082l-0.13233,-0.059c-0.13553,-0.15298 -0.2666,-0.30327 -0.39257,-0.45585c-0.26008,0.12675 -0.57354,0.13756 -0.85448,0.00237c-0.23005,-0.11071 -0.39719,-0.29953 -0.48492,-0.51931c-0.23144,0.34973 -0.66166,0.51167 -1.06364,0.40632c0.05134,0.12719 0.11847,0.24876 0.19459,0.3711l0.10248,0.09675c0,0 0.10843,0.10402 0.00442,0.21245c-0.10402,0.10843 -0.21245,0.00442 -0.21245,0.00442l-0.12743,-0.1238c-0.15329,-0.24204 -0.27132,-0.47667 -0.33059,-0.74729c-0.10735,-0.08671 -0.1931,-0.19371 -0.25428,-0.31257c-0.07912,0.14053 -0.18865,0.25467 -0.31624,0.33809c0.04946,0.1123 -0.06089,0.18167 -0.06089,0.18167c-0.2439,0.15155 -0.44706,0.35604 -0.67102,0.53482l-0.00996,0.03425c0,0 -0.07803,0.12842 -0.20644,0.0504c-0.12842,-0.07801 -0.0504,-0.20644 -0.0504,-0.20644l0.07974,-0.11342c0.13122,-0.10392 0.25533,-0.21508 0.38364,-0.32098c-0.14318,0.00033 -0.28866,-0.03085 -0.42632,-0.09711c-0.40756,-0.19612 -0.61768,-0.63741 -0.53854,-1.06172c-0.02225,-0.00584 -0.03694,-0.01392 -0.03694,-0.01392c-0.43954,-0.24328 -0.77272,-0.63026 -1.13172,-0.97463l-0.06432,-0.09389c0,0 -0.07997,-0.12722 0.04725,-0.20719c0.12722,-0.07997 0.20719,0.04725 0.20719,0.04725l0.01793,0.03695c0.33602,0.32233 0.64818,0.69621 1.05968,0.92334c0.1655,-0.31073 0.47742,-0.4979 0.80866,-0.51703c0.2248,-0.29796 0.42287,-0.62604 0.63863,-0.92155l0.11707,-0.12254c0,0 0.10402,-0.10843 0.21245,-0.00442c0.10843,0.10402 0.00442,0.21245 0.00442,0.21245l-0.10349,0.10737c-0.17953,0.2476 -0.34799,0.51466 -0.52922,0.76929c0.04744,0.01445 0.09439,0.03269 0.14046,0.05486c0.19955,0.09601 0.35174,0.2508 0.44586,0.4336c0.25132,-0.44642 0.80974,-0.62657 1.2779,-0.40128c0.23005,0.11071 0.39719,0.29953 0.48492,0.51931c0.266,-0.40194 0.79456,-0.55585 1.24105,-0.341c0.48749,0.23459 0.6925,0.81993 0.45792,1.30742c-0.05261,0.10933 -0.12286,0.20445 -0.2057,0.2836c0.11897,0.14316 0.24261,0.28444 0.37027,0.42852l-0.02579,-0.0347c0,0 0.1465,0.03341 0.11309,0.17991c-0.03341,0.1465 -0.17991,0.11309 -0.17991,0.11309z" data-paper-data="{&quot;index&quot;:null}"/><path d="M555.27133,187.90189c-0.02279,-0.14852 0.12574,-0.17131 0.12574,-0.17131l-0.02822,0.03276c0.13769,-0.13453 0.27117,-0.26654 0.40013,-0.40077c-0.07692,-0.08489 -0.14016,-0.18482 -0.18476,-0.29765c-0.19892,-0.50309 0.04768,-1.07219 0.55076,-1.2711c0.46078,-0.18218 0.97692,0.00934 1.21332,0.42937c0.1033,-0.21291 0.2836,-0.38922 0.52101,-0.4831c0.48315,-0.19103 1.02716,0.02882 1.24573,0.49215c0.10701,-0.17554 0.26996,-0.31898 0.47589,-0.40041c0.04754,-0.0188 0.09568,-0.03361 0.14404,-0.04462c-0.16244,-0.267 -0.31126,-0.5455 -0.47252,-0.80537l-0.09549,-0.11454c0,0 -0.09595,-0.11564 0.01968,-0.21159c0.11564,-0.09595 0.21159,0.01968 0.21159,0.01968l0.10795,0.13064c0.19395,0.31026 0.3679,0.65174 0.5707,0.96509c0.329,0.04289 0.62665,0.25202 0.76939,0.57385c0.42678,-0.19694 0.76502,-0.54741 1.12334,-0.84473l0.02054,-0.03557c0,0 0.08891,-0.12113 0.21004,-0.03222c0.12113,0.08891 0.03222,0.21004 0.03222,0.21004l-0.07091,0.08902c-0.38283,0.31766 -0.743,0.67969 -1.1989,0.89072c0,0 -0.01523,0.00699 -0.03784,0.01122c0.04841,0.42889 -0.1929,0.85393 -0.61351,1.02024c-0.14208,0.05617 -0.28942,0.07682 -0.4322,0.06619c0.12036,0.11486 0.23615,0.23466 0.35955,0.34774l0.07139,0.11886c0,0 0.06858,0.1337 -0.06511,0.20229c-0.1337,0.06858 -0.20229,-0.06512 -0.20229,-0.06512l-0.00748,-0.03487c-0.21052,-0.19443 -0.39844,-0.413 -0.63081,-0.5817c0,0 -0.10507,-0.07713 -0.04767,-0.18558c-0.12126,-0.09238 -0.22231,-0.2141 -0.2911,-0.35995c-0.06958,0.11413 -0.16279,0.21469 -0.2761,0.29347c-0.07859,0.26565 -0.21319,0.49119 -0.38349,0.72158l-0.13601,0.11431c0,0 -0.11564,0.09595 -0.21159,-0.01968c-0.09595,-0.11564 0.01968,-0.21159 0.01968,-0.21159l0.10918,-0.08914c0.08472,-0.11654 0.16043,-0.23298 0.22079,-0.35614c-0.40852,0.07616 -0.82598,-0.1163 -1.03167,-0.48177c-0.1033,0.21291 -0.2836,0.38922 -0.52101,0.4831c-0.28994,0.11464 -0.60181,0.08131 -0.8521,-0.06381c-0.13663,0.14313 -0.27816,0.28361 -0.42434,0.42644l-0.13623,0.04933c0,0 -0.14852,0.02279 -0.17131,-0.12574z"/><path d="M573.36824,188.61582l-0.13233,-0.059c-0.13553,-0.15298 -0.2666,-0.30327 -0.39257,-0.45585c-0.26008,0.12675 -0.57354,0.13756 -0.85448,0.00237c-0.23005,-0.11071 -0.39719,-0.29953 -0.48492,-0.51931c-0.23144,0.34973 -0.66166,0.51167 -1.06364,0.40632c0.05134,0.12719 0.11847,0.24876 0.19459,0.3711l0.10248,0.09675c0,0 0.10843,0.10402 0.00442,0.21245c-0.10402,0.10843 -0.21245,0.00442 -0.21245,0.00442l-0.12743,-0.1238c-0.15329,-0.24204 -0.27132,-0.47667 -0.33059,-0.74729c-0.10735,-0.08671 -0.1931,-0.19371 -0.25428,-0.31257c-0.07912,0.14053 -0.18865,0.25467 -0.31624,0.33809c0.04946,0.1123 -0.06089,0.18167 -0.06089,0.18167c-0.2439,0.15155 -0.44706,0.35604 -0.67102,0.53482l-0.00996,0.03425c0,0 -0.07803,0.12842 -0.20644,0.0504c-0.12842,-0.07801 -0.0504,-0.20644 -0.0504,-0.20644l0.07974,-0.11342c0.13122,-0.10392 0.25533,-0.21508 0.38364,-0.32098c-0.14318,0.00033 -0.28866,-0.03085 -0.42632,-0.09711c-0.40756,-0.19612 -0.61768,-0.63741 -0.53854,-1.06172c-0.02225,-0.00584 -0.03694,-0.01392 -0.03694,-0.01392c-0.43954,-0.24328 -0.77272,-0.63026 -1.13172,-0.97463l-0.06432,-0.09389c0,0 -0.07997,-0.12722 0.04725,-0.20719c0.12722,-0.07997 0.20719,0.04725 0.20719,0.04725l0.01793,0.03695c0.33602,0.32233 0.64818,0.69621 1.05968,0.92334c0.1655,-0.31073 0.47742,-0.4979 0.80866,-0.51703c0.2248,-0.29796 0.42287,-0.62604 0.63863,-0.92155l0.11707,-0.12254c0,0 0.10402,-0.10843 0.21245,-0.00442c0.10843,0.10402 0.00442,0.21245 0.00442,0.21245l-0.10349,0.10737c-0.17953,0.2476 -0.34799,0.51466 -0.52922,0.76929c0.04744,0.01445 0.09439,0.03269 0.14046,0.05486c0.19955,0.09601 0.35174,0.2508 0.44586,0.4336c0.25132,-0.44642 0.80974,-0.62657 1.2779,-0.40128c0.23005,0.11071 0.39719,0.29953 0.48492,0.51931c0.266,-0.40194 0.79456,-0.55585 1.24105,-0.341c0.48749,0.23459 0.6925,0.81993 0.45792,1.30742c-0.05261,0.10933 -0.12286,0.20445 -0.2057,0.2836c0.11897,0.14316 0.24261,0.28444 0.37027,0.42852l-0.02579,-0.0347c0,0 0.1465,0.03341 0.11309,0.17991c-0.03341,0.1465 -0.17991,0.11309 -0.17991,0.11309z" data-paper-data="{&quot;index&quot;:null}"/><path d="M539.7987,198.35182c-0.02812,-0.1476 0.1195,-0.17572 0.1195,-0.17572l-0.02702,0.03376c0.13276,-0.13939 0.26141,-0.27613 0.38546,-0.41492c-0.07994,-0.08207 -0.14672,-0.17966 -0.19536,-0.29081c-0.21689,-0.49562 0.00906,-1.0732 0.50467,-1.2901c0.45393,-0.19865 0.97662,-0.02582 1.22797,0.38543c0.09557,-0.21649 0.26941,-0.39917 0.50329,-0.50153c0.47597,-0.20829 1.02754,-0.00815 1.26263,0.44701c0.10063,-0.17928 0.25831,-0.3285 0.46117,-0.41727c0.04684,-0.0205 0.09441,-0.03705 0.14234,-0.04977c-0.17195,-0.26098 -0.3307,-0.53394 -0.5012,-0.78783l-0.09955,-0.11104c0,0 -0.10005,-0.1121 0.01206,-0.21216c0.1121,-0.10005 0.21216,0.01206 0.21216,0.01206l0.11259,0.12668c0.20498,0.30309 0.39112,0.63808 0.60506,0.94393c0.33034,0.03103 0.63532,0.22931 0.78954,0.5458c0.41942,-0.21218 0.74482,-0.57459 1.09223,-0.88461l0.01925,-0.03628c0,0 0.0845,-0.12426 0.20876,-0.03975c0.12426,0.0845 0.03976,0.20874 0.03976,0.20874l-0.06766,0.09151c-0.37115,0.33123 -0.71806,0.70598 -1.16606,0.93328c0,0 -0.01496,0.00754 -0.03741,0.01258c0.06381,0.42687 -0.16206,0.86032 -0.57641,1.04165c-0.13996,0.06125 -0.28647,0.08719 -0.42954,0.08171c0.12441,0.11046 0.24444,0.226 0.37183,0.33458l0.07562,0.11622c0,0 0.07334,0.13115 -0.0578,0.20449c-0.13114,0.07334 -0.20449,-0.0578 -0.20449,-0.0578l-0.00873,-0.03459c-0.21739,-0.18672 -0.41304,-0.3984 -0.65134,-0.55862c0,0 -0.10777,-0.0733 -0.05432,-0.18374c-0.1245,-0.08795 -0.22986,-0.20596 -0.30387,-0.34925c-0.06543,0.11656 -0.15497,0.22042 -0.26536,0.30321c-0.06899,0.26832 -0.19537,0.49854 -0.35727,0.7349l-0.13181,0.11914c0,0 -0.11212,0.10005 -0.21216,-0.01206c-0.10005,-0.1121 0.01206,-0.21216 0.01206,-0.21216l0.10591,-0.093c0.08048,-0.11952 0.15195,-0.23859 0.20782,-0.36385c-0.4055,0.09082 -0.82963,-0.0865 -1.04834,-0.44432c-0.09557,0.21649 -0.26941,0.39917 -0.50329,0.50153c-0.28563,0.125 -0.59849,0.10291 -0.85384,-0.03311c-0.13139,0.14796 -0.26777,0.29343 -0.40873,0.44143l-0.13438,0.0542c0,0 -0.1476,0.02812 -0.17572,-0.1195z"/><path d="M557.80466,198.1327l-0.13233,-0.059c-0.13553,-0.15298 -0.2666,-0.30327 -0.39257,-0.45585c-0.26008,0.12675 -0.57354,0.13756 -0.85448,0.00237c-0.23005,-0.11071 -0.39719,-0.29953 -0.48492,-0.51931c-0.23144,0.34973 -0.66166,0.51167 -1.06364,0.40632c0.05134,0.12719 0.11847,0.24876 0.19459,0.3711l0.10248,0.09675c0,0 0.10843,0.10402 0.00442,0.21245c-0.10402,0.10843 -0.21245,0.00442 -0.21245,0.00442l-0.12743,-0.1238c-0.15329,-0.24204 -0.27132,-0.47667 -0.33059,-0.74729c-0.10735,-0.08671 -0.1931,-0.19371 -0.25428,-0.31257c-0.07912,0.14053 -0.18865,0.25467 -0.31624,0.33809c0.04946,0.1123 -0.06089,0.18167 -0.06089,0.18167c-0.2439,0.15155 -0.44706,0.35604 -0.67102,0.53482l-0.00996,0.03425c0,0 -0.07803,0.12842 -0.20644,0.0504c-0.12842,-0.07801 -0.0504,-0.20644 -0.0504,-0.20644l0.07974,-0.11342c0.13122,-0.10392 0.25533,-0.21508 0.38364,-0.32098c-0.14318,0.00033 -0.28866,-0.03085 -0.42632,-0.09711c-0.40756,-0.19612 -0.61768,-0.63741 -0.53854,-1.06172c-0.02225,-0.00584 -0.03694,-0.01392 -0.03694,-0.01392c-0.43954,-0.24328 -0.77272,-0.63026 -1.13172,-0.97463l-0.06432,-0.09389c0,0 -0.07997,-0.12722 0.04725,-0.20719c0.12722,-0.07997 0.20719,0.04725 0.20719,0.04725l0.01793,0.03695c0.33602,0.32233 0.64818,0.69621 1.05968,0.92334c0.1655,-0.31073 0.47742,-0.4979 0.80866,-0.51703c0.2248,-0.29796 0.42287,-0.62604 0.63863,-0.92155l0.11707,-0.12254c0,0 0.10402,-0.10843 0.21245,-0.00442c0.10843,0.10402 0.00442,0.21245 0.00442,0.21245l-0.10349,0.10737c-0.17953,0.2476 -0.34799,0.51466 -0.52922,0.76929c0.04744,0.01445 0.09439,0.03269 0.14046,0.05486c0.19955,0.09601 0.35174,0.2508 0.44586,0.4336c0.25132,-0.44642 0.80974,-0.62657 1.2779,-0.40128c0.23005,0.11071 0.39719,0.29953 0.48492,0.51931c0.266,-0.40194 0.79456,-0.55585 1.24105,-0.341c0.48749,0.23459 0.6925,0.81993 0.45792,1.30742c-0.05261,0.10933 -0.12286,0.20445 -0.2057,0.2836c0.11897,0.14316 0.24261,0.28444 0.37027,0.42852l-0.02579,-0.0347c0,0 0.1465,0.03341 0.11309,0.17991c-0.03341,0.1465 -0.17991,0.11309 -0.17991,0.11309z" data-paper-data="{&quot;index&quot;:null}"/><path d="M563.27608,201.73147c-0.02279,-0.14852 0.12574,-0.17131 0.12574,-0.17131l-0.02822,0.03276c0.13769,-0.13453 0.27117,-0.26654 0.40013,-0.40077c-0.07692,-0.08489 -0.14016,-0.18482 -0.18476,-0.29765c-0.19892,-0.50309 0.04768,-1.07219 0.55076,-1.2711c0.46078,-0.18218 0.97692,0.00934 1.21332,0.42937c0.1033,-0.21291 0.2836,-0.38922 0.52101,-0.4831c0.48315,-0.19103 1.02716,0.02882 1.24573,0.49215c0.10701,-0.17554 0.26996,-0.31898 0.47589,-0.40041c0.04754,-0.0188 0.09568,-0.03361 0.14404,-0.04462c-0.16244,-0.267 -0.31126,-0.5455 -0.47252,-0.80537l-0.09549,-0.11454c0,0 -0.09595,-0.11564 0.01968,-0.21159c0.11564,-0.09595 0.21159,0.01968 0.21159,0.01968l0.10795,0.13064c0.19395,0.31026 0.3679,0.65174 0.5707,0.96509c0.329,0.04289 0.62665,0.25202 0.76939,0.57385c0.42678,-0.19694 0.76502,-0.54741 1.12334,-0.84473l0.02054,-0.03557c0,0 0.08891,-0.12113 0.21004,-0.03222c0.12113,0.08891 0.03222,0.21004 0.03222,0.21004l-0.07091,0.08902c-0.38283,0.31766 -0.743,0.67969 -1.1989,0.89072c0,0 -0.01523,0.00699 -0.03784,0.01122c0.04841,0.42889 -0.1929,0.85393 -0.61351,1.02024c-0.14208,0.05617 -0.28942,0.07682 -0.4322,0.06619c0.12036,0.11486 0.23615,0.23466 0.35955,0.34774l0.07139,0.11886c0,0 0.06858,0.1337 -0.06511,0.20229c-0.1337,0.06858 -0.20229,-0.06512 -0.20229,-0.06512l-0.00748,-0.03487c-0.21052,-0.19443 -0.39844,-0.413 -0.63081,-0.5817c0,0 -0.10507,-0.07713 -0.04767,-0.18558c-0.12126,-0.09238 -0.22231,-0.2141 -0.2911,-0.35995c-0.06958,0.11413 -0.16279,0.21469 -0.2761,0.29347c-0.07859,0.26565 -0.21319,0.49119 -0.38349,0.72158l-0.13601,0.11431c0,0 -0.11564,0.09595 -0.21159,-0.01968c-0.09595,-0.11564 0.01968,-0.21159 0.01968,-0.21159l0.10918,-0.08914c0.08472,-0.11654 0.16043,-0.23298 0.22079,-0.35614c-0.40852,0.07616 -0.82598,-0.1163 -1.03167,-0.48177c-0.1033,0.21291 -0.2836,0.38922 -0.52101,0.4831c-0.28994,0.11464 -0.60181,0.08131 -0.8521,-0.06381c-0.13663,0.14313 -0.27816,0.28361 -0.42434,0.42644l-0.13623,0.04933c0,0 -0.14852,0.02279 -0.17131,-0.12574z"/><path d="M581.37298,202.44541l-0.13233,-0.059c-0.13553,-0.15298 -0.2666,-0.30327 -0.39257,-0.45585c-0.26008,0.12675 -0.57354,0.13756 -0.85448,0.00237c-0.23005,-0.11071 -0.39719,-0.29953 -0.48492,-0.51931c-0.23144,0.34973 -0.66166,0.51167 -1.06364,0.40632c0.05134,0.12719 0.11847,0.24876 0.19459,0.3711l0.10248,0.09675c0,0 0.10843,0.10402 0.00442,0.21245c-0.10402,0.10843 -0.21245,0.00442 -0.21245,0.00442l-0.12743,-0.1238c-0.15329,-0.24204 -0.27132,-0.47667 -0.33059,-0.74729c-0.10735,-0.08671 -0.1931,-0.19371 -0.25428,-0.31257c-0.07912,0.14053 -0.18865,0.25467 -0.31624,0.33809c0.04946,0.1123 -0.06089,0.18167 -0.06089,0.18167c-0.2439,0.15155 -0.44706,0.35604 -0.67102,0.53482l-0.00996,0.03425c0,0 -0.07803,0.12842 -0.20644,0.0504c-0.12842,-0.07801 -0.0504,-0.20644 -0.0504,-0.20644l0.07974,-0.11342c0.13122,-0.10392 0.25533,-0.21508 0.38364,-0.32098c-0.14318,0.00033 -0.28866,-0.03085 -0.42632,-0.09711c-0.40756,-0.19612 -0.61768,-0.63741 -0.53854,-1.06172c-0.02225,-0.00584 -0.03694,-0.01392 -0.03694,-0.01392c-0.43954,-0.24328 -0.77272,-0.63026 -1.13172,-0.97463l-0.06432,-0.09389c0,0 -0.07997,-0.12722 0.04725,-0.20719c0.12722,-0.07997 0.20719,0.04725 0.20719,0.04725l0.01793,0.03695c0.33602,0.32233 0.64818,0.69621 1.05968,0.92334c0.1655,-0.31073 0.47742,-0.4979 0.80866,-0.51703c0.2248,-0.29796 0.42287,-0.62604 0.63863,-0.92155l0.11707,-0.12254c0,0 0.10402,-0.10843 0.21245,-0.00442c0.10843,0.10402 0.00442,0.21245 0.00442,0.21245l-0.10349,0.10737c-0.17953,0.2476 -0.34799,0.51466 -0.52922,0.76929c0.04744,0.01445 0.09439,0.03269 0.14046,0.05486c0.19955,0.09601 0.35174,0.2508 0.44586,0.4336c0.25132,-0.44642 0.80974,-0.62657 1.2779,-0.40128c0.23005,0.11071 0.39719,0.29953 0.48492,0.51931c0.266,-0.40194 0.79456,-0.55585 1.24105,-0.341c0.48749,0.23459 0.6925,0.81993 0.45792,1.30742c-0.05261,0.10933 -0.12286,0.20445 -0.2057,0.2836c0.11897,0.14316 0.24261,0.28444 0.37027,0.42852l-0.02579,-0.0347c0,0 0.1465,0.03341 0.11309,0.17991c-0.03341,0.1465 -0.17991,0.11309 -0.17991,0.11309z" data-paper-data="{&quot;index&quot;:null}"/><path d="M502.37448,196.69688c-0.02278,-0.14853 0.12574,-0.17131 0.12574,-0.17131l-0.02822,0.03276c0.13769,-0.13452 0.27117,-0.26655 0.40013,-0.40078c-0.07692,-0.08489 -0.14016,-0.18482 -0.18476,-0.29765c-0.19892,-0.50308 0.04768,-1.07219 0.55076,-1.2711c0.46078,-0.18218 0.97691,0.00933 1.21331,0.42937c0.1033,-0.21291 0.2836,-0.38923 0.52101,-0.4831c0.48316,-0.19103 1.02716,0.02882 1.24573,0.49215c0.10701,-0.17554 0.26997,-0.31898 0.47589,-0.40041c0.04754,-0.0188 0.09569,-0.03361 0.14405,-0.04462c-0.16244,-0.267 -0.31127,-0.5455 -0.47253,-0.80537l-0.09549,-0.11454c0,0 -0.09595,-0.11564 0.01968,-0.21159c0.11564,-0.09595 0.21159,0.01969 0.21159,0.01969l0.10796,0.13063c0.19395,0.31026 0.3679,0.65174 0.5707,0.9651c0.329,0.04289 0.62665,0.25202 0.76939,0.57384c0.42678,-0.19694 0.76503,-0.54741 1.12334,-0.84473l0.02053,-0.03557c0,0 0.08891,-0.12114 0.21004,-0.03223c0.12114,0.08891 0.03223,0.21004 0.03223,0.21004l-0.07091,0.08902c-0.38283,0.31767 -0.74299,0.67969 -1.19889,0.89072c0,0 -0.01522,0.00699 -0.03784,0.01122c0.04841,0.4289 -0.1929,0.85393 -0.61351,1.02024c-0.14207,0.05617 -0.28942,0.07682 -0.4322,0.06619c0.12036,0.11486 0.23614,0.23466 0.35955,0.34774l0.07139,0.11886c0,0 0.06858,0.13369 -0.06511,0.20228c-0.13369,0.06858 -0.20229,-0.06512 -0.20229,-0.06512l-0.00748,-0.03487c-0.21052,-0.19443 -0.39845,-0.41299 -0.63081,-0.5817c0,0 -0.10506,-0.07713 -0.04766,-0.18558c-0.12126,-0.09238 -0.22231,-0.2141 -0.2911,-0.35995c-0.06958,0.11413 -0.1628,0.21469 -0.27611,0.29347c-0.07859,0.26566 -0.21319,0.49119 -0.38349,0.72158l-0.13601,0.11431c0,0 -0.11564,0.09595 -0.21159,-0.01968c-0.09595,-0.11564 0.01968,-0.21159 0.01968,-0.21159l0.10918,-0.08913c0.08473,-0.11654 0.16043,-0.23298 0.22078,-0.35614c-0.40851,0.07616 -0.82598,-0.1163 -1.03166,-0.48176c-0.1033,0.21291 -0.2836,0.38922 -0.52101,0.48309c-0.28994,0.11464 -0.6018,0.08132 -0.8521,-0.06381c-0.13663,0.14314 -0.27817,0.2836 -0.42435,0.42643l-0.13623,0.04933c0,0 -0.14853,0.02278 -0.17132,-0.12574z"/><path d="M520.47139,197.41082l-0.13234,-0.059c-0.13553,-0.15298 -0.2666,-0.30327 -0.39258,-0.45585c-0.26008,0.12675 -0.57354,0.13756 -0.85447,0.00236c-0.23005,-0.1107 -0.39719,-0.29952 -0.48492,-0.51931c-0.23144,0.34973 -0.66166,0.51167 -1.06364,0.40632c0.05134,0.1272 0.11847,0.24875 0.19459,0.37109l0.10248,0.09676c0,0 0.10843,0.10402 0.00442,0.21245c-0.10402,0.10843 -0.21245,0.00442 -0.21245,0.00442l-0.12743,-0.1238c-0.15329,-0.24204 -0.27132,-0.47668 -0.33059,-0.74729c-0.10735,-0.08671 -0.1931,-0.19371 -0.25428,-0.31257c-0.07912,0.14053 -0.18865,0.25467 -0.31624,0.33809c0.04947,0.11229 -0.06089,0.18167 -0.06089,0.18167c-0.2439,0.15155 -0.44706,0.35604 -0.67102,0.53482l-0.00996,0.03425c0,0 -0.07803,0.12842 -0.20644,0.0504c-0.12842,-0.07801 -0.05039,-0.20643 -0.05039,-0.20643l0.07975,-0.11343c0.13122,-0.10392 0.25533,-0.21507 0.38364,-0.32098c-0.14318,0.00033 -0.28866,-0.03086 -0.42633,-0.09711c-0.40756,-0.19612 -0.61768,-0.63741 -0.53854,-1.06172c-0.02225,-0.00584 -0.03694,-0.01391 -0.03694,-0.01391c-0.43953,-0.24328 -0.77273,-0.63026 -1.13172,-0.97463l-0.06432,-0.09389c0,0 -0.07997,-0.12722 0.04724,-0.20719c0.12721,-0.07997 0.20718,0.04725 0.20718,0.04725l0.01794,0.03695c0.33601,0.32233 0.64818,0.69621 1.05968,0.92334c0.1655,-0.31073 0.47743,-0.4979 0.80867,-0.51702c0.2248,-0.29796 0.42287,-0.62604 0.63863,-0.92156l0.11707,-0.12254c0,0 0.10403,-0.10843 0.21246,-0.00442c0.10843,0.10402 0.00442,0.21245 0.00442,0.21245l-0.10348,0.10737c-0.17953,0.2476 -0.34799,0.51466 -0.52922,0.76929c0.04744,0.01445 0.09438,0.03269 0.14046,0.05486c0.19954,0.09601 0.35175,0.25081 0.44586,0.4336c0.25131,-0.44642 0.80975,-0.62658 1.2779,-0.40129c0.23005,0.1107 0.39719,0.29953 0.48492,0.51932c0.26599,-0.40195 0.79456,-0.55585 1.24104,-0.341c0.48749,0.23459 0.6925,0.81994 0.45792,1.30742c-0.05261,0.10933 -0.12286,0.20445 -0.2057,0.2836c0.11897,0.14316 0.24261,0.28444 0.37027,0.42852l-0.02579,-0.0347c0,0 0.1465,0.0334 0.11309,0.1799c-0.0334,0.1465 -0.1799,0.1131 -0.1799,0.1131z" data-paper-data="{&quot;index&quot;:null}"/><path d="M518.02608,193.48148c-0.02278,-0.14853 0.12574,-0.17131 0.12574,-0.17131l-0.02822,0.03275c0.13769,-0.13452 0.27117,-0.26654 0.40013,-0.40077c-0.07692,-0.08489 -0.14016,-0.18482 -0.18476,-0.29765c-0.19892,-0.50308 0.04768,-1.07219 0.55076,-1.2711c0.46078,-0.18218 0.97691,0.00933 1.21331,0.42937c0.1033,-0.21291 0.2836,-0.38922 0.52101,-0.48309c0.48316,-0.19103 1.02716,0.02883 1.24574,0.49215c0.10701,-0.17554 0.26996,-0.31899 0.47589,-0.40041c0.04754,-0.0188 0.09569,-0.03361 0.14405,-0.04462c-0.16244,-0.267 -0.31127,-0.5455 -0.47252,-0.80536l-0.09549,-0.11454c0,0 -0.09595,-0.11564 0.01968,-0.21159c0.11564,-0.09595 0.21159,0.01968 0.21159,0.01968l0.10795,0.13064c0.19395,0.31026 0.36791,0.65174 0.5707,0.96509c0.329,0.04289 0.62665,0.25203 0.76939,0.57385c0.42678,-0.19694 0.76502,-0.54742 1.12334,-0.84474l0.02054,-0.03556c0,0 0.08891,-0.12114 0.21004,-0.03223c0.12114,0.08891 0.03223,0.21004 0.03223,0.21004l-0.07091,0.08902c-0.38283,0.31767 -0.74299,0.67969 -1.19889,0.89072c0,0 -0.01523,0.00699 -0.03785,0.01122c0.04841,0.4289 -0.1929,0.85393 -0.6135,1.02024c-0.14207,0.05617 -0.28943,0.07682 -0.43221,0.06619c0.12036,0.11486 0.23615,0.23466 0.35956,0.34774l0.07138,0.11885c0,0 0.06858,0.13369 -0.06511,0.20228c-0.13369,0.06858 -0.20229,-0.06512 -0.20229,-0.06512l-0.00748,-0.03487c-0.21052,-0.19443 -0.39845,-0.41299 -0.63081,-0.5817c0,0 -0.10507,-0.07713 -0.04767,-0.18559c-0.12126,-0.09238 -0.22231,-0.21409 -0.29111,-0.35995c-0.06958,0.11413 -0.1628,0.21469 -0.27611,0.29346c-0.07859,0.26566 -0.21319,0.49119 -0.38349,0.72158l-0.13601,0.11431c0,0 -0.11564,0.09595 -0.21159,-0.01969c-0.09595,-0.11564 0.01968,-0.21159 0.01968,-0.21159l0.10918,-0.08913c0.08473,-0.11654 0.16043,-0.23298 0.22078,-0.35614c-0.40851,0.07616 -0.82598,-0.1163 -1.03166,-0.48176c-0.1033,0.21291 -0.2836,0.38922 -0.52101,0.48309c-0.28994,0.11464 -0.6018,0.08132 -0.8521,-0.06381c-0.13663,0.14314 -0.27817,0.2836 -0.42435,0.42643l-0.13623,0.04933c0,0 -0.14853,0.02279 -0.17131,-0.12574z"/><path d="M536.12298,194.19541l-0.13233,-0.05901c-0.13553,-0.15298 -0.2666,-0.30327 -0.39257,-0.45585c-0.26009,0.12675 -0.57354,0.13756 -0.85448,0.00236c-0.23005,-0.1107 -0.39719,-0.29953 -0.48492,-0.51932c-0.23144,0.34973 -0.66166,0.51167 -1.06364,0.40633c0.05134,0.1272 0.11847,0.24875 0.19459,0.37109l0.10249,0.09675c0,0 0.10843,0.10402 0.00442,0.21245c-0.10402,0.10843 -0.21245,0.00442 -0.21245,0.00442l-0.12743,-0.12381c-0.15329,-0.24204 -0.27132,-0.47668 -0.33059,-0.74729c-0.10735,-0.08671 -0.1931,-0.19371 -0.25428,-0.31257c-0.07912,0.14053 -0.18865,0.25467 -0.31624,0.33809c0.04947,0.11229 -0.06089,0.18168 -0.06089,0.18168c-0.2439,0.15155 -0.44706,0.35604 -0.67102,0.53482l-0.00996,0.03425c0,0 -0.07802,0.12842 -0.20643,0.0504c-0.12842,-0.07801 -0.0504,-0.20643 -0.0504,-0.20643l0.07975,-0.11343c0.13122,-0.10392 0.25534,-0.21508 0.38364,-0.32099c-0.14318,0.00033 -0.28866,-0.03085 -0.42633,-0.0971c-0.40756,-0.19612 -0.61768,-0.63741 -0.53854,-1.06172c-0.02225,-0.00584 -0.03695,-0.01392 -0.03695,-0.01392c-0.43953,-0.24328 -0.77272,-0.63025 -1.13172,-0.97463l-0.06433,-0.09389c0,0 -0.07996,-0.12721 0.04725,-0.20718c0.12721,-0.07997 0.20718,0.04724 0.20718,0.04724l0.01793,0.03696c0.33601,0.32233 0.64818,0.69621 1.05969,0.92334c0.1655,-0.31073 0.47742,-0.4979 0.80866,-0.51703c0.2248,-0.29796 0.42287,-0.62604 0.63863,-0.92155l0.11707,-0.12254c0,0 0.10402,-0.10844 0.21245,-0.00443c0.10843,0.10402 0.00442,0.21246 0.00442,0.21246l-0.10348,0.10737c-0.17953,0.2476 -0.34799,0.51467 -0.52922,0.76929c0.04744,0.01445 0.09439,0.03269 0.14047,0.05486c0.19954,0.09601 0.35174,0.25081 0.44585,0.4336c0.25131,-0.44642 0.80975,-0.62658 1.27791,-0.40129c0.23005,0.1107 0.39719,0.29952 0.48492,0.51931c0.26599,-0.40195 0.79456,-0.55585 1.24105,-0.34099c0.48748,0.23459 0.6925,0.81994 0.45792,1.30742c-0.05261,0.10933 -0.12286,0.20444 -0.20569,0.28359c0.11897,0.14316 0.2426,0.28444 0.37026,0.42852l-0.02579,-0.0347c0,0 0.1465,0.03341 0.11309,0.17991c-0.03341,0.1465 -0.17991,0.1131 -0.17991,0.1131z" data-paper-data="{&quot;index&quot;:null}"/></g></g></svg>