<svg version="1.1" xmlns="http://www.w3.org/2000/svg" xmlns:xlink="http://www.w3.org/1999/xlink" width="801.79944" height="392.75" viewBox="0,0,801.79944,392.75"><g transform="translate(2.76647,24.75)"><g data-paper-data="{&quot;isPaintingLayer&quot;:true}" fill-rule="nonzero" stroke-linecap="butt" stroke-linejoin="miter" stroke-miterlimit="10" stroke-dasharray="" stroke-dashoffset="0" style="mix-blend-mode: normal"><path d="M0.00002,368v-372h799.03296v372z" fill="#000000" stroke="none" stroke-width="NaN"/><path d="M195.48355,34.5v-58h580v58z" fill="#121212" stroke="#848484" stroke-width="2.5"/><path d="M770.48354,201.5v-222h22v222z" fill="#252525" stroke="#848484" stroke-width="2.5"/><path d="M625.87239,83.07317c-0.20963,-0.39222 -0.34245,-0.88926 -0.34245,-1.51912c0,-2.98683 2.98683,-2.98683 2.98683,-2.98683l3.63004,2.04232c0.74009,2.31933 2.22695,5.47501 0.07494,7.83546c-1.02984,1.12958 -2.98508,0.68231 -4.50148,0.87482c-2.51969,0.31988 -5.43633,0 -7.96488,0c-3.12311,0 -8.43465,0.86741 -10.07533,-3.09709c-0.55056,-1.33037 1.37744,-2.53244 1.95916,-3.84947c0.33921,-0.76799 0.35258,-1.67684 0.79648,-2.38947c0.39075,-0.6273 0.91678,-1.24609 1.5036,-1.85102c-9.76869,-0.2651 -19.1655,-1.93081 -28.79786,-3.17212c-1.88076,-0.24237 -3.81607,0.28128 -5.68891,-0.01619c-0.82918,-0.1317 -1.56139,-0.65799 -2.38946,-0.79649c-2.82606,-0.47267 -5.80201,-0.41532 -8.64787,-0.78029c-4.14527,-0.53163 -8.93178,-1.82905 -12.85731,-3.20215c-4.08869,0.02155 -7.82713,-1.06045 -11.83383,-1.57679c-4.97258,-0.64081 -10.54017,0.02238 -15.56482,0.02238c-4.51343,0 -9.02687,0 -13.5403,0c-2.35569,0 -5.17016,-0.383 -7.48645,-0.03857c-3.41172,0.50732 -6.70603,1.48593 -10.10837,2.33885c-4.77838,1.19331 -9.82326,2.57291 -14.69626,3.25276c-4.44784,0.62053 -9.42348,0.02237 -13.90524,0.02237c-5.58952,0 -11.37152,0.38813 -16.93805,-0.00752c-5.83251,-0.41455 -11.65207,-1.22449 -17.49654,-1.59123c-3.83101,-0.2404 -8.18989,0.27568 -12.00808,-0.00441c-6.83143,-0.50114 -13.58841,-1.59139 -20.48108,-1.58286c-5.24478,-0.07105 -10.18001,-1.13468 -15.36089,-1.60309c-1.86075,-0.16824 -3.73133,-0.26614 -5.60084,-0.39763c0.07265,0.35618 0.07265,0.60693 0.07265,0.60693c0,0.79649 0,3.98244 0,4.77893c-0.03475,2.58421 -0.50702,7.87868 -2.83337,9.59143c-1.12047,0.82492 -2.74968,0.44402 -4.13589,0.56379c-4.04221,0.34924 -8.58247,0.30722 -12.42577,-0.83506c-1.43707,-0.42712 -3.63289,0.1233 -4.33407,-1.20183c-0.89586,-1.69306 0.05503,-3.8951 0.67878,-5.70616c0.48906,-1.42001 2.44236,-1.88109 3.18595,-3.18596c0.41568,-0.72944 0.35259,-1.67684 0.79649,-2.38946c1.14812,-1.84313 3.12663,-3.5608 4.93074,-5.17438c-0.77742,-0.58987 -1.44647,-1.38068 -1.9635,-2.4667c-1.2588,-2.64404 0.17949,-6.22963 0.60769,-8.78984c0.43155,-2.58024 0.34959,-5.38267 0.79649,-7.96488c0.3179,-1.83687 1.06343,-3.46269 1.6307,-5.13634c-0.21675,-0.82688 0.11368,-1.8025 -0.03772,-2.66816c-0.28929,-1.65404 -1.3181,-3.12243 -1.59298,-4.77893c-0.46276,-2.78867 0.1166,-4.42911 -0.79649,-7.16839c-0.04845,-3.60231 0.1911,-7.02993 0.79649,-10.51473c0.44103,-2.53863 1.75131,-5.04918 2.47001,-7.52504c0.96714,-3.33168 2.16255,-6.69703 4.73815,-9.24181c3.02454,-2.98832 7.07181,-3.90145 11.01459,-4.7845c3.03366,-0.67943 5.9692,-1.99958 9.0517,-2.43985c1.60028,-0.22857 3.24626,0.19844 4.84956,-0.00784c3.92618,-0.50514 7.46116,-0.81102 11.44515,-0.81102c5.25245,0 10.34593,0.06942 15.49822,0.81887c5.38998,0.78402 10.54359,3.22681 15.92977,3.98244c5.79726,0.8133 11.62854,2.46287 17.45211,3.17811c5.10817,0.62738 10.69579,0.90177 15.60559,2.47498c8.40821,1.70306 16.92325,1.49292 25.51749,1.49292c4.80467,0 10.07983,0.62685 14.83896,0.01453c5.03022,-0.6472 10.03667,-1.76306 15.06265,-2.38162c4.62297,-0.56897 8.96149,0.12555 13.61093,-0.80433c3.29691,-0.01786 6.914,0.4428 10.17022,0.02403c0.83271,-0.10709 1.56029,-0.66478 2.38946,-0.79648c5.26077,-0.83559 10.83984,0.65454 16.11389,-0.02403c1.3427,-0.17275 2.63858,-0.63299 3.98244,-0.79649c3.31004,-0.40271 6.90473,0.59955 10.17023,0.02403c0.82682,-0.14572 1.55776,-0.68176 2.38946,-0.79648c5.24222,-0.7231 11.125,-0.03857 16.40821,-0.03857c5.93847,0.03217 11.28895,1.47468 16.87428,3.33923c1.92246,0.64177 3.97413,0.90184 5.83923,1.69504c0.91568,0.38942 1.60314,1.19688 2.4934,1.64137c3.39463,1.69482 7.04305,3.21489 9.19336,6.68826c0.49287,0.79613 0.51833,1.81088 0.93886,2.64747c0.42991,0.85529 1.1837,1.52411 1.59298,2.38946c0.8141,1.72129 0.7486,3.73458 1.06164,5.61276c0.62575,3.75449 1.48838,7.49718 2.40566,11.26433c-0.0191,3.62537 2.03973,8.28578 0.59151,11.8623c-0.50381,1.2442 -3.86989,3.98693 -4.80241,4.80242l-3.53248,0.22735c0,0 -0.40003,0 -0.9073,-0.1464c1.00692,1.05246 1.97089,2.13434 2.07379,2.38846c0.27852,0.68782 0.22735,4.80932 0.22735,5.92194c0,4.35589 -0.32475,7.93894 -1.74626,12.09536c-0.6159,1.80088 0.03333,4.1372 -1.207,5.58084c-1.03673,1.20665 -2.80327,1.56538 -4.33407,1.99832c-0.17424,0.04928 -4.81943,0.03857 -5.25736,0.03857c-1.24562,0 -2.49125,0 -3.73687,0c-0.25113,0.44625 -0.52303,0.71815 -0.52303,0.71815c-1.18184,1.18184 -3.42481,2.70776 -4.30059,4.15285c0.73211,0.10622 1.49709,0.30617 2.18858,0.30617c1.48562,0 4.07971,-0.35361 6.117,-0.27299zM372.56657,68.53278c-1.69855,1.69855 -4.76905,3.7698 -5.94317,5.83017c-0.41568,0.72944 -0.35258,1.67685 -0.79649,2.38947c-0.01821,0.02925 -0.67079,0.97115 -1.45585,1.80912c0.06283,0.01801 0.12615,0.03299 0.19002,0.04425c1.4118,0.24881 2.86694,-0.03857 4.30049,-0.03857c1.59298,0 3.21279,-0.29117 4.77893,0c0.28026,0.0521 0.43996,0.76384 0.64303,0.56378c0.22706,-0.22368 -0.33421,-0.5952 -0.29064,-0.91094c0.17717,-1.28383 0.66936,-2.53868 0.64322,-3.83442c0,-0.79649 0,-1.59297 0,-2.38946v-2.38947c0,0 0,-0.57198 0.25031,-1.21533c-0.21255,-0.03497 -0.42495,-0.07176 -0.63717,-0.11052c-0.43668,-0.07976 -0.87493,-0.15033 -1.31154,-0.21861c-0.19774,0.29712 -0.37115,0.47052 -0.37115,0.47052zM372.35059,45.47124c-0.22098,0.74211 -0.41289,1.5056 -0.54074,2.31226c-0.41086,2.59217 -0.3657,5.37154 -0.79649,7.96488c-0.31606,1.90266 -1.04838,3.56507 -0.98528,5.54694c0.03042,0.95523 7.82931,1.23217 8.80366,1.37072c7.46166,1.06108 15.12435,2.27405 22.70461,2.36093c7.04677,0.00814 13.95223,1.08051 20.93631,1.6031c3.95114,0.29565 7.93192,-0.24874 11.88657,-0.00441c5.86225,0.36218 11.69951,1.17097 17.54895,1.59473c5.42244,0.39283 11.06903,-0.00753 16.51445,-0.00753c4.21503,0 9.00077,0.63643 13.17536,0.02238c4.63727,-0.68211 9.42217,-1.9791 13.97732,-3.11915c3.54268,-0.88306 7.04329,-1.94942 10.60032,-2.44007c2.65468,-0.36619 5.74249,-0.03857 8.44332,-0.03857c4.51343,0 9.02687,0 13.54031,0c5.29389,0 11.0465,-0.61554 16.2947,0.02237c4.09009,0.49715 7.88559,1.58868 12.06083,1.60917c7.81332,2.50356 15.96317,3.38108 23.89465,4.77893c1.79301,0.31601 3.65457,-0.23587 5.46192,-0.01619c2.98616,0.36297 5.94032,1.18993 8.87486,1.60917c1.01387,0.14485 2.05616,-0.14291 3.07246,-0.0162c6.30369,0.78594 12.32029,1.5706 18.75078,1.5706c3.18595,0 6.3719,0 9.55786,0c0.79649,0 1.593,-0.00714 2.38946,0c0.63711,0.00571 1.2849,-0.07941 1.91103,0.03857c0.19714,0.03714 0.46723,0.6047 0.44486,0.40534c-0.04603,-0.41021 -0.56509,-0.71061 -0.52522,-1.12147c0.25887,-2.66736 2.04296,-5.15137 2.37328,-7.85138c0.21091,-1.72398 -0.02238,-3.47364 -0.02238,-5.21048c0,-1.21434 0.66262,-2.50227 0.22735,-3.63591c-0.13536,-0.35252 -0.66422,-0.37206 -0.94551,-0.62398c-2.99937,-2.68612 -7.19232,-2.1789 -10.99675,-3.13c-0.84037,0.0093 -4.38149,0.06496 -4.89243,-0.01619c-0.82918,-0.1317 -1.55902,-0.673 -2.38946,-0.79649c-2.06345,-0.30683 -4.1875,0.2679 -6.25841,0.01619c-1.08667,-0.13208 -2.0983,-0.67273 -3.18595,-0.79648c-5.18585,-0.59005 -10.57145,0.48125 -15.77656,0.01486c-12.61909,-1.13068 -25.32304,-0.78898 -38.01971,-0.78898c-5.27418,0 -11.0772,0.69684 -16.29471,-0.02237c-1.08442,-0.14948 -2.10317,-0.63562 -3.18595,-0.79649c-2.41583,-0.35892 -5.15014,0.02238 -7.59994,0.02238c-4.24794,0 -8.49587,0 -12.74381,0c-2.48757,0 -4.98969,0.25421 -7.46271,-0.01454c-1.34585,-0.14626 -2.63441,-0.672 -3.98244,-0.79649c-5.6228,-0.51928 -11.57943,0.01454 -17.22842,0.01454c-3.27911,-0.00664 -6.539,-0.50514 -9.80422,-0.80666c-5.2788,-0.48747 -10.69852,0.51403 -15.97772,-0.00436c-1.34729,-0.1323 -2.63734,-0.64348 -3.98244,-0.79649c-4.80556,-0.54665 -9.98492,0.01454 -14.83896,0.01454c-9.55786,0 -19.11572,0 -28.67358,0c-9.82336,0 -19.6467,0 -29.47006,0c-2.31369,0 -4.73112,0.3501 -6.86535,-0.04172zM374.06964,39.60907c3.94329,-0.61048 8.37142,-0.06977 12.31469,-0.06977c7.4339,0 14.86778,0 22.30168,0c9.55786,0 19.11572,0 28.67357,0c5.06108,0 10.40922,-0.53085 15.42759,0.01453c1.34585,0.14626 2.63565,0.6592 3.98244,0.79649c5.23801,0.53397 10.63293,-0.47441 15.8818,-0.00436c3.10247,0.27784 6.19664,0.7933 9.31151,0.78632c5.85176,0 11.99028,-0.50731 17.81705,0.01454c1.34837,0.12076 2.63734,0.64348 3.98244,0.79649c2.27668,0.25899 4.58272,-0.01454 6.87408,-0.01454c6.7812,0 14.35091,-0.90434 21.07363,0.02237c1.08442,0.14948 2.10317,0.63562 3.18595,0.79649c4.92736,0.73205 10.56837,-0.02238 15.56482,-0.02238c12.83429,0 25.68777,-0.37308 38.44317,0.804c5.30989,0.49001 10.77827,-0.56175 16.08297,0.01487c1.08826,0.11829 2.10027,0.65658 3.18596,0.79649c2.14408,0.27631 4.34387,-0.27921 6.48539,0.01619c0.8317,0.11472 1.56264,0.65077 2.38947,0.79649c1.53156,0.26993 3.11033,-0.02883 4.66544,-0.01619c3.99424,0.99856 8.68877,0.62002 12.35616,2.81316c0.07377,0.04412 0.18592,0.13227 0.32693,0.25446c-0.06723,-0.26486 -0.10509,-0.56332 -0.10509,-0.89967c0,-2.98683 2.98683,-2.98683 2.98683,-2.98683l1.24645,0.22736c0.40752,-0.61752 1.3043,-0.87879 1.56949,-1.56949c0.55339,-1.44129 -0.79849,-4.23934 -0.98528,-5.54694c-0.15554,-1.08878 -0.0108,-2.19964 -0.0162,-3.29945c-1.72969,-6.70005 -1.70957,-13.47853 -5.15171,-19.50337c-1.41952,-2.48462 -4.44075,-3.31298 -6.7364,-4.46256c-0.82218,-0.41172 -1.44157,-1.1796 -2.28553,-1.5446c-1.68787,-0.72996 -3.56677,-0.91014 -5.31161,-1.49092c-4.97119,-1.6547 -9.68041,-3.06948 -14.98524,-3.03268c-10.9167,0 -21.58373,0.26718 -32.36171,1.57844c-5.1298,0.62409 -10.67791,-0.91717 -15.74564,-0.02403c-0.82682,0.14572 -1.55606,0.6949 -2.38946,0.79649c-3.39441,0.41378 -7.10889,0.04782 -10.53847,0.02403c-4.58415,0.91683 -8.93484,0.21121 -13.46968,0.78865c-5.07177,0.6458 -10.1192,1.77869 -15.2039,2.39731c-4.98043,0.60593 -10.4078,0.01454 -15.42759,0.01454c-9.14737,0 -18.08951,0.08123 -27.05074,-1.69303c-4.53186,-1.58517 -9.89609,-1.69905 -14.66097,-2.30394c-5.87459,-0.74576 -11.75345,-2.34668 -17.59336,-3.1938c-5.39008,-0.78186 -10.54354,-3.22893 -15.92977,-3.98244c-4.93009,-0.6897 -9.74195,-0.77411 -14.76834,-0.77411c-3.81279,0 -7.0957,0.32441 -10.85652,0.78195c-1.55795,0.18954 -3.15465,-0.22985 -4.7083,-0.00784c-2.85503,0.40798 -5.65261,1.71786 -8.47104,2.33907c-2.71245,0.59787 -6.00171,1.0393 -8.10113,3.18039c-1.83392,1.87033 -2.55247,4.28584 -3.22673,6.68796c-0.62175,2.21508 -1.95064,4.54533 -2.30892,6.81175c-0.45508,2.87876 -0.7369,5.6482 -0.79649,8.60099c1.0012,3.00359 0.4958,5.87587 1.39324,8.82495c1.83129,0.64869 1.83128,2.80432 1.83128,2.80432c-0.00872,0.64826 -0.06995,1.26567 -0.16825,1.86187z" fill="#9966ff" stroke="none" stroke-width="0.5"/><text transform="translate(439.01649,37.5) scale(0.5,0.5)" font-size="40" xml:space="preserve" fill="#9966ff" fill-rule="nonzero" stroke="none" stroke-width="1" stroke-linecap="butt" stroke-linejoin="miter" stroke-miterlimit="10" stroke-dasharray="" stroke-dashoffset="0" font-family="Sans Serif" font-weight="normal" text-anchor="start" style="mix-blend-mode: normal"><tspan x="0" dy="0">couch 2</tspan></text><path d="M274.33088,13.72392c-0.06687,0.13375 -0.13856,0.25308 -0.21401,0.35937c1.42275,-0.067 3.6903,-0.0415 4.17764,-0.04157c5.26911,-0.00078 10.53909,-0.02657 15.80813,0c2.49804,0.0126 5.07128,0.39053 7.48807,0.83201c0.39105,0.07143 0.74413,0.89032 1.02522,0.60923c0.28109,-0.2811 -0.54145,-0.63352 -0.60922,-1.02523c-0.14184,-0.81982 -0.0048,-1.66403 0,-2.49602c0.01252,-2.17272 -0.51893,-6.87635 -2.51057,-8.33108c-0.65532,-0.47866 -1.55133,-0.47709 -2.32699,-0.71564c-1.13092,-1.08733 -1.98016,-2.52521 -3.32803,-3.32803c-4.15083,-2.47231 -9.28682,-2.17025 -13.8826,-2.18537c-2.6866,-0.00883 -4.07061,0.03397 -6.01727,1.8868c-0.37795,0.35973 -1.03731,0.49795 -1.21312,0.98921c-0.22884,0.63944 0.23529,1.36205 0.13148,2.03322c-0.24089,1.55746 -0.80515,3.08289 -0.80515,4.65886c0,1.46485 0.24583,2.95012 0.72527,4.33429l0.62095,-0.37066c0,0 1.86043,0.93021 0.93021,2.79064zM268.83316,12.61946c-0.88292,-2.73097 -1.38032,-5.57458 -0.91189,-8.479c0.13964,-0.86582 0.67946,-1.63238 0.83201,-2.49603c0.17172,-0.9722 -0.25394,-2.04991 0.13147,-2.95882c0.14816,-0.3494 3.76754,-4.11448 4.22489,-4.34207c2.96236,-1.47417 6.19195,-1.102 9.34489,-1.102c4.47174,0 9.59342,0.40681 13.57364,2.80667c0.54228,0.32696 2.68583,2.64656 3.32803,3.32803c0.88835,0.31613 1.9458,0.33864 2.66505,0.94837c3.06394,2.59738 4.1266,7.89178 4.14549,11.63709c0.00659,1.3061 0.1157,5.73791 -0.60923,6.46284c-2.02006,2.02006 -7.1012,0.12899 -9.29203,-0.24964c-1.5303,-0.26447 -3.10588,0.02686 -4.65886,0.02686c-0.27509,0 -0.55018,0 -0.82527,0.00001c0.71859,0.00155 1.1881,0.25188 1.4949,0.57837c0.3275,0.30775 0.57839,0.77925 0.57839,1.50164v0.83201c0,2.18917 0.25747,4.59742 0.15099,6.86051c1.12567,0.06668 2.24241,0.16144 3.34689,0.29174c3.76304,0.44396 7.93743,1.4862 11.77121,0.67576c1.3656,-0.28868 2.53073,-1.23209 3.88972,-1.55043c2.38049,-0.55761 5.25038,0.13536 7.70646,-0.17271c2.50101,-0.3137 4.91265,-1.16342 7.40886,-1.51326c3.25887,-0.45672 7.51064,-0.45046 9.57611,2.74697c0.63055,0.97612 0.16408,2.31833 0.24612,3.4775c-0.03419,3.60157 -1.08797,6.82867 -1.69087,10.31726c-0.55172,3.19243 0.33855,6.28984 0.832,9.31772c0.11942,0.73277 -0.29462,1.52126 -0.06239,2.22644c0.93084,2.82655 4.95233,2.99415 3.10663,7.52034c-0.47872,1.17396 -5.42711,0.98648 -6.76141,0.98648c-8.04273,0 -16.08546,0 -24.1282,0c-11.36772,0 -22.88559,0.53888 -34.24153,-0.00402c-2.2334,-0.10677 -4.42452,-0.69144 -6.65605,-0.83201c-4.08775,-0.25748 -11.6023,-0.23051 -14.18476,-4.42255c-0.60951,-0.9894 -0.20412,-2.31619 -0.24612,-3.4775c-0.0601,-1.66182 -0.03011,-3.32527 -0.01132,-4.98851c-1.41405,-0.97185 -0.6011,-2.59775 -0.6011,-2.59775l0.71916,-1.39156c1.41101,-4.07371 -0.3199,-8.95283 -2.30305,-13.15708l-1.3545,-1.3545c-0.37641,-0.37641 -0.60923,-0.89641 -0.60923,-1.47079c0,-1.14876 0.93125,-2.08001 2.08002,-2.08001h2.49603v0.11502l0.33318,-0.08817c3.93222,1.31074 7.59931,0.26725 11.64809,0.83201c0.86861,0.12116 1.63183,0.68265 2.49603,0.832c1.5303,0.26447 3.10588,-0.02685 4.65886,-0.02685c5.33515,0 10.92255,-0.38952 16.39729,-0.34379c0.12392,-1.84229 -0.08278,-3.83741 -0.15188,-5.69044c-1.09127,-0.18999 -2.17512,-0.46678 -3.26648,-0.64868c-2.46738,-0.41123 -5.02168,-0.41649 -7.48807,-0.832c-2.17185,-0.36589 -4.24743,-1.18133 -6.40526,-1.62199l-2.42503,-0.0152c-1.14353,-0.00613 -2.06862,-0.93503 -2.06862,-2.07999c0,-1.04403 0.76919,-1.90841 1.77179,-2.05734l2.47873,-0.41312zM290.61475,18.20176c0.03602,0.00043 0.07207,0.00058 0.10814,0.00042c0.01484,-0.00025 0.02981,-0.00038 0.04487,-0.00042c-0.051,0 -0.10201,0 -0.15302,0zM291.99576,32.26305c-0.5625,3.25487 0.10634,6.12735 -0.64008,9.32897c2.07713,-0.04171 4.77017,-0.82171 6.40816,-0.06721c0.10209,0.04702 0.20256,0.09675 0.30157,0.1489l0.02301,-0.06902l2.45052,0.81684c0.84994,0.2614 1.46776,1.05277 1.46776,1.98844c0,1.14876 -0.93126,2.08001 -2.08002,2.08001c-2.49602,0 -7.48807,0 -9.98408,0c0,0 -1.43565,0 -1.92151,-1.19272c-1.01713,-0.23998 -2.03328,-0.48417 -3.07054,-0.47129h-0.83201c0,0 -2.08002,0 -2.08002,-2.08002c0,-2.08002 2.08002,-2.08002 2.08002,-2.08002h0.83201c0.7722,0.00733 1.53659,0.11031 2.2978,0.24969c0.93039,-3.03964 0.18014,-5.83333 0.58522,-8.93572c-5.14135,-0.00029 -10.37737,0.36596 -15.36313,0.36596c-0.39938,0 -5.10972,0.00789 -5.32522,-0.02686c-0.86582,-0.13965 -1.62829,-0.70476 -2.49602,-0.832c-3.3451,-0.4905 -6.44375,0.17166 -9.66855,-0.34968c0.49574,1.45633 1.08034,3.22706 1.15893,3.46281c1.41664,4.24993 2.25396,6.90127 0.832,11.2996l-0.07223,0.14803c0.17897,0.45284 0.17897,0.85823 0.17897,0.85823c0,2.21869 0.11262,4.44023 0,6.65605c-0.02596,0.51081 -0.49499,1.06771 -0.24612,1.51455c0.27204,0.48845 0.9717,0.57104 1.5036,0.74328c3.40652,1.10311 5.71977,1.27172 9.27185,1.49022c2.23174,0.13728 4.42253,0.72782 6.65605,0.83201c11.27167,0.5258 22.69995,-0.00402 33.98304,-0.00402c5.82405,0 11.6481,0 17.47215,0c2.21868,0 4.43737,0 6.65605,0c0.42669,0 0.86297,-0.06405 1.29408,-0.09361c-1.3463,-1.49292 -1.38698,-4.07046 -1.68323,-5.81326c-0.58841,-3.46153 -1.41725,-7.02179 -0.83201,-10.65045c0.52222,-3.23795 1.67848,-6.32297 1.63716,-9.6509c0.08204,-0.50485 0.46354,-1.05159 0.24612,-1.51455c-0.54707,-1.16489 -4.57211,-0.70191 -5.40002,-0.58105c-2.50912,0.36631 -4.9378,1.205 -7.45406,1.51857c-2.28608,0.28488 -5.19068,-0.43103 -7.38286,0.1235c-1.33551,0.33783 -2.48495,1.26686 -3.83527,1.53956c-4.30711,0.86984 -8.80925,-0.09905 -13.04503,-0.61241c-1.27868,-0.15497 -2.57601,-0.25927 -3.886,-0.32559c-0.01453,0.06126 -0.02732,0.12295 -0.03807,0.18514z" fill="#9966ff" stroke="none" stroke-width="0.5"/><path d="M267.34891,208.55813c0,-2.40192 2.21587,-2.40192 2.21587,-2.40192c2.65904,0 7.09078,0 9.74982,0c1.67877,0.0226 3.30707,-0.63056 4.96314,-0.92975c1.97333,-0.3565 2.78524,0.54934 4.50807,-0.63306c1.75189,-1.20235 3.44447,-3.82454 4.91618,-5.41981c1.06189,-1.15105 2.45884,-2.00886 3.22732,-3.40741c1.41298,-2.57145 1.51618,-6.44632 2.46574,-9.17823c0.43446,-1.24997 1.39639,-2.26546 1.69433,-3.56158c0.27332,-1.18902 -0.19517,-2.46363 -0.03066,-3.67596c0.67136,-4.94756 3.6725,-9.49326 4.43174,-14.41148c0.27304,-1.76872 -0.02861,-3.58653 -0.02861,-5.37985c0.04084,-4.66344 1.67678,-9.24848 0.91496,-14.02675c-0.51694,-3.24233 -1.35918,-6.39128 -1.7847,-9.69893c-0.60393,-4.69449 -0.01661,-9.95975 -0.01661,-14.70496c0,-5.12408 0,-10.24816 0,-15.37225c0,-3.33335 0.22333,-5.73127 -0.77263,-8.84811c-0.29545,-0.96076 -0.63615,-1.90655 -0.88635,-2.8823c-0.16308,-0.636 0.07957,-1.47666 -0.35104,-1.94343c-1.20842,-1.30988 -3.44268,-0.63843 -4.91618,-1.57676c-0.72052,-0.45883 -1.06102,-1.44676 -1.77269,-1.92153c-1.67338,-1.11635 -5.22805,-2.15948 -7.16711,-2.55459c-1.53729,-0.31324 -3.06526,0.68202 -4.6082,0.96077c-0.87428,0.15795 -1.78398,-0.15285 -2.65904,0c-1.84479,0.32223 -3.47477,1.58954 -5.31808,1.92153c-3.10232,0.55875 -7.20385,-1.05477 -10.14313,-0.15182c-1.39337,0.42804 -1.50888,4.01645 -1.31976,5.0823c0.17647,0.99451 0.59089,1.92154 0.88634,2.8823c0.05951,6.79567 -0.90711,14.4312 0,21.13685c0.13555,1.00202 0.73759,1.88249 0.88635,2.8823c0.69363,4.66183 0.02862,10.06798 0.02862,14.79623c0,3.20995 0.44225,6.82779 -0.02862,9.9924c-0.77823,5.23038 -1.72548,9.98168 -1.77269,15.37225c-1.44387,4.69528 -1.52727,11.66217 -0.87434,16.61557c0.30026,2.27792 1.4168,4.36343 1.76068,6.63409c0.03703,0.24449 0.02861,5.692 0.02861,6.14934c0,6.40164 0.00411,11.89973 -1.8864,18.05334c-0.18555,0.60397 -1.81596,5.96191 -1.98993,6.2678c-1.0294,1.81008 -3.34004,2.36939 -4.55569,4.03825c-0.63557,0.87252 -0.31287,2.38546 -1.08046,3.12276c-1.03629,0.9954 -2.58064,1.08883 -3.87095,1.63325c-4.10722,0 -7.52379,2.24838 -11.52251,2.8823c-1.16935,0.18538 -2.37547,-0.18116 -3.54539,0c-0.9249,0.14323 -1.73667,0.79951 -2.65904,0.96077c-1.75008,0.30596 -3.57128,-0.32723 -5.31808,0c-5.70779,1.06925 -13.0946,3.03904 -16.46473,-4.06977c-0.63405,-1.33745 -0.69291,-2.91273 -1.0856,-4.35494c-0.89013,-3.26918 -2.80824,-6.67452 -1.69239,-10.23761c0.26862,-0.85774 1.45271,-1.08475 1.77269,-1.92153c0.27704,-0.72448 -0.25065,-1.57283 -0.14006,-2.34787c0.14281,-1.00083 0.5909,-1.92153 0.88635,-2.8823c0,-4.28697 2.0282,-7.44268 2.65904,-11.52919c0.57567,-3.72914 -0.55778,-7.78039 0,-11.52919c0.14876,-0.99982 0.72978,-1.88389 0.88635,-2.8823c0.16462,-1.04975 -0.23979,-2.18186 0.06646,-3.19359c0.33211,-1.09715 1.43055,-1.78877 1.77269,-2.88229c0.25403,-0.81191 -0.19775,-1.72556 -0.06647,-2.571c0.31015,-1.99738 1.47542,-3.76492 1.77269,-5.7646c0.96941,-6.52099 0.85774,-13.08193 0.85774,-19.79133c0,-4.40062 0.24886,-8.61425 0.91496,-12.8747c0.50493,-3.22964 2.17251,-6.38344 2.65904,-9.60766c0.4302,-2.85093 0.43605,-5.80107 0.88635,-8.64689c0.31588,-1.99632 1.47542,-3.76492 1.77269,-5.76459c0.28591,-1.92323 0.5803,-3.84502 0.88635,-5.76459c0.44448,-2.78785 -0.41788,-5.83841 0,-8.64689c0.14876,-0.99981 0.72724,-1.88435 0.88635,-2.8823c0.47719,-2.99301 -0.0267,-6.55885 0,-9.60765c1.34186,-4.36357 1.04219,-8.65507 2.7991,-13.02439c0.80045,-1.99067 2.40543,-6.16022 4.7446,-7.0645c2.96069,-1.14455 5.12948,-0.04224 7.75312,0.90119c3.33417,1.19893 5.13779,2.92082 7.79489,5.22498c5.98919,5.19364 10.48434,11.37667 10.56084,20.11205c0,0 0,2.40192 -2.21587,2.40192c-2.21587,0 -2.21587,-2.40192 -2.21587,-2.40192c0.08277,-7.22473 -4.08171,-12.18515 -8.93878,-16.39705c-2.685,-2.32836 -7.04893,-6.60786 -11.04239,-5.40301c-1.52221,0.45925 -1.73464,2.88542 -2.34616,4.46469c-1.56301,4.03647 -1.27576,7.91271 -2.51898,11.95552c0.03538,3.08807 0.45319,6.56179 0,9.60766c-0.14876,0.99981 -0.72725,1.88435 -0.88635,2.88229c-0.44448,2.78785 0.41788,5.83841 0,8.6469c-0.57871,3.88944 -2.08167,7.64538 -2.65904,11.52919c-0.42448,2.85536 -0.44075,5.79684 -0.88634,8.64689c-0.50493,3.22964 -2.17251,6.38344 -2.65904,9.60765c-0.60927,4.03761 -0.85774,7.94327 -0.85774,12.10522c0,6.94157 0.15284,13.8125 -0.91496,20.56082c-0.97685,6.17355 -3.47102,11.26802 -4.43174,17.29378c-0.59343,3.72214 0.57371,7.7864 0,11.52919c-0.63287,4.12869 -2.65904,7.25472 -2.65904,11.52919c-0.62203,2.02276 -0.31425,4.3115 -1.02641,6.29903c-0.30255,0.84437 -1.39561,1.11317 -1.77269,1.92153c-0.33705,0.72254 0.90968,3.98471 0.94131,4.08587c0.93091,2.97695 1.02679,5.44935 3.01009,7.70803c0.38322,0.43643 0.53635,1.18086 1.05381,1.40086c0.56444,0.23997 1.2052,-0.15806 1.81107,-0.18284c1.65323,-0.06762 3.3329,0.33641 4.96313,0.03101c0.92065,-0.17246 1.73667,-0.79951 2.65904,-0.96077c1.75008,-0.30596 3.57128,0.32723 5.31808,0c0.92065,-0.17246 1.73414,-0.81754 2.65904,-0.96076c1.16992,-0.18116 2.37487,0.17657 3.54538,0c3.98598,-0.60127 7.40224,-2.8823 11.52251,-2.8823c0.48237,-0.09609 1.14276,0.12859 1.44713,-0.28827c0.52411,-0.71783 0.16077,-1.93038 0.69224,-2.64183c1.14668,-1.53501 3.4009,-1.93472 4.30777,-3.64787c0.84557,-1.59736 1.01772,-3.51442 1.55547,-5.26139c1.73901,-5.6495 1.65898,-10.63978 1.65898,-16.53423c0,-1.79332 0.30562,-3.61185 0.02861,-5.37985c-0.36485,-2.3286 -1.47659,-4.47842 -1.7847,-6.81663c-0.70113,-5.32073 -0.64847,-12.9419 0.89836,-17.972c-0.06155,-5.37238 0.9447,-10.17889 1.77269,-15.37225c0.45972,-2.88347 -0.02862,-6.28463 -0.02862,-9.22291c0,-4.4323 0.72281,-9.67264 0.02862,-14.02675c-0.15911,-0.99795 -0.75727,-1.87927 -0.88635,-2.88229c-0.86516,-6.72316 -0.07786,-14.34025 0,-21.13685c-1.33322,-4.33549 -1.71891,-10.83148 3.11198,-13.17225c3.07226,-1.48864 7.84341,0.44416 11.12919,-0.15182c3.5924,-0.6516 7.0285,-2.30729 10.63616,-2.88229c3.4645,-0.55219 9.1343,1.28575 12.15605,3.21001c0.72052,0.45883 1.06102,1.44675 1.77269,1.92153c2.19175,1.46218 3.49821,-0.142 5.71999,2.26632c0.4608,0.49949 1.98718,5.66021 2.308,6.70345c2.33448,7.82715 1.00005,17.51443 1.00005,25.73946c0,4.52979 -0.62149,9.64477 -0.0166,14.11802c0.43893,3.24596 1.28657,6.32995 1.76068,9.51639c0.75781,5.09315 -0.91399,9.88565 -0.85773,14.79623c0,0.45475 0.00841,5.90778 -0.02862,6.14933c-0.7541,4.91957 -3.80372,9.49131 -4.43174,14.41149c-0.16902,1.32415 0.26927,2.71354 -0.03066,4.01017c-0.34305,1.48299 -1.35778,2.69219 -1.85105,4.12455c-1.0807,3.13814 -1.22075,7.10386 -2.85234,10.03708c-1.22598,2.20403 -3.94579,4.36796 -5.63615,6.20024c-0.3883,0.4209 -3.69175,4.02689 -3.94729,4.18785c-1.79908,1.1332 -4.07563,0.91767 -6.12809,1.28847c-1.88939,0.34133 -3.75766,0.97207 -5.67302,0.99178c-2.65904,0 -5.31808,0 -7.97713,0h-1.77269c0,0 -2.21587,0 -2.21587,-2.40192z" fill="#9966ff" stroke="none" stroke-width="0.5"/><path d="M-1.51646,213.5v-222h213v222z" fill="#252525" stroke="#848484" stroke-width="2.5"/><path d="M721.37629,89.98607c-0.05212,0.02606 -0.10364,0.0503 -0.15455,0.07279c0.20504,1.10869 0.37649,2.23445 0.51778,3.38569c0.43724,3.56266 -0.53291,7.36311 -0.01355,10.905c0.53998,3.68247 1.49162,7.35216 2.01355,11.095c0.49736,3.56662 -0.53431,7.35361 -0.01355,10.905c0.49145,3.35156 1.59461,6.67949 2.01355,10.095c0.4015,3.27336 0.01873,6.98847 0.01873,10.30546c0,6 0,12 0,18c0,3.39963 -0.52344,7.25001 -0.03228,10.59954c0.44273,3.01928 1.51371,5.98486 2,9c0.45029,2.79193 0.20635,6.56397 0.03228,9.40046c-0.03765,0.61359 -0.55713,1.26392 -0.29581,1.82036c0.57754,1.22977 3.10226,0.68898 3.79581,0.67964c3.87651,-0.05215 7.18895,1.02649 11,1c4.66653,0 9.33353,-0.01982 14,0c0.54326,0.00231 4.4544,0.37058 5.48252,-0.48677c3.93688,-3.28294 1.59757,-9.68555 1.04977,-13.61278c-0.45507,-3.26238 -0.03228,-7.08168 -0.03228,-10.40046c0,-7.66667 0,-15.33333 0,-23c0,-22.66667 0,-45.33333 0,-68c0,-2.68095 0.4882,-5.96145 0.03228,-8.59954c-0.17951,-1.0387 -0.83216,-1.95936 -1,-3c-0.3421,-2.12115 0.60006,-4.34115 0.15802,-6.44375c-0.17604,-0.83733 -2.92511,-1.46684 -3.09076,-1.48899c-2.70407,-0.36162 -6.5144,-0.45595 -9.19909,0c-7.08446,1.20319 -13.88807,4.83251 -21,6c-1.97358,0.32398 -4.02921,-0.34059 -6,0c-2.12949,0.36802 -4.2395,1.01177 -6.40046,1.03228c-0.51274,-0.1573 -1.07583,-0.74362 -1.53822,-0.47189c-0.3944,0.23177 0.02899,0.91548 0.00594,1.37235c-0.02771,0.54944 -0.40626,1.15189 -0.15802,1.64284c0.42543,0.84137 1.65127,1.12406 2,2c0.39865,1.00134 -0.25517,2.20891 0.08303,3.23225c0.33618,1.01724 1.36986,1.66988 1.85306,2.62608c0.75341,1.49093 1.30626,3.18495 2.52198,4.33061l1.4683,2.64973c0,0 1.11803,2.23607 -1.11803,3.3541zM713.76276,81.40444c-0.61864,-0.9893 -1.52666,-1.82726 -1.89723,-2.92998c-0.29402,-0.87492 0.42735,-1.91138 0.08303,-2.76775c-0.35171,-0.87475 -1.69694,-1.10723 -2,-2c-0.75464,-2.22304 -0.11635,-7.43606 1.84792,-8.98481c1.17441,-0.92598 2.97452,-0.3146 4.46178,-0.47189c1.89404,0.02352 3.72953,-0.66612 5.59954,-0.96772c1.97448,-0.31845 4.02823,0.33487 6,0c3.4614,-0.58787 7.3035,-1.96103 10.70149,-2.93258c4.59177,-1.31287 8.89967,-3.07876 13.69897,-3.0997c4.54862,-0.01984 12.12459,-1.03092 14.3097,4.54329c1.28842,3.28676 -0.34727,4.63245 0.15802,7.55625c0.17951,1.0387 0.83216,1.95936 1,3c0.47242,2.92917 0.03228,6.42653 0.03228,9.40046c0,22.66667 0,45.33333 0,68c0,7.66667 0,15.33333 0,23c0,3.02995 -0.46917,6.62012 -0.03228,9.59954c0.15293,1.04294 0.83216,1.95936 1,3c0.78027,4.83791 0.29951,12.05381 -3.95023,15.38722c-2.48032,1.94551 -5.69306,1.50238 -8.51748,1.51323c-4.6665,0.01793 -9.33345,0 -14,0c-2.45868,-0.01393 -4.8665,-0.7077 -7.30546,-1.01873c-4.47946,-0.57126 -8.70964,1.63522 -11.89873,-3.30162c-0.75786,-1.17321 -0.23832,-2.78413 -0.29581,-4.17964c-0.11293,-2.74089 0.49827,-5.90317 0.03228,-8.59954c-0.51997,-3.00874 -1.57897,-5.98162 -2,-9c-0.04206,-0.30155 -0.03228,-7.87132 -0.03228,-8.40046c0,-7 0,-14 0,-21c0,-3.10267 0.40939,-6.63122 0.01873,-9.69454c-0.42754,-3.35252 -1.52732,-6.61352 -1.98645,-9.905c-0.50624,-3.62922 0.5163,-7.48022 -0.01355,-11.095c-0.53902,-3.67735 -1.48134,-7.28387 -1.98645,-10.905c-0.50763,-3.6392 0.44993,-7.45936 -0.01355,-11.095c-0.50674,-3.9749 -1.32711,-7.67859 -2.83992,-11.37698c0,0 -0.23154,-0.57884 -0.17431,-1.27404z" fill="#9966ff" stroke="none" stroke-width="0.5"/><text transform="translate(738.39862,119.75877) rotate(82.19581) scale(0.5,0.5)" font-size="40" xml:space="preserve" fill="#9966ff" fill-rule="nonzero" stroke="none" stroke-width="1" stroke-linecap="butt" stroke-linejoin="miter" stroke-miterlimit="10" stroke-dasharray="" stroke-dashoffset="0" font-family="Sans Serif" font-weight="normal" text-anchor="start" style="mix-blend-mode: normal"><tspan x="0" dy="0">tv</tspan></text></g></g></svg>