<svg version="1.1" xmlns="http://www.w3.org/2000/svg" xmlns:xlink="http://www.w3.org/1999/xlink" width="62.51097" height="217.62958" viewBox="0,0,62.51097,217.62958"><g transform="translate(-600.00646,-109.71513)"><g data-paper-data="{&quot;isPaintingLayer&quot;:true}" fill-rule="nonzero" stroke-linecap="butt" stroke-linejoin="miter" stroke-miterlimit="10" stroke-dasharray="" stroke-dashoffset="0" style="mix-blend-mode: normal"><path d="M604.86303,300.65084l1.97158,-174.62273l53.89033,-14.03766l-3.94316,212.64139z" fill="#777777" stroke="#474747" stroke-width="3.5"/><path d="M636.84287,209.83006l1.57726,-83.64106l15.77263,-4.67922l-0.39431,89.49008z" fill="#777777" stroke="#646464" stroke-width="3.5"/><path d="M614.18881,208.98104l0.39432,-76.62222l15.77263,-3.50942l-0.78863,80.71655z" fill="#777777" stroke="#646464" stroke-width="3.5"/><path d="M630.00934,220.26397l-1.64567,78.94897l-15.67288,-6.72342l1.54194,-74.2507z" data-paper-data="{&quot;index&quot;:null}" fill="#777777" stroke="#646464" stroke-width="3.5"/><path d="M652.30729,221.75455l-1.64567,87.72251l-16.06719,-7.89323l1.54194,-80.68462z" data-paper-data="{&quot;index&quot;:null}" fill="#777777" stroke="#646464" stroke-width="3.5"/><path d="M600.11835,214.44391c0.73809,-4.42793 1.23098,-9.37542 5.65891,-8.63733c1.08459,0.18078 3.51272,2.49135 6.00801,3.42435c2.3054,0.862 4.70523,0.32538 5.28564,1.0669c1.35611,1.73256 0.08844,7.48439 -2.07683,7.07249c-4.40994,-0.83892 -3.76674,7.16559 -8.19467,6.4275c-4.42793,-0.73809 -7.41915,-4.92598 -6.68106,-9.35391z" fill="#464646" stroke="none" stroke-width="0"/></g></g></svg>