<svg version="1.1" xmlns="http://www.w3.org/2000/svg" xmlns:xlink="http://www.w3.org/1999/xlink" width="71.0484" height="53.31994" viewBox="0,0,71.0484,53.31994"><g transform="translate(-507.65135,-224)"><g data-paper-data="{&quot;isPaintingLayer&quot;:true}" fill-rule="nonzero" stroke-linecap="butt" stroke-linejoin="miter" stroke-miterlimit="10" stroke-dasharray="" stroke-dashoffset="0" style="mix-blend-mode: normal"><path d="M571.48353,243.5c0,8.28427 -12.98374,15 -29,15c-16.01626,0 -29,-6.71573 -29,-15c0,-8.28427 12.98374,-15 29,-15c16.01626,0 29,6.71573 29,15z" fill="#252525" stroke="#848484" stroke-width="2.5"/><path d="M569.64987,245.94769c0.55231,-0.83364 1.38595,-0.28132 1.38595,-0.28132l0.59958,0.39724c0.61844,0.42202 1.23689,0.84404 1.85533,1.26607c1.60149,2.92255 4.26221,5.87938 4.97131,9.23589c0.5229,2.47515 0.02477,5.68533 -0.00742,8.21824c-0.04154,3.26762 0.10274,6.00416 -3.12655,7.84489c-2.06982,1.17982 -4.08364,0.8713 -6.35089,0.8713c-3.33333,0 -6.66667,0 -10,0c-13.77284,0 -28.50104,1.44666 -42.1071,-0.72306c-2.47077,-0.3956 -6.54155,0.27193 -8.27761,-1.94761c-2.36791,-3.02735 0.38442,-3.55974 1.16922,-6.17429c1.53394,-5.11033 2.41857,-10.02444 2.85731,-15.35164c0.17143,-2.08143 0.87916,-3.71812 0.86452,-5.8034c0,0 0,-1 1,-1c1,0 1,1 1,1c-0.01292,2.1613 -0.70466,3.83469 -0.87095,5.96356c-0.25712,3.29179 -0.33431,6.83025 -1.14333,10.04435c-0.32472,1.29006 -1.16692,2.41287 -1.48344,3.70497c-0.33833,1.38117 -0.52341,2.86881 -1.29063,4.06609c-0.29006,0.45265 -0.95676,0.66908 -1.08823,1.19037c-0.09716,0.38526 0.24107,0.78822 0.51719,1.07392c1.43817,1.48813 5.14749,0.95468 7.0609,1.25864c13.49712,2.15235 28.1287,0.6981 41.79215,0.6981c3.33333,0 6.66667,0 10,0c1.86438,0 3.66985,0.34292 5.36431,-0.61103c2.49964,-1.40725 2.08169,-3.63527 2.11329,-6.13053c0.03021,-2.38544 0.53657,-5.45253 0.05004,-7.78143c-0.62846,-3.00824 -3.1321,-5.64569 -4.49483,-8.30293c-0.49307,-0.3144 -0.98614,-0.62879 -1.47922,-0.94319l-0.59958,-0.39724c0,0 -0.83364,-0.55231 -0.28132,-1.38595z" fill="#848484" stroke="none" stroke-width="0.5"/><text transform="translate(521.48353,270.5) scale(0.41333,0.41333)" font-size="40" xml:space="preserve" fill="#ffffff" fill-rule="nonzero" stroke="none" stroke-width="1" stroke-linecap="butt" stroke-linejoin="miter" stroke-miterlimit="10" stroke-dasharray="" stroke-dashoffset="0" font-family="Handwriting" font-weight="normal" text-anchor="start" style="mix-blend-mode: normal"><tspan x="0" dy="0">Coffee</tspan></text><path d="M518.16668,249c0,-1.38071 1.11929,-2.5 2.5,-2.5c1.38071,0 2.5,1.11929 2.5,2.5c0,1.38071 -1.11929,2.5 -2.5,2.5c-1.38071,0 -2.5,-1.11929 -2.5,-2.5z" fill="#5a2d24" stroke="none" stroke-width="0.5"/><path d="M516.16667,247c0,-1.38071 1.11929,-2.5 2.5,-2.5c1.38071,0 2.5,1.11929 2.5,2.5c0,1.38071 -1.11929,2.5 -2.5,2.5c-1.38071,0 -2.5,-1.11929 -2.5,-2.5z" fill="#5a2d24" stroke="none" stroke-width="0.5"/><path d="M566.701,242.5469l1.66667,2.33333c0,0 1.4531,2.03433 -0.58124,3.48743c-0.76673,0.54767 -1.4509,0.59994 -2.00582,0.45245c0.03456,0.16565 0.05273,0.33731 0.05273,0.51322c0,0.49221 -0.14225,0.9512 -0.38787,1.3381c0.42477,0.6373 0.82714,1.7409 -0.21398,2.95554c-1.62698,1.89814 -3.52512,0.27116 -3.52512,0.27116c-0.77778,-0.66667 -1.55556,-1.33333 -2.33333,-2l-0.09893,-0.25286c-0.36201,0.46868 -0.95837,0.85472 -1.94076,0.85472c-1.97128,0 -2.38818,-1.55438 -2.47635,-2.21184c-0.22662,-0.37621 -0.35698,-0.81696 -0.35698,-1.28816c0,-0.45456 0.12131,-0.88078 0.33333,-1.24806v-0.41861c0,0 0,-2.5 2.5,-2.5c0.24582,0 0.46747,0.02417 0.66732,0.06776c-0.10806,-0.27956 -0.16732,-0.5834 -0.16732,-0.90109c0,-1.22997 0.88823,-2.25248 2.05823,-2.46109c-0.03813,-0.17357 -0.05823,-0.35389 -0.05823,-0.53891c0,-1.38071 1.11929,-2.5 2.5,-2.5c1.38071,0 2.5,1.11929 2.5,2.5c0,0.15201 -0.01357,0.30086 -0.03956,0.44539c1.1655,0.0631 1.90722,1.10152 1.90722,1.10152zM562.63233,245.4531c0,0 -0.05497,-0.07695 -0.12855,-0.21161c-0.43104,0.75195 -1.24158,1.25852 -2.17045,1.25852c-0.23412,0 -0.46073,-0.03218 -0.67564,-0.09237c0.17564,0.50004 0.17564,0.9257 0.17564,0.9257v0.06758c0.31081,-0.1449 0.69407,-0.23424 1.16667,-0.23424c0.34032,0 0.63431,0.04633 0.88828,0.12637c0.40803,-0.28951 0.90667,-0.4597 1.44505,-0.4597c0.10063,0 0.19987,0.00595 0.29739,0.0175z" fill="#5a2d24" stroke="none" stroke-width="0.5"/><path d="M547.75869,254.39366c0.60634,2.42536 -1.81902,3.0317 -1.81902,3.0317l-1.25287,0.31179c-1.55556,0.44444 -3.11111,0.88889 -4.66667,1.33333c0,0 -1.81728,0.51922 -2.74311,-0.92533c-0.01493,-0.01443 -0.02986,-0.02911 -0.0448,-0.04404c-1.76777,-1.76777 0,-3.53553 0,-3.53553l1.86075,-1.73617c3.07234,-1.7443 6.26044,-3.00809 9.38843,-4.69724c0,0 2.20118,-1.18525 3.38643,1.01593c1.18525,2.20118 -1.01593,3.38643 -1.01593,3.38643c-1.05086,0.56433 -2.11212,1.08061 -3.17373,1.58454c0.02952,0.08691 0.05644,0.17837 0.0805,0.2746z" fill="#5a2d24" stroke="none" stroke-width="0.5"/><path d="M555.34435,238.85382c1.04868,0.53112 2.05629,1.15219 3.00456,1.84744c0.3021,-0.12954 0.63487,-0.20127 0.9844,-0.20127l0.00003,0.00001c0.2834,0 0.55578,0.04715 0.80973,0.13405c0.30411,0.1914 0.60638,0.37435 0.90575,0.5474c0.48304,0.45583 0.78452,1.10198 0.78452,1.81856c0,0.37699 -0.08344,0.73448 -0.23287,1.05503c0.10728,0.14278 0.20869,0.30644 0.30227,0.4936c0.3473,0.6946 0.37095,1.28131 0.23851,1.76015c0.01675,0.11688 0.02542,0.23637 0.02542,0.35789c0,1.36231 -1.08966,2.47013 -2.44495,2.49941c-0.19757,0.24633 -0.47039,0.48012 -0.84095,0.68598c-0.13048,0.07249 -0.25749,0.13286 -0.38099,0.1823c-0.01838,1.36488 -1.13053,2.46565 -2.49977,2.46565c-0.47989,0 -0.9282,-0.13521 -1.30891,-0.36962c-0.65878,0.36961 -1.35777,0.36961 -1.35777,0.36961l-0.93967,-0.07464c-1.47148,-0.3756 -2.90157,-0.90343 -4.30048,-1.50802c-0.21429,0.10557 -0.42822,0.21184 -0.64181,0.31873c0,0 -0.02153,0.01077 -0.06143,0.02807c0.07154,0.23264 0.11005,0.47975 0.11005,0.73585c0,1.38071 -1.11929,2.5 -2.5,2.5c-1.37833,0 -2.49613,-1.12256 -2.49999,-2.49998l0.00001,0.00713c-0.00001,-0.00237 -0.00001,-0.00475 -0.00001,-0.00713v-0.00002c0,-0.05799 0.00197,-0.11551 0.00586,-0.17252c-0.05701,0.00389 -0.11454,0.00586 -0.17253,0.00586c-1.12814,0 -2.08175,-0.74724 -2.39289,-1.77378c-0.03124,-0.00947 -0.06223,-0.01954 -0.09294,-0.03018c-0.00959,0.16088 -0.03342,0.33168 -0.0737,0.51295c-0.17566,0.79048 -0.55047,1.26802 -0.97698,1.55242c-0.20305,1.17676 -1.22873,2.07193 -2.46349,2.07193c-1.34169,0 -2.43652,-1.05691 -2.49734,-2.38357l-0.10289,-0.02289c-0.07721,-0.0214 -0.15386,-0.0429 -0.22997,-0.0645c-0.04727,0.23583 -0.13308,0.48771 -0.26705,0.75565l-0.00001,0.00001c-1.11803,2.23607 -3.3541,1.11803 -3.3541,1.11803l0.20261,-0.08181c-1.91035,-0.19289 -3.83118,-0.32327 -5.75124,-0.32093c0,0 -2.5,0 -2.5,-2.5c0,-1.61024 1.03715,-2.18333 1.7754,-2.3873c-0.95895,-0.87822 -1.77501,-1.93635 -2.70985,-2.84493c0,0 -0.38741,-0.38741 -0.61815,-0.98088c-0.05912,-0.04761 -0.11728,-0.09621 -0.17436,-0.14593c2.62088,-1.40572 2.33604,-4.6348 4.28121,-6.43077c0.37168,-0.34317 0.80947,-0.7979 1.29578,-1.34339c1.62161,0.32745 3.23244,0.69828 4.83487,1.10332c-0.01203,-0.09946 -0.01823,-0.20073 -0.01823,-0.30344c0,-0.47916 0.1348,-0.92684 0.36855,-1.30717c-0.62721,-0.45422 -1.03522,-1.19254 -1.03522,-2.02616c0,-0.36078 0.07642,-0.70372 0.21397,-1.01349c-0.00293,-0.01487 -0.00574,-0.0298 -0.0084,-0.04476c-0.17357,0.03813 -0.35389,0.05823 -0.53891,0.05823c-0.1939,0 -0.38264,-0.02207 -0.56384,-0.06384c0.04177,0.18121 0.06384,0.36995 0.06384,0.56384c0,1.38071 -1.11929,2.5 -2.5,2.5c-0.11244,0 -0.22316,-0.00742 -0.33167,-0.02181c2.07688,-2.4235 4.84864,-6.20992 7.16732,-10.00159c0.23648,0.01643 0.47294,0.03292 0.70925,0.04927c0.22153,-1.15399 1.2365,-2.02587 2.4551,-2.02587c1.3091,0 2.38319,1.0062 2.49109,2.2874c0.10876,0.00246 0.21725,0.00459 0.32544,0.00636c-0.08048,0.07679 -0.16494,0.14523 -0.25156,0.20623c0.17009,0.11979 0.33186,0.26828 0.47156,0.45234c0.45783,-0.58003 1.16717,-0.95233 1.96347,-0.95233c1.22997,0 2.25248,0.88822 2.46109,2.05823c0.17357,-0.03813 0.35389,-0.05823 0.53891,-0.05823c0.35832,0 0.69903,0.07538 1.00714,0.21116c0.35329,0.30742 0.72289,0.61815 1.08617,0.92156c0.03942,0.06024 0.07632,0.12228 0.11053,0.18597c0.20029,0.11094 0.4457,0.27399 0.67089,0.49849c-0.01316,-0.02119 -0.02601,-0.04259 -0.03855,-0.0642c0.63377,0.53148 1.19234,1.01281 1.53359,1.37723c1.28154,1.36854 4.29606,4.29919 7.61036,6.8961c-0.28911,0.37452 -0.6821,0.66475 -1.1358,0.82752zM545,239.5c0,0.59188 -0.20568,1.13571 -0.54947,1.56393c3.02027,1.32709 5.92105,2.08833 9.09424,2.46736c-0.3901,-0.20865 -0.7896,-0.39825 -1.19626,-0.56677l-1.4262,-0.16521c0,0 -1.80473,-0.30079 -2.06904,-1.93164c-0.35304,0.19073 -0.75717,0.299 -1.1866,0.299c-1.38071,0 -2.5,-1.11929 -2.5,-2.5c0,-0.13238 0.01029,-0.26235 0.03011,-0.38917c-0.18872,-0.02485 -0.37567,-0.05076 -0.56111,-0.07779c0.23115,0.37885 0.36433,0.82401 0.36433,1.30028zM534.75863,245.90624c-0.49102,0.23609 -1.40982,0.52843 -2.29483,0.00519c0.05008,0.03782 0.0996,0.07867 0.14842,0.12274c0.05014,0.03727 0.09943,0.07714 0.1475,0.11978c0.69156,0.29382 1.41281,0.54907 2.17386,0.7525l2.9421,0.65307c0,0 0.11567,0.02571 0.29106,0.09111c0.00157,-0.24967 0.03973,-0.49065 0.1094,-0.71786c-0.38331,-0.17913 -0.71366,-0.45265 -0.96117,-0.79066c-0.85116,-0.10702 -1.70333,-0.18287 -2.55634,-0.23587zM535,233.5c0,-1.22997 0.88823,-2.25248 2.05823,-2.46109c-0.00284,-0.01293 -0.00558,-0.0259 -0.00822,-0.03891h-2.54983c0.31384,0.41783 0.49982,0.9372 0.49982,1.5c0,0.36078 -0.07642,0.70372 -0.21397,1.01349c0.03104,0.15737 0.04731,0.32005 0.04731,0.48653c0,0.47916 -0.1348,0.92684 -0.36855,1.30717c0.55983,0.40542 0.94502,1.03718 1.02133,1.76101l0.54082,-0.19985c-0.01775,-0.12021 -0.02695,-0.24321 -0.02695,-0.36835c0,-0.31262 0.05738,-0.61183 0.16218,-0.88769c-0.69856,-0.44335 -1.16218,-1.22369 -1.16218,-2.11231zM551.5,237c-0.1408,0 -0.27887,-0.01164 -0.41332,-0.03401c-0.0951,0.39229 -0.24302,0.70355 -0.42289,0.95002c0.58432,-0.13137 1.08051,-0.04867 1.08051,-0.04867l0.76845,0.14972c-0.23666,-0.30955 -0.40264,-0.67601 -0.47383,-1.07529c-0.17357,0.03813 -0.35389,0.05823 -0.53891,0.05823zM543.05956,246.94044c0.21622,0.06553 0.42004,0.15957 0.60711,0.27774c0.04442,-0.02806 0.08978,-0.05476 0.13603,-0.08003c0.03232,-0.25161 0.10872,-0.52274 0.2421,-0.81341c-0.41298,0.16658 -0.83597,0.18932 -1.17163,0.16554c0.07607,0.14239 0.13877,0.293 0.18639,0.45016zM547.8278,230.44652l0.05704,-0.03824c-0.05384,-0.04562 -0.10573,-0.09348 -0.15552,-0.14343c0.03517,0.058 0.06816,0.11854 0.09848,0.18167z" fill="#5a2d24" stroke="none" stroke-width="0.5"/><path d="M563.5,233c1.38071,0 2.5,1.11929 2.5,2.5c0,1.38071 -1.11929,2.5 -2.5,2.5c-0.81791,0 -1.54408,-0.39278 -2.00018,-1c-1.51924,-0.00007 -2.11518,-0.92343 -2.34894,-1.64781c-0.48048,-0.16016 -0.96097,-0.32032 -1.44145,-0.48048c0,0 -2.37171,-0.79057 -1.58114,-3.16228c0.79057,-2.37171 3.16228,-1.58114 3.16228,-1.58114c1,0.33333 2,0.66667 3,1l0.9554,1.88446c0.08353,-0.00843 0.16827,-0.01275 0.25403,-0.01275z" fill="#5a2d24" stroke="none" stroke-width="0.5"/></g></g></svg>