<svg version="1.1" xmlns="http://www.w3.org/2000/svg" xmlns:xlink="http://www.w3.org/1999/xlink" width="20.48327" height="225.9968" viewBox="0,0,20.48327,225.9968"><g transform="translate(-645.01095,-106.881)"><g data-paper-data="{&quot;isPaintingLayer&quot;:true}" fill-rule="nonzero" stroke-linecap="butt" stroke-linejoin="miter" stroke-miterlimit="10" stroke-dasharray="" stroke-dashoffset="0" style="mix-blend-mode: normal"><path d="M652.36303,300.65084l0.40101,-174.62273l10.9609,-14.03766l-0.80201,212.64139z" fill="#777777" stroke="#474747" stroke-width="3.5"/><path d="M658.8675,209.83006l0.3208,-83.64106l3.20804,-4.67922l-0.0802,89.49008z" fill="#777777" stroke="#646464" stroke-width="3.5"/><path d="M654.25983,208.98104l0.0802,-76.62222l3.20804,-3.50942l-0.1604,80.71655z" fill="#777777" stroke="#646464" stroke-width="3.5"/><path d="M657.4776,220.26397l-0.33471,78.94897l-3.18774,-6.72342l0.31362,-74.2507z" data-paper-data="{&quot;index&quot;:null}" fill="#777777" stroke="#646464" stroke-width="3.5"/><path d="M662.01285,221.75455l-0.33471,87.72251l-3.26795,-7.89323l0.31362,-80.68462z" data-paper-data="{&quot;index&quot;:null}" fill="#777777" stroke="#646464" stroke-width="3.5"/><path d="M645.0879,214.48206c0.50757,-3.93901 0.84652,-8.34021 3.89152,-7.68362c0.74585,0.16082 2.41563,2.21626 4.13159,3.04624c1.58538,0.76682 3.23569,0.28945 3.63482,0.9491c0.93257,1.54126 0.06081,6.65798 -1.4282,6.29156c-3.03263,-0.74629 -2.59031,6.37438 -5.63531,5.71779c-3.045,-0.65659 -5.102,-4.38206 -4.59442,-8.32107z" fill="#464646" stroke="none" stroke-width="0"/></g></g></svg>