<svg version="1.1" xmlns="http://www.w3.org/2000/svg" xmlns:xlink="http://www.w3.org/1999/xlink" width="172.65103" height="73.11894" viewBox="0,0,172.65103,73.11894"><g transform="translate(-219.80565,-143.44053)"><g data-paper-data="{&quot;isPaintingLayer&quot;:true}" fill-rule="nonzero" stroke-linecap="butt" stroke-linejoin="miter" stroke-miterlimit="10" stroke-dasharray="" stroke-dashoffset="0" style="mix-blend-mode: normal"><path d="M319.00441,210.38232v-59.65764h66.66646v59.65764z" fill-opacity="0.47451" fill="#919191" stroke="#ffffff" stroke-width="1.5"/><path d="M338.85628,165.01069c0,0.93395 -0.93395,0.93395 -0.93395,0.93395l-0.18683,-0.0668c-1.50923,0.57903 -2.93871,1.93245 -4.23388,2.90423c0,0 -0.69814,0.5236 -1.25086,-0.1163c0.45804,2.25362 0.73246,4.54379 0.73496,6.84075v1.06737c0,0 0,0.93395 -0.93395,0.93395c-0.93395,0 -0.93395,-0.93395 -0.93395,-0.93395v-1.06737c0.00418,-3.58187 -0.71147,-7.16338 -1.73957,-10.58326c0,0 -0.2399,-0.79968 0.49,-1.11369c0.06082,-0.30964 0.27784,-0.52666 0.27784,-0.52666c2.63791,-2.63589 5.73535,-5.0771 9.24467,-6.37944l1.16559,-0.27391c0,0 0.90951,-0.21229 1.1218,0.6972c0.21229,0.90951 -0.6972,1.1218 -0.6972,1.1218l-1.05406,0.24421c-3.20113,1.16849 -6.064,3.51303 -8.46,5.91094c0,0 -0.07209,0.07209 -0.19246,0.14481c0.28691,0.98214 0.54756,1.97505 0.77408,2.97606c0.11151,-0.27122 0.33234,-0.43684 0.33234,-0.43684c1.46819,-1.10068 2.96833,-2.44664 4.66091,-3.14422l0.88054,-0.0668c0,0 0.93395,0 0.93395,0.93395z" fill="#ffffff" stroke="none" stroke-width="0.5"/><path d="M352.18906,174.21545c-0.13209,0.92456 -1.05665,0.79249 -1.05665,0.79249l-1.39166,-0.21099c-1.69123,-0.83262 -3.78642,-1.87257 -4.82667,-3.50704c-0.83595,0.21772 -1.5343,0.3809 -1.94285,0.49238c0,0 -0.90104,0.24574 -1.14678,-0.6553c-0.24574,-0.90104 0.6553,-1.14678 0.6553,-1.14678c0.60074,-0.16377 1.20363,-0.31762 1.80573,-0.4727c-0.02747,-0.27346 -0.02801,-0.55962 0.00179,-0.85939c0.2768,-2.78425 3.97836,-5.87804 6.6564,-3.6667c3.35029,2.76644 -0.49367,4.63107 -4.00437,5.73289c0.94009,1.00213 2.40746,1.81486 3.35838,2.29971l1.09888,0.1448c0,0 0.92456,0.13209 0.79249,1.05665zM346.04938,169.03782c0.97284,-0.27377 1.93606,-0.57975 2.87706,-0.96603c0.05594,-0.02296 1.43989,-0.61981 1.4053,-1.05705c-0.12324,-1.55803 -2.68703,-0.55151 -3.25583,-0.05554c-0.81915,0.71426 -1.09645,1.41574 -1.02653,2.07862z" fill="#ffffff" stroke="none" stroke-width="0.5"/><path d="M362.16061,173.54968c0,0.93395 -0.93395,0.93395 -0.93395,0.93395l-0.70266,-0.0668c-1.01699,-0.4068 -2.72674,-1.59103 -4.12036,-3.05581c-0.09853,0.02359 -0.19456,0.04695 -0.28735,0.07048c0,0 -0.90607,0.22651 -1.13259,-0.67956c-0.10503,-0.42008 0.03341,-0.69409 0.21213,-0.86718c-1.19898,-1.7561 -1.6218,-3.6598 0.08201,-5.04597c2.69774,-2.19481 6.32312,2.9102 4.16382,5.23119c-0.2916,0.31343 -0.67652,0.54437 -1.09925,0.72446c1.057,0.91271 2.22794,1.62912 2.8753,1.88807l0.00893,-0.0668c0,0 0.93395,0 0.93395,0.93395zM356.95933,169.35999c0.62072,-0.16398 1.18458,-0.44719 1.20318,-1.06132c0.01652,-0.54545 -1.16405,-2.68479 -1.66079,-2.04874c-0.72404,0.92712 -0.35028,2.05443 0.45761,3.11006z" fill="#ffffff" stroke="none" stroke-width="0.5"/><path d="M370.63077,156.97362c0.92125,0.15354 0.76771,1.07478 0.76771,1.07478l-0.18233,1.09196c-0.85109,3.81842 -0.86976,7.67079 -0.87234,11.56298c-0.00105,1.58783 0.27218,3.51951 -1.81645,3.9397c-4.00354,0.80544 -5.03255,-6.36489 -1.9549,-7.83108c0,0 0.86716,-0.34686 1.21401,0.52029c0.34686,0.86716 -0.52029,1.21401 -0.52029,1.21401c-2.43298,0.56523 0.92543,5.02322 1.18322,4.13785c1.22192,-4.19685 -0.04939,-9.46581 0.93313,-13.90003l0.17345,-1.04278c0,0 0.15354,-0.92125 1.07478,-0.76771z" fill="#ffffff" stroke="none" stroke-width="0.5"/><path d="M332.59602,195.56451c0.10295,0.00345 0.92338,0.05837 0.92338,0.93372c0,0.93395 -0.93395,0.93395 -0.93395,0.93395l-0.5458,-0.07551c-2.27732,-0.97613 -5.05439,-1.85361 -5.87164,-4.53242c-1.77496,-5.81803 9.09853,-8.51244 12.7685,-6.37744c0,0 0.80086,0.48051 0.32035,1.28137c-0.48051,0.80086 -1.28137,0.32035 -1.28137,0.32035c-2.3684,-1.48292 -11.20636,0.44337 -10.00215,4.29629c0.5866,1.87686 2.98312,2.54492 4.62267,3.2197z" fill="#ffffff" stroke="none" stroke-width="0.5"/><path d="M340.55899,189.94045c0.15354,-0.92125 1.07478,-0.76771 1.07478,-0.76771l1.29462,0.24634c1.00293,0.77425 1.50468,1.02496 2.20038,2.15348c3.53817,5.73951 -10.71537,8.98309 -8.28191,1.1096c0.35597,-1.15174 0.77169,-1.75899 1.34198,-2.7129c0,0 0.48051,-0.80086 1.28137,-0.32035c0.80086,0.48051 0.32035,1.28137 0.32035,1.28137c-0.63816,1.05934 -1.77021,2.87679 -1.4113,4.2183c0.09661,0.36109 2.71738,0.2591 2.77348,0.24985c3.14899,-0.51978 3.10824,-2.48784 1.01409,-4.27375l-0.84013,-0.10946c0,0 -0.92125,-0.15354 -0.76771,-1.07478z" fill="#ffffff" stroke="none" stroke-width="0.5"/><path d="M359.92727,192.29062c-0.41768,0.83535 -1.25303,0.41768 -1.25303,0.41768l-0.19469,-0.11522c-0.92947,-0.26567 -1.82726,-0.53761 -2.73444,-0.76061c-0.41697,2.42518 -0.38085,5.19245 -0.52964,6.38269c0,0 -0.11585,0.92674 -1.04258,0.81089c-0.92674,-0.11585 -0.81089,-1.04258 -0.81089,-1.04258c0.21564,-1.72518 0.27341,-4.21168 0.67643,-6.49603c-0.2966,-0.0448 -0.5967,-0.08124 -0.90161,-0.10753c0,0 -0.47752,-0.04341 -0.71715,-0.41018c-0.55036,0.50792 -1.0917,0.12488 -1.24134,-0.00108c-0.35834,-0.05499 -0.71812,-0.09991 -1.07881,-0.13959c-0.71987,2.09122 -0.72795,4.3762 0.24448,6.54656c0,0 0.3679,0.85844 -0.49054,1.22634c-0.85844,0.3679 -1.22634,-0.49054 -1.22634,-0.49054c-0.80236,-1.93801 -0.99797,-4.82629 -0.46076,-7.47213c-0.43484,-0.04376 -0.86961,-0.09244 -1.30342,-0.15441c0,0 -0.92456,-0.13209 -0.79249,-1.05665c0.13209,-0.92456 1.05665,-0.79249 1.05665,-0.79249c0.51533,0.07362 1.03073,0.12973 1.54568,0.18105c0.91123,-2.51946 2.61971,-4.49031 5.26018,-4.63783l0.82903,0.22582c0,0 0.88602,0.29534 0.59068,1.18136c-0.29534,0.88602 -1.18136,0.59068 -1.18136,0.59068l-0.23834,-0.12997c-1.23627,-0.13555 -1.1624,0.47985 -1.94501,1.4357c-0.4055,0.49527 -0.76722,1.0196 -1.07926,1.56624c0.2888,0.03621 0.57723,0.07676 0.86518,0.12394l0.68476,0.43873c0,0 0.0515,0.0515 0.11135,0.14012c0.30203,-0.27138 0.73597,-0.23193 0.73597,-0.23193c0.39192,0.03723 0.77553,0.08807 1.15356,0.14988c0.83195,-2.77004 2.50495,-4.72792 6.17307,-3.66371l0.71791,0.82414c0,0 0.41768,0.83535 -0.41768,1.25303c-0.83535,0.41768 -1.25303,-0.41768 -1.25303,-0.41768l0.36211,0.11256c-2.10021,-0.8695 -3.23255,0.34567 -3.86203,2.24674c0.93106,0.22686 1.85372,0.49846 2.81289,0.7724l0.51689,0.24056c0,0 0.83535,0.41768 0.41768,1.25303z" fill="#ffffff" stroke="none" stroke-width="0.5"/><path d="M369.81013,200.58983c0,0.93395 -0.93395,0.93395 -0.93395,0.93395l-0.47324,-0.04793c-3.39691,-1.17494 -10.17677,-6.76231 -6.25114,-10.78111c1.32148,-1.35284 4.13883,-2.10645 4.45499,0.5968c0.2111,1.80498 -1.43231,3.43356 -2.78129,4.56309c0.97836,1.78762 3.42981,3.29875 5.16812,3.84917l-0.11744,-0.04793c0,0 0.93395,0 0.93395,0.93395zM363.24282,193.87881c0.48396,-0.46653 0.89952,-0.98252 1.21474,-1.65688c0.14707,-0.31463 0.72515,-1.0433 0.38616,-0.96774c-1.53793,0.34284 -1.77172,1.41097 -1.60089,2.62462z" fill="#ffffff" stroke="none" stroke-width="0.5"/><path d="M379.54539,196.80619c0.22102,-0.15501 0.70982,-0.38978 1.19862,0.09901c0.6604,0.6604 0,1.32081 0,1.32081l-0.8383,0.45145c-2.60435,-0.00332 -5.07885,-0.54898 -7.60621,-1.1212c-1.10003,-0.54438 -3.38666,-1.22261 -4.15185,-2.25258c-1.73289,-2.33255 1.01465,-7.58429 3.74577,-8.08201c3.44952,-0.62865 5.45911,3.1252 3.63301,5.877c-0.68116,1.02646 -2.00023,1.80328 -3.28053,2.41291c0.27478,0.10628 0.51276,0.20055 0.67856,0.28443c2.20311,0.47899 4.3646,0.96523 6.62093,1.01019zM370.0307,194.44989c1.42803,-0.64882 6.39568,-3.13533 3.94088,-4.88315c-2.26467,-1.61245 -4.54277,2.00318 -4.52243,3.98677c0.00346,0.33749 0.23522,0.63454 0.58157,0.89638z" fill="#ffffff" stroke="none" stroke-width="0.5"/><text transform="translate(263.00417,178.3161) scale(0.50209,0.45502)" font-size="40" xml:space="preserve" fill="#ffffff" fill-rule="nonzero" stroke="#000000" stroke-width="1" stroke-linecap="butt" stroke-linejoin="miter" stroke-miterlimit="10" stroke-dasharray="" stroke-dashoffset="0" font-family="Pixel" font-weight="normal" text-anchor="start" style="mix-blend-mode: normal"><tspan x="0" dy="0">1/6</tspan></text><text transform="translate(255.56775,196.97385) scale(0.34275,0.31062)" font-size="40" xml:space="preserve" fill="#ffffff" fill-rule="nonzero" stroke="#000000" stroke-width="1" stroke-linecap="butt" stroke-linejoin="miter" stroke-miterlimit="10" stroke-dasharray="" stroke-dashoffset="0" font-family="Pixel" font-weight="normal" text-anchor="start" style="mix-blend-mode: normal"><tspan x="0" dy="0">(hold)</tspan></text><path d="M247.54332,216.55947v-73.11894h144.91336v73.11894z" fill="none" stroke="none" stroke-width="0"/><path d="M219.80565,205.53235v-8.12319h15.89158v8.12319z" fill-opacity="0.80392" fill="#ffffff" stroke="none" stroke-width="0"/></g></g></svg>