<svg version="1.1" xmlns="http://www.w3.org/2000/svg" xmlns:xlink="http://www.w3.org/1999/xlink" width="58.34884" height="76.7678" viewBox="0,0,58.34884,76.7678"><g transform="translate(-99.75848,-169.95829)"><g data-paper-data="{&quot;isPaintingLayer&quot;:true}" fill-rule="nonzero" stroke="none" stroke-linecap="butt" stroke-linejoin="miter" stroke-miterlimit="10" stroke-dasharray="" stroke-dashoffset="0" style="mix-blend-mode: normal"><path d="M107.70351,246.7261l-7.94503,-73.89797l54.89292,-2.86983l3.45592,50.86956z" fill="#232323" stroke-width="0"/><path d="M127.1,180.4c-0.5,0 -0.5,-0.5 -0.5,-0.5l0.02566,-0.24189c-0.36578,-1.09733 -1.01447,-1.98 -1.02566,-3.15811c0,0 0,-0.04598 0.01394,-0.11006c-1.10961,-0.02186 -2.24599,-0.27358 -3.27206,-0.6156c0,0 -0.47434,-0.15811 -0.31623,-0.63246c0.15811,-0.47434 0.63246,-0.31623 0.63246,-0.31623c1.92344,0.64115 4.58458,1.08039 6.08833,-0.47921l0.52995,-0.29366c0,0 0.44721,-0.22361 0.67082,0.22361c0.22361,0.44721 -0.22361,0.67082 -0.22361,0.67082l-0.27005,0.10634c-0.80647,0.78438 -1.8099,1.17072 -2.87842,1.29333c0.02486,0.0855 0.02486,0.15312 0.02486,0.15312c-0.01257,1.01221 0.65378,1.88021 0.97434,2.84189l0.02566,0.55811c0,0 0,0.5 -0.5,0.5z" fill="#ffffff" stroke-width="0.5"/><path d="M130.65279,175.27639c0.09674,-0.19348 0.23533,-0.2614 0.36145,-0.27619c0.06435,-0.21345 0.13468,-0.43222 0.21142,-0.65832c0.16038,-0.47255 -0.05537,-1.20722 0.38199,-1.44751c1.84527,-1.01382 3.09246,3.67972 3.60942,5.51586c0.38294,0.07121 0.38294,0.48976 0.38294,0.48976l0,0.8c0,0.27614 -0.22386,0.5 -0.5,0.5c-0.22492,0 -0.41515,-0.14851 -0.47799,-0.35282l-0.19635,-0.58906c-0.22882,-0.68776 -0.42134,-1.37831 -0.63886,-2.06243c-0.13313,0.01592 -0.24492,-0.02134 -0.24492,-0.02134c-0.74528,-0.26333 -1.2686,-0.64983 -1.99803,-0.92784c-0.08122,0.17122 -0.14021,0.30213 -0.15723,0.36837c-0.20957,0.81564 0.01338,2.04475 0.01338,2.88512c0,0 0,0.5 -0.5,0.5c-0.5,0 -0.5,-0.5 -0.5,-0.5c0,-1.37899 0.09917,-2.4593 0.37613,-3.62107c-0.11682,-0.09716 -0.27561,-0.29801 -0.12334,-0.60253zM133.24264,175.70204c-0.18928,-0.44116 -0.31452,-0.91429 -0.56006,-1.32679c-0.05773,-0.09698 -0.19341,-0.2415 -0.31609,-0.37243c0.01432,0.32183 -0.17926,0.84329 -0.39849,1.33961c0.5037,0.2107 0.94315,0.49038 1.41549,0.70246c-0.04513,-0.11464 -0.09198,-0.22894 -0.14085,-0.34285z" fill="#ffffff" stroke-width="0.5"/><path d="M137.85811,173.62566c0.51656,0.17327 3.25447,1.39296 2.92851,2.38922c-0.27473,0.83968 -2.05364,0.60944 -2.78906,0.58681c0.04745,0.95289 0.00244,1.91757 0.00244,2.89832v0.2c0,0 0,0.5 -0.5,0.5c-0.5,0 -0.5,-0.5 -0.5,-0.5v-0.2c0,-1.71788 0.17026,-3.40809 -0.37434,-5.04189c0,0 -0.15811,-0.47434 0.31623,-0.63246c0.13816,-0.04605 0.2495,-0.03845 0.33791,-0.00454c0.19143,-0.32442 0.57832,-0.19546 0.57832,-0.19546zM137.90714,175.6c2.39884,-0.00053 1.90692,-0.26831 -0.18795,-0.96677c0.08281,0.32117 0.14363,0.64337 0.18795,0.96677z" fill="#ffffff" stroke-width="0.5"/></g></g></svg>