<svg version="1.1" xmlns="http://www.w3.org/2000/svg" xmlns:xlink="http://www.w3.org/1999/xlink" width="34.5615" height="219.91831" viewBox="0,0,34.5615,219.91831"><g transform="translate(-627.93906,-108.95412)"><g data-paper-data="{&quot;isPaintingLayer&quot;:true}" fill-rule="nonzero" stroke-linecap="butt" stroke-linejoin="miter" stroke-miterlimit="10" stroke-dasharray="" stroke-dashoffset="0" style="mix-blend-mode: normal"><path d="M635.36303,300.65084l0.89512,-174.62273l24.46679,-14.03766l-1.79024,212.64139z" fill="#777777" stroke="#474747" stroke-width="3.5"/><path d="M649.88222,209.83006l0.71609,-83.64106l7.16095,-4.67922l-0.17902,89.49008z" fill="#777777" stroke="#646464" stroke-width="3.5"/><path d="M639.59703,208.98104l0.17902,-76.62222l7.16095,-3.50942l-0.35805,80.71655z" fill="#777777" stroke="#646464" stroke-width="3.5"/><path d="M646.77972,220.26397l-0.74715,78.94897l-7.11565,-6.72342l0.70006,-74.2507z" data-paper-data="{&quot;index&quot;:null}" fill="#777777" stroke="#646464" stroke-width="3.5"/><path d="M656.90324,221.75455l-0.74715,87.72251l-7.29468,-7.89323l0.70006,-80.68462z" data-paper-data="{&quot;index&quot;:null}" fill="#777777" stroke="#646464" stroke-width="3.5"/><path d="M628.02279,213.2416c0.55246,-3.81678 0.92139,-8.08141 4.2357,-7.44519c0.81181,0.15583 2.62927,2.14749 4.497,2.95171c1.7256,0.74302 3.52186,0.28047 3.9563,0.91965c1.01505,1.49343 0.06619,6.45138 -1.55451,6.09633c-3.30084,-0.72313 -2.81941,6.17658 -6.1337,5.54036c-3.31431,-0.63622 -5.55323,-4.24608 -5.00077,-8.06286z" fill="#464646" stroke="none" stroke-width="0"/></g></g></svg>