<svg version="1.1" xmlns="http://www.w3.org/2000/svg" xmlns:xlink="http://www.w3.org/1999/xlink" width="826.75" height="417.75" viewBox="0,0,826.75,417.75"><g transform="translate(2.26649,49.75)"><g data-paper-data="{&quot;isPaintingLayer&quot;:true}" fill-rule="nonzero" stroke-linejoin="miter" stroke-miterlimit="10" stroke-dasharray="" stroke-dashoffset="0" style="mix-blend-mode: normal"><path d="M0,368v-372h799.03296v372z" fill="#000000" stroke="none" stroke-width="NaN" stroke-linecap="butt"/><path d="M192.48352,258.5v-307h415v307z" fill="#252525" stroke="#848484" stroke-width="2.5" stroke-linecap="butt"/><path d="M214.48352,274.5v-250h178v250z" fill="#8d8d8d" stroke="#454545" stroke-width="2.5" stroke-linecap="butt"/><text transform="translate(280.40944,163.5) scale(0.65926,0.5)" font-size="40" xml:space="preserve" fill="#aaaaaa" fill-rule="nonzero" stroke="none" stroke-width="1" stroke-linecap="butt" stroke-linejoin="miter" stroke-miterlimit="10" stroke-dasharray="" stroke-dashoffset="0" font-family="Pixel" font-weight="normal" text-anchor="start" style="mix-blend-mode: normal"><tspan x="0" dy="0">Fridge</tspan></text><path d="M302.88813,117.19253c0.4054,-0.95156 1.66005,-0.64408 1.66005,-0.64408l2.3043,0.56471c6.74484,1.65362 13.26507,3.3279 19.7261,5.58495c5.20105,0.81676 12.1738,2.95964 17.48225,2.57585c1.91384,-0.13837 3.32782,-4.59796 4.11397,-5.93397c3.5364,-6.00977 3.68246,-12.54242 3.30392,-19.08193c-0.06548,-1.15123 0.57304,-2.48903 -0.2631,-3.45113c-0.78744,-0.90608 -5.45783,-1.40103 -6.76696,-1.89335c-6.56381,-2.46843 -15.34595,-3.40133 -22.54734,-4.54193c-3.44432,-0.54554 -6.32968,-1.89823 -9.84742,-1.87164c0,0 -1.31852,0 -1.31852,-1c0,-1 1.31852,-1 1.31852,-1c3.80067,0.02376 6.70729,1.33674 10.38407,1.9135c7.41512,1.16316 16.42307,2.16167 23.18304,4.70859c2.16323,0.81503 6.28184,0.96888 7.76191,2.54546c0.63381,0.67514 0.67949,3.63495 0.73033,4.503c0.44243,7.6798 -0.2156,14.85581 -4.6775,21.81557c-1.47001,2.29294 -0.84945,4.55283 -4.91091,5.25663c-0.19186,0.03325 -5.29726,-0.49948 -5.68248,-0.55049c-4.38196,-0.58013 -8.73766,-1.39012 -13.08803,-2.09437c-6.47715,-2.22636 -12.96798,-3.92937 -19.71264,-5.58163l-2.30429,-0.56471c0,0 -1.25466,-0.30747 -0.84924,-1.25903z" fill="#aaaaaa" stroke="none" stroke-width="0.5" stroke-linecap="butt"/><path d="M304.33024,236.98605c0.67766,-0.85782 1.8087,-0.34386 1.8087,-0.34386l1.53816,0.86148c10.45386,0.04291 22.54473,2.68265 29.37628,9.07641c0.49876,0.47743 1.00398,0.95101 1.49626,1.43229c0.29365,0.28708 0.49905,1.11035 0.86132,0.87259c0.43602,-0.28615 -0.29371,-0.87033 -0.20616,-1.30257c0.50808,-2.50838 2.3878,-5.28275 3.62616,-7.63245c2.88435,-5.47279 6.8477,-10.89216 9.23907,-16.46023c1.30164,-3.03074 0.87431,-6.47655 0.77264,-9.60416c-0.12952,-3.98873 -0.6669,-9.53061 -3.99432,-12.88125c-2.59474,-2.61284 -8.89085,-4.7838 -12.80682,-5.95697c-4.17115,-1.24961 -8.7454,-1.18577 -12.71064,-2.6529c0,0 -1.17933,-0.44721 -0.58966,-1.34164c0.58965,-0.89443 1.76898,-0.44721 1.76898,-0.44721c3.77178,1.47353 8.45048,1.36841 12.50012,2.58162c4.40576,1.3199 11.04184,3.69101 13.94444,6.61387c3.67012,3.69573 4.38095,9.62541 4.52414,14.03525c0.10924,3.36836 0.49939,7.01099 -0.9015,10.27282c-2.68853,6.25996 -7.18391,12.21113 -10.26699,18.42147c-0.91462,1.84234 -1.68427,3.72479 -2.5611,5.57688c-0.41425,0.87502 -0.14164,2.2846 -1.28884,2.61224c-2.23032,0.63698 -4.4604,-1.95668 -5.46049,-2.8848c-6.27057,-5.93965 -17.71619,-8.29204 -27.33711,-8.3313l-2.87925,-1.14581c0,0 -1.13105,-0.51395 -0.45338,-1.37177z" fill="#aaaaaa" stroke="none" stroke-width="0.5" stroke-linecap="butt"/><path d="M225.03167,171.5c0,-1 1.31852,-1 1.31852,-1h0.70335c13.18471,-0.00002 26.36939,0.00161 39.5541,-0.00939c18.57927,-0.0155 36.56114,-0.88864 54.92768,-3.03592c15.63241,-1.96631 31.34452,-3.24534 47.02842,-4.94464c0,0 1.30527,-0.14142 1.49174,0.84853c0.18646,0.98995 -1.11881,1.13137 -1.11881,1.13137c-15.66938,1.69773 -31.36687,2.97534 -46.98473,4.93962c-18.5031,2.16348 -36.62408,3.04542 -55.34138,3.06104c-13.18566,0.011 -26.37132,0.00937 -39.55699,0.00939h-0.70335c0,0 -1.31852,0 -1.31852,-1z" fill="#aaaaaa" stroke="none" stroke-width="0.5" stroke-linecap="butt"/><path d="M193.48352,258.5l-46,-269" fill="none" stroke="#848484" stroke-width="2.5" stroke-linecap="round"/><path d="M151.48352,81.75c6.75,0 6.75,6.75 6.75,6.75v2c0,4.37237 0.62033,8.06531 0.977,12.44326c0.20337,2.49626 0.30138,5.02282 0.33536,7.5641c0.08849,-0.55533 0.16379,-1.11255 0.22049,-1.67248c0.93777,-9.26077 -0.10581,-19.08144 0.05431,-28.4161l1.25923,-4.05331c0,0 2.13454,-6.40361 8.53815,-4.26907c6.40361,2.13454 4.26907,8.53815 4.26907,8.53815l-0.74077,1.94669c0.26885,9.00331 0.93974,18.64117 0.05431,27.5839c-0.37466,3.78397 -1.55721,7.45259 -2.02623,11.22602c-1.24497,10.01617 -2.94092,20.02758 -2.94092,30.10885c0,0 0,6.75 -6.75,6.75c-5.09374,0 -6.3436,-3.84388 -6.65028,-5.73024c-0.87316,0.44844 -1.97054,0.73024 -3.34972,0.73024c-6.75,0 -6.75,-6.75 -6.75,-6.75c0.02607,-2.90871 0.78555,-5.76684 1.03285,-8.66513c0.40623,-4.761 -0.03285,-9.55657 -0.03285,-14.33487c0,-6.37969 0.56577,-13.086 0.023,-19.44326c-0.39894,-4.67265 -1.023,-8.85178 -1.023,-13.55674v-2c0,0 0,-6.75 6.75,-6.75z" fill="#cecece" stroke="none" stroke-width="0.5" stroke-linecap="butt"/><path d="M132.48352,90.75c6.75,0 6.75,6.75 6.75,6.75c0,13.66667 0,30.33333 0,44c0,0 0,6.75 -6.75,6.75c-6.75,0 -6.75,-6.75 -6.75,-6.75c0,-13.66667 0,-27.33333 0,-41v-3c0,0 0,-6.75 6.75,-6.75z" fill="#cecece" stroke="none" stroke-width="0.5" stroke-linecap="butt"/><path d="M105.34898,72.09639c6.40361,-2.13454 8.53815,4.26907 8.53815,4.26907l1.25923,4.05331c0.02384,2.77367 0.76864,5.4957 1.03659,8.25649c1.07329,11.05875 0.05057,22.7048 0.05057,33.82474c0,0 0,6.75 -6.75,6.75c-6.75,0 -6.75,-6.75 -6.75,-6.75c0,-7 0,-14 0,-21c0,-3.72513 0.43399,-7.46992 0.05057,-11.17526c-0.26772,-2.58726 -0.98883,-5.14256 -0.96341,-7.74351l-0.74077,-1.94669c0,0 -2.13454,-6.40361 4.26907,-8.53815z" fill="#cecece" stroke="none" stroke-width="0.5" stroke-linecap="butt"/><path d="M84.48352,80.75c6.75,0 6.75,6.75 6.75,6.75c0,10 0,21 0,31c0,4.6692 -1.06525,11.34843 0.65361,15.86546c0,0 2.13454,6.40361 -4.26907,8.53815c-6.40361,2.13454 -8.53815,-4.26907 -8.53815,-4.26907c-2.02667,-6.52362 -1.34639,-13.33841 -1.34639,-20.13454c0,-10 0,-20 0,-30v-1c0,0 0,-6.75 6.75,-6.75z" fill="#cecece" stroke="none" stroke-width="0.5" stroke-linecap="butt"/><path d="M51.46482,78.46262c6.03738,-3.01869 9.05608,3.01869 9.05608,3.01869l1.71262,5.01869c-0.12586,18.84314 10.2482,35.72288 12.93216,54.04541c0,0 0.95459,6.68216 -5.72756,7.63675c-6.68216,0.95459 -7.63675,-5.72756 -7.63675,-5.72756c-1.45192,-10.47901 -5.83068,-19.94026 -8.79865,-30.06738c-2.43011,-8.29186 -4.22552,-17.23573 -4.26919,-25.88722l-0.28738,1.01869c0,0 -3.01869,-6.03738 3.01869,-9.05608z" fill="#cecece" stroke="none" stroke-width="0.5" stroke-linecap="butt"/><path d="M33.46482,74.46262c6.03738,-3.01869 9.05608,3.01869 9.05608,3.01869l1.71262,5.01869c-0.02922,6.91596 0.90457,14.17648 1.92568,21.00109c0.51956,3.47251 1.72204,6.83717 2.04147,10.33378c0.36956,4.04537 -0.19891,8.1301 0.01587,12.18663c0.29097,5.49559 1.00712,10.97523 1.01698,16.4785c0,0 0,6.75 -6.75,6.75c-6.75,0 -6.75,-6.75 -6.75,-6.75c0.01033,-5.18419 -0.7122,-10.34438 -0.98302,-15.5215c-0.20571,-3.93242 0.37056,-7.89158 0.01587,-11.81337c-0.29612,-3.27418 -1.46962,-6.41523 -1.95853,-9.66622c-1.13461,-7.54459 -2.04757,-15.37166 -2.07432,-22.99891l-0.28738,1.01869c0,0 -3.01869,-6.03738 3.01869,-9.05608z" fill="#cecece" stroke="none" stroke-width="0.5" stroke-linecap="butt"/><path d="M187.23352,71.5c0,6.75 -6.75,6.75 -6.75,6.75c-4.66667,0 -12.33333,0 -17,0c-1.97314,0 -3.96869,-0.38792 -5.91877,-0.08716c-3.32786,0.51325 -6.66794,1.55174 -10,2c-1.04977,0.14122 -8.36387,0.07059 -9.63797,0.06416c-6.48224,-1.08037 -12.51042,-0.45469 -19,-1c-3.7497,-0.31508 -7.36016,-1.67771 -11.10839,-2.00985c-2.0452,-0.18123 -4.11662,0.18693 -6.15961,-0.01772c-1.36752,-0.13699 -2.64159,-0.79115 -4,-1c-3.87709,-0.59609 -8.85901,0.28392 -12.59392,0.03758c-7.12572,-0.46999 -14.19443,-1.72994 -21.33083,-1.99162c-19.69254,-0.72207 -39.54039,0.00461 -59.25051,0.00461c0,0 -6.75,0 -6.75,-6.75c0,-6.75 6.75,-6.75 6.75,-6.75c19.87524,0 39.89231,-0.73586 59.74949,0.00461c7.24897,0.27031 14.43161,1.51999 21.66917,2.00838c7.81831,0.52758 15.48259,0.29744 23.24648,1.01985c3.67477,0.34193 7.21346,1.68677 10.89161,1.99015c6.43751,0.53097 12.55563,-0.07406 19,1c4.57614,-0.03057 8.88337,-0.29603 13.36203,-0.93584c1.0435,-0.14907 1.95532,-0.85946 3,-1c7.09589,-0.9546 14.9133,-0.08716 22.08123,-0.08716h3c0,0 6.75,0 6.75,6.75z" fill="#878787" stroke="none" stroke-width="0.5" stroke-linecap="butt"/><path d="M606.48352,260.5l51,-280" fill="none" stroke="#848484" stroke-width="2.5" stroke-linecap="round"/><path d="M678.48352,219.5l24,-231h122v236z" fill="#483700" stroke="none" stroke-width="0" stroke-linecap="butt"/><path d="M701.48352,271.5v-58h18v58z" fill="#483700" stroke="none" stroke-width="0" stroke-linecap="butt"/><path d="M427.50855,78.26777c-0.12347,0.11044 -0.24694,0.20709 -0.36993,0.29124c-0.15789,2.20134 -0.27073,4.39637 0.0345,6.54055c0.14885,1.04565 0.97174,1.95404 1.11791,3c0.2311,1.6538 -0.2311,3.3462 0,5c0.14616,1.04596 0.97163,1.95406 1.11791,3c0.23842,1.70476 -0.16768,3.4445 0.02249,5.15411c0.37614,3.38151 1.10814,6.74615 1.13108,10.1443c-0.01999,4.32354 1.33772,8.38444 1.87491,12.68355c0.4569,3.65655 -0.24908,7.51567 0.34038,11.11303c0.22282,1.35984 0.90571,2.6388 1.11791,4c0.65893,4.22692 -0.61647,8.68083 -0.01515,12.90501c0.14885,1.04565 0.97419,1.95378 1.11791,3c0.81782,5.95329 -0.73578,12.14317 0.01515,18.09499c0.1723,1.3657 0.95071,2.63379 1.11791,4c0.84169,6.87743 0.02094,14.38214 0.02094,21.30546c0,7.4811 1.13698,15.87765 -0.02094,23.30546c-0.2122,1.3612 -0.92354,2.63667 -1.11791,4c-0.55759,3.91121 0.48355,8.01479 0.00734,11.94088c-0.63578,5.24169 -2.24156,10.4913 -2.22221,15.75366c0.01471,3.99989 0,8.00008 0,12c0,2.64861 -1.2504,4.39451 1.36883,5.60727c3.97296,-0.12192 7.05152,1.35297 10.81684,1.92501c4.69768,0.71368 9.80898,-0.68151 14.53275,0c1.16334,0.16784 2.18781,0.84707 3.35371,1c8.01707,1.05159 17.13263,-0.04869 25.26412,-0.03228c3.48825,0.00703 6.95124,0.56619 10.40261,1.01873c5.20486,0.68245 11.15644,-0.01873 16.42709,-0.01873c7.82533,0 15.65066,0 23.47599,0c1.49054,0 2.98803,-0.12867 4.47161,0c0.57653,0.05 1.26091,0.926 1.63378,0.52949c0.56026,-0.59579 0.05443,-1.55644 0.06402,-2.33495c0.03042,-2.47089 0.52186,-4.93867 1.19059,-7.33621c1.47569,-5.29075 2.29566,-10.46598 3.29759,-15.76652c1.09743,-5.80572 4.45506,-10.90447 4.45506,-16.89727c1.31758,-4.71446 1.36825,-9.39257 2.25095,-14.09499c0.86796,-4.62385 2.69681,-9.3682 3.35372,-14c0.42209,-2.97615 -0.46332,-6.02876 0,-9c0.16279,-1.04398 0.94694,-1.95706 1.1179,-3c0.48143,-2.93693 -0.37626,-5.9543 -0.01514,-8.90501c0.1672,-1.36621 0.9456,-2.6343 1.1179,-4c1.16772,-9.25531 -0.02094,-19.37407 -0.02094,-28.69454c0,-7.33334 0,-14.66666 0,-22c0,-4.03039 0.67521,-8.70168 0.02094,-12.69454c-0.22282,-1.35984 -0.9507,-2.6338 -1.1179,-4c-0.36112,-2.95071 0.49658,-5.96807 0.01514,-8.90501c-0.17096,-1.04294 -0.95511,-1.95601 -1.1179,-3c-0.56079,-3.59631 0.58681,-7.42024 0,-11c-0.69021,-4.21059 -2.22582,-8.05856 -2.2719,-12.40045c0.0263,-1.89404 -0.7337,-3.73114 -1.08182,-5.59955c-0.55345,-2.97044 -0.58215,-6.02591 -1.1179,-9c-0.55327,-3.07133 -2.78083,-5.9158 -3.35371,-9c-0.36647,-1.97295 0.38075,-4.02922 0,-6c-0.20068,-1.03869 -0.92418,-1.96025 -1.11791,-3c-0.37263,-2 -0.75332,-3.99882 -1.1179,-6c-0.08795,-0.48277 0.66366,-3.65074 -0.79587,-4.19627c-0.76894,-0.2874 -1.65747,0.36766 -2.48266,0.26353c-1.16682,-0.14724 -2.19255,-0.82049 -3.35371,-1c-2.57034,-0.39736 -5.2419,0.32236 -7.82533,0c-2.09721,-0.26168 -4.1424,-0.99124 -6.25975,-0.96772c-5.52133,0 -11.64773,0.66264 -17.11004,-0.01873c-1.52169,-0.18982 -2.95144,-0.80068 -4.47161,-1c-7.63114,-1.00058 -15.74427,0.84182 -23.4099,0.00657c-1.85125,-0.20172 -3.631,-0.81143 -5.48628,-0.98106c-10.00016,-0.91429 -19.67617,0.84278 -29.34103,-2.03906c-3.19371,0.03548 -6.91781,0.4535 -10.06114,0c-2.07383,-0.2992 -6.29289,-2.04672 -8.54396,-1.15802c-0.83496,0.32963 -1.04887,1.40375 -1.83602,1.81693c-0.84398,0.44301 -2.12138,0.05367 -2.84681,0.64114c-0.56941,0.46111 -0.23523,1.36129 -0.44276,2.02281c-0.57209,1.82364 -0.66247,3.74157 -1.01057,5.60988c-0.32549,1.74699 -0.82215,3.4574 -1.29699,5.17292c0.2307,-0.04713 0.48774,-0.07337 0.77413,-0.07337c2.79476,0 2.79476,2.5 2.79476,2.5c0,6.64704 -1.09652,14.13048 -0.02094,20.69454c0.22282,1.35984 0.90571,2.6388 1.11791,4c0.23244,1.49103 0.25666,3.00648 0.19797,4.5314l0.1223,0.0063c0,0 1.9762,1.76776 0,3.53553zM421.82473,76.35852l-0.06162,-0.06794c-1.05084,-2.82003 -2.11066,-5.63281 -3.07973,-8.47624c-0.81349,-0.78588 -2.0192,-1.35506 -2.44047,-2.35762c-0.26644,-0.63411 -0.21274,-5.90905 -0.21274,-6.95671c0,-3.95542 -0.66695,-8.50115 0.03609,-12.40045c0.54649,-3.03101 1.67139,-5.97069 2.2358,-9c0.58153,-3.12119 0.28083,-7.78363 3.01829,-10.36731c0.9513,-0.89786 2.67976,-0.71503 3.86061,-1.35886c1.02238,-0.55743 1.51482,-1.80624 2.63559,-2.18307c3.75412,-1.26224 8.01129,0.29054 11.57832,0.84198c3.06983,0.47458 6.94915,-0.02642 10.06114,0c9.5566,2.84955 19.09413,1.11535 29.00707,1.99978c1.85222,0.16525 3.62899,0.77114 5.47568,0.9801c7.71339,0.87282 15.83598,-0.9547 23.54208,0.00657c1.52169,0.18981 2.95144,0.80068 4.47161,1c5.20487,0.68245 11.15643,-0.01873 16.42709,-0.01873c2.41575,0.02051 4.7648,0.71875 7.15509,1.03228c2.58084,0.33853 5.25017,-0.37152 7.82533,0c1.16334,0.16784 2.19529,0.80686 3.35371,1c1.38778,0.23138 3.05653,-0.44537 4.22477,0.26354c4.93318,2.99351 3.96325,9.34679 4.79365,13.80373c0.19372,1.03975 0.93028,1.95936 1.11791,3c0.356,1.97449 -0.369,4.02743 0,6c0.57459,3.07166 2.76233,5.9157 3.35371,9c0.18898,0.98561 -0.18378,2.01361 0,3c0.78221,4.19828 2.22592,8.06768 2.2719,12.40045c-0.0557,4.01241 1.59043,7.69219 2.19972,11.59955c0.56079,3.59631 -0.58681,7.42024 0,11c0.17096,1.04294 0.95511,1.95601 1.1179,3c0.2658,1.70454 -0.18874,7.479 0.01515,9.09499c0.17231,1.3657 0.90571,2.6388 1.1179,4c0.65817,4.222 0.02094,9.04706 0.02094,13.30546c0,7.33334 0,14.66666 0,22c0,9.54423 1.1396,19.8227 -0.02094,29.30546c-0.1672,1.36621 -0.9456,2.6343 -1.1179,4c-0.20389,1.61599 0.25065,7.39045 -0.01515,9.09499c-0.16279,1.04398 -0.94694,1.95706 -1.1179,3c-0.48657,2.96826 0.41054,6.02256 0,9c-0.63797,4.62689 -2.50192,9.39133 -3.35371,14c-0.85892,4.64722 -0.91962,9.24973 -2.22066,13.90501c0,6.10691 -3.40265,11.21792 -4.48818,17.10273c-0.50327,2.72828 -0.43177,5.54436 -1.17268,8.22893c-0.97271,3.52447 -2.73745,7.19262 -3.29752,10.76334c-0.52495,3.34682 1.32738,6.59136 -2.15665,9.57006c-0.80003,0.68399 -8.40813,0.52949 -9.54525,0.52949c-7.82533,0 -15.65066,0 -23.47599,0c-5.52132,0 -11.64773,0.66264 -17.11004,-0.01873c-1.52169,-0.18982 -2.94489,-0.84587 -4.47161,-1c-10.31651,-1.04152 -21.11878,1.27025 -31.40751,-0.01355c-1.16708,-0.14562 -2.19256,-0.82049 -3.35372,-1c-4.69317,-0.72553 -9.81272,0.69312 -14.53276,0c-4.09209,-0.60091 -7.26977,-1.97604 -11.54125,-2.07499c-1.6693,-1.07103 -3.89322,-1.6695 -5.0079,-3.21308c-0.84722,-1.1732 -0.26642,-2.78413 -0.33069,-4.17964c-0.22929,-4.97825 -0.01655,-10.01697 0,-15c0.01814,-5.46293 1.57046,-10.81776 2.24941,-16.24634c0.49606,-3.9663 -0.5365,-8.09297 0.00734,-12.05912c0.18705,-1.36415 0.89508,-2.64016 1.11791,-4c1.17636,-7.17908 -0.02094,-15.45571 -0.02094,-22.69454c0,-6.70225 0.8606,-14.03939 0.02094,-20.69454c-0.1723,-1.3657 -0.95071,-2.63379 -1.11791,-4c-0.72076,-5.88936 0.85021,-12.03893 0.01515,-17.90501c-0.14885,-1.04565 -0.97419,-1.95378 -1.11791,-3c-0.58896,-4.28734 0.68344,-8.83164 -0.01515,-13.09499c-0.22282,-1.35984 -0.90571,-2.6388 -1.11791,-4c-0.56905,-3.65031 0.11496,-7.48595 -0.34941,-11.18275c-0.56366,-4.48722 -1.88875,-8.69286 -1.90774,-13.21493c-0.00489,-3.23726 -0.74906,-6.43977 -1.10389,-9.66143c-0.17705,-1.60752 0.24627,-3.24303 0.02248,-4.84589c-0.14603,-1.04596 -0.97174,-1.95404 -1.1179,-3c-0.2311,-1.6538 0.2311,-3.3462 0,-5c-0.14616,-1.04596 -0.97419,-1.95377 -1.11791,-3c-0.4278,-3.11414 -0.00243,-6.34672 0.16895,-9.54194z" fill="#261d00" stroke="none" stroke-width="0" stroke-linecap="butt"/><path d="M427.47493,74.69229l-0.12234,-0.00628c0.05869,-1.52491 0.03563,-3.04113 -0.19681,-4.53216c-0.2122,-1.3612 -0.89442,-2.64058 -1.11724,-4.00042c-1.07558,-6.56406 0.02555,-14.05008 0.02555,-20.69712c0,0 0.05481,-2.41284 -2.73995,-2.41284c-0.28639,0 -0.59886,-0.06059 -0.82956,-0.01346c0.47484,-1.71552 0.97286,-3.42661 1.29835,-5.17359c0.3481,-1.86832 0.43975,-3.78685 1.01185,-5.61049c0.20752,-0.66152 -0.12618,-1.56189 0.44322,-2.02301c0.72544,-0.58747 2.0038,-0.19854 2.84777,-0.64156c0.78715,-0.41318 1.00191,-1.48764 1.83687,-1.81728c2.25106,-0.8887 6.47267,0.85787 8.5465,1.15706c3.14333,0.4535 6.87086,0.03439 10.06457,-0.00109c9.66486,2.88184 19.35194,1.12269 29.3521,2.03698c1.85528,0.16962 3.63724,0.77917 5.4885,0.98088c7.66564,0.83526 15.7885,-1.00696 23.41965,-0.00638c1.52017,0.19932 2.95182,0.8104 4.47351,1.00022c5.4623,0.68137 11.59547,0.01998 17.1168,0.01998c2.11735,-0.02352 4.16499,0.70669 6.2622,0.96837c2.58343,0.32236 5.25778,-0.39648 7.82812,0.00088c1.16116,0.17951 2.1882,0.85323 3.35502,1.00046c0.82519,0.10413 1.71451,-0.55064 2.48344,-0.26324c1.45953,0.54553 0.70887,3.71388 0.79682,4.19665c0.36459,2.00118 0.74671,4.00061 1.11934,6.00061c0.19372,1.03975 0.91818,1.96173 1.11886,3.00043c0.38075,1.97078 -0.36526,4.02762 0.00122,6.00057c0.57288,3.0842 2.80363,5.93034 3.3569,9.00167c0.53575,2.97409 0.56714,6.03116 1.12058,9.0016c0.34812,1.86841 1.11003,3.70679 1.08374,5.60083c0.04608,4.34189 1.58622,8.1934 2.27643,12.40399c0.58681,3.57976 -0.55706,7.40726 0.00373,11.00357c0.16279,1.04399 0.94828,1.95853 1.11924,3.00147c0.48143,2.93693 -0.37314,5.95825 -0.01202,8.90896c0.1672,1.3662 0.89667,2.64253 1.11949,4.00237c0.65427,3.99286 -0.01702,8.67183 -0.01702,12.70222c0,7.33334 0.00326,14.6834 0.00326,22.01674c0,9.32047 1.1835,19.46029 0.01578,28.7156c-0.17231,1.3657 -0.95217,2.63642 -1.11937,4.00262c-0.36112,2.95071 0.49349,5.97263 0.01206,8.90956c-0.17096,1.04294 -0.95644,1.95768 -1.11923,3.00166c-0.46332,2.97124 0.41891,6.02734 -0.00318,9.00349c-0.65691,4.6318 -2.49142,9.38107 -3.35937,14.00492c-0.8827,4.70242 -0.9382,9.38379 -2.25578,14.09825c0,5.99281 -3.36316,11.09448 -4.46059,16.9002c-1.00194,5.30054 -1.82593,10.47746 -3.30162,15.7682c-0.66872,2.39754 -1.16169,4.86587 -1.19211,7.33676c-0.00959,0.7785 0.4959,1.73927 -0.06436,2.33506c-0.37287,0.39651 -1.05772,-0.47933 -1.63425,-0.52933c-1.48358,-0.12867 -2.9826,0.00048 -4.47314,0.00048c-7.82533,0 -15.65932,0.00192 -23.48465,0.00192c-5.27065,0 -11.22877,0.7018 -16.43363,0.01934c-3.45137,-0.45254 -6.91859,-1.01166 -10.40684,-1.0187c-8.13149,-0.01641 -17.25711,1.08278 -25.27418,0.03119c-1.16591,-0.15293 -2.19175,-0.83244 -3.35509,-1.00028c-4.72377,-0.68151 -9.84035,0.7123 -14.53803,-0.00139c-3.76532,-0.57204 -6.84779,-2.04829 -10.82074,-1.92638c-2.61923,-1.21276 -1.37019,-2.95921 -1.37019,-5.60782c0,-3.99992 0.01249,-8.00108 -0.00222,-12.00097c-0.01935,-5.26236 1.58373,-10.51331 2.21952,-15.755c0.47621,-3.9261 -0.56812,-8.0315 -0.01052,-11.94271c0.19436,-1.36333 0.90494,-2.63929 1.11713,-4.00048c1.15792,-7.42782 0.01262,-15.83089 0.01262,-23.31198c0,-6.92332 0.81178,-14.43945 -0.02991,-21.31688c-0.1672,-1.36621 -0.94731,-2.63758 -1.11961,-4.00328c-0.75092,-5.95183 0.7984,-12.15774 -0.01942,-18.11103c-0.14372,-1.04622 -0.96918,-1.95729 -1.11803,-3.00294c-0.60132,-4.22418 0.6756,-8.69012 0.01666,-12.91705c-0.2122,-1.3612 -0.89411,-2.64334 -1.11694,-4.00317c-0.58946,-3.59736 0.12023,-7.46462 -0.33667,-11.12117c-0.53719,-4.29911 -1.89036,-8.36659 -1.87038,-12.69013c-0.02294,-3.39815 -0.7514,-6.76671 -1.12754,-10.14822c-0.19016,-1.70961 0.21779,-3.45112 -0.02063,-5.15588c-0.14628,-1.04594 -0.97105,-1.95466 -1.11721,-3.00062c-0.2311,-1.6538 0.23277,-3.3476 0.00167,-5.0014c-0.14616,-1.04596 -0.96846,-1.95482 -1.1173,-3.00047c-0.30523,-2.14418 -0.19043,-4.34068 -0.03253,-6.54202c0.12299,-0.08414 0.24666,-0.18093 0.37013,-0.29138c1.9762,-1.76776 0.00101,-3.53623 0.00101,-3.53623z" data-paper-data="{&quot;noHover&quot;:false,&quot;origItem&quot;:[&quot;Path&quot;,{&quot;applyMatrix&quot;:true,&quot;segments&quot;:[[[855.01709,156.53553],[3.95239,-3.53553],[-0.24694,0.22089]],[[854.27724,157.118],[0.24598,-0.16828],[-0.31579,4.40268]],[[854.34624,170.19909],[-0.61046,-4.28835],[0.2977,2.0913]],[[856.58205,176.19909],[-0.29232,-2.09191],[0.4622,3.30759]],[[856.58205,186.19909],[-0.4622,-3.30759],[0.29232,2.09191]],[[858.81786,192.19909],[-0.29256,-2.09188],[0.47684,3.40952]],[[858.86283,202.50731],[-0.38033,-3.41922],[0.75228,6.76303]],[[861.125,222.79591],[-0.04589,-6.7963],[-0.03997,8.64708]],[[864.87482,248.16301],[-1.07439,-8.59822],[0.9138,7.3131]],[[865.55558,270.38908],[-1.17892,-7.19472],[0.44564,2.71968]],[[867.79139,278.38908],[-0.42439,-2.7224],[1.31787,8.45385]],[[867.76109,304.19909],[-1.20265,-8.44835],[0.2977,2.0913]],[[869.9969,310.19909],[-0.28744,-2.09245],[1.63564,11.90659]],[[870.02719,346.38908],[-1.50185,-11.90365],[0.34461,2.7314]],[[872.263,354.38908],[-0.3344,-2.73241],[1.68338,13.75486]],[[872.30488,397],[0,-13.84664],[0,14.96219]],[[872.263,443.61092],[2.31584,-14.85563],[-0.42439,2.7224]],[[870.02719,451.61092],[0.38872,-2.72665],[-1.11519,7.82242]],[[870.04187,475.49269],[0.95242,-7.85219],[-1.27156,10.48339]],[[865.59746,507],[-0.0387,-10.52471],[0.02942,7.99979]],[[865.59746,531],[0,-7.99984],[0,5.29722]],[[868.33512,542.21454],[-5.23846,-2.42552],[7.94591,-0.24383]],[[889.96879,546.06456],[-7.53064,-1.14408],[9.39536,1.42737]],[[919.03429,546.06456],[-9.44754,-1.36302],[2.32668,0.33568]],[[925.74172,548.06456],[-2.33181,-0.30586],[16.03413,2.10318]],[[976.26997,548],[-16.26299,-0.03281],[6.97649,0.01407]],[[997.07519,550.03746],[-6.90275,-0.90508],[10.40973,1.3649]],[[1029.92937,550],[-10.54131,0],[15.65066,0]],[[1076.88135,550],[-15.65066,0],[2.98108,0]],[[1085.82458,550],[-2.96717,-0.25733],[1.15306,0.1]],[[1089.09214,551.05897],[-0.74574,0.79302],[1.12052,-1.19158]],[[1089.22017,546.38908],[-0.01917,1.557],[0.06084,-4.94178]],[[1091.60135,531.71666],[-1.33745,4.79508],[2.95139,-10.58149]],[[1098.19653,500.18362],[-2.00387,10.60108],[2.19486,-11.61145]],[[1107.10664,466.38908],[0,11.98561],[2.63516,-9.42892]],[[1111.60855,438.19909],[-1.76541,9.40484],[1.73591,-9.2477]],[[1118.31598,410.19909],[-1.31381,9.26359],[0.84418,-5.95229]],[[1118.31598,392.19909],[-0.92664,5.94247],[0.32559,-2.08797]],[[1120.55178,386.19909],[-0.34192,2.08588],[0.96286,-5.87386]],[[1120.52149,368.38908],[-0.72224,5.90142],[0.3344,-2.73241]],[[1122.7573,360.38908],[-0.34461,2.7314],[2.33543,-18.51063]],[[1122.71542,303],[0,18.64093],[0,-14.66667]],[[1122.71542,259],[0,14.66667],[0,-8.06079]],[[1122.7573,233.61092],[1.30854,7.98571],[-0.44564,-2.71968]],[[1120.52149,225.61092],[0.3344,2.73241],[-0.72224,-5.90142]],[[1120.55178,207.80091],[0.96286,5.87386],[-0.34192,-2.08588]],[[1118.31598,201.80091],[0.32559,2.08797],[-1.12158,-7.19261]],[[1118.31598,179.80091],[1.17361,7.15953],[-1.38042,-8.42118]],[[1113.77218,155],[0.09216,8.68379],[0.05259,-3.78807]],[[1111.60855,143.80091],[0.69623,3.73682],[-1.10689,-5.94089]],[[1109.37274,125.80091],[1.07151,5.94817],[-1.10655,-6.14265]],[[1102.66532,107.80091],[1.14576,6.16841],[-0.73294,-3.9459]],[[1102.66532,95.80091],[0.7615,3.94157],[-0.40135,-2.07739]],[[1100.42951,89.80091],[0.38745,2.0795],[-0.74527,-4]],[[1098.1937,77.80091],[0.72917,4.00237],[-0.1759,-0.96553]],[[1096.60197,69.40837],[2.91906,1.09106],[-1.53787,-0.57481]],[[1091.63666,69.93544],[1.65038,0.20825],[-2.33364,-0.29447]],[[1084.92924,67.93544],[2.32232,0.35902],[-5.14068,-0.79472]],[[1069.27858,67.93544],[5.16686,0.64471],[-4.19442,-0.52337]],[[1056.75907,66],[4.2347,-0.04704],[-11.04265,0]],[[1022.539,65.96254],[10.92461,1.36274],[-3.04338,-0.37963]],[[1013.59577,63.96254],[3.04034,0.39864],[-15.26228,-2.00116]],[[966.77596,63.97567],[15.33127,1.67051],[-3.70251,-0.40343]],[[955.80341,62.01356],[3.71055,0.33925],[-20.00031,-1.82858]],[[897.12134,57.93544],[19.32972,5.76368],[-6.38742,0.07095]],[[876.99906,57.93544],[6.28667,0.90699],[-4.14767,-0.59839]],[[859.91114,55.6194],[4.50213,-1.7774],[-1.66992,0.65927]],[[856.2391,59.25325],[1.5743,-0.82636],[-1.68795,0.88602]],[[850.54547,60.53553],[1.45087,-1.17494],[-1.13881,0.92223]],[[849.65996,64.58114],[0.41505,-1.32303],[-1.14419,3.64728]],[[847.63881,75.80091],[0.6962,-3.73663],[-0.65099,3.49397]],[[845.04483,86.14675],[0.94968,-3.43104],[0.4614,-0.09425]],[[846.59309,86],[-0.57278,0],[5.58952,0]],[[852.18261,91],[0,0],[0,13.29408]],[[852.14073,132.38908],[-2.15117,-13.12812],[0.44564,2.71968]],[[854.37654,140.38908],[-0.42439,-2.7224],[0.46487,2.98206]],[[854.77249,149.45187],[0.11737,-3.04982],[0,0]],[855.01709,149.46447]],&quot;closed&quot;:true}]}" fill="#312500" stroke="none" stroke-width="0.5" stroke-linecap="butt"/><path d="M561.01777,144.26777c-1.59581,1.59581 -3.19161,0.31047 -3.48698,0.0453c-6.53463,-1.17452 -12.44553,-0.46847 -19.03445,0.17476c-8.52745,0.83248 -17.26946,-0.51531 -25.74634,-0.48783c-16.29571,0 -32.54479,-1.27032 -48.77043,-3.01467c-10.29755,-1.10705 -20.30275,-3.99659 -30.72957,-3.98533c0,0 -2.5,0 -2.5,-2.5c0,-2.5 2.5,-2.5 2.5,-2.5c10.62421,0.01055 20.78161,2.89572 31.27043,4.01467c16.04933,1.71214 32.11279,2.98533 48.22957,2.98533c8.29775,0.02377 16.91445,1.36796 25.25366,0.51217c7.31974,-0.75117 13.91817,-1.42731 21.23663,0.03638l1.77748,1.18368c0,0 1.76777,1.76777 0,3.53553z" fill="#261d00" stroke="none" stroke-width="0.5" stroke-linecap="butt"/><path d="M545.75,221.5c0,2.5 -2.5,2.5 -2.5,2.5l-1.35355,-0.02513c-8.8381,-1.26499 -17.60472,-2.6563 -26.50033,-3.55228c-9.34641,-1.00486 -18.71463,-1.66714 -28.06781,-2.56988c-8.24193,-0.79548 -16.36696,-2.52769 -24.66742,-2.85431c-9.13653,-0.35951 -18.27225,0.50159 -27.41088,0.50159c0,0 -2.5,0 -2.5,-2.5c0,-2.5 2.5,-2.5 2.5,-2.5c9.19805,0 18.39238,-0.86546 27.58912,-0.49841c8.40347,0.33539 16.62464,2.07339 24.96822,2.87413c9.3668,0.89894 18.74725,1.56773 28.10672,2.57378c8.95834,0.90365 17.78832,2.30656 26.6895,3.57563l0.64645,-0.02513c0,0 2.5,0 2.5,2.5z" fill="#261d00" stroke="none" stroke-width="0.5" stroke-linecap="butt"/><path d="M458.75,188.5c0,2.5 -2.5,2.5 -2.5,2.5h-2c-3.04967,0 -7.89015,0.89573 -10.07017,-2.09843c-1.3977,-1.91968 0.07017,-6.61872 0.07017,-8.90157c0,-6.2908 1.57832,-16.80532 7.12377,-20.5871c2.58529,-1.76307 5.89837,-1.8997 8.87623,-1.9129c0,0 2.5,0 2.5,2.5c0,2.5 -2.5,2.5 -2.5,2.5c-1.99391,-0.01076 -4.34666,-0.04697 -6.12377,1.0871c-1.58892,1.01398 -1.90107,2.60016 -2.53942,4.30135c-1.41211,3.7632 -2.3368,8.09952 -2.3368,12.11155c0,0.91546 0.07678,1.83522 -0.01217,2.74634c-0.08257,0.84582 -0.27561,1.68032 -0.5,2.5c-0.08352,0.30509 -0.58182,0.5817 -0.41767,0.85208c0.15641,0.25763 0.60133,-0.04467 0.9026,-0.05332c2.0901,-0.05998 2.94113,-0.04511 5.02723,-0.04511h2c0,0 2.5,0 2.5,2.5z" fill="#161100" stroke="none" stroke-width="0.5" stroke-linecap="butt"/><path d="M458.98607,263.61803c-1.11803,2.23607 -3.3541,1.11803 -3.3541,1.11803l-0.37226,-0.28462c-2.44559,-0.54009 -4.84938,-0.58693 -6.24578,-3.33342c-1.42986,-2.8123 0.11974,-4.43448 0.83971,-6.8304c1.18102,-3.93023 1.56184,-8.48364 1.90852,-12.53398c0.10594,-1.23766 -0.28711,-2.52617 0.03294,-3.72642c0.39362,-1.47612 0.8551,-3.14969 2.05332,-4.0974c1.21692,-0.9625 7.22093,-0.92239 8.90157,-0.92983c0,0 2.5,0 2.5,2.5c0,2.5 -2.5,2.5 -2.5,2.5c-1.59285,-0.0086 -3.16115,0.45373 -4.75366,0.48783c-0.46927,0.01005 -0.90535,-0.58267 -1.34477,-0.41767c-0.28216,0.10595 0.04709,0.60127 0.05332,0.9026c0.02254,1.09101 0.12093,2.18588 0.03294,3.27358c-0.06852,0.84707 -0.41544,1.65438 -0.5,2.5c-0.36365,3.63653 -0.52532,7.40634 -1.59148,10.96602c-0.32281,1.0778 -1.62561,2.14523 -1.16029,3.1696c0.39066,0.86001 1.82269,0.51014 2.75422,0.66658l1.62774,0.71538c0,0 2.23607,1.11803 1.11803,3.3541z" fill="#161100" stroke="none" stroke-width="0.5" stroke-linecap="butt"/><path d="M465.25,108.5c0,2.5 -2.5,2.5 -2.5,2.5l-2.7062,-0.00852c-1,-0.16667 -2,-0.33333 -3,-0.5c-3.15587,0.01172 -9.59842,1.1412 -12.06157,-1.22371c-0.64372,-0.61805 -1.43632,-5.04067 -1.68368,-6.27748c-1.23625,-6.18126 -1.11614,-11.99526 -1.53638,-18.24395c-0.17296,-2.57179 -1.59974,-3.97863 -0.24823,-6.86438c2.19252,-4.68146 9.10511,-4.38197 13.23607,-4.38197c0,0 2.5,0 2.5,2.5c0,2.5 -2.5,2.5 -2.5,2.5c-3.15513,0 -4.80289,-0.14106 -7.74871,1.16432c-0.33888,0.15017 -0.88801,0.10557 -1.01523,0.45372c-0.48088,1.31602 0.65933,2.73754 0.75177,4.13562c0.40274,6.09126 0.26059,11.74089 1.46362,17.75605c0.16667,0.83333 0.42805,1.65322 0.5,2.5c0.03489,0.4106 -0.43972,0.89963 -0.18368,1.22252c0.20773,0.26197 0.64488,-0.1993 0.97858,-0.22007c2.62538,-0.16336 5.32968,-0.01193 7.95986,-0.00365c1,0.16667 2,0.33333 3,0.5l2.2938,-0.00852c0,0 2.5,0 2.5,2.5z" fill="#161100" stroke="none" stroke-width="0.5" stroke-linecap="butt"/></g></g></svg>