<svg version="1.1" xmlns="http://www.w3.org/2000/svg" xmlns:xlink="http://www.w3.org/1999/xlink" width="240.16536" height="159.16535" viewBox="0,0,240.16536,159.16535"><g transform="translate(-257.29588,-192.66435)"><g data-paper-data="{&quot;isPaintingLayer&quot;:true}" fill-rule="nonzero" stroke-linecap="butt" stroke-linejoin="miter" stroke-miterlimit="10" stroke-dasharray="" stroke-dashoffset="0" style="mix-blend-mode: normal"><path d="M270.74589,325.14902c7.01402,0 12.70001,5.80478 12.70001,12.96534c0,7.16056 -5.68599,12.96534 -12.70001,12.96534c-7.01402,0 -12.70001,-5.80478 -12.70001,-12.96534c0,-7.16056 5.68599,-12.96534 12.70001,-12.96534z" data-paper-data="{&quot;index&quot;:null}" fill="#000000" stroke="#ffffff" stroke-width="1.5"/><path d="M266.84749,333.14305l3.24094,6.09885l3.99914,-6.23964l4.06382,0.24656l-7.82194,12.31335l-7.4023,-12.56321z" data-paper-data="{&quot;index&quot;:null}" fill="#ffffff" stroke="none" stroke-width="0"/><path d="M453.71124,206.11436c0,7.01402 -5.80478,12.70001 -12.96534,12.70001c-7.16056,0 -12.96534,-5.68599 -12.96534,-12.70001c0,-7.01402 5.80478,-12.70001 12.96534,-12.70001c7.16056,0 12.96534,5.68599 12.96534,12.70001z" data-paper-data="{&quot;index&quot;:null}" fill="#000000" stroke="#ffffff" stroke-width="1.5"/><path d="M445.71721,202.21597l-6.09885,3.24094l6.23964,3.99914l-0.24656,4.06382l-12.31335,-7.82194l12.56321,-7.4023z" data-paper-data="{&quot;index&quot;:null}" fill="#ffffff" stroke="none" stroke-width="0"/><path d="M470.78056,206.11436c0,-7.01402 5.80478,-12.70001 12.96534,-12.70001c7.16056,0 12.96534,5.68599 12.96534,12.70001c0,7.01402 -5.80478,12.70001 -12.96534,12.70001c-7.16056,0 -12.96534,-5.68599 -12.96534,-12.70001z" data-paper-data="{&quot;index&quot;:null}" fill="#000000" stroke="#ffffff" stroke-width="1.5"/><path d="M478.77459,210.01275l6.09885,-3.24094l-6.23964,-3.99914l0.24656,-4.06382l12.31335,7.82194l-12.56321,7.4023z" data-paper-data="{&quot;index&quot;:null}" fill="#ffffff" stroke="none" stroke-width="0"/></g></g></svg>