<svg version="1.1" xmlns="http://www.w3.org/2000/svg" xmlns:xlink="http://www.w3.org/1999/xlink" width="30.01718" height="222.09647" viewBox="0,0,30.01718,222.09647"><g transform="translate(-635.47951,-108.22217)"><g data-paper-data="{&quot;isPaintingLayer&quot;:true}" fill-rule="nonzero" stroke-linecap="butt" stroke-linejoin="miter" stroke-miterlimit="10" stroke-dasharray="" stroke-dashoffset="0" style="mix-blend-mode: normal"><path d="M646.36303,300.65084l0.61277,-174.62273l16.74914,-14.03766l-1.22554,212.64139z" fill="#777777" stroke="#474747" stroke-width="3.5"/><path d="M656.30238,209.83006l0.49021,-83.64106l4.90215,-4.67922l-0.12255,89.49008z" fill="#777777" stroke="#646464" stroke-width="3.5"/><path d="M649.26149,208.98104l0.12255,-76.62222l4.90215,-3.50942l-0.24511,80.71655z" fill="#777777" stroke="#646464" stroke-width="3.5"/><path d="M654.17851,220.26397l-0.51147,78.94897l-4.87113,-6.72342l0.47924,-74.2507z" data-paper-data="{&quot;index&quot;:null}" fill="#777777" stroke="#646464" stroke-width="3.5"/><path d="M661.10873,221.75455l-0.51147,87.72251l-4.99369,-7.89323l0.47924,-80.68462z" data-paper-data="{&quot;index&quot;:null}" fill="#777777" stroke="#646464" stroke-width="3.5"/><path d="M635.57251,213.96299c0.61358,-4.18347 1.02333,-8.85782 4.70433,-8.16048c0.90163,0.1708 2.92017,2.35381 4.99454,3.2353c1.91652,0.81441 3.91152,0.30742 4.39402,1.008c1.12735,1.63691 0.07351,7.07119 -1.7265,6.68202c-3.66604,-0.79261 -3.13134,6.76999 -6.81233,6.07265c-3.681,-0.69734 -6.16763,-4.65402 -5.55405,-8.83749z" fill="#464646" stroke="none" stroke-width="0"/></g></g></svg>