<svg version="1.1" xmlns="http://www.w3.org/2000/svg" xmlns:xlink="http://www.w3.org/1999/xlink" width="58.34884" height="76.7678" viewBox="0,0,58.34884,76.7678"><g transform="translate(-99.75848,-169.9583)"><g data-paper-data="{&quot;isPaintingLayer&quot;:true}" fill-rule="nonzero" stroke="none" stroke-linecap="butt" stroke-linejoin="miter" stroke-miterlimit="10" stroke-dasharray="" stroke-dashoffset="0" style="mix-blend-mode: normal"><path d="M107.70351,246.72611l-7.94503,-73.89797l54.89292,-2.86983l3.45592,50.86956z" fill="#111111" stroke-width="0"/><path d="M117.25812,180.62569l0.52197,0.18079c3.55335,0 -0.31772,-1.69168 -1.90715,-1.80104c0.39102,0.52281 0.62124,1.19735 0.75556,1.92813c0.16087,-0.46413 0.62962,-0.30788 0.62962,-0.30788zM115.2,178.50006c0,-0.5 0.5,-0.5 0.5,-0.5c0.82336,0.00781 4.13407,0.64296 4.60562,1.40765c0.99232,1.60919 -1.69943,2.3859 -2.68571,2.3859l-0.67803,-0.2192c0,0 -0.13707,-0.04569 -0.23929,-0.16164c0.1537,1.20167 0.0974,2.49474 0.0974,3.4873v0.2c0,0 0,0.5 -0.5,0.5c-0.5,0 -0.5,-0.5 -0.5,-0.5v-0.2c0,-1.4689 0.2624,-4.39481 -0.85355,-5.44645c0,0 -0.35356,-0.35356 0,-0.70711c0.08868,-0.08868 0.17736,-0.13287 0.26046,-0.14932c-0.00449,-0.03008 -0.00691,-0.06239 -0.00691,-0.09713z" fill="#d6d6d6" stroke-width="0.5"/><path d="M126.7,178.40004c-0.17199,0 -0.28481,-0.05916 -0.35883,-0.13678c0.22531,0.39338 -0.16382,0.65281 -0.16382,0.65281c-1.18752,0.71122 0.19114,0.73817 0.8762,1.43042c0.1245,0.12581 0.7608,1.46715 1.09289,1c0.43171,-0.60731 0.77567,-4.13729 0.15356,-3.94644c-0.61056,-0.00758 -0.82567,0.00704 -1.24645,0.45355l0.14644,0.04645c0,0 0,0.5 -0.5,0.5zM126.26555,178.15604c-0.06555,-0.12697 -0.06555,-0.25599 -0.06555,-0.25599l0.14644,-0.75356c0.63233,-0.60796 1.08177,-0.73817 1.95356,-0.74644c2.15034,0.22743 1.73078,6 -0.4,6c-1.5874,0 -3.9588,-3.1191 -2.27735,-4.31602c0,0 0.36834,-0.24555 0.6429,0.07201z" fill="#d6d6d6" stroke-width="0.5"/><path d="M135.3,175.60006c0.5,0 0.5,0.5 0.5,0.5v0.2c-0.00549,0.57889 -0.08347,2.91851 -0.78513,3.08662c-0.48493,0.11619 -1.26186,-1.30287 -1.56665,-2.11158c0.10729,0.79887 0.24527,2.23344 0.32612,2.46684c0,0 0.15812,0.47434 -0.31623,0.63245c-0.47434,0.15812 -0.63245,-0.31623 -0.63245,-0.31623c-0.16818,-0.52023 -0.66583,-3.90738 0.03841,-4.19895c1.42032,-0.58805 1.72267,0.64194 1.74386,1.55059c0.05471,-0.37149 0.19673,-0.73436 0.19207,-1.10975v-0.2c0,0 0,-0.5 0.5,-0.5z" fill="#d6d6d6" stroke-width="0.5"/><path d="M140.34644,177.5465c0.35356,-0.35356 0.70711,0 0.70711,0l-0.15355,0.05355c3.06419,0 1.08284,3.61537 -0.79134,2.96194c-2.08068,-0.72543 -2.49848,-4.63257 0.19134,-4.76194c0,0 0.5,0 0.5,0.5c0,0.5 -0.5,0.5 -0.5,0.5c-1.69398,-0.15777 -0.65983,2.40825 0.19134,2.83806c0.18653,0.09419 2.19089,-1.03806 0.40866,-1.03806l-0.55356,-0.34644c0,0 -0.35356,-0.35356 0,-0.70711z" fill="#d6d6d6" stroke-width="0.5"/><path d="M131.1,180.20002c-0.5,0 -0.5,-0.5 -0.5,-0.5v-0.2c0,-1.83823 0.06794,-3.90375 -0.38507,-5.67873c0,0 -0.12127,-0.48507 0.3638,-0.60634c0.48507,-0.12127 0.60634,0.3638 0.60634,0.3638c0.45765,1.86409 0.41493,3.99732 0.41493,5.92127v0.2c0,0 0,0.5 -0.5,0.5z" fill="#d6d6d6" stroke-width="0.5"/><path d="M132.3,188.40004c-0.5,0 -0.5,-0.5 -0.5,-0.5v-0.6c0.01533,-1.23499 -0.2,-2.52225 -0.2,-3.8c0,0 0,-0.5 0.5,-0.5c0.5,0 0.5,0.5 0.5,0.5c0,1.2937 0.18807,2.54274 0.2,3.8v0.6c0,0 0,0.5 -0.5,0.5z" fill="#d6d6d6" stroke-width="0.5"/><path d="M133.1,197.40004c-0.5,0 -0.5,-0.5 -0.5,-0.5v-0.6c0,-1.00665 0.24466,-4.27711 -0.45355,-4.84645c0,0 -0.35356,-0.35356 0,-0.70711c0.35356,-0.35356 0.70711,0 0.70711,0c0.98458,1.08882 0.74644,4.06322 0.74644,5.55356v0.6c0,0 0,0.5 -0.5,0.5z" fill="#d6d6d6" stroke-width="0.5"/><path d="M133.7,206.40004c-0.5,0 -0.5,-0.5 -0.5,-0.5l0.00646,-0.51991c-0.50528,-1.51585 -0.20646,-3.48664 -0.20646,-5.08009c0,0 0,-0.5 0.5,-0.5c0.5,0 0.5,0.5 0.5,0.5c0,1.54372 -0.296,3.45127 0.19355,4.91991l0.00645,0.68009c0,0 0,0.5 -0.5,0.5z" fill="#d6d6d6" stroke-width="0.5"/><path d="M134.72361,211.74728c-0.44721,0.2236 -0.67082,-0.22361 -0.67082,-0.22361l-0.25278,-0.6236c0,-0.86285 -0.10093,-1.42165 -0.37434,-2.24188c0,0 -0.15812,-0.47434 0.31623,-0.63246c0.47434,-0.15812 0.63245,0.31623 0.63245,0.31623c0.3031,0.90932 0.42566,1.6004 0.42566,2.55812l0.14721,0.17639c0,0 0.2236,0.44722 -0.22361,0.67082z" fill="#d6d6d6" stroke-width="0.5"/><path d="M135.54189,221.37436c-0.47434,-0.15812 -0.31623,-0.63245 -0.31623,-0.63245l0.18079,-0.52197c0,-1.5762 -0.46544,-3.67391 -0.9808,-5.1618c0,0 -0.15812,-0.47434 0.31623,-0.63245c0.47434,-0.15812 0.63245,0.31623 0.63245,0.31623c0.55045,1.70263 1.0192,3.84723 1.0192,5.6382l-0.2192,0.67802c0,0 -0.15811,0.47434 -0.63245,0.31623z" fill="#d6d6d6" stroke-width="0.5"/><path d="M136.5,228.60006c-0.5,0 -0.5,-0.5 -0.5,-0.5l0.00375,-0.53891c-0.23295,-0.93181 -0.39672,-1.90311 -0.40375,-2.86109c0,0 0,-0.5 0.5,-0.5c0.5,0 0.5,0.5 0.5,0.5c-0.0081,0.90349 0.17604,1.85806 0.39625,2.73891l0.00375,0.66109c0,0 0,0.5 -0.5,0.5z" fill="#d6d6d6" stroke-width="0.5"/></g></g></svg>