<svg version="1.1" xmlns="http://www.w3.org/2000/svg" xmlns:xlink="http://www.w3.org/1999/xlink" width="71.0484" height="50.06995" viewBox="0,0,71.0484,50.06995"><g transform="translate(-507.65135,-227.25)"><g data-paper-data="{&quot;isPaintingLayer&quot;:true}" fill-rule="nonzero" stroke-linecap="butt" stroke-linejoin="miter" stroke-miterlimit="10" stroke-dasharray="" stroke-dashoffset="0" style="mix-blend-mode: normal"><path d="M571.48353,243.5c0,8.28427 -12.98374,15 -29,15c-16.01626,0 -29,-6.71573 -29,-15c0,-8.28427 12.98374,-15 29,-15c16.01626,0 29,6.71573 29,15z" fill="#252525" stroke="#848484" stroke-width="2.5"/><path d="M569.64987,245.94769c0.55231,-0.83364 1.38595,-0.28132 1.38595,-0.28132l0.59958,0.39724c0.61844,0.42202 1.23689,0.84404 1.85533,1.26607c1.60149,2.92255 4.26221,5.87938 4.97131,9.23589c0.5229,2.47515 0.02477,5.68533 -0.00742,8.21824c-0.04154,3.26762 0.10274,6.00416 -3.12655,7.84489c-2.06982,1.17982 -4.08364,0.8713 -6.35089,0.8713c-3.33333,0 -6.66667,0 -10,0c-13.77284,0 -28.50104,1.44666 -42.1071,-0.72306c-2.47077,-0.3956 -6.54155,0.27193 -8.27761,-1.94761c-2.36791,-3.02735 0.38442,-3.55974 1.16922,-6.17429c1.53394,-5.11033 2.41857,-10.02444 2.85731,-15.35164c0.17143,-2.08143 0.87916,-3.71812 0.86452,-5.8034c0,0 0,-1 1,-1c1,0 1,1 1,1c-0.01292,2.1613 -0.70466,3.83469 -0.87095,5.96356c-0.25712,3.29179 -0.33431,6.83025 -1.14333,10.04435c-0.32472,1.29006 -1.16692,2.41287 -1.48344,3.70497c-0.33833,1.38117 -0.52341,2.86881 -1.29063,4.06609c-0.29006,0.45265 -0.95676,0.66908 -1.08823,1.19037c-0.09716,0.38526 0.24107,0.78822 0.51719,1.07392c1.43817,1.48813 5.14749,0.95468 7.0609,1.25864c13.49712,2.15235 28.1287,0.6981 41.79215,0.6981c3.33333,0 6.66667,0 10,0c1.86438,0 3.66985,0.34292 5.36431,-0.61103c2.49964,-1.40725 2.08169,-3.63527 2.11329,-6.13053c0.03021,-2.38544 0.53657,-5.45253 0.05004,-7.78143c-0.62846,-3.00824 -3.1321,-5.64569 -4.49483,-8.30293c-0.49307,-0.3144 -0.98614,-0.62879 -1.47922,-0.94319l-0.59958,-0.39724c0,0 -0.83364,-0.55231 -0.28132,-1.38595z" fill="#848484" stroke="none" stroke-width="0.5"/><text transform="translate(521.48353,270.5) scale(0.41333,0.41333)" font-size="40" xml:space="preserve" fill="#ffffff" fill-rule="nonzero" stroke="none" stroke-width="1" stroke-linecap="butt" stroke-linejoin="miter" stroke-miterlimit="10" stroke-dasharray="" stroke-dashoffset="0" font-family="Handwriting" font-weight="normal" text-anchor="start" style="mix-blend-mode: normal"><tspan x="0" dy="0">Coffee</tspan></text><path d="M518.16668,249c0,-1.38071 1.11929,-2.5 2.5,-2.5c1.38071,0 2.5,1.11929 2.5,2.5c0,1.38071 -1.11929,2.5 -2.5,2.5c-1.38071,0 -2.5,-1.11929 -2.5,-2.5z" fill="#5a2d24" stroke="none" stroke-width="0.5"/><path d="M521.5,236c0.79263,0 1.4991,0.36887 1.95713,0.94431c4.50448,0.73254 8.91532,1.83931 13.28244,3.12946c0.43266,-0.35838 0.98805,-0.57378 1.59374,-0.57378c0.91743,0 1.71943,0.49417 2.15435,1.23085c1.11256,-0.59475 2.3487,0.05968 2.3487,0.05968c4.00695,2.13673 7.63301,3.25397 11.70841,3.74077c-0.3901,-0.20865 -0.7896,-0.39825 -1.19626,-0.56677l-1.4262,-0.16521c0,0 -2.46598,-0.411 -2.05499,-2.87698c0.411,-2.46598 2.87698,-2.05499 2.87698,-2.05499l2.5738,0.50146c1.41921,0.62348 2.77688,1.41311 4.03081,2.33246c0.3021,-0.12954 0.63487,-0.20127 0.9844,-0.20127l0.00003,0.00001c1.38071,0 2.5,1.11929 2.5,2.5c0,0.37699 -0.08344,0.73448 -0.23287,1.05503c0.10728,0.14278 0.20869,0.30644 0.30227,0.4936c0.3473,0.6946 0.37095,1.28131 0.23851,1.76015c0.01675,0.11688 0.02542,0.23637 0.02542,0.35789c0,1.36231 -1.08966,2.47013 -2.44495,2.49941c-0.19757,0.24633 -0.47039,0.48012 -0.84095,0.68598c-0.13048,0.07249 -0.25749,0.13286 -0.38099,0.1823c-0.01838,1.36488 -1.13053,2.46565 -2.49977,2.46565c-0.47989,0 -0.9282,-0.13521 -1.30891,-0.36962c-0.65878,0.36961 -1.35777,0.36961 -1.35777,0.36961l-0.93967,-0.07464c-1.47148,-0.3756 -2.90157,-0.90343 -4.30048,-1.50802c-0.21429,0.10557 -0.42822,0.21184 -0.64181,0.31873c0,0 -0.02153,0.01077 -0.06143,0.02807c0.07154,0.23264 0.11005,0.47975 0.11005,0.73585c0,1.38071 -1.11929,2.5 -2.5,2.5c-1.37833,0 -2.49613,-1.12256 -2.49999,-2.49998l0.00001,0.00713c-0.00001,-0.00238 -0.00001,-0.00475 -0.00001,-0.00714c0,0 0,-0.00001 0,-0.00001v0.00002c0,0 0,-0.00001 0,-0.00001c0,0 0,-0.00001 0,-0.00001c0,-0.05799 0.00197,-0.11551 0.00586,-0.17252c-0.05701,0.00389 -0.11454,0.00586 -0.17253,0.00586c-1.12814,0 -2.08175,-0.74724 -2.39289,-1.77378c-0.03124,-0.00947 -0.06223,-0.01954 -0.09294,-0.03018c-0.00959,0.16088 -0.03342,0.33168 -0.0737,0.51295c-0.17566,0.79048 -0.55047,1.26802 -0.97698,1.55242c-0.20305,1.17676 -1.22873,2.07193 -2.46349,2.07193c-1.34169,0 -2.43652,-1.05691 -2.49734,-2.38357l-0.10289,-0.02289c-0.07721,-0.0214 -0.15386,-0.0429 -0.22997,-0.0645c-0.04727,0.23583 -0.13308,0.48771 -0.26705,0.75565l-0.00001,0.00001c-1.11803,2.23607 -3.3541,1.11803 -3.3541,1.11803l0.20261,-0.08181c-1.91035,-0.19289 -3.83118,-0.32327 -5.75124,-0.32093c0,0 -2.5,0 -2.5,-2.5c0,-1.61024 1.03715,-2.18333 1.7754,-2.3873c-0.95895,-0.87822 -1.77501,-1.93635 -2.70985,-2.84493c0,0 -0.38741,-0.38741 -0.61815,-0.98088c-0.2886,-0.23241 -0.55437,-0.4885 -0.78346,-0.7828c-0.06462,-0.08301 -0.12807,-0.16678 -0.19043,-0.25127l-0.02649,0.02208l-3.19042,-3.8285c-0.36806,-0.43538 -0.58995,-0.99831 -0.58995,-1.61307c0,-1.38071 1.11929,-2.5 2.5,-2.5c0.08042,0 0.15995,0.0038 0.23842,0.01122l0.675,0.05666c0.43161,-0.35484 0.98422,-0.56787 1.58659,-0.56787zM544.05956,247.94044c0.21622,0.06553 0.42004,0.15957 0.60711,0.27774c0.04442,-0.02806 0.08978,-0.05476 0.13603,-0.08003c0.03232,-0.25161 0.10872,-0.52274 0.2421,-0.81341c-0.41298,0.16658 -0.83596,0.18932 -1.17164,0.16554c0.07606,0.14238 0.13877,0.293 0.1864,0.45016zM528.76761,243.09468c0.043,0.18369 0.06574,0.37518 0.06574,0.57198c0,0.21484 -0.0271,0.42334 -0.07806,0.62229c1.16747,0.7814 2.34702,1.54825 3.61111,2.20557c0.41011,0.03717 0.85082,0.18315 1.24582,0.53965c0.05014,0.03727 0.09943,0.07714 0.1475,0.11978c0.69156,0.29382 1.41281,0.54907 2.17386,0.7525l2.9421,0.65307c0,0 0.11567,0.02571 0.29106,0.09111c0.00157,-0.24967 0.03973,-0.49065 0.1094,-0.71786c-0.85228,-0.3983 -1.44278,-1.26325 -1.44278,-2.26611c0,-0.01378 0.00011,-0.02754 0.00033,-0.04127c-2.99809,-0.93859 -6.01508,-1.80796 -9.06607,-2.53072z" fill="#5a2d24" stroke="none" stroke-width="0.5"/><path d="M529,232.5c0,-1.38071 1.11929,-2.5 2.5,-2.5c1.38071,0 2.5,1.11929 2.5,2.5c0,1.38071 -1.11929,2.5 -2.5,2.5c-1.38071,0 -2.5,-1.11929 -2.5,-2.5z" fill="#5a2d24" stroke="none" stroke-width="0.5"/><path d="M543,235.5c0,-1.38071 1.11929,-2.5 2.5,-2.5c1.38071,0 2.5,1.11929 2.5,2.5c0,0.5628 -0.18597,1.08217 -0.49982,1.5c0.31385,0.41783 0.49982,0.9372 0.49982,1.5c0,1.38071 -1.11929,2.5 -2.5,2.5c-1.38071,0 -2.5,-1.11929 -2.5,-2.5c0,-0.5628 0.18597,-1.08217 0.49982,-1.5c-0.31385,-0.41783 -0.49982,-0.9372 -0.49982,-1.5z" fill="#5a2d24" stroke="none" stroke-width="0.5"/><path d="M527,233.5c0,-1.38071 1.11929,-2.5 2.5,-2.5c0.87341,0 1.64222,0.4479 2.08925,1.12653c1.44021,-0.6326 2.67851,0.6057 2.67851,0.6057l0.0228,0.39606c1,0.33333 2,0.66667 3,1c0,0 2.37171,0.79057 1.58114,3.16228c-0.79057,2.37171 -3.16228,1.58114 -3.16228,1.58114c-1,-0.33333 -2,-0.66667 -3,-1l-1.9772,-1.60394c0,0 -0.16047,-0.16047 -0.33637,-0.43307c-0.27812,0.10678 -0.58015,0.1653 -0.89586,0.1653c-1.38071,0 -2.5,-1.11929 -2.5,-2.5z" fill="#5a2d24" stroke="none" stroke-width="0.5"/><path d="M550,243.5c0,-0.5628 0.18597,-1.08217 0.49982,-1.5c-1.38063,-0.0001 -2.49982,-1.11935 -2.49982,-2.5c0,-0.80814 0.38345,-1.52671 0.97833,-1.98372c-0.41406,0.3041 -0.92521,0.48372 -1.47833,0.48372c-1.38071,0 -2.5,-1.11929 -2.5,-2.5c0,-1.38071 1.11929,-2.5 2.5,-2.5c1.38071,0 2.5,1.11929 2.5,2.5c0,0.80814 -0.38345,1.52671 -0.97833,1.98372c0.41406,-0.3041 0.92521,-0.48372 1.47833,-0.48372c1.38071,0 2.5,1.11929 2.5,2.5c0,0.5628 -0.18597,1.08217 -0.49982,1.5c1.38063,0.0001 2.49982,1.11935 2.49982,2.5c0,1.38071 -1.11929,2.5 -2.5,2.5c-1.38071,0 -2.5,-1.11929 -2.5,-2.5z" fill="#5a2d24" stroke="none" stroke-width="0.5"/><path d="M556,237.5c0,-1.38071 1.11929,-2.5 2.5,-2.5c1.38071,0 2.5,1.11929 2.5,2.5c0,1.38071 -1.11929,2.5 -2.5,2.5c-1.38071,0 -2.5,-1.11929 -2.5,-2.5z" fill="#5a2d24" stroke="none" stroke-width="0.5"/><path d="M536,231.5c0,-0.17123 0.01722,-0.33845 0.05001,-0.5c-0.03279,-0.16155 -0.05001,-0.32877 -0.05001,-0.5c0,-1.38071 1.11929,-2.5 2.5,-2.5c1.38071,0 2.5,1.11929 2.5,2.5c0,0.17123 -0.01722,0.33845 -0.05001,0.5c0.03279,0.16155 0.05001,0.32877 0.05001,0.5c0,1.38071 -1.11929,2.5 -2.5,2.5c-1.38071,0 -2.5,-1.11929 -2.5,-2.5z" fill="#5a2d24" stroke="none" stroke-width="0.5"/><path d="M546,230.5c0,-1.38071 1.11929,-2.5 2.5,-2.5c1.38071,0 2.5,1.11929 2.5,2.5c0,1.38071 -1.11929,2.5 -2.5,2.5c-1.38071,0 -2.5,-1.11929 -2.5,-2.5z" fill="#5a2d24" stroke="none" stroke-width="0.5"/><path d="M561,240.5c0,-1.38071 1.11929,-2.5 2.5,-2.5c1.38071,0 2.5,1.11929 2.5,2.5c0,1.38071 -1.11929,2.5 -2.5,2.5c-1.38071,0 -2.5,-1.11929 -2.5,-2.5z" fill="#5a2d24" stroke="none" stroke-width="0.5"/><path d="M557,244.5c0,-1.38071 1.11929,-2.5 2.5,-2.5c1.38071,0 2.5,1.11929 2.5,2.5c0,1.38071 -1.11929,2.5 -2.5,2.5c-1.38071,0 -2.5,-1.11929 -2.5,-2.5z" fill="#5a2d24" stroke="none" stroke-width="0.5"/><path d="M555,232.5c0,-1.38071 1.11929,-2.5 2.5,-2.5c1.38071,0 2.5,1.11929 2.5,2.5c0,1.38071 -1.11929,2.5 -2.5,2.5c-1.38071,0 -2.5,-1.11929 -2.5,-2.5z" fill="#5a2d24" stroke="none" stroke-width="0.5"/><path d="M530,246.5c0,-1.38071 1.11929,-2.5 2.5,-2.5c1.38071,0 2.5,1.11929 2.5,2.5c0,1.38071 -1.11929,2.5 -2.5,2.5c-1.38071,0 -2.5,-1.11929 -2.5,-2.5z" fill="#5a2d24" stroke="none" stroke-width="0.5"/></g></g></svg>