<svg version="1.1" xmlns="http://www.w3.org/2000/svg" xmlns:xlink="http://www.w3.org/1999/xlink" width="111.5" height="34" viewBox="0,0,111.5,34"><g transform="translate(-302.25,-162.75)"><g data-paper-data="{&quot;isPaintingLayer&quot;:true}" fill-rule="nonzero" stroke="none" stroke-linecap="butt" stroke-linejoin="miter" stroke-miterlimit="10" stroke-dasharray="" stroke-dashoffset="0" style="mix-blend-mode: normal"><path d="M314.68113,187.24899c0,-1.06559 1.06559,-1.06559 1.06559,-1.06559l0.09288,0.00885c0.30925,-1.74306 0.71534,-3.44538 1.15184,-5.14117c-1.21012,-0.7204 -2.48168,-1.37309 -3.8704,-1.93572l-0.97381,-0.19476c-0.49804,-0.08945 -0.87596,-0.52497 -0.87596,-1.04876c0,-0.58851 0.47708,-1.06559 1.06559,-1.06559h0.97438c1.0185,-0.37997 2.22869,-0.21312 3.28796,-0.21312c0.52628,0 1.04374,0.00706 1.55751,0.02167c0.0597,-0.23253 0.1189,-0.46549 0.17742,-0.69897c0.25516,-1.01796 0.22187,-3.59435 1.38051,-4.09576c0.6971,-0.30167 1.6003,-0.05501 2.25457,0.33085c0.45224,0.26671 0.44975,0.94941 0.6994,1.4113c0.59964,1.10943 1.10001,2.24709 1.57469,3.40298c0.14828,0.01992 0.29816,0.04444 0.45021,0.07486c0.93225,0.18645 3.58303,0.0187 3.98319,1.09082c0.25328,0.6786 -0.47882,1.38403 -0.88128,1.98626c-0.21128,0.31616 -0.62186,0.44018 -0.90778,0.69087c-0.24466,0.21451 -0.48559,0.43259 -0.72515,0.65184c0.43803,1.0065 0.80995,2.03982 0.85876,3.02276c0.03355,0.67569 0.43155,1.58337 -0.07829,2.02805c-1.18578,1.03423 -2.52577,-0.15561 -3.32413,-0.76357c-0.40844,-0.31104 -0.81153,-0.61905 -1.21156,-0.92311c-1.73927,1.60465 -3.67576,2.99079 -6.02532,3.46992l-0.63521,0.02069c0,0 -1.06559,0 -1.06559,-1.06559zM325.28584,179.39819c-0.02117,-0.00395 -0.04237,-0.00804 -0.06359,-0.01227c0.00761,0.01759 0.01527,0.0352 0.02297,0.05285c0.01346,-0.01349 0.02701,-0.02702 0.04063,-0.04058zM317.42254,178.72348c0.05321,0.02687 0.10638,0.05387 0.15949,0.08101c0.00717,-0.02702 0.01435,-0.05404 0.02152,-0.08107c-0.06034,0 -0.12068,0.00002 -0.18101,0.00006z" fill="#ffffff" stroke-width="0.5"/><path d="M339.68113,187.74899c0,-1.06559 1.06559,-1.06559 1.06559,-1.06559l0.09288,0.00885c0.30925,-1.74306 0.71534,-3.44538 1.15184,-5.14117c-1.21012,-0.7204 -2.48168,-1.37309 -3.8704,-1.93572l-0.97381,-0.19476c-0.49804,-0.08945 -0.87596,-0.52497 -0.87596,-1.04876c0,-0.58851 0.47708,-1.06559 1.06559,-1.06559h0.97438c1.0185,-0.37997 2.22869,-0.21312 3.28796,-0.21312c0.52628,0 1.04374,0.00706 1.55751,0.02167c0.0597,-0.23253 0.1189,-0.46549 0.17742,-0.69897c0.25516,-1.01796 0.22187,-3.59435 1.38051,-4.09576c0.6971,-0.30167 1.6003,-0.05501 2.25457,0.33085c0.45224,0.26671 0.44975,0.94941 0.6994,1.4113c0.59964,1.10943 1.10001,2.24709 1.57469,3.40298c0.14828,0.01992 0.29816,0.04444 0.45021,0.07486c0.93225,0.18645 3.58303,0.0187 3.98319,1.09082c0.25328,0.6786 -0.47882,1.38403 -0.88128,1.98626c-0.21128,0.31616 -0.62186,0.44018 -0.90778,0.69087c-0.24466,0.21451 -0.48559,0.43259 -0.72515,0.65184c0.43803,1.0065 0.80995,2.03982 0.85876,3.02276c0.03355,0.67569 0.43155,1.58337 -0.07829,2.02805c-1.18578,1.03423 -2.52577,-0.15561 -3.32413,-0.76357c-0.40844,-0.31104 -0.81153,-0.61905 -1.21156,-0.92311c-1.73927,1.60465 -3.67576,2.99079 -6.02532,3.46992l-0.63521,0.02069c0,0 -1.06559,0 -1.06559,-1.06559zM350.28584,179.89819c-0.02117,-0.00395 -0.04237,-0.00804 -0.06359,-0.01227c0.00761,0.01759 0.01527,0.0352 0.02297,0.05285c0.01346,-0.01349 0.02701,-0.02702 0.04063,-0.04058zM342.42254,179.22348c0.05321,0.02687 0.10638,0.05387 0.15949,0.08101c0.00717,-0.02702 0.01435,-0.05404 0.02152,-0.08107c-0.06034,0 -0.12068,0.00002 -0.18101,0.00006z" fill="#ffffff" stroke-width="0.5"/><path d="M364.68113,187.74899c0,-1.06559 1.06559,-1.06559 1.06559,-1.06559l0.09288,0.00885c0.30925,-1.74306 0.71534,-3.44538 1.15184,-5.14117c-1.21012,-0.7204 -2.48168,-1.37309 -3.8704,-1.93572l-0.97381,-0.19476c-0.49804,-0.08945 -0.87596,-0.52497 -0.87596,-1.04876c0,-0.58851 0.47708,-1.06559 1.06559,-1.06559h0.97438c1.0185,-0.37997 2.22869,-0.21312 3.28796,-0.21312c0.52628,0 1.04374,0.00706 1.55751,0.02167c0.0597,-0.23253 0.1189,-0.46549 0.17742,-0.69897c0.25516,-1.01796 0.22187,-3.59435 1.38051,-4.09576c0.6971,-0.30167 1.6003,-0.05501 2.25457,0.33085c0.45224,0.26671 0.44975,0.94941 0.6994,1.4113c0.59964,1.10943 1.10001,2.24709 1.57469,3.40298c0.14828,0.01992 0.29816,0.04444 0.45021,0.07486c0.93225,0.18645 3.58303,0.0187 3.98319,1.09082c0.25328,0.6786 -0.47882,1.38403 -0.88128,1.98626c-0.21128,0.31616 -0.62186,0.44018 -0.90778,0.69087c-0.24466,0.21451 -0.48559,0.43259 -0.72515,0.65184c0.43803,1.0065 0.80995,2.03982 0.85876,3.02276c0.03355,0.67569 0.43155,1.58337 -0.07829,2.02805c-1.18578,1.03423 -2.52577,-0.15561 -3.32413,-0.76357c-0.40844,-0.31104 -0.81153,-0.61905 -1.21156,-0.92311c-1.73927,1.60465 -3.67576,2.99079 -6.02532,3.46992l-0.63521,0.02069c0,0 -1.06559,0 -1.06559,-1.06559zM375.28584,179.89819c-0.02117,-0.00395 -0.04237,-0.00804 -0.06359,-0.01227c0.00761,0.01759 0.01527,0.0352 0.02297,0.05285c0.01346,-0.01349 0.02701,-0.02702 0.04063,-0.04058zM367.42254,179.22348c0.05321,0.02687 0.10638,0.05387 0.15949,0.08101c0.00717,-0.02702 0.01435,-0.05404 0.02152,-0.08107c-0.06034,0 -0.12068,0.00002 -0.18101,0.00006z" fill="#ffffff" stroke-width="0.5"/><path d="M392.18113,189.24899c0,-1.06559 1.06559,-1.06559 1.06559,-1.06559l0.09288,0.00885c0.30925,-1.74306 0.71534,-3.44538 1.15184,-5.14117c-1.21012,-0.7204 -2.48168,-1.37309 -3.8704,-1.93572l-0.97381,-0.19476c-0.49804,-0.08945 -0.87596,-0.52497 -0.87596,-1.04876c0,-0.58851 0.47708,-1.06559 1.06559,-1.06559h0.97438c1.0185,-0.37997 2.22869,-0.21312 3.28796,-0.21312c0.52628,0 1.04374,0.00706 1.55751,0.02167c0.0597,-0.23253 0.1189,-0.46549 0.17742,-0.69897c0.25516,-1.01796 0.22187,-3.59435 1.38051,-4.09576c0.6971,-0.30167 1.6003,-0.05501 2.25457,0.33085c0.45224,0.26671 0.44975,0.94941 0.6994,1.4113c0.59964,1.10943 1.10001,2.24709 1.57469,3.40298c0.14828,0.01992 0.29816,0.04444 0.45021,0.07486c0.93225,0.18645 3.58303,0.0187 3.98319,1.09082c0.25328,0.6786 -0.47882,1.38403 -0.88128,1.98626c-0.21128,0.31616 -0.62186,0.44018 -0.90778,0.69087c-0.24466,0.21451 -0.48559,0.43259 -0.72515,0.65184c0.43803,1.0065 0.80995,2.03982 0.85876,3.02276c0.03355,0.67569 0.43155,1.58337 -0.07829,2.02805c-1.18578,1.03423 -2.52577,-0.15561 -3.32413,-0.76357c-0.40844,-0.31104 -0.81153,-0.61905 -1.21156,-0.92311c-1.73927,1.60465 -3.67576,2.99079 -6.02532,3.46992l-0.63521,0.02069c0,0 -1.06559,0 -1.06559,-1.06559zM402.78584,181.39819c-0.02117,-0.00395 -0.04237,-0.00804 -0.06359,-0.01227c0.00761,0.01759 0.01527,0.0352 0.02297,0.05285c0.01346,-0.01349 0.02701,-0.02702 0.04063,-0.04058zM394.92254,180.72348c0.05321,0.02687 0.10638,0.05387 0.15949,0.08101c0.00717,-0.02702 0.01435,-0.05404 0.02152,-0.08107c-0.06034,0 -0.12068,0.00002 -0.18101,0.00006z" fill="#ffffff" stroke-width="0.5"/><path d="M302.25,196.75v-34h111.5v34z" fill="none" stroke-width="0"/></g></g></svg>