<svg version="1.1" xmlns="http://www.w3.org/2000/svg" xmlns:xlink="http://www.w3.org/1999/xlink" width="18.2696" height="16.94265" viewBox="0,0,18.2696,16.94265"><g transform="translate(-402.98587,-41.73019)"><g data-paper-data="{&quot;isPaintingLayer&quot;:true}" fill-rule="nonzero" stroke-linecap="butt" stroke-linejoin="miter" stroke-miterlimit="10" stroke-dasharray="" stroke-dashoffset="0" style="mix-blend-mode: normal"><path d="M411.86568,42.24364c4.76887,-0.25355 8.74896,3.10678 8.88978,7.50551c0.14082,4.39873 -3.61095,8.17014 -8.37981,8.42369c-4.76887,0.25355 -8.74896,-3.10678 -8.88978,-7.50551c-0.14082,-4.39873 3.61095,-8.17014 8.37981,-8.42369z" fill="#86979f" stroke="#000000" stroke-width="1"/><text transform="translate(409.94265,53.83443) rotate(-91.8337) scale(0.16378,0.12086) skewX(0.89277)" font-size="40" xml:space="preserve" fill="#3a4144" fill-rule="nonzero" stroke="none" stroke-width="1" stroke-linecap="butt" stroke-linejoin="miter" stroke-miterlimit="10" stroke-dasharray="" stroke-dashoffset="0" font-family="Sans Serif" font-weight="normal" text-anchor="start" style="mix-blend-mode: normal"><tspan x="0" dy="0">32</tspan></text><path d="M412.36518,44.55893c1.03666,-0.05511 1.074,1.11145 1.074,1.11145c0.0816,2.54867 0.20399,6.37169 0.28559,8.92036c0,0 0.03735,1.16656 -0.99931,1.22168c-1.03666,0.05511 -1.074,-1.11145 -1.074,-1.11145c-0.0816,-2.54867 -0.1632,-5.09734 -0.24479,-7.64602l-0.0408,-1.27434c0,0 -0.03735,-1.16656 0.99931,-1.22168z" fill="#535d62" stroke="#86979f" stroke-width="3"/></g></g></svg>