<svg version="1.1" xmlns="http://www.w3.org/2000/svg" xmlns:xlink="http://www.w3.org/1999/xlink" width="967" height="400" viewBox="0,0,967,400"><g transform="translate(163.5,29.5)"><g data-paper-data="{&quot;isPaintingLayer&quot;:true}" fill-rule="nonzero" stroke-linecap="butt" stroke-linejoin="miter" stroke-miterlimit="10" stroke-dasharray="" stroke-dashoffset="0" style="mix-blend-mode: normal"><path d="M-163.5,370.5v-400h967v400z" fill="#000000" stroke="#000000" stroke-width="0"/><path d="M179.5,157.68184v-81.31502h281v81.31502z" fill="#ffffff" stroke="#000000" stroke-width="0"/><text transform="translate(188.04688,111.25558) scale(0.5,0.5)" font-size="40" xml:space="preserve" fill="#000000" fill-rule="nonzero" stroke="none" stroke-width="1" stroke-linecap="butt" stroke-linejoin="miter" stroke-miterlimit="10" stroke-dasharray="" stroke-dashoffset="0" font-family="&quot;Consolas&quot;, Sans Serif" font-weight="normal" text-anchor="start" style="mix-blend-mode: normal"><tspan x="0" dy="0">This game is best played</tspan><tspan x="0" dy="46.150000000000006px">with low power disabled.</tspan></text><path d="M281.03108,202.53413c0.06985,1.73413 -1.74051,2.33758 -1.74051,2.33758c-0.95246,0.31749 -6.08817,1.19935 -6.48087,2.585c-0.18652,0.65813 0.24392,1.36135 0.1903,2.04329c-0.04204,0.53468 -0.6415,1.02942 -0.47189,1.53822c0.10253,0.30758 0.65484,0.02952 0.97189,-0.03822c1.20421,-0.25729 2.41138,-1.33777 3.57438,-0.93312c1.60646,0.55894 2.91149,1.98832 3.73532,3.47641c0.841,1.51912 -0.76973,3.96114 0.45807,5.18894c1.47031,1.47031 4.15292,0.27476 6.23223,0.26777c6.99979,-0.02354 14.00017,0 21,0c6.18334,0 13.29836,-0.95188 19.40046,0.03228c1.04064,0.16784 1.9613,0.82049 3,1c4.53191,0.78321 9.98625,-0.03228 14.59954,-0.03228c3,0 6,0 9,0c1,0 2.01464,-0.17048 3,0c0.4708,0.08145 0.89438,1.07008 1.23223,0.73223c0.33785,-0.33785 -0.65078,-0.76144 -0.73223,-1.23223c-0.42886,-2.47877 -0.04288,-5.5396 0.1903,-8.04329c-3.11063,-3.11063 -2.46332,-7.38808 -3.15802,-11.55625c-0.17329,-1.03975 -0.82671,-1.96025 -1,-3c-0.18045,-1.08269 0.53399,-5.51743 -1.48899,-6.09076c-0.65813,-0.18652 -1.35973,0.16451 -2.04329,0.1903c-2.98818,0.11275 -6.00945,0 -9,0c-9.33333,0 -18.66667,0 -28,0c-4.63527,-0.044 -7.98872,-2.29405 -12.40046,-3.03228c-2.6507,-0.44355 -5.90833,0.03228 -8.59954,0.03228c-1.86655,0 -3.73309,-0.01432 -5.59954,-0.03228c-0.45743,-0.0044 -1.14058,-0.40034 -1.37235,-0.00594c-0.27173,0.4624 0.41643,1.00477 0.47189,1.53822c0.17399,1.67327 -0.81509,3.48132 -0.1903,5.04329c0.45552,1.13881 2.28883,1.73414 2.1903,2.95671c-0.12462,1.54637 -1.82149,2.51184 -2.73223,3.76777l-1,1c0,0 -1.57395,1.57395 -3.23669,0.26636zM279.95342,200.3952c0.07713,-0.96129 0.77881,-1.66297 0.77881,-1.66297l1,-1c0.42259,-0.07741 1.43577,0.16318 1.26777,-0.23223c-0.27228,-0.64085 -1.5511,-0.3968 -1.8097,-1.04329c-0.16489,-0.41222 -0.24593,-6.07709 -0.1903,-6.95671c0.09439,-1.49257 -0.45408,-3.28736 0.47189,-4.46178c1.89562,-2.4042 5.48972,-2.02542 8.02811,-2.03822c3.93427,-0.01984 8.52578,-0.61152 12.40046,0.03228c4.12317,0.68509 7.33961,3.02062 11.59954,2.96772c9.33333,0 18.66667,0 28,0c2.99502,0 6.00622,-0.08189 9,0c1.31993,0.03611 2.75124,-0.34856 3.95671,0.1903c4.50618,2.01431 3.87789,6.11051 4.51101,9.90924c0.17329,1.03975 0.82671,1.96025 1,3c0.1644,0.98639 -0.1644,2.01361 0,3c0.17329,1.03975 0.83888,1.95829 1,3c0.12477,0.80669 -0.47059,1.68968 -0.15802,2.44375c0.36102,0.87095 1.33333,1.33333 2,2c0.15494,3.22143 0.49472,6.72733 0.1903,9.95671c-0.1509,1.60079 0.40472,3.63082 -0.73223,4.76777c-1.13695,1.13695 -3.16697,0.58133 -4.76777,0.73223c-2.92773,0.27598 -6.05781,0 -9,0c-13.49786,0 -26.49495,-1 -40,-1c-6.99986,0 -14.00018,0.02173 -21,0c-2.6748,-0.0083 -7.44374,0.59179 -9.76777,-1.73223c-1.10462,-1.10462 -1.35503,-2.8437 -1.69995,-4.36731c-0.21854,-0.96532 0.8635,-3.16325 -0.10666,-2.96733c-0.86581,0.17485 -1.54973,1.18102 -2.42562,1.06688c-5.80501,-0.75649 -5.34159,-1.7643 -5.5,-6.5c-0.04414,-1.31969 -0.34856,-2.75124 0.1903,-3.95671c1.68288,-3.76474 6.13503,-4.28697 9.51913,-5.415c0,0 1.25545,-0.41848 2.24399,0.26691z" fill="#ffffff" stroke="none" stroke-width="0.5"/></g></g></svg>