<svg version="1.1" xmlns="http://www.w3.org/2000/svg" xmlns:xlink="http://www.w3.org/1999/xlink" width="86.44297" height="217.63368" viewBox="0,0,86.44297,217.63368"><g transform="translate(-576.0912,-108.85603)"><g data-paper-data="{&quot;isPaintingLayer&quot;:true}" fill-rule="nonzero" stroke-linecap="butt" stroke-linejoin="miter" stroke-miterlimit="10" stroke-dasharray="" stroke-dashoffset="0" style="mix-blend-mode: normal"><path d="M577.86303,300.15084l2.92451,-173.62273l79.9374,-15.53766l-5.84902,213.14139z" fill="#777777" stroke="#474747" stroke-width="3.5"/><path d="M625.29985,209.83006l2.33961,-83.64106l23.3961,-4.67922l-0.5849,89.49008z" fill="#777777" stroke="#646464" stroke-width="3.5"/><path d="M591.69629,208.98104l0.58491,-76.62222l23.3961,-3.50942l-1.1698,80.71655z" fill="#777777" stroke="#646464" stroke-width="3.5"/><path d="M615.16344,220.26397l-2.44109,78.94897l-23.24813,-6.72342l2.28721,-74.2507z" data-paper-data="{&quot;index&quot;:null}" fill="#777777" stroke="#646464" stroke-width="3.5"/><path d="M648.23876,221.75455l-2.44108,87.72251l-23.83303,-7.89323l2.28721,-80.68462z" data-paper-data="{&quot;index&quot;:null}" fill="#777777" stroke="#646464" stroke-width="3.5"/><path d="M578.71779,214.88668c0.86033,-5.16132 1.43486,-10.92824 6.59618,-10.06791c1.26423,0.21073 4.09453,2.90399 7.0031,3.99151c2.68724,1.00477 5.48454,0.37927 6.16108,1.24361c1.58072,2.01953 0.10308,8.724 -2.42081,8.24388c-5.14035,-0.97787 -4.39061,8.3524 -9.55192,7.49207c-5.16132,-0.86033 -8.64795,-5.74184 -7.78762,-10.90316z" fill="#464646" stroke="none" stroke-width="0"/></g></g></svg>