<svg version="1.1" xmlns="http://www.w3.org/2000/svg" xmlns:xlink="http://www.w3.org/1999/xlink" width="50.50051" height="218.52056" viewBox="0,0,50.50051,218.52056"><g transform="translate(-612.00646,-109.41837)"><g data-paper-data="{&quot;isPaintingLayer&quot;:true}" fill-rule="nonzero" stroke-linecap="butt" stroke-linejoin="miter" stroke-miterlimit="10" stroke-dasharray="" stroke-dashoffset="0" style="mix-blend-mode: normal"><path d="M623.36303,300.65084l1.31864,-174.62273l36.04327,-14.03766l-2.63729,212.64139z" fill="#777777" stroke="#474747" stroke-width="3.5"/><path d="M644.75199,209.83006l1.05491,-83.64106l10.54915,-4.67922l-0.26372,89.49008z" fill="#777777" stroke="#646464" stroke-width="3.5"/><path d="M629.60036,208.98104l0.26373,-76.62222l10.54915,-3.50942l-0.52746,80.71655z" fill="#777777" stroke="#646464" stroke-width="3.5"/><path d="M640.18154,220.26397l-1.10067,78.94897l-10.48243,-6.72342l1.03129,-74.2507z" data-paper-data="{&quot;index&quot;:null}" fill="#777777" stroke="#646464" stroke-width="3.5"/><path d="M655.095,221.75455l-1.10067,87.72251l-10.74616,-7.89323l1.03129,-80.68462z" data-paper-data="{&quot;index&quot;:null}" fill="#777777" stroke="#646464" stroke-width="3.5"/><path d="M612.13423,214.44391c0.84279,-4.42793 1.40559,-9.37542 6.46161,-8.63733c1.23844,0.18078 4.011,2.49135 6.86024,3.42435c2.63242,0.862 5.37266,0.32538 6.03539,1.0669c1.54847,1.73256 0.10098,7.48439 -2.37143,7.07249c-5.03548,-0.83892 -4.30104,7.16559 -9.35707,6.4275c-5.05602,-0.73809 -8.47153,-4.92598 -7.62875,-9.35391z" fill="#464646" stroke="none" stroke-width="0"/></g></g></svg>