<svg version="1.1" xmlns="http://www.w3.org/2000/svg" xmlns:xlink="http://www.w3.org/1999/xlink" width="691.6318" height="94.55023" viewBox="0,0,691.6318,94.55023"><g transform="translate(-67.67103,-171.16632)"><g data-paper-data="{&quot;isPaintingLayer&quot;:true}" fill-rule="nonzero" stroke="#ffffff" stroke-linejoin="miter" stroke-miterlimit="10" stroke-dasharray="" stroke-dashoffset="0" style="mix-blend-mode: normal"><path d="M69.5026,182.94145c0,-6.08901 4.93611,-11.02512 11.02512,-11.02512c6.08901,0 11.02511,4.93611 11.02511,11.02512c0,6.08901 -4.9361,11.02511 -11.02511,11.02511c-6.08901,0 -11.02512,-4.9361 -11.02512,-11.02511z" fill-opacity="0.61961" fill="#000000" stroke-width="1.5" stroke-linecap="butt"/><path d="M87.27578,175.57867l-8.11938,13.30195l-4.73814,-5.02931" fill="none" stroke-width="3" stroke-linecap="round"/><path d="M68.42103,225.78507c0,-6.08901 4.93611,-11.02512 11.02512,-11.02512c6.08901,0 11.02511,4.93611 11.02511,11.02512c0,6.08901 -4.9361,11.02511 -11.02511,11.02511c-6.08901,0 -11.02512,-4.9361 -11.02512,-11.02511z" fill-opacity="0.61961" fill="#000000" stroke-width="1.5" stroke-linecap="butt"/><path d="M84.20091,230.43064l-9.7119,-9.7119" fill="none" stroke-width="3" stroke-linecap="round"/><path d="M84.88485,220.44518l-9.98548,9.98548" fill="none" stroke-width="3" stroke-linecap="round"/><path d="M736.50261,253.94145c0,-6.08901 4.93611,-11.02512 11.02512,-11.02512c6.08901,0 11.02511,4.93611 11.02511,11.02512c0,6.08901 -4.9361,11.02511 -11.02511,11.02511c-6.08901,0 -11.02512,-4.9361 -11.02512,-11.02511z" fill-opacity="0.61961" fill="#000000" stroke-width="1.5" stroke-linecap="butt"/><path d="M754.27579,246.57868l-8.11938,13.30195l-4.73814,-5.02931" fill="none" stroke-width="3" stroke-linecap="round"/><path d="M692.42104,246.78508c0,-6.08901 4.93611,-11.02512 11.02512,-11.02512c6.08901,0 11.02511,4.93611 11.02511,11.02512c0,6.08901 -4.9361,11.02511 -11.02511,11.02511c-6.08901,0 -11.02512,-4.9361 -11.02512,-11.02511z" fill-opacity="0.61961" fill="#000000" stroke-width="1.5" stroke-linecap="butt"/><path d="M708.20093,251.43064l-9.7119,-9.7119" fill="none" stroke-width="3" stroke-linecap="round"/><path d="M708.88487,241.44517l-9.98548,9.98548" fill="none" stroke-width="3" stroke-linecap="round"/></g></g></svg>