<svg version="1.1" xmlns="http://www.w3.org/2000/svg" xmlns:xlink="http://www.w3.org/1999/xlink" width="71.0484" height="50.06995" viewBox="0,0,71.0484,50.06995"><g transform="translate(-507.65135,-227.25)"><g data-paper-data="{&quot;isPaintingLayer&quot;:true}" fill-rule="nonzero" stroke-linecap="butt" stroke-linejoin="miter" stroke-miterlimit="10" stroke-dasharray="" stroke-dashoffset="0" style="mix-blend-mode: normal"><path d="M571.48352,243.5c0,8.28427 -12.98374,15 -29,15c-16.01626,0 -29,-6.71573 -29,-15c0,-8.28427 12.98374,-15 29,-15c16.01626,0 29,6.71573 29,15z" fill="#252525" stroke="#848484" stroke-width="2.5"/><path d="M569.64987,245.94769c0.55231,-0.83364 1.38595,-0.28132 1.38595,-0.28132l0.59958,0.39724c0.61844,0.42202 1.23689,0.84404 1.85533,1.26607c1.60149,2.92255 4.26221,5.87938 4.97131,9.23589c0.5229,2.47515 0.02477,5.68533 -0.00742,8.21824c-0.04154,3.26762 0.10274,6.00416 -3.12655,7.84489c-2.06982,1.17982 -4.08364,0.8713 -6.35089,0.8713c-3.33333,0 -6.66667,0 -10,0c-13.77284,0 -28.50104,1.44666 -42.1071,-0.72306c-2.47077,-0.3956 -6.54155,0.27193 -8.27761,-1.94761c-2.36791,-3.02735 0.38442,-3.55974 1.16922,-6.17429c1.53394,-5.11033 2.41857,-10.02444 2.85731,-15.35164c0.17143,-2.08143 0.87916,-3.71812 0.86452,-5.8034c0,0 0,-1 1,-1c1,0 1,1 1,1c-0.01292,2.1613 -0.70466,3.83469 -0.87095,5.96356c-0.25712,3.29179 -0.33431,6.83025 -1.14333,10.04435c-0.32472,1.29006 -1.16692,2.41287 -1.48344,3.70497c-0.33833,1.38117 -0.52341,2.86881 -1.29063,4.06609c-0.29006,0.45265 -0.95676,0.66908 -1.08823,1.19037c-0.09716,0.38526 0.24107,0.78822 0.51719,1.07392c1.43817,1.48813 5.14749,0.95468 7.0609,1.25864c13.49712,2.15235 28.1287,0.6981 41.79215,0.6981c3.33333,0 6.66667,0 10,0c1.86438,0 3.66985,0.34292 5.36431,-0.61103c2.49964,-1.40725 2.08169,-3.63527 2.11329,-6.13053c0.03021,-2.38544 0.53657,-5.45253 0.05004,-7.78143c-0.62846,-3.00824 -3.1321,-5.64569 -4.49483,-8.30293c-0.49307,-0.3144 -0.98614,-0.62879 -1.47922,-0.94319l-0.59958,-0.39724c0,0 -0.83364,-0.55231 -0.28132,-1.38595z" fill="#848484" stroke="none" stroke-width="0.5"/><text transform="translate(521.48352,270.5) scale(0.41333,0.41333)" font-size="40" xml:space="preserve" fill="#ffffff" fill-rule="nonzero" stroke="none" stroke-width="1" stroke-linecap="butt" stroke-linejoin="miter" stroke-miterlimit="10" stroke-dasharray="" stroke-dashoffset="0" font-family="Handwriting" font-weight="normal" text-anchor="start" style="mix-blend-mode: normal"><tspan x="0" dy="0">Coffee</tspan></text><path d="M518.16667,249c0,-1.38071 1.11929,-2.5 2.5,-2.5c1.38071,0 2.5,1.11929 2.5,2.5c0,1.38071 -1.11929,2.5 -2.5,2.5c-1.38071,0 -2.5,-1.11929 -2.5,-2.5z" fill="#5a2d24" stroke="none" stroke-width="0.5"/><path d="M534.23607,253.45137c-1.11803,2.23607 -3.3541,1.11803 -3.3541,1.11803l0.20261,-0.08181c-1.91035,-0.19289 -3.83118,-0.32327 -5.75124,-0.32093c0,0 -2.5,0 -2.5,-2.5c0,-2.5 2.5,-2.5 2.5,-2.5c0.55181,0.00061 1.10367,0.0107 1.65536,0.02901c0.13574,-0.18898 0.24354,-0.29678 0.24354,-0.29678l0.98307,-0.80163c0.88889,-0.44444 1.77778,-0.88889 2.66667,-1.33333c0,0 2.23607,-1.11803 3.3541,1.11803c0.65738,1.31476 0.15519,2.24299 -0.37024,2.7847c0.52543,0.54171 1.02762,1.46994 0.37024,2.7847z" fill="#5a2d24" stroke="none" stroke-width="0.5"/><path d="M534.83333,252.66667c0,-1.38071 1.11929,-2.5 2.5,-2.5c1.38071,0 2.5,1.11929 2.5,2.5c0,1.38071 -1.11929,2.5 -2.5,2.5c-1.38071,0 -2.5,-1.11929 -2.5,-2.5z" fill="#5a2d24" stroke="none" stroke-width="0.5"/><path d="M543.5,253c0,-0.05799 0.00197,-0.11552 0.00586,-0.17253c-0.05701,0.00389 -0.11454,0.00586 -0.17253,0.00586c-1.38071,0 -2.5,-1.11929 -2.5,-2.5c0,-1.38071 1.11929,-2.5 2.5,-2.5c0.49019,0 0.94743,0.14108 1.33333,0.38485c0.3859,-0.24377 0.84314,-0.38485 1.33333,-0.38485c1.38071,0 2.5,1.11929 2.5,2.5c0,0.49019 -0.14108,0.94743 -0.38485,1.33333c0.24377,0.3859 0.38485,0.84314 0.38485,1.33333c0,1.38071 -1.11929,2.5 -2.5,2.5c-1.38071,0 -2.5,-1.11929 -2.5,-2.5z" fill="#5a2d24" stroke="none" stroke-width="0.5"/><path d="M549.5,249c0,-1.38071 1.11929,-2.5 2.5,-2.5c1.38071,0 2.5,1.11929 2.5,2.5c0,1.38071 -1.11929,2.5 -2.5,2.5c-1.38071,0 -2.5,-1.11929 -2.5,-2.5z" fill="#5a2d24" stroke="none" stroke-width="0.5"/><path d="M558.16667,247.66667c0,-1.38071 1.11929,-2.5 2.5,-2.5c1.38071,0 2.5,1.11929 2.5,2.5c0,1.38071 -1.11929,2.5 -2.5,2.5c-0.61252,0 -1.1736,-0.22028 -1.60832,-0.58595c0.27853,0.40317 0.44166,0.89218 0.44166,1.41929c0,1.38071 -1.11929,2.5 -2.5,2.5c-1.38071,0 -2.5,-1.11929 -2.5,-2.5c0,-1.38071 1.11929,-2.5 2.5,-2.5c0.61252,0 1.1736,0.22028 1.60832,0.58595c-0.27853,-0.40317 -0.44166,-0.89218 -0.44166,-1.41929z" fill="#5a2d24" stroke="none" stroke-width="0.5"/><path d="M537.83333,245.66667c0,-1.38071 1.11929,-2.5 2.5,-2.5c1.38071,0 2.5,1.11929 2.5,2.5c0,1.38071 -1.11929,2.5 -2.5,2.5c-1.38071,0 -2.5,-1.11929 -2.5,-2.5z" fill="#5a2d24" stroke="none" stroke-width="0.5"/></g></g></svg>