<svg version="1.1" xmlns="http://www.w3.org/2000/svg" xmlns:xlink="http://www.w3.org/1999/xlink" width="22.34703" height="11.02904" viewBox="0,0,22.34703,11.02904"><g transform="translate(-309.21261,-185.16592)"><g data-paper-data="{&quot;isPaintingLayer&quot;:true}" fill="#d10808" fill-rule="nonzero" stroke="#9c0000" stroke-width="2" stroke-linecap="butt" stroke-linejoin="miter" stroke-miterlimit="10" stroke-dasharray="" stroke-dashoffset="0" style="mix-blend-mode: normal"><path d="M323.36229,189.47546c1.5705,-0.37051 3.10914,-0.78288 4.67848,-1.18276c0.79905,-0.20361 1.6045,-0.4714 2.36378,-0.93243c0.12935,-0.07854 0.2662,-0.54817 0.36391,-0.42177c0.10206,0.13202 -0.12777,0.38263 -0.19168,0.57338c-0.0101,1.5858 -0.01312,3.18081 -0.01307,4.76551c0.00001,0.27787 0.12597,0.61259 -0.002,0.83554c-0.30948,0.53918 -2.01252,1.63827 -2.38648,1.60733c-1.34408,-0.1112 -6.03315,0.47562 -6.92387,0.4747c-1.81438,-0.00188 -9.22894,-1.53233 -11.03876,-2.24139c-1.22607,-2.47828 -0.58541,-3.87648 0.39162,-6.48185c5.01763,1.99349 7.93981,4.14048 12.75807,3.00376z" data-paper-data="{&quot;noHover&quot;:false,&quot;origItem&quot;:[&quot;Path&quot;,{&quot;applyMatrix&quot;:true,&quot;segments&quot;:[[[620.92781,356.05091],[17.16974,9.87651],[-4.10888,7.37014]],[[621.54144,377.03141],[-5.2198,-7.69669],[7.67236,2.66654]],[[643.9124,380.01704],[-7.89102,-0.70322],[7.69024,0.68533]],[[666.9124,383.01704],[-7.68385,-0.58307],[5.62751,0.42703]],[[683.9124,383.01704],[-5.62512,-0.50129],[5.73519,0.5111]],[[700.99269,385.02433],[-5.69339,-0.75568],[1.58407,0.21025]],[[707.52647,383.96503],[-1.30468,1.49108],[0.53947,-0.61654]],[[707.52433,381.50731],[0.00311,0.81923],[-0.01775,-4.67199]],[[707.52433,367.49269],[-0.02522,4.67202],[0.26857,-0.54199]],[[708.33006,365.86671],[0.43364,0.42171],[-0.41516,-0.40374]],[[706.99269,366.97567],[0.54692,-0.19038],[-3.2104,1.11754]],[[696.99269,368.97567],[3.3817,-0.3459],[-6.6417,0.67935]],[[676.99269,370.97567],[6.64693,-0.59244],[-20.39258,1.81757]]],&quot;closed&quot;:true}]}"/></g></g></svg>