<svg version="1.1" xmlns="http://www.w3.org/2000/svg" xmlns:xlink="http://www.w3.org/1999/xlink" width="75.43168" height="217.25853" viewBox="0,0,75.43168,217.25853"><g transform="translate(-587.09506,-109.84009)"><g data-paper-data="{&quot;isPaintingLayer&quot;:true}" fill-rule="nonzero" stroke-linecap="butt" stroke-linejoin="miter" stroke-miterlimit="10" stroke-dasharray="" stroke-dashoffset="0" style="mix-blend-mode: normal"><path d="M588.86303,300.65084l2.53628,-174.62273l69.32563,-14.03766l-5.07256,212.64139z" fill="#777777" stroke="#474747" stroke-width="3.5"/><path d="M630.00256,209.83006l2.02902,-83.64106l20.29024,-4.67922l-0.50725,89.49008z" fill="#777777" stroke="#646464" stroke-width="3.5"/><path d="M600.85991,208.98104l0.50726,-76.62222l20.29024,-3.50942l-1.01451,80.71655z" fill="#777777" stroke="#646464" stroke-width="3.5"/><path d="M621.21177,220.26397l-2.11703,78.94897l-20.16192,-6.72342l1.98358,-74.2507z" data-paper-data="{&quot;index&quot;:null}" fill="#777777" stroke="#646464" stroke-width="3.5"/><path d="M649.89631,221.75455l-2.11702,87.72251l-20.66917,-7.89323l1.98358,-80.68462z" data-paper-data="{&quot;index&quot;:null}" fill="#777777" stroke="#646464" stroke-width="3.5"/><path d="M587.61835,213.44391c0.73809,-4.42793 1.23098,-9.37542 5.65891,-8.63733c1.08459,0.18079 3.51273,2.49135 6.00802,3.42435c2.3054,0.862 4.70523,0.32538 5.28563,1.0669c1.35611,1.73257 0.08843,7.48439 -2.07684,7.07248c-4.40994,-0.83893 -3.76674,7.16559 -8.19467,6.4275c-4.42793,-0.73809 -7.41914,-4.92597 -6.68106,-9.35391z" fill="#464646" stroke="none" stroke-width="0"/></g></g></svg>